<svg width="1197" height="1000" viewBox="0 0 1197 1000" fill="none" xmlns="http://www.w3.org/2000/svg">
<g clip-path="url(#clip0_1595_92)">
<path d="M597.344 441.438C618.596 441.438 639.046 437.542 658.694 429.75C855.089 351.938 1001.71 293.823 1098.55 255.406C1107.53 251.844 1113.44 248.698 1116.27 245.969C1127.77 234.906 1127.52 215.219 1117.21 204.156C1114.48 201.219 1107.06 197.24 1094.96 192.219C890.124 107.469 744.692 47.3229 658.663 11.7813C639.702 3.94793 619.263 0.0312805 597.344 0.0312805C575.425 0.0312805 554.995 3.94793 536.056 11.7813C450.005 47.3229 304.563 107.458 99.7292 192.188C87.6237 197.208 80.2063 201.188 77.4768 204.125C67.1633 215.188 66.9132 234.875 78.4144 245.938C81.2481 248.667 87.1549 251.813 96.135 255.375C192.978 293.792 339.588 351.917 535.962 429.75C555.631 437.542 576.091 441.438 597.344 441.438Z" stroke="#FEDA80" stroke-width="2"/>
<path d="M637.16 970.313C637.163 975.141 638.343 979.897 640.598 984.167C642.852 988.438 646.114 992.095 650.099 994.821C654.085 997.548 658.676 999.262 663.473 999.816C668.271 1000.37 673.131 999.747 677.633 998L1176.53 804.375C1182.12 802.207 1186.92 798.399 1190.31 793.452C1193.69 788.506 1195.5 782.651 1195.5 776.656V333C1195.5 328.171 1194.32 323.416 1192.06 319.145C1189.81 314.875 1186.55 311.218 1182.56 308.491C1178.57 305.765 1173.98 304.05 1169.19 303.496C1164.39 302.942 1159.53 303.566 1155.03 305.313L656.131 498.906C650.542 501.075 645.739 504.882 642.354 509.829C638.968 514.776 637.158 520.631 637.16 526.625V970.313Z" stroke="#8CDFFF" stroke-width="2"/>
<path d="M9.65725 315.219C3.21907 321.135 0.0104244 327.781 0.0312599 335.156C0.0520955 532.865 0.041671 668.177 0 741.094C0 751.781 0.65631 758.677 1.96895 761.781C8.62589 777.781 29.5031 785.563 44.6922 778.25C94.0307 754.563 191.426 707.938 336.879 638.375C348.088 633.021 359.923 627.25 372.383 621.062" stroke="#FC95B0" stroke-width="2"/>
<path d="M372.383 621.062C419.2 598.646 466.538 575.802 514.397 552.531C522.315 548.677 527.503 545.396 529.962 542.688C540.15 531.438 539.088 513.062 529.43 502.5C526.492 499.292 519.231 495.396 507.647 490.813C399.99 448.25 248.922 388.396 54.4432 311.25C43.9004 307.083 36.1392 305.083 31.1595 305.25C23.0336 305.521 15.8662 308.844 9.65723 315.219" stroke="#DD90A4" stroke-width="2"/>
<path d="M372.383 621.063L9.65723 315.219" stroke="#D92654" stroke-width="2"/>
<path d="M597.344 0.0312805C619.263 0.0312805 639.702 3.94793 658.663 11.7813C744.693 47.3229 890.124 107.469 1094.96 192.219C1107.06 197.24 1114.48 201.219 1117.21 204.156C1127.52 215.219 1127.77 234.906 1116.27 245.969C1113.44 248.698 1107.53 251.844 1098.55 255.406C1001.71 293.823 855.089 351.938 658.694 429.75C639.046 437.542 618.596 441.438 597.344 441.438C576.092 441.438 555.631 437.542 535.962 429.75C339.588 351.917 192.979 293.792 96.1352 255.375C87.1551 251.813 81.2482 248.667 78.4146 245.938C66.9134 234.875 67.1634 215.188 77.477 204.125C80.2065 201.188 87.6239 197.208 99.7294 192.188C304.563 107.458 450.006 47.3229 536.056 11.7813C554.996 3.94793 575.425 0.0312805 597.344 0.0312805Z" fill="#FCB400"/>
<path d="M637.16 970.313V526.625C637.158 520.631 638.968 514.776 642.354 509.829C645.739 504.882 650.542 501.075 656.131 498.906L1155.03 305.313C1159.53 303.566 1164.39 302.942 1169.19 303.496C1173.98 304.05 1178.57 305.765 1182.56 308.491C1186.55 311.218 1189.81 314.875 1192.06 319.145C1194.32 323.416 1195.5 328.171 1195.5 333V776.656C1195.5 782.651 1193.69 788.506 1190.31 793.452C1186.92 798.399 1182.12 802.207 1176.53 804.375L677.633 998C673.131 999.747 668.271 1000.37 663.473 999.816C658.676 999.262 654.085 997.548 650.099 994.821C646.114 992.095 642.852 988.438 640.598 984.167C638.343 979.897 637.163 975.141 637.16 970.313Z" fill="#18BFFF"/>
<path d="M372.383 621.062L9.65717 315.219C15.8661 308.844 23.0336 305.521 31.1594 305.25C36.1391 305.083 43.9003 307.083 54.4431 311.25C248.922 388.396 399.99 448.25 507.647 490.813C519.231 495.396 526.492 499.292 529.43 502.5C539.087 513.062 540.15 531.438 529.962 542.688C527.503 545.396 522.315 548.677 514.397 552.531C466.538 575.802 419.2 598.646 372.383 621.062Z" fill="#BA2048"/>
<path d="M9.65725 315.219L372.383 621.062C359.923 627.25 348.088 633.021 336.879 638.375C191.426 707.938 94.0307 754.563 44.6922 778.25C29.5031 785.563 8.62589 777.781 1.96895 761.781C0.65631 758.677 0 751.781 0 741.094C0.041671 668.177 0.0520955 532.865 0.0312599 335.156C0.0104244 327.781 3.21907 321.135 9.65725 315.219Z" fill="#F82B60"/>
</g>
<defs>
<clipPath id="clip0_1595_92">
<rect width="1197" height="1000" fill="white"/>
</clipPath>
</defs>
</svg>
