<svg width="1001" height="1000" viewBox="0 0 1001 1000" fill="none" xmlns="http://www.w3.org/2000/svg">
<g clip-path="url(#clip0_1595_11)">
<path d="M643.072 327.676C643.072 290.183 628.178 254.226 601.667 227.714C575.155 201.203 539.198 186.309 501.705 186.309C464.212 186.309 428.255 201.203 401.743 227.714C375.232 254.226 360.338 290.183 360.338 327.676C360.338 365.169 375.232 401.126 401.743 427.638C428.255 454.149 464.212 469.043 501.705 469.043C539.198 469.043 575.155 454.149 601.667 427.638C628.178 401.126 643.072 365.169 643.072 327.676Z" stroke="#F6B3B3" stroke-width="2"/>
<path d="M459.459 645.684C459.459 608.191 444.565 572.233 418.053 545.722C391.542 519.21 355.584 504.316 318.092 504.316C280.599 504.316 244.641 519.21 218.13 545.722C191.618 572.233 176.724 608.191 176.724 645.684C176.724 683.177 191.618 719.134 218.13 745.645C244.641 772.157 280.599 787.051 318.092 787.051C355.584 787.051 391.542 772.157 418.053 745.645C444.565 719.134 459.459 683.177 459.459 645.684Z" stroke="#F6B3B3" stroke-width="2"/>
<path d="M826.705 645.703C826.705 608.21 811.811 572.253 785.299 545.741C758.788 519.23 722.831 504.336 685.338 504.336C647.845 504.336 611.887 519.23 585.376 545.741C558.864 572.253 543.97 608.21 543.97 645.703C543.97 683.196 558.864 719.153 585.376 745.665C611.887 772.176 647.845 787.07 685.338 787.07C722.831 787.07 758.788 772.176 785.299 745.665C811.811 719.153 826.705 683.196 826.705 645.703Z" stroke="#F6B3B3" stroke-width="2"/>
<path d="M1000.71 0V1000H0.70874V0H1000.71ZM643.072 327.676C643.072 290.183 628.178 254.226 601.667 227.714C575.155 201.203 539.198 186.309 501.705 186.309C464.212 186.309 428.255 201.203 401.743 227.714C375.232 254.226 360.338 290.183 360.338 327.676C360.338 365.169 375.232 401.126 401.743 427.637C428.255 454.149 464.212 469.043 501.705 469.043C539.198 469.043 575.155 454.149 601.667 427.637C628.178 401.126 643.072 365.169 643.072 327.676ZM459.459 645.684C459.459 608.191 444.565 572.233 418.053 545.722C391.542 519.21 355.584 504.316 318.092 504.316C280.599 504.316 244.641 519.21 218.13 545.722C191.618 572.233 176.724 608.191 176.724 645.684C176.724 683.176 191.618 719.134 218.13 745.645C244.641 772.157 280.599 787.051 318.092 787.051C355.584 787.051 391.542 772.157 418.053 745.645C444.565 719.134 459.459 683.176 459.459 645.684ZM826.705 645.703C826.705 608.21 811.811 572.253 785.299 545.741C758.788 519.23 722.831 504.336 685.338 504.336C647.845 504.336 611.887 519.23 585.376 545.741C558.864 572.253 543.97 608.21 543.97 645.703C543.97 683.196 558.864 719.153 585.376 745.665C611.887 772.176 647.845 787.07 685.338 787.07C722.831 787.07 758.788 772.176 785.299 745.665C811.811 719.153 826.705 683.196 826.705 645.703Z" fill="#FCFCFC"/>
<path d="M501.705 469.043C579.78 469.043 643.072 405.751 643.072 327.676C643.072 249.601 579.78 186.309 501.705 186.309C423.63 186.309 360.338 249.601 360.338 327.676C360.338 405.751 423.63 469.043 501.705 469.043Z" fill="#F06A6A"/>
<path d="M318.092 787.051C396.167 787.051 459.459 723.759 459.459 645.684C459.459 567.609 396.167 504.316 318.092 504.316C240.017 504.316 176.724 567.609 176.724 645.684C176.724 723.759 240.017 787.051 318.092 787.051Z" fill="#F06A6A"/>
<path d="M685.338 787.07C763.413 787.07 826.705 723.778 826.705 645.703C826.705 567.628 763.413 504.336 685.338 504.336C607.263 504.336 543.97 567.628 543.97 645.703C543.97 723.778 607.263 787.07 685.338 787.07Z" fill="#F06A6A"/>
</g>
<defs>
<clipPath id="clip0_1595_11">
<rect width="1000" height="1000" fill="white" transform="translate(0.70874)"/>
</clipPath>
</defs>
</svg>
