<svg width="1001" height="1001" viewBox="0 0 1001 1001" fill="none" xmlns="http://www.w3.org/2000/svg">
<g clip-path="url(#clip0_1595_74)">
<path d="M762.935 469.805L763.424 468.965C763.564 468.708 763.76 468.486 763.996 468.314C764.233 468.141 764.504 468.023 764.791 467.968C787.434 463.51 808.638 455.018 828.404 442.493C838.144 436.315 844.394 430.463 847.154 424.936C851.178 416.855 851.809 408.429 849.049 399.657C824.674 322.379 779.687 260.39 714.088 213.69C688.658 195.586 662.76 181.614 636.392 171.773C611.275 162.389 587.519 155.833 565.123 152.105C530.513 146.344 494.615 145.758 457.427 150.346C341.705 164.618 237.506 236.408 183.873 340.027C141.978 420.948 133.658 513.58 159.283 599.447C184.322 683.417 238.99 753.604 313.424 799.783C421.47 866.843 558.931 871.046 671.041 813.117C754.01 770.223 817.955 696.79 847.056 608.068C851.529 594.383 853.092 582.242 843.326 570.922C839.797 566.829 835.273 562.945 829.752 559.27C809.517 545.741 787.662 536.858 764.185 532.622C763.82 532.555 763.495 532.348 763.28 532.045C763.065 531.742 762.976 531.367 763.033 530.999C766.392 510.406 766.36 490.008 762.935 469.805Z" stroke="#80B5FF" stroke-width="2"/>
<path d="M762.935 469.805C763.013 467.238 762.519 463.621 761.451 458.955C759.485 450.339 756.933 442.017 753.795 433.988C753.502 433.221 752.956 432.577 752.246 432.161C751.536 431.745 750.705 431.583 749.888 431.701C738.508 433.356 728.717 434.092 720.513 433.91C713.261 433.741 702.206 432.209 687.349 429.316C677.31 427.347 665.39 422.004 651.588 413.284C647.733 410.847 639.179 403.919 625.924 392.501C614.674 382.824 602.506 373.029 592.213 367.34C582.968 362.23 572.922 358.131 562.076 355.042C553.547 352.605 542.805 351.165 529.849 350.721C504.029 349.842 478.189 349.275 455.572 355.57C409.146 368.513 374.791 403.606 364.498 451.173C363.209 457.175 361.705 465.387 361.685 472.405C361.672 498.434 361.659 511.781 361.646 512.445C361.177 527.304 362.206 540.11 364.732 550.863C374.732 593.483 402.408 625.742 443.853 641.5C454.257 645.462 464.114 647.945 473.424 648.949C498.424 651.647 521.978 652.077 548.052 648.734C565.787 646.453 583.834 639.219 602.193 627.033C616.646 617.453 628.013 606.563 642.213 594.754C661.939 578.371 684.569 569.697 710.103 568.732C710.765 568.706 711.427 568.608 712.076 568.439C724.478 565.135 739.088 568.634 751.217 569.299C751.695 569.321 752.168 569.194 752.57 568.935C752.973 568.675 753.285 568.297 753.463 567.852C757.226 558.312 760.207 548.406 762.408 538.135C762.681 536.832 762.773 535.268 762.681 533.443C762.656 532.76 762.365 532.113 761.87 531.639C761.374 531.165 760.713 530.901 760.025 530.901C754.075 530.914 748.795 530.354 744.185 529.22C743.289 528.999 742.379 528.875 741.47 528.849C732.174 528.575 722.532 528.542 712.545 528.751C706.607 528.868 702.955 530.315 697.33 530.589C694.504 530.732 690.696 531.266 685.904 532.192C663.814 536.454 642.74 545.154 624.927 558.683C615.279 566.034 610.175 569.964 609.615 570.472C604.758 574.943 597.773 580.958 588.658 588.518C577.265 597.967 564.875 604.634 551.49 608.518C544.146 610.656 534.641 611.672 522.974 611.568C515.292 611.49 502.421 611.425 484.361 611.372C483.154 611.359 481.948 611.209 480.767 610.923C475.103 609.515 469.615 609.241 463.931 607.404C433.931 597.693 414.302 578.188 405.045 548.888C402.922 542.15 401.796 534.557 401.666 526.111C401.353 506.548 401.282 489.695 401.451 475.553C401.92 434.399 430.435 400.322 470.513 392.13C474.172 391.387 477.896 390.651 481.685 389.921C482.335 389.791 482.989 389.725 483.638 389.725C494.211 389.66 507.616 389.575 523.853 389.471C535.364 389.393 544.765 390.403 552.056 392.501C564.973 396.216 576.64 402.44 587.056 411.172C597.955 420.309 608.248 428.892 617.935 436.921C639.667 454.96 664.244 465.915 691.666 469.786C707.733 472.041 723.879 472.888 740.103 472.327C742.981 472.236 746.789 471.845 751.529 471.154C755.305 470.607 759.107 470.157 762.935 469.805Z" stroke="#05AAF7" stroke-width="2"/>
<path d="M183.228 500.383C183.169 627.834 261.119 742.03 377.837 790.575C435.012 814.362 494.192 821.517 555.376 812.042C604.53 804.417 649.172 786.6 689.302 758.59C747.857 717.703 788.56 663.156 811.412 594.95C811.59 594.421 811.591 593.849 811.415 593.319C811.239 592.79 810.895 592.333 810.435 592.017C793.404 580.482 774.543 572.91 753.853 569.299C753.438 569.228 753.012 569.297 752.64 569.495C752.269 569.693 751.974 570.009 751.802 570.394C747.87 579.153 743.078 588.42 737.427 598.195C725.969 617.968 714.647 637.088 703.462 655.557C674.693 703.066 627.857 734.777 572.974 744.142C562.375 745.941 548 746.768 529.849 746.625C509.576 746.468 489.283 746.449 468.97 746.566C413.169 746.879 359.908 721.522 324.224 679.448C317.401 671.393 309.328 659.207 300.005 642.888C289.419 624.341 280.552 609.254 273.404 597.628C254.576 567.064 245.168 534.662 245.181 500.422C245.207 466.169 254.647 433.767 273.501 403.215C280.676 391.602 289.569 376.529 300.181 357.994C309.517 341.689 317.603 329.515 324.439 321.474C360.162 279.439 413.462 254.141 469.263 254.532C489.576 254.662 509.869 254.662 530.142 254.532C548.293 254.414 562.668 255.262 573.267 257.073C628.13 266.497 674.927 298.267 703.638 345.814C714.81 364.296 726.112 383.43 737.544 403.215C743.182 412.991 747.961 422.258 751.88 431.017C752.049 431.405 752.342 431.725 752.714 431.927C753.086 432.129 753.514 432.201 753.931 432.131C774.621 428.534 793.488 420.98 810.533 409.472C810.996 409.159 811.344 408.703 811.524 408.173C811.704 407.644 811.705 407.07 811.529 406.539C788.755 338.307 748.111 283.714 689.595 242.762C649.504 214.7 604.888 196.831 555.748 189.154C494.563 179.6 435.37 186.684 378.169 210.406C261.392 258.813 183.306 372.912 183.228 500.383Z" stroke="#80B5FF" stroke-width="2"/>
<path d="M1000.71 0V1001H0.708984V0H1000.71ZM762.936 469.805L763.424 468.965C763.565 468.708 763.76 468.486 763.996 468.314C764.233 468.141 764.504 468.023 764.791 467.968C787.434 463.51 808.639 455.018 828.404 442.493C838.144 436.315 844.394 430.463 847.154 424.936C851.178 416.855 851.809 408.429 849.049 399.657C824.674 322.379 779.687 260.39 714.088 213.69C688.658 195.586 662.76 181.614 636.393 171.773C611.275 162.389 587.519 155.833 565.123 152.105C530.514 146.344 494.615 145.758 457.428 150.346C341.705 164.618 237.506 236.408 183.873 340.027C141.979 420.948 133.658 513.579 159.283 599.446C184.322 683.417 238.99 753.604 313.424 799.783C421.471 866.843 558.932 871.046 671.041 813.117C754.01 770.223 817.955 696.79 847.057 608.068C851.529 594.383 853.092 582.242 843.326 570.922C839.798 566.829 835.273 562.945 829.752 559.27C809.518 545.741 787.662 536.858 764.186 532.622C763.82 532.555 763.495 532.348 763.28 532.045C763.065 531.742 762.976 531.367 763.033 530.999C766.393 510.406 766.36 490.008 762.936 469.805Z" fill="white"/>
<path d="M762.935 469.805C763.013 467.238 762.519 463.621 761.451 458.955C759.485 450.339 756.933 442.017 753.795 433.988C753.502 433.221 752.956 432.577 752.246 432.161C751.536 431.745 750.705 431.583 749.888 431.701C738.508 433.356 728.717 434.093 720.513 433.91C713.261 433.741 702.206 432.209 687.349 429.316C677.31 427.348 665.39 422.004 651.588 413.284C647.733 410.847 639.179 403.919 625.924 392.502C614.674 382.824 602.506 373.029 592.213 367.34C582.968 362.23 572.922 358.131 562.076 355.042C553.547 352.605 542.805 351.165 529.849 350.722C504.029 349.842 478.189 349.275 455.572 355.57C409.146 368.513 374.791 403.606 364.498 451.173C363.209 457.176 361.705 465.387 361.685 472.406C361.672 498.434 361.659 511.781 361.646 512.446C361.177 527.304 362.206 540.11 364.732 550.863C374.732 593.484 402.408 625.742 443.853 641.5C454.257 645.463 464.114 647.946 473.424 648.949C498.424 651.647 521.978 652.077 548.052 648.734C565.787 646.453 583.834 639.219 602.193 627.033C616.646 617.453 628.013 606.563 642.213 594.754C661.939 578.371 684.569 569.697 710.103 568.732C710.765 568.706 711.427 568.608 712.076 568.439C724.478 565.135 739.088 568.635 751.217 569.299C751.695 569.321 752.168 569.194 752.57 568.935C752.973 568.676 753.285 568.297 753.463 567.853C757.226 558.312 760.207 548.406 762.408 538.135C762.681 536.832 762.773 535.268 762.681 533.443C762.656 532.76 762.365 532.113 761.87 531.639C761.374 531.165 760.713 530.901 760.025 530.902C754.075 530.915 748.795 530.354 744.185 529.22C743.289 528.999 742.379 528.875 741.47 528.849C732.174 528.575 722.532 528.542 712.545 528.751C706.607 528.868 702.955 530.315 697.33 530.589C694.504 530.732 690.696 531.266 685.904 532.192C663.814 536.454 642.74 545.154 624.927 558.683C615.279 566.034 610.175 569.964 609.615 570.472C604.758 574.943 597.773 580.958 588.658 588.518C577.265 597.967 564.875 604.634 551.49 608.518C544.146 610.656 534.641 611.672 522.974 611.568C515.292 611.49 502.421 611.425 484.361 611.373C483.154 611.36 481.948 611.209 480.767 610.923C475.103 609.515 469.615 609.242 463.931 607.404C433.931 597.694 414.302 578.188 405.045 548.888C402.922 542.15 401.796 534.558 401.666 526.112C401.353 506.548 401.282 489.695 401.451 475.553C401.92 434.399 430.435 400.322 470.513 392.13C474.172 391.387 477.896 390.651 481.685 389.921C482.335 389.791 482.989 389.725 483.638 389.725C494.211 389.66 507.616 389.575 523.853 389.471C535.364 389.393 544.765 390.403 552.056 392.502C564.973 396.216 576.64 402.44 587.056 411.173C597.955 420.309 608.248 428.892 617.935 436.921C639.667 454.96 664.244 465.915 691.666 469.786C707.733 472.041 723.879 472.888 740.103 472.327C742.981 472.236 746.79 471.845 751.529 471.154C755.305 470.607 759.107 470.157 762.935 469.805C766.36 490.008 766.392 510.406 763.033 530.999C762.976 531.367 763.065 531.742 763.28 532.045C763.495 532.348 763.82 532.555 764.185 532.622C787.662 536.858 809.517 545.741 829.752 559.27C835.273 562.945 839.797 566.829 843.326 570.922C853.092 582.242 851.529 594.383 847.056 608.068C817.955 696.79 754.01 770.223 671.041 813.117C558.931 871.046 421.47 866.843 313.424 799.783C238.99 753.604 184.322 683.417 159.283 599.447C133.658 513.58 141.978 420.948 183.873 340.027C237.506 236.408 341.705 164.618 457.427 150.346C494.615 145.758 530.513 146.344 565.123 152.105C587.519 155.833 611.275 162.389 636.392 171.773C662.76 181.614 688.658 195.586 714.088 213.69C779.687 260.39 824.674 322.379 849.049 399.657C851.809 408.429 851.178 416.855 847.154 424.936C844.394 430.463 838.144 436.315 828.404 442.493C808.638 455.018 787.434 463.51 764.791 467.968C764.504 468.023 764.233 468.141 763.996 468.314C763.76 468.486 763.564 468.708 763.424 468.965L762.935 469.805ZM183.228 500.383C183.17 627.834 261.119 742.03 377.838 790.575C435.012 814.362 494.192 821.517 555.377 812.042C604.53 804.417 649.172 786.6 689.303 758.59C747.857 717.703 788.56 663.156 811.412 594.95C811.59 594.421 811.592 593.849 811.415 593.32C811.239 592.79 810.895 592.333 810.435 592.017C793.404 580.482 774.543 572.91 753.853 569.299C753.438 569.228 753.012 569.297 752.64 569.495C752.269 569.693 751.974 570.01 751.803 570.394C747.87 579.153 743.079 588.42 737.428 598.195C725.969 617.968 714.648 637.088 703.463 655.557C674.693 703.066 627.857 734.777 572.974 744.142C562.375 745.941 548 746.768 529.849 746.625C509.576 746.468 489.283 746.449 468.97 746.566C413.17 746.879 359.908 721.522 324.224 679.448C317.401 671.393 309.329 659.207 300.006 642.888C289.42 624.341 280.552 609.255 273.404 597.628C254.576 567.064 245.168 534.662 245.181 500.422C245.207 466.169 254.648 433.767 273.502 403.215C280.676 391.602 289.569 376.529 300.181 357.994C309.517 341.689 317.603 329.515 324.439 321.474C360.162 279.439 413.463 254.141 469.263 254.532C489.576 254.662 509.869 254.662 530.142 254.532C548.293 254.414 562.668 255.262 573.267 257.073C628.131 266.497 674.927 298.267 703.638 345.814C714.81 364.296 726.112 383.43 737.545 403.215C743.183 412.991 747.961 422.258 751.881 431.017C752.049 431.405 752.343 431.725 752.714 431.927C753.086 432.129 753.514 432.201 753.931 432.131C774.622 428.534 793.489 420.981 810.533 409.472C810.996 409.159 811.344 408.703 811.524 408.173C811.704 407.644 811.706 407.07 811.529 406.539C788.756 338.307 748.111 283.714 689.595 242.762C649.504 214.7 604.888 196.831 555.748 189.154C494.563 179.6 435.37 186.684 378.17 210.406C261.392 258.813 183.306 372.912 183.228 500.383Z" fill="#006BFF"/>
<path d="M245.182 500.422C245.169 534.662 254.576 567.064 273.404 597.628C280.553 609.254 289.42 624.341 300.006 642.888C309.329 659.207 317.402 671.393 324.225 679.448C359.908 721.522 413.17 746.879 468.971 746.566C489.283 746.449 509.576 746.468 529.85 746.625C548.001 746.768 562.376 745.941 572.975 744.142C627.857 734.777 674.693 703.066 703.463 655.557C714.648 637.088 725.969 617.968 737.428 598.195C743.079 588.42 747.87 579.153 751.803 570.394C751.975 570.009 752.269 569.693 752.641 569.495C753.012 569.297 753.439 569.228 753.853 569.299C774.544 572.91 793.404 580.482 810.436 592.017C810.895 592.333 811.239 592.79 811.416 593.319C811.592 593.849 811.591 594.421 811.412 594.95C788.561 663.156 747.857 717.703 689.303 758.59C649.173 786.6 604.531 804.417 555.377 812.042C494.192 821.517 435.012 814.362 377.838 790.575C261.119 742.03 183.17 627.834 183.229 500.383C183.307 372.912 261.393 258.813 378.17 210.406C435.37 186.684 494.563 179.6 555.748 189.154C604.889 196.831 649.505 214.7 689.596 242.762C748.111 283.714 788.756 338.307 811.529 406.539C811.706 407.07 811.704 407.644 811.524 408.173C811.344 408.703 810.996 409.159 810.533 409.472C793.489 420.98 774.622 428.534 753.932 432.131C753.515 432.201 753.086 432.129 752.715 431.927C752.343 431.725 752.049 431.405 751.881 431.017C747.962 422.258 743.183 412.991 737.545 403.215C726.113 383.43 714.811 364.296 703.639 345.814C674.928 298.267 628.131 266.497 573.268 257.073C562.669 255.262 548.294 254.414 530.143 254.532C509.869 254.662 489.576 254.662 469.264 254.532C413.463 254.141 360.162 279.439 324.439 321.474C317.604 329.515 309.518 341.689 300.182 357.994C289.57 376.529 280.676 391.602 273.502 403.215C254.648 433.767 245.208 466.169 245.182 500.422Z" fill="white"/>
<path d="M762.936 469.805C759.108 470.157 755.306 470.607 751.53 471.154C746.79 471.845 742.981 472.236 740.104 472.327C723.88 472.888 707.734 472.041 691.666 469.786C664.244 465.915 639.668 454.96 617.936 436.921C608.248 428.892 597.955 420.309 587.057 411.172C576.64 402.44 564.974 396.216 552.057 392.501C544.765 390.403 535.364 389.393 523.854 389.471C507.617 389.575 494.212 389.66 483.639 389.725C482.989 389.725 482.335 389.791 481.686 389.921C477.897 390.651 474.173 391.387 470.514 392.13C430.436 400.322 401.92 434.399 401.451 475.553C401.282 489.695 401.354 506.548 401.666 526.111C401.796 534.557 402.923 542.15 405.045 548.888C414.303 578.188 433.932 597.693 463.932 607.404C469.615 609.241 475.104 609.515 480.768 610.923C481.949 611.209 483.154 611.359 484.362 611.372C502.421 611.425 515.293 611.49 522.975 611.568C534.641 611.672 544.147 610.656 551.49 608.518C564.876 604.634 577.265 597.967 588.658 588.518C597.773 580.958 604.759 574.943 609.615 570.472C610.175 569.964 615.28 566.034 624.928 558.683C642.74 545.154 663.815 536.454 685.905 532.192C690.696 531.266 694.505 530.732 697.33 530.589C702.955 530.315 706.608 528.868 712.545 528.751C722.532 528.542 732.174 528.575 741.471 528.849C742.38 528.875 743.29 528.999 744.186 529.22C748.795 530.354 754.075 530.914 760.026 530.901C760.713 530.901 761.375 531.165 761.87 531.639C762.366 532.113 762.657 532.76 762.682 533.443C762.773 535.268 762.682 536.832 762.408 538.135C760.208 548.406 757.226 558.312 753.463 567.852C753.285 568.297 752.973 568.675 752.571 568.935C752.168 569.194 751.695 569.321 751.217 569.299C739.088 568.634 724.479 565.135 712.076 568.439C711.427 568.608 710.766 568.706 710.104 568.732C684.57 569.697 661.94 578.371 642.213 594.754C628.014 606.563 616.647 617.453 602.194 627.033C583.834 639.219 565.787 646.453 548.053 648.734C521.979 652.077 498.424 651.647 473.424 648.949C464.114 647.945 454.257 645.462 443.854 641.5C402.408 625.742 374.733 593.483 364.733 550.863C362.207 540.11 361.178 527.304 361.647 512.445C361.66 511.781 361.673 498.434 361.686 472.405C361.705 465.387 363.209 457.175 364.498 451.173C374.791 403.606 409.147 368.513 455.572 355.57C478.19 349.275 504.03 349.842 529.85 350.721C542.806 351.165 553.548 352.605 562.076 355.042C572.923 358.131 582.968 362.23 592.213 367.34C602.506 373.029 614.674 382.824 625.924 392.501C639.179 403.919 647.734 410.847 651.588 413.284C665.39 422.004 677.311 427.347 687.35 429.316C702.207 432.209 713.261 433.741 720.514 433.91C728.717 434.092 738.509 433.356 749.889 431.701C750.705 431.583 751.536 431.745 752.246 432.161C752.956 432.577 753.502 433.221 753.795 433.988C756.933 442.017 759.485 450.339 761.451 458.955C762.519 463.621 763.014 467.238 762.936 469.805Z" fill="#0AE9EF"/>
</g>
<defs>
<clipPath id="clip0_1595_74">
<rect width="1000" height="1001" fill="white" transform="translate(0.708984)"/>
</clipPath>
</defs>
</svg>
