<svg width="999" height="1000" viewBox="0 0 999 1000" fill="none" xmlns="http://www.w3.org/2000/svg">
<path d="M718.928 719.148C718.933 630.949 718.93 542.836 718.922 454.81C718.922 448.784 718.595 444.51 717.941 441.988C716.55 436.634 713.772 431.885 709.606 427.74C683.258 401.513 636.727 355.081 570.013 288.444C566.079 284.515 561.498 281.87 556.269 280.51" stroke="#802929" stroke-width="1.29116"/>
<path d="M554.945 280.31L552.957 279.916" stroke="#802929" stroke-width="1.29116"/>
<path d="M549.774 279.69L279.283 279.6" stroke="#802929" stroke-width="1.29116"/>
<path d="M718.928 719.148C718.933 630.949 718.931 542.836 718.922 454.81C718.922 448.784 718.595 444.511 717.941 441.989C716.55 436.635 713.772 431.885 709.606 427.741C683.258 401.513 636.727 355.081 570.013 288.444C566.079 284.515 561.498 281.87 556.269 280.51L554.945 280.31L552.957 279.916L549.774 279.69L279.283 279.6C279.262 195.244 279.268 110.831 279.303 26.3592C279.303 22.9678 279.546 20.3768 280.032 18.5864C283.034 7.48895 292.66 0.510252 304.074 0.510252C456.417 0.471517 582.464 0.469365 682.214 0.503796C686.492 0.503796 691.498 0.63076 697.231 0.884687C730.237 2.32648 761.861 8.81023 792.105 20.3359C816.426 29.6064 839.036 41.8315 859.936 57.0112C947.515 120.62 991.181 225.139 996.921 330.865C997.218 336.357 997.487 342.486 997.728 349.251C997.943 355.354 998.027 361.489 997.979 367.657C997.812 389.254 995.931 412.215 992.337 436.54C986.944 473.05 977.119 507.967 962.86 541.291C948.593 574.642 929.89 604.56 906.753 631.046C897.573 641.556 886.856 651.941 874.603 662.202C862.122 672.651 848.459 681.916 833.615 689.994C812.384 701.545 790.734 709.628 768.664 714.242C751.986 717.732 735.487 719.585 719.167 719.8C718.715 719.809 718.636 719.591 718.928 719.148Z" fill="#FF5252"/>
<path d="M549.774 279.69L552.957 279.916L554.945 280.31C555.35 280.654 555.791 280.721 556.269 280.51C561.498 281.87 566.079 284.515 570.013 288.444C636.727 355.081 683.258 401.513 709.606 427.741C713.772 431.885 716.55 436.635 717.941 441.988C718.595 444.511 718.922 448.784 718.922 454.81C718.931 542.836 718.933 630.949 718.928 719.148C580.168 719.157 441.41 719.157 302.653 719.148C292.311 719.148 283.021 711.453 280.226 701.801C279.606 699.671 279.296 695.729 279.296 689.974C279.266 553.241 279.262 416.449 279.283 279.6L549.774 279.69Z" fill="black"/>
<path d="M0 976.83V301.891C1.96901 288.593 12.0594 280.148 25.3583 280.155C157.818 280.228 242.139 280.222 278.321 280.135C278.436 280.135 278.546 280.181 278.627 280.262C278.708 280.343 278.754 280.453 278.754 280.568C278.754 281.924 278.754 420.002 278.754 694.803C278.754 703.501 282.275 710.411 289.316 715.533C290.439 716.346 292.615 717.396 295.842 718.683C296.609 718.989 298.214 719.277 300.658 719.548C302.264 719.729 303.897 719.819 305.558 719.819C450.779 719.806 588.408 719.806 718.444 719.819C718.54 719.819 718.632 719.857 718.7 719.925C718.768 719.993 718.806 720.085 718.806 720.181C718.793 849.757 718.797 933.105 718.819 970.226C718.823 975.825 718.504 979.718 717.863 981.904C715.423 990.226 708.399 996.959 699.735 998.819C698.061 999.176 694.866 999.354 690.149 999.354C468.492 999.35 246.835 999.35 25.1775 999.354C19.1177 999.354 13.8756 997.71 9.45126 994.422C3.86916 990.273 0.718743 984.409 0 976.83Z" fill="#4C00FF"/>
</svg>
