<?xml version="1.0" encoding="UTF-8" standalone="no"?>
<!DOCTYPE svg PUBLIC "-//W3C//DTD SVG 1.1//EN" "http://www.w3.org/Graphics/SVG/1.1/DTD/svg11.dtd">
<svg xmlns="http://www.w3.org/2000/svg" version="1.1" viewBox="0.00 0.00 1024.00 1024.00">
<path fill="#232323" d="
  M 271.74 383.59
  L 271.74 467.46
  A 0.53 0.53 0.0 0 1 271.21 467.99
  L 184.75 467.99
  A 0.53 0.53 0.0 0 1 184.38 467.84
  L 99.08 383.97
  A 0.53 0.53 0.0 0 1 99.45 383.06
  L 271.21 383.06
  A 0.53 0.53 0.0 0 1 271.74 383.59
  Z"
/>
<path fill="#232323" d="
  M 371.95 513.43
  L 371.95 564.48
  A 0.51 0.51 0.0 0 1 371.44 564.99
  L 342.53 564.99
  A 0.51 0.51 0.0 0 1 342.02 564.48
  L 342.02 428.67
  A 0.51 0.51 0.0 0 1 342.53 428.16
  L 427.44 428.16
  A 0.51 0.51 0.0 0 1 427.95 428.67
  L 427.95 454.20
  A 0.51 0.51 0.0 0 1 427.44 454.71
  L 372.45 454.71
  A 0.51 0.51 0.0 0 0 371.94 455.22
  L 371.94 487.54
  A 0.51 0.51 0.0 0 0 372.45 488.05
  L 420.58 488.05
  A 0.51 0.51 0.0 0 1 421.09 488.56
  L 421.09 512.41
  A 0.51 0.51 0.0 0 1 420.58 512.92
  L 372.46 512.92
  A 0.51 0.51 0.0 0 0 371.95 513.43
  Z"
/>
<path fill="#232323" d="
  M 500.49 495.11
  C 497.33 494.94 494.37 494.14 490.53 494.06
  Q 474.94 493.76 469.42 508.65
  Q 467.93 512.69 467.77 520.01
  Q 467.55 529.81 467.62 564.21
  A 0.78 0.78 0.0 0 1 466.84 564.99
  L 439.29 564.99
  A 0.33 0.33 0.0 0 1 438.96 564.66
  L 438.96 467.57
  A 0.52 0.52 0.0 0 1 439.48 467.05
  L 465.42 467.05
  A 0.59 0.58 -90.0 0 1 466.00 467.64
  L 466.00 481.45
  A 0.52 0.52 0.0 0 0 466.89 481.82
  Q 467.35 481.36 468.70 479.15
  Q 471.55 474.48 475.78 471.15
  Q 479.83 467.96 485.23 466.45
  Q 492.27 464.46 500.60 465.34
  A 0.75 0.75 0.0 0 1 501.27 466.09
  L 501.27 494.36
  A 0.75 0.74 -88.5 0 1 500.49 495.11
  Z"
/>
<path fill="#232323" d="
  M 635.03 480.09
  A 0.50 0.49 -27.5 0 0 635.93 480.37
  C 637.59 478.02 640.72 473.58 644.05 471.24
  Q 656.14 462.77 671.22 466.02
  Q 684.08 468.80 691.24 479.73
  A 0.60 0.59 -43.1 0 0 692.21 479.76
  C 699.23 470.50 708.98 465.15 720.75 465.02
  Q 730.36 464.91 737.30 468.01
  Q 750.66 473.98 754.52 486.73
  Q 756.15 492.15 756.10 501.94
  Q 755.96 524.53 756.10 564.23
  A 0.77 0.77 0.0 0 1 755.33 565.01
  L 728.34 565.01
  A 0.32 0.31 0.0 0 1 728.02 564.70
  L 728.02 505.66
  A 12.76 12.72 -52.7 0 0 727.58 502.34
  Q 727.09 500.55 726.98 500.07
  C 725.17 492.72 718.61 489.31 711.22 490.05
  Q 703.46 490.82 699.33 497.71
  C 698.29 499.44 697.91 501.41 697.39 503.44
  A 14.34 14.25 52.4 0 0 696.94 507.00
  L 696.94 564.47
  A 0.56 0.55 -0.0 0 1 696.38 565.02
  L 668.32 565.02
  A 0.32 0.31 0.0 0 1 668.00 564.71
  Q 668.00 512.03 668.05 509.45
  Q 668.20 501.56 666.73 498.28
  C 662.92 489.83 653.62 488.30 645.75 491.74
  C 637.81 495.20 636.01 503.31 635.99 511.75
  Q 635.98 513.15 635.96 564.28
  A 0.72 0.71 0.0 0 1 635.24 564.99
  L 608.33 564.99
  A 0.32 0.32 0.0 0 1 608.01 564.67
  L 608.01 467.63
  A 0.58 0.57 -0.0 0 1 608.59 467.06
  L 634.48 467.06
  A 0.55 0.55 0.0 0 1 635.03 467.61
  L 635.03 480.09
  Z"
/>
<path fill="#232323" d="
  M 905.68 482.06
  Q 906.67 481.12 906.99 479.91
  A 2.01 1.99 -16.1 0 1 907.47 479.05
  C 909.81 476.61 911.94 473.41 914.86 471.36
  Q 925.43 463.91 938.65 465.42
  A 1.29 1.29 0.0 0 1 939.79 466.70
  L 939.79 493.78
  A 1.29 1.29 0.0 0 1 938.25 495.05
  C 931.70 493.78 924.64 493.15 918.55 495.76
  Q 909.21 499.76 906.40 510.39
  Q 905.16 515.08 905.09 522.51
  Q 904.94 538.04 905.09 564.13
  A 0.87 0.87 0.0 0 1 904.22 565.00
  L 877.64 565.00
  A 0.63 0.63 0.0 0 1 877.01 564.37
  L 877.01 467.32
  A 0.28 0.27 -0.0 0 1 877.29 467.05
  L 904.31 467.05
  A 0.63 0.62 -0.0 0 1 904.94 467.67
  L 904.94 481.73
  A 0.44 0.44 0.0 0 0 905.68 482.06
  Z"
/>
<path fill="#232323" d="
  M 591.66 565.05
  L 566.58 565.05
  A 0.48 0.48 0.0 0 1 566.10 564.57
  L 566.10 555.37
  A 0.44 0.44 0.0 0 0 565.34 555.08
  C 560.53 560.46 555.21 564.73 548.32 566.51
  Q 536.06 569.68 524.60 566.07
  Q 507.90 560.80 504.19 544.46
  Q 503.75 542.51 503.94 535.44
  Q 504.08 530.35 505.64 526.80
  Q 509.37 518.32 517.43 513.68
  Q 524.05 509.87 531.45 509.06
  C 534.76 508.70 538.15 507.85 542.00 508.00
  Q 545.31 508.13 564.23 507.82
  A 0.75 0.74 -87.9 0 0 564.96 507.14
  C 565.62 499.48 564.74 490.83 555.79 488.42
  Q 550.24 486.93 545.36 487.97
  C 539.44 489.23 536.35 492.66 534.46 498.21
  A 1.58 1.57 13.0 0 1 532.76 499.27
  Q 521.90 497.77 509.97 497.86
  A 1.01 1.01 0.0 0 1 508.97 496.68
  Q 513.06 472.30 537.25 467.08
  Q 547.16 464.94 558.86 466.20
  C 574.30 467.85 585.78 475.11 590.51 489.69
  Q 592.19 494.87 592.24 504.61
  Q 592.40 536.78 592.36 564.35
  A 0.70 0.70 0.0 0 1 591.66 565.05
  Z
  M 565.05 524.55
  A 0.69 0.69 0.0 0 0 564.34 523.88
  Q 559.53 523.97 546.80 524.06
  C 544.72 524.08 542.84 524.68 541.18 524.88
  Q 539.24 525.10 537.15 526.16
  Q 530.14 529.70 531.16 538.15
  A 3.57 3.29 -62.3 0 0 531.42 539.12
  Q 533.09 542.92 533.99 543.60
  C 540.35 548.46 549.11 547.79 556.01 544.55
  Q 558.83 543.22 561.70 539.79
  Q 563.65 537.46 564.49 532.98
  Q 565.16 529.39 565.05 524.55
  Z"
/>
<path fill="#232323" d="
  M 864.80 523.42
  A 0.59 0.59 0.0 0 1 864.21 523.98
  L 796.79 523.98
  A 0.90 0.90 0.0 0 0 795.90 525.04
  Q 796.46 528.04 797.49 531.28
  Q 801.15 542.79 812.22 545.49
  Q 822.45 547.97 830.63 542.60
  Q 833.19 540.91 835.89 536.53
  A 0.80 0.68 71.6 0 0 836.00 536.26
  L 836.38 534.76
  A 0.80 0.80 0.0 0 1 837.16 534.15
  L 863.60 534.15
  A 0.86 0.86 0.0 0 1 864.42 535.26
  Q 857.29 559.09 833.50 565.88
  Q 829.80 566.93 825.96 567.63
  Q 822.59 568.24 812.43 567.88
  Q 810.00 567.79 807.23 567.08
  C 805.33 566.60 802.64 566.12 800.37 565.37
  Q 781.00 559.00 772.94 540.04
  Q 769.68 532.35 769.03 523.76
  C 767.94 509.30 770.64 495.39 779.19 483.69
  Q 782.46 479.22 788.25 474.78
  Q 795.61 469.14 805.99 466.99
  Q 820.14 464.06 833.46 468.06
  C 849.81 472.96 860.42 486.99 863.58 503.39
  Q 865.42 512.90 864.80 523.42
  Z
  M 817.26 507.02
  Q 836.99 507.03 837.17 507.02
  A 0.45 0.45 0.0 0 0 837.61 506.52
  C 836.17 495.05 829.33 487.31 817.27 487.30
  C 805.21 487.30 798.37 495.04 796.92 506.51
  A 0.45 0.45 0.0 0 0 797.36 507.02
  Q 797.54 507.02 817.26 507.02
  Z"
/>
<path fill="#232323" d="
  M 272.26 555.53
  A 0.31 0.31 0.0 0 1 272.04 556.06
  L 192.36 556.06
  A 0.31 0.30 0.0 0 0 192.05 556.36
  L 192.05 644.07
  A 0.35 0.35 0.0 0 1 191.57 644.39
  Q 190.87 644.10 190.14 643.37
  Q 130.95 584.75 104.52 558.98
  Q 101.90 556.42 100.35 554.26
  A 2.01 2.00 -62.8 0 1 99.98 553.10
  L 99.98 470.01
  A 0.64 0.64 0.0 0 1 100.62 469.37
  Q 128.67 469.34 181.00 469.34
  Q 183.15 469.34 184.66 469.79
  A 2.43 2.32 -13.2 0 1 185.63 470.36
  L 272.26 555.53
  Z"
/>
</svg>
