<svg width="1001" height="1000" viewBox="0 0 1001 1000" fill="none" xmlns="http://www.w3.org/2000/svg">
<g clip-path="url(#clip0_1595_186)">
<path d="M763.249 0L763.074 236.847" stroke="#2E76E3" stroke-width="1.12803"/>
<path d="M763.074 236.847L237.141 236.836C237.081 236.836 237.023 236.86 236.981 236.902C236.939 236.944 236.915 237.002 236.915 237.062L236.983 763.085" stroke="#A1C2FA" stroke-width="1.12803"/>
<path d="M236.983 763.085C236.9 763.085 236.846 763.108 236.819 763.153" stroke="#3B97A4" stroke-width="1.12803"/>
<path d="M236.819 763.153L0.0566406 763.147" stroke="#2D8396" stroke-width="1.12803"/>
<path d="M1000.06 236.853L763.232 236.954" stroke="#8A926B" stroke-width="1.12803"/>
<path d="M763.232 236.954L763.074 236.847" stroke="#8CB3E9" stroke-width="1.12803"/>
<path d="M763.232 236.954L763.181 763.136" stroke="#FDDE81" stroke-width="1.12803"/>
<path d="M763.181 763.136L236.983 763.085" stroke="#9AD4A9" stroke-width="1.12803"/>
<path d="M377.863 520.632C385.259 520.602 394.356 520.602 405.156 520.632C419.634 520.671 433.808 524.535 445.33 533.3C457.209 542.33 463.486 554.445 463.48 569.374C463.48 576.853 461.924 583.659 458.81 589.791C452.465 602.296 439.38 611.76 425.849 615.426C420.089 616.986 414.084 617.718 407.835 617.62C377.146 617.158 357.225 596.622 349.91 568.297C349.899 568.255 349.879 568.216 349.851 568.182C349.824 568.149 349.79 568.122 349.751 568.102C349.713 568.083 349.671 568.072 349.628 568.071C349.586 568.069 349.543 568.077 349.504 568.094L304.563 586.639C304.444 586.688 304.348 586.78 304.292 586.895C304.237 587.011 304.227 587.143 304.264 587.265C305.569 591.48 306.943 595.4 308.387 599.024C315.351 616.528 325.891 630.711 340.006 641.574C356.182 654.027 376.199 662.313 396.684 664.36C432.279 667.925 470.807 656.723 494.338 628.043C509.209 609.919 515.626 588.396 513.588 563.475C512.52 550.427 508.461 538.729 501.41 528.381C492.055 514.646 479.339 504.294 463.26 497.327C463.165 497.285 463.084 497.216 463.027 497.129C462.969 497.042 462.939 496.94 462.939 496.836V494.986C462.939 494.835 462.98 494.686 463.059 494.557C463.137 494.428 463.25 494.322 463.385 494.253C472.134 489.684 480.093 483.1 487.259 474.501C494.783 465.477 499.589 455.471 501.676 444.484C504.507 429.566 503.542 413.711 498.049 399.431C486.21 368.68 455.827 350.203 424.338 345.996C396.396 342.268 367.146 346.311 344.845 363.954C336.833 370.29 329.908 377.396 324.073 385.274C318.776 392.425 314.659 400.288 311.563 408.652C311.517 408.774 311.521 408.909 311.572 409.029C311.624 409.149 311.719 409.244 311.839 409.295L356.193 427.851C356.244 427.872 356.298 427.883 356.353 427.882C356.408 427.881 356.462 427.869 356.511 427.847C356.561 427.825 356.606 427.793 356.642 427.753C356.679 427.713 356.706 427.666 356.723 427.614C362.138 412.121 374.123 396.644 390.621 392.674C406.182 388.929 424.473 390.598 437.727 400.248C448.109 407.802 453.275 418.173 453.227 431.359C453.17 446.479 446.949 458.092 434.563 466.199C424.733 472.634 413.396 475.364 401.777 475.387C392.204 475.405 384.294 475.403 378.049 475.381C377.938 475.381 377.832 475.425 377.754 475.503C377.676 475.581 377.632 475.688 377.632 475.798V520.406C377.632 520.436 377.638 520.466 377.649 520.494C377.661 520.522 377.678 520.547 377.7 520.568C377.721 520.589 377.747 520.605 377.775 520.616C377.803 520.627 377.833 520.633 377.863 520.632Z" stroke="#8DB9F4" stroke-width="1.12803"/>
<path d="M624.761 418.911C624.788 418.892 624.82 418.88 624.854 418.878C624.887 418.875 624.921 418.882 624.951 418.897C624.981 418.912 625.007 418.935 625.025 418.963C625.043 418.992 625.053 419.024 625.054 419.058V657.716C625.054 657.765 625.073 657.812 625.108 657.847C625.143 657.882 625.191 657.902 625.24 657.902H674.343C674.393 657.902 674.44 657.882 674.475 657.847C674.51 657.812 674.529 657.765 674.529 657.716V352.104C674.529 352.054 674.51 352.007 674.475 351.972C674.44 351.937 674.393 351.918 674.343 351.918H640.147C640.107 351.916 640.067 351.928 640.034 351.951L550.288 416.684C550.248 416.711 550.221 416.753 550.211 416.8C550.202 416.848 550.211 416.897 550.237 416.937L575.026 454.54C575.039 454.561 575.057 454.58 575.078 454.594C575.099 454.608 575.122 454.618 575.147 454.623C575.172 454.627 575.198 454.627 575.222 454.621C575.247 454.616 575.27 454.606 575.291 454.591L624.761 418.911Z" stroke="#8DB9F4" stroke-width="1.12803"/>
<path d="M999.876 763.204L763.181 763.136" stroke="#F3801C" stroke-width="1.12803"/>
<path d="M763.181 763.136L763.283 999.842" stroke="#8F7644" stroke-width="1.12803"/>
<path d="M236.927 1000L236.915 763.48C236.915 763.417 236.902 763.353 236.876 763.294C236.861 763.252 236.842 763.205 236.819 763.153" stroke="#269446" stroke-width="1.12803"/>
<path d="M763.249 0L763.074 236.847L237.141 236.836C237.081 236.836 237.023 236.86 236.981 236.902C236.939 236.944 236.915 237.002 236.915 237.061L236.983 763.085C236.9 763.085 236.846 763.108 236.819 763.153L0.0566406 763.147V76.0463C2.06454 34.5629 34.2698 1.88381 76.0239 0H763.249Z" fill="#4285F4"/>
<path d="M924.129 0C965.719 1.9797 998.331 34.5911 1000.06 76.2211V236.853L763.232 236.954L763.074 236.847L763.249 0H924.129Z" fill="#1967D2"/>
<path d="M763.074 236.847L763.232 236.954L763.181 763.136L236.983 763.085L236.915 237.062C236.915 237.002 236.939 236.944 236.981 236.902C237.023 236.86 237.081 236.836 237.141 236.836L763.074 236.847ZM377.863 520.632C385.259 520.602 394.356 520.602 405.155 520.632C419.634 520.671 433.807 524.535 445.33 533.3C457.208 542.329 463.486 554.444 463.48 569.374C463.48 576.853 461.923 583.659 458.81 589.791C452.465 602.296 439.38 611.76 425.849 615.426C420.089 616.986 414.084 617.718 407.834 617.62C377.146 617.157 357.225 596.622 349.91 568.297C349.899 568.255 349.878 568.216 349.851 568.182C349.824 568.149 349.79 568.122 349.751 568.102C349.713 568.083 349.671 568.072 349.628 568.071C349.585 568.069 349.543 568.077 349.504 568.094L304.563 586.639C304.444 586.688 304.347 586.779 304.292 586.895C304.237 587.011 304.227 587.143 304.264 587.265C305.569 591.48 306.943 595.4 308.387 599.024C315.351 616.528 325.89 630.711 340.006 641.574C356.182 654.027 376.199 662.313 396.684 664.36C432.279 667.924 470.807 656.723 494.337 628.043C509.209 609.919 515.625 588.396 513.587 563.474C512.519 550.427 508.46 538.729 501.41 528.381C492.055 514.646 479.338 504.294 463.26 497.327C463.165 497.285 463.083 497.216 463.026 497.129C462.969 497.042 462.939 496.94 462.939 496.836V494.986C462.938 494.835 462.98 494.686 463.058 494.557C463.137 494.427 463.25 494.322 463.384 494.253C472.134 489.684 480.092 483.1 487.259 474.501C494.783 465.477 499.588 455.471 501.675 444.484C504.507 429.566 503.542 413.711 498.049 399.43C486.21 368.68 455.826 350.203 424.337 345.996C396.396 342.267 367.146 346.311 344.845 363.954C336.832 370.29 329.908 377.396 324.072 385.274C318.776 392.425 314.659 400.288 311.563 408.652C311.517 408.774 311.521 408.909 311.572 409.029C311.624 409.148 311.719 409.244 311.839 409.295L356.193 427.851C356.244 427.872 356.298 427.882 356.353 427.882C356.408 427.881 356.461 427.869 356.511 427.847C356.561 427.825 356.605 427.793 356.642 427.753C356.678 427.713 356.706 427.666 356.723 427.614C362.138 412.121 374.123 396.644 390.621 392.674C406.182 388.928 424.473 390.598 437.727 400.248C448.109 407.802 453.275 418.173 453.226 431.359C453.17 446.479 446.949 458.092 434.563 466.199C424.732 472.634 413.396 475.364 401.777 475.386C392.204 475.405 384.294 475.403 378.049 475.381C377.938 475.381 377.832 475.425 377.754 475.503C377.675 475.581 377.631 475.687 377.631 475.798V520.406C377.631 520.436 377.637 520.466 377.649 520.494C377.661 520.522 377.678 520.547 377.699 520.568C377.721 520.589 377.746 520.605 377.775 520.616C377.803 520.627 377.832 520.633 377.863 520.632ZM624.76 418.912C624.788 418.892 624.82 418.881 624.854 418.878C624.887 418.876 624.921 418.882 624.951 418.897C624.981 418.912 625.006 418.935 625.025 418.963C625.043 418.992 625.053 419.025 625.054 419.058V657.716C625.054 657.765 625.073 657.813 625.108 657.847C625.143 657.882 625.191 657.902 625.24 657.902H674.343C674.392 657.902 674.44 657.882 674.475 657.847C674.51 657.813 674.529 657.765 674.529 657.716V352.104C674.529 352.054 674.51 352.007 674.475 351.972C674.44 351.937 674.392 351.918 674.343 351.918H640.147C640.107 351.917 640.067 351.928 640.034 351.952L550.288 416.684C550.248 416.711 550.221 416.753 550.211 416.8C550.202 416.848 550.211 416.897 550.237 416.937L575.026 454.54C575.039 454.562 575.057 454.58 575.078 454.594C575.099 454.608 575.122 454.618 575.147 454.623C575.172 454.627 575.198 454.627 575.222 454.622C575.247 454.616 575.27 454.606 575.291 454.591L624.76 418.912Z" fill="white"/>
<path d="M1000.06 236.853V763.063C1000.05 763.164 999.989 763.211 999.876 763.204L763.181 763.136L763.232 236.954L1000.06 236.853Z" fill="#FBBC03"/>
<path d="M377.863 520.632C377.833 520.633 377.803 520.627 377.775 520.616C377.747 520.605 377.721 520.589 377.7 520.568C377.678 520.547 377.661 520.522 377.649 520.494C377.638 520.466 377.632 520.436 377.632 520.406V475.798C377.632 475.688 377.676 475.581 377.754 475.503C377.832 475.425 377.938 475.381 378.049 475.381C384.294 475.403 392.204 475.405 401.777 475.387C413.396 475.364 424.733 472.634 434.563 466.199C446.949 458.092 453.17 446.479 453.227 431.359C453.275 418.173 448.109 407.802 437.727 400.248C424.473 390.598 406.182 388.929 390.621 392.674C374.123 396.644 362.138 412.121 356.723 427.614C356.706 427.666 356.679 427.713 356.642 427.753C356.606 427.793 356.561 427.825 356.511 427.847C356.462 427.869 356.408 427.881 356.353 427.882C356.298 427.883 356.244 427.872 356.193 427.851L311.839 409.295C311.719 409.244 311.624 409.149 311.572 409.029C311.521 408.909 311.517 408.774 311.563 408.652C314.659 400.288 318.776 392.425 324.073 385.274C329.908 377.396 336.833 370.29 344.845 363.954C367.146 346.311 396.396 342.268 424.338 345.996C455.827 350.203 486.21 368.68 498.049 399.431C503.542 413.711 504.507 429.566 501.676 444.484C499.589 455.471 494.783 465.477 487.259 474.501C480.093 483.1 472.134 489.684 463.385 494.253C463.25 494.322 463.137 494.428 463.059 494.557C462.98 494.686 462.939 494.835 462.939 494.986V496.836C462.939 496.94 462.969 497.042 463.027 497.129C463.084 497.216 463.165 497.285 463.26 497.327C479.339 504.294 492.055 514.646 501.41 528.381C508.461 538.729 512.52 550.427 513.588 563.475C515.626 588.396 509.209 609.919 494.338 628.043C470.807 656.723 432.279 667.925 396.684 664.36C376.199 662.313 356.182 654.027 340.006 641.574C325.891 630.711 315.351 616.528 308.387 599.024C306.943 595.4 305.569 591.48 304.264 587.265C304.227 587.143 304.237 587.011 304.292 586.895C304.348 586.78 304.444 586.688 304.563 586.639L349.504 568.094C349.543 568.077 349.586 568.069 349.628 568.071C349.671 568.072 349.713 568.083 349.751 568.102C349.79 568.122 349.824 568.149 349.851 568.182C349.879 568.216 349.899 568.255 349.91 568.297C357.225 596.622 377.146 617.158 407.835 617.62C414.084 617.718 420.089 616.986 425.849 615.426C439.38 611.76 452.465 602.296 458.81 589.791C461.924 583.659 463.48 576.853 463.48 569.374C463.486 554.445 457.209 542.33 445.33 533.3C433.808 524.535 419.634 520.671 405.156 520.632C394.356 520.602 385.259 520.602 377.863 520.632Z" fill="#1A73E8"/>
<path d="M624.761 418.911L575.291 454.591C575.27 454.606 575.247 454.616 575.222 454.621C575.198 454.627 575.172 454.627 575.147 454.623C575.122 454.618 575.099 454.608 575.078 454.594C575.057 454.58 575.039 454.561 575.026 454.54L550.237 416.937C550.211 416.897 550.202 416.848 550.211 416.8C550.221 416.753 550.248 416.711 550.288 416.684L640.034 351.951C640.067 351.928 640.107 351.916 640.147 351.918H674.343C674.393 351.918 674.44 351.937 674.475 351.972C674.51 352.007 674.529 352.054 674.529 352.104V657.716C674.529 657.765 674.51 657.812 674.475 657.847C674.44 657.882 674.393 657.902 674.343 657.902H625.24C625.191 657.902 625.143 657.882 625.108 657.847C625.073 657.812 625.054 657.765 625.054 657.716V419.058C625.053 419.024 625.043 418.992 625.025 418.963C625.007 418.935 624.981 418.912 624.951 418.897C624.921 418.882 624.887 418.875 624.854 418.878C624.82 418.88 624.788 418.892 624.761 418.911Z" fill="#1A73E8"/>
<path d="M236.983 763.085L763.181 763.136L763.283 999.842C763.26 999.906 763.23 999.959 763.193 1000H236.927L236.915 763.48C236.915 763.417 236.902 763.353 236.876 763.294C236.861 763.253 236.842 763.206 236.819 763.153C236.846 763.108 236.9 763.085 236.983 763.085Z" fill="#34A853"/>
<path d="M236.819 763.153C236.842 763.205 236.861 763.252 236.876 763.294C236.902 763.353 236.915 763.417 236.915 763.48L236.926 1000H76.2044C34.5349 998.195 1.90661 965.505 0.0566406 923.897V763.147L236.819 763.153Z" fill="#188038"/>
<path d="M999.876 763.204L763.283 999.842L763.181 763.136L999.876 763.204Z" fill="#EA4335"/>
</g>
<defs>
<clipPath id="clip0_1595_186">
<rect width="1000" height="1000" fill="white" transform="translate(0.0566406)"/>
</clipPath>
</defs>
</svg>
