<svg width="1002" height="1000" viewBox="0 0 1002 1000" fill="none" xmlns="http://www.w3.org/2000/svg">
<g clip-path="url(#clip0_1595_83)">
<path d="M65.0364 63.8876C31.4178 97.5176 11.0969 139.391 4.42475 186.815C1.67784 206.331 0.257541 221.928 0.163896 233.607C0.0546433 249.594 0 338.384 0 499.977C0 661.569 0.0546433 750.367 0.163896 766.37C0.257541 778.048 1.67001 793.646 4.40132 813.162C11.0735 860.586 31.3944 902.459 65.0364 936.089C98.6549 969.742 140.514 990.07 187.898 996.745C207.423 999.477 223.023 1000.89 234.697 1000.98C250.679 1001.09 339.439 1001.15 500.977 1001.15C662.514 1001.15 751.274 1001.09 767.256 1000.98C778.93 1000.91 794.53 999.493 814.055 996.745C861.439 990.07 903.298 969.742 936.94 936.112C970.559 902.459 990.88 860.586 997.552 813.185C1000.3 793.669 1001.72 778.064 1001.81 766.37C1001.92 750.383 1001.98 661.593 1001.98 500C1001.98 338.408 1001.92 249.618 1001.81 233.63C1001.73 221.952 1000.32 206.354 997.575 186.838C990.903 139.415 970.582 97.541 936.964 63.8876C903.322 30.2577 861.462 9.9298 814.078 3.25533C794.553 0.507477 778.954 -0.905477 767.279 -0.983541C751.297 -1.09283 662.537 -1.15529 501 -1.1709C339.463 -1.1709 250.703 -1.11625 234.721 -1.00696C223.046 -0.913288 207.447 0.499665 187.922 3.23191C140.537 9.90638 98.6783 30.2343 65.0364 63.8876Z" stroke="#FCAA97" stroke-width="2"/>
<path d="M501.937 676.955L431.305 747.588C431.051 747.841 430.73 748.019 430.379 748.102C430.028 748.185 429.66 748.169 429.315 748.056C417.391 744.247 405.295 744.418 393.027 748.571C349.295 763.372 334.71 817.635 367.041 851.897C396.329 882.951 446.569 875.667 467.288 839.391C475.622 824.793 477.526 808.86 473 791.592C472.901 791.191 472.905 790.772 473.011 790.375C473.118 789.978 473.323 789.615 473.609 789.321L543.538 719.391C543.751 719.17 544.037 719.033 544.343 719.008C544.649 718.982 544.953 719.068 545.2 719.251C646.337 794.309 789.473 756.932 839.433 641.241C889.369 525.621 816.583 392.74 692.316 373.302C692.045 373.263 691.796 373.125 691.616 372.915C691.436 372.704 691.335 372.435 691.333 372.155V286.183C691.333 285.771 691.444 285.366 691.654 285.012C691.864 284.657 692.166 284.366 692.527 284.169C716.5 270.898 729.142 251.218 730.453 225.129C733.871 156.487 644.838 126.487 605.414 181.756C580.387 216.792 592.936 264.754 631.026 284.215C631.258 284.335 631.453 284.517 631.589 284.74C631.725 284.963 631.798 285.219 631.798 285.48V371.686C631.799 372.085 631.659 372.471 631.405 372.772C631.152 373.073 630.801 373.269 630.417 373.325C597.501 378.696 567.777 391.803 541.244 412.646C540.963 412.867 540.617 412.986 540.261 412.986C539.904 412.986 539.558 412.867 539.277 412.646L298.774 225.34C298.441 225.076 298.192 224.719 298.059 224.311C297.926 223.903 297.914 223.463 298.025 223.044C302.847 204.941 300.319 185.667 291.399 169.11C270.025 129.461 219.901 116.37 181.928 141.148C154.28 159.18 141.568 192.787 149.785 224.356C162.216 272.272 216.343 297.026 260.543 272.155C260.823 272.001 261.138 271.931 261.45 271.952C261.762 271.972 262.057 272.084 262.299 272.272L499.408 456.955C499.604 457.107 499.735 457.328 499.774 457.576C499.813 457.823 499.757 458.078 499.619 458.29C477.737 491.967 467.194 529.079 467.99 569.625C468.693 606.097 480.078 641.132 502.147 674.731C502.371 675.07 502.473 675.476 502.434 675.88C502.396 676.285 502.22 676.664 501.937 676.955Z" stroke="#FCAA97" stroke-width="2"/>
<path d="M759.109 564.473C759.109 538.181 748.668 512.966 730.083 494.375C711.498 475.784 686.292 465.34 660.009 465.34C633.726 465.34 608.52 475.784 589.935 494.375C571.35 512.966 560.909 538.181 560.909 564.473C560.909 577.491 563.473 590.382 568.453 602.41C573.433 614.437 580.733 625.366 589.935 634.571C599.137 643.776 610.062 651.079 622.085 656.06C634.109 661.042 646.995 663.607 660.009 663.607C673.023 663.607 685.91 661.042 697.933 656.06C709.956 651.079 720.881 643.776 730.083 634.571C739.285 625.366 746.585 614.437 751.565 602.41C756.545 590.382 759.109 577.491 759.109 564.473Z" stroke="#FCAA97" stroke-width="2"/>
<path d="M501 -1.1709C662.537 -1.15529 751.297 -1.09283 767.279 -0.983541C778.954 -0.905477 794.553 0.507477 814.078 3.25533C861.462 9.9298 903.322 30.2577 936.964 63.8876C970.582 97.541 990.903 139.415 997.575 186.838C1000.32 206.354 1001.73 221.952 1001.81 233.63C1001.92 249.618 1001.98 338.408 1001.98 500C1001.98 661.593 1001.92 750.383 1001.81 766.37C1001.72 778.064 1000.3 793.669 997.552 813.185C990.88 860.586 970.559 902.459 936.94 936.112C903.298 969.742 861.439 990.07 814.055 996.745C794.53 999.493 778.93 1000.91 767.256 1000.98C751.274 1001.09 662.514 1001.15 500.977 1001.15C339.439 1001.15 250.679 1001.09 234.697 1000.98C223.023 1000.89 207.423 999.477 187.898 996.745C140.514 990.07 98.6549 969.742 65.0364 936.089C31.3944 902.459 11.0735 860.586 4.40132 813.162C1.67001 793.646 0.257541 778.048 0.163896 766.37C0.0546433 750.367 0 661.569 0 499.977C0 338.384 0.0546433 249.594 0.163896 233.607C0.257541 221.928 1.67784 206.331 4.42475 186.815C11.0969 139.391 31.4178 97.5176 65.0364 63.8876C98.6783 30.2343 140.537 9.90638 187.922 3.23191C207.447 0.499665 223.046 -0.913288 234.721 -1.00696C250.703 -1.11625 339.463 -1.1709 501 -1.1709ZM501.936 676.956L431.305 747.588C431.051 747.842 430.73 748.02 430.379 748.102C430.028 748.185 429.66 748.169 429.315 748.056C417.391 744.247 405.295 744.419 393.027 748.572C349.295 763.372 334.71 817.635 367.041 851.897C396.329 882.951 446.569 875.668 467.288 839.391C475.622 824.793 477.526 808.86 473 791.593C472.901 791.192 472.905 790.773 473.011 790.375C473.118 789.978 473.323 789.615 473.609 789.321L543.538 719.391C543.751 719.17 544.037 719.034 544.343 719.008C544.649 718.982 544.953 719.068 545.2 719.251C646.337 794.309 789.473 756.932 839.432 641.241C889.369 525.621 816.583 392.74 692.316 373.302C692.045 373.263 691.796 373.126 691.616 372.915C691.436 372.704 691.335 372.435 691.333 372.155V286.183C691.333 285.771 691.444 285.366 691.654 285.012C691.864 284.658 692.166 284.366 692.527 284.169C716.5 270.898 729.142 251.218 730.453 225.129C733.871 156.487 644.838 126.487 605.414 181.757C580.387 216.792 592.936 264.754 631.026 284.216C631.258 284.335 631.453 284.517 631.589 284.74C631.725 284.963 631.798 285.219 631.798 285.48V371.686C631.799 372.085 631.659 372.471 631.405 372.772C631.152 373.073 630.801 373.269 630.417 373.326C597.501 378.696 567.777 391.803 541.244 412.646C540.963 412.867 540.617 412.987 540.261 412.987C539.904 412.987 539.558 412.867 539.277 412.646L298.774 225.34C298.441 225.076 298.192 224.719 298.059 224.311C297.926 223.904 297.914 223.463 298.025 223.045C302.847 204.942 300.319 185.668 291.399 169.11C270.025 129.461 219.902 116.37 181.929 141.148C154.28 159.18 141.568 192.787 149.785 224.356C162.216 272.272 216.343 297.026 260.543 272.155C260.823 272.001 261.138 271.931 261.45 271.952C261.762 271.972 262.057 272.084 262.299 272.272L499.408 456.956C499.604 457.107 499.734 457.328 499.774 457.576C499.813 457.823 499.757 458.078 499.619 458.29C477.737 491.967 467.194 529.079 467.99 569.625C468.693 606.097 480.078 641.132 502.147 674.731C502.371 675.07 502.473 675.476 502.434 675.88C502.396 676.285 502.22 676.665 501.936 676.956Z" fill="#FF5C35"/>
<path d="M660.009 663.607C714.74 663.607 759.109 619.223 759.109 564.473C759.109 509.723 714.74 465.34 660.009 465.34C605.278 465.34 560.909 509.723 560.909 564.473C560.909 619.223 605.278 663.607 660.009 663.607Z" fill="#FF5C35"/>
</g>
<defs>
<clipPath id="clip0_1595_83">
<rect width="1002" height="1000" fill="white"/>
</clipPath>
</defs>
</svg>
