<?xml version="1.0" encoding="UTF-8" standalone="no"?>
<svg xmlns="http://www.w3.org/2000/svg" version="1.2" baseProfile="tiny" viewBox="0.00 0.00 160.00 164.00">
<g stroke-width="2.00" fill="none" stroke-linecap="butt">
<path stroke="#ffffff" stroke-opacity="0.510" vector-effect="non-scaling-stroke" d="
  M 159.20 82.01
  Q 159.20 122.79 159.26 163.57
  Q 159.26 163.80 159.44 163.80
  Q 159.63 163.80 159.63 163.57
  Q 159.69 122.79 159.69 82.01
  Q 159.69 41.23 159.63 0.44
  Q 159.63 0.22 159.44 0.22
  Q 159.26 0.22 159.26 0.44
  Q 159.20 41.23 159.20 82.01"
/>
<path stroke="#c59aef" vector-effect="non-scaling-stroke" d="
  M 59.11 38.67
  Q 49.88 43.63 43.72 52.02"
/>
<path stroke="#b891e5" vector-effect="non-scaling-stroke" d="
  M 43.72 52.02
  C 31.84 67.39 30.54 89.54 39.77 106.07
  C 53.87 131.32 87.90 138.22 110.00 119.27
  Q 128.50 103.42 127.17 78.82"
/>
<path stroke="#c59aef" vector-effect="non-scaling-stroke" d="
  M 127.17 78.82
  Q 127.40 75.60 126.71 74.06
  Q 123.84 67.64 117.34 70.45"
/>
<path stroke="#b891e5" vector-effect="non-scaling-stroke" d="
  M 117.34 70.45
  Q 114.70 72.46 114.74 74.51
  Q 114.78 76.85 114.94 79.25
  Q 116.19 97.56 102.34 109.83"
/>
<path stroke="#c59aef" vector-effect="non-scaling-stroke" d="
  M 102.34 109.83
  Q 97.04 114.06 90.43 116.24"
/>
<path stroke="#d0a6f5" vector-effect="non-scaling-stroke" d="
  M 90.43 116.24
  Q 75.79 120.45 62.18 112.65"
/>
<path stroke="#c59aef" vector-effect="non-scaling-stroke" d="
  M 62.18 112.65
  Q 42.33 97.47 47.54 72.31"
/>
<path stroke="#b891e5" vector-effect="non-scaling-stroke" d="
  M 47.54 72.31
  C 51.40 58.45 62.66 47.30 77.09 45.68
  Q 97.07 43.45 109.42 60.29
  A 2.93 2.76 1.3 0 0 110.04 60.90
  C 115.67 64.81 122.79 59.57 119.44 52.91"
/>
<path stroke="#d0a6f5" vector-effect="non-scaling-stroke" d="
  M 119.44 52.91
  Q 118.00 50.45 115.04 47.47
  Q 99.77 32.11 78.20 33.13
  Q 68.63 33.58 59.11 38.67"
/>
<path stroke="#8938da" vector-effect="non-scaling-stroke" d="
  M 119.44 52.91
  Q 118.27 57.43 114.11 55.84
  A 2.17 2.14 78.2 0 1 113.34 55.33
  C 107.02 48.60 101.70 44.45 93.04 41.46"
/>
<path stroke="#9541e4" vector-effect="non-scaling-stroke" d="
  M 93.04 41.46
  Q 85.96 38.88 78.80 39.31
  Q 64.55 40.16 52.23 50.23
  Q 50.72 51.47 49.43 51.97
  A 0.53 0.53 0.0 0 1 48.77 51.23
  C 50.79 47.46 54.07 45.23 58.72 41.13
  A 1.08 1.07 70.0 0 0 59.08 40.35
  L 59.11 38.67"
/>
<path stroke="#7e2cd4" vector-effect="non-scaling-stroke" d="
  M 93.04 41.46
  Q 85.77 40.04 81.03 40.13
  C 65.67 40.45 51.76 50.99 46.73 65.49
  Q 45.18 69.95 47.54 72.31"
/>
<path stroke="#9541e4" vector-effect="non-scaling-stroke" d="
  M 62.18 112.65
  Q 48.01 104.56 43.80 86.72
  A 0.62 0.61 -29.1 0 0 42.77 86.43
  Q 42.48 86.73 42.50 87.53
  Q 42.83 101.00 51.59 109.25"
/>
<path stroke="#a150e9" vector-effect="non-scaling-stroke" d="
  M 51.59 109.25
  C 64.21 123.09 82.08 125.65 98.54 116.78
  Q 102.67 114.55 105.27 111.63
  A 0.25 0.25 0.0 0 0 105.30 111.35
  L 105.15 111.10
  A 0.43 0.43 0.0 0 0 104.50 110.99
  Q 99.97 115.00 94.24 117.03"
/>
<path stroke="#9541e4" vector-effect="non-scaling-stroke" d="
  M 94.24 117.03
  L 90.43 116.24"
/>
<path stroke="#7e2cd4" vector-effect="non-scaling-stroke" d="
  M 102.34 109.83
  Q 106.65 110.47 110.54 104.79
  Q 115.69 97.28 117.40 93.49
  Q 122.55 82.09 117.34 70.45"
/>
<path stroke="#7e2cd4" vector-effect="non-scaling-stroke" d="
  M 127.17 78.82
  Q 125.79 89.80 121.83 98.09
  Q 116.55 109.14 106.34 115.80
  C 98.25 121.08 89.87 124.34 80.01 124.19
  C 64.52 123.97 53.54 116.14 45.36 103.63
  C 40.57 96.31 39.38 89.14 39.37 80.09
  Q 39.36 64.88 47.02 51.79
  A 0.56 0.56 0.0 0 0 46.33 50.99
  L 43.72 52.02"
/>
<path stroke="#ac5def" vector-effect="non-scaling-stroke" d="
  M 94.24 117.03
  Q 79.66 123.38 65.42 116.17
  Q 58.30 112.56 54.43 108.69
  Q 50.51 104.78 45.95 96.26
  A 0.62 0.61 65.3 0 0 45.19 95.97
  L 45.17 95.97
  A 0.61 0.61 0.0 0 0 44.82 96.77
  Q 47.44 103.31 51.59 109.25"
/>
<path stroke="#b891e5" vector-effect="non-scaling-stroke" d="
  M 64.04 67.03
  Q 57.11 70.41 62.00 76.43"
/>
<path stroke="#a78bd3" vector-effect="non-scaling-stroke" d="
  M 62.00 76.43
  Q 67.47 82.70 72.98 89.24
  Q 78.79 96.14 86.11 90.32"
/>
<path stroke="#b891e5" vector-effect="non-scaling-stroke" d="
  M 86.11 90.32
  Q 103.35 78.21 109.88 73.13
  Q 110.97 72.29 111.22 69.94"
/>
<path stroke="#c59aef" vector-effect="non-scaling-stroke" d="
  M 111.22 69.94
  C 111.43 66.31 107.12 64.57 104.13 66.16
  Q 88.69 74.42 85.02 76.30
  C 81.24 78.22 79.62 76.26 76.25 73.79
  Q 70.93 69.89 67.82 67.68
  Q 66.81 66.97 64.04 67.03"
/>
<path stroke="#7e2cd4" vector-effect="non-scaling-stroke" d="
  M 111.22 69.94
  Q 109.10 71.12 107.14 72.23
  Q 95.31 78.90 87.48 84.23
  C 80.85 88.74 77.40 85.04 72.02 79.92
  Q 65.56 73.76 63.75 72.06
  Q 63.05 71.41 63.49 70.55
  Q 63.61 70.31 64.20 70.18"
/>
<path stroke="#a150e9" vector-effect="non-scaling-stroke" d="
  M 64.20 70.18
  Q 69.30 73.51 74.06 77.40
  C 78.42 80.96 80.72 82.48 85.72 79.70
  Q 90.86 76.85 102.44 70.69
  Q 104.64 69.52 107.77 68.94
  A 0.68 0.67 -34.2 0 0 108.01 67.70
  Q 106.79 66.95 105.29 67.79
  Q 96.15 72.92 87.18 77.64
  Q 82.30 80.21 78.62 77.40
  Q 74.05 73.92 69.38 70.62
  Q 66.77 68.78 64.53 69.25"
/>
<path stroke="#7e2cd4" vector-effect="non-scaling-stroke" d="
  M 64.53 69.25
  L 64.04 67.03"
/>
<path stroke="#9448df" vector-effect="non-scaling-stroke" d="
  M 64.53 69.25
  Q 64.29 69.67 64.20 70.18"
/>
<path stroke="#601db9" vector-effect="non-scaling-stroke" d="
  M 86.11 90.32
  C 83.78 88.86 81.63 89.82 79.69 89.29
  C 76.56 88.44 73.75 84.75 70.94 81.46
  Q 69.02 79.19 62.73 72.99
  A 0.48 0.47 36.9 0 0 61.98 73.09
  Q 61.34 74.27 62.00 76.43"
/>
<path stroke="#ac5def" vector-effect="non-scaling-stroke" d="
  M 63.68 40.28
  Q 72.81 37.24 80.03 37.07
  Q 89.73 36.85 100.35 41.93
  Q 106.33 44.79 115.42 53.59
  A 0.28 0.28 0.0 0 0 115.75 53.63
  L 115.98 53.50
  A 0.65 0.65 0.0 0 0 116.16 52.53
  Q 108.17 42.36 97.07 38.23
  Q 80.97 32.24 63.36 39.41
  A 0.42 0.41 -20.7 0 0 63.13 39.91
  L 63.16 40.02
  A 0.41 0.40 -17.6 0 0 63.68 40.28"
/>
<path stroke="#a150e9" vector-effect="non-scaling-stroke" d="
  M 120.2664 72.3006
  A 1.89 0.75 -157.3 0 0 121.7206 73.7219
  A 1.89 0.75 -157.3 0 0 123.7536 73.7594
  A 1.89 0.75 -157.3 0 0 122.2994 72.3381
  A 1.89 0.75 -157.3 0 0 120.2664 72.3006"
/>
<path stroke="#601db9" vector-effect="non-scaling-stroke" d="
  M 113.93 61.22
  A 0.89 0.88 78.2 0 0 114.89 59.75
  C 111.36 56.79 106.41 51.41 102.20 48.52
  Q 91.16 40.94 76.69 43.04
  A 0.52 0.52 0.0 0 0 76.73 44.07
  Q 84.85 44.57 85.41 44.61
  C 96.15 45.45 102.25 51.16 109.67 58.29
  C 110.82 59.39 112.79 60.65 113.93 61.22"
/>
<path stroke="#601db9" vector-effect="non-scaling-stroke" d="
  M 36.48 85.68
  A 0.83 0.81 -13.6 0 0 36.00 86.45
  Q 36.85 103.73 47.94 114.82
  C 61.69 128.56 81.22 132.86 99.59 123.88
  A 0.39 0.39 0.0 0 0 99.78 123.38
  L 99.75 123.30
  A 0.38 0.37 67.0 0 0 99.27 123.10
  C 85.84 127.95 70.65 127.81 58.64 119.72
  Q 40.07 107.21 37.14 85.99
  A 0.44 0.43 -16.3 0 0 36.53 85.66
  L 36.48 85.68"
/>
</g>
<path fill="#ffffff" d="
  M 160.00 0.00
  L 160.00 164.00
  L 0.00 164.00
  L 0.00 0.00
  L 160.00 0.00
  Z
  M 159.20 82.01
  Q 159.20 122.79 159.26 163.57
  Q 159.26 163.80 159.44 163.80
  Q 159.63 163.80 159.63 163.57
  Q 159.69 122.79 159.69 82.01
  Q 159.69 41.23 159.63 0.44
  Q 159.63 0.22 159.44 0.22
  Q 159.26 0.22 159.26 0.44
  Q 159.20 41.23 159.20 82.01
  Z
  M 59.11 38.67
  Q 49.88 43.63 43.72 52.02
  C 31.84 67.39 30.54 89.54 39.77 106.07
  C 53.87 131.32 87.90 138.22 110.00 119.27
  Q 128.50 103.42 127.17 78.82
  Q 127.40 75.60 126.71 74.06
  Q 123.84 67.64 117.34 70.45
  Q 114.70 72.46 114.74 74.51
  Q 114.78 76.85 114.94 79.25
  Q 116.19 97.56 102.34 109.83
  Q 97.04 114.06 90.43 116.24
  Q 75.79 120.45 62.18 112.65
  Q 42.33 97.47 47.54 72.31
  C 51.40 58.45 62.66 47.30 77.09 45.68
  Q 97.07 43.45 109.42 60.29
  A 2.93 2.76 1.3 0 0 110.04 60.90
  C 115.67 64.81 122.79 59.57 119.44 52.91
  Q 118.00 50.45 115.04 47.47
  Q 99.77 32.11 78.20 33.13
  Q 68.63 33.58 59.11 38.67
  Z
  M 64.04 67.03
  Q 57.11 70.41 62.00 76.43
  Q 67.47 82.70 72.98 89.24
  Q 78.79 96.14 86.11 90.32
  Q 103.35 78.21 109.88 73.13
  Q 110.97 72.29 111.22 69.94
  C 111.43 66.31 107.12 64.57 104.13 66.16
  Q 88.69 74.42 85.02 76.30
  C 81.24 78.22 79.62 76.26 76.25 73.79
  Q 70.93 69.89 67.82 67.68
  Q 66.81 66.97 64.04 67.03
  Z"
/>
<path fill="#e7faff" fill-opacity="0.016" d="
  M 159.44 0.22
  Q 159.63 0.22 159.63 0.44
  Q 159.69 41.23 159.69 82.01
  Q 159.69 122.79 159.63 163.57
  Q 159.63 163.80 159.44 163.80
  Q 159.26 163.80 159.26 163.57
  Q 159.20 122.79 159.20 82.01
  Q 159.20 41.23 159.26 0.44
  Q 159.26 0.22 159.44 0.22
  Z"
/>
<path fill="#a04dea" d="
  M 119.44 52.91
  Q 118.27 57.43 114.11 55.84
  A 2.17 2.14 78.2 0 1 113.34 55.33
  C 107.02 48.60 101.70 44.45 93.04 41.46
  Q 85.96 38.88 78.80 39.31
  Q 64.55 40.16 52.23 50.23
  Q 50.72 51.47 49.43 51.97
  A 0.53 0.53 0.0 0 1 48.77 51.23
  C 50.79 47.46 54.07 45.23 58.72 41.13
  A 1.08 1.07 70.0 0 0 59.08 40.35
  L 59.11 38.67
  Q 68.63 33.58 78.20 33.13
  Q 99.77 32.11 115.04 47.47
  Q 118.00 50.45 119.44 52.91
  Z
  M 63.68 40.28
  Q 72.81 37.24 80.03 37.07
  Q 89.73 36.85 100.35 41.93
  Q 106.33 44.79 115.42 53.59
  A 0.28 0.28 0.0 0 0 115.75 53.63
  L 115.98 53.50
  A 0.65 0.65 0.0 0 0 116.16 52.53
  Q 108.17 42.36 97.07 38.23
  Q 80.97 32.24 63.36 39.41
  A 0.42 0.41 -20.7 0 0 63.13 39.91
  L 63.16 40.02
  A 0.41 0.40 -17.6 0 0 63.68 40.28
  Z"
/>
<path fill="#b76cf3" d="
  M 63.68 40.28
  A 0.41 0.40 -17.6 0 1 63.16 40.02
  L 63.13 39.91
  A 0.42 0.41 -20.7 0 1 63.36 39.41
  Q 80.97 32.24 97.07 38.23
  Q 108.17 42.36 116.16 52.53
  A 0.65 0.65 0.0 0 1 115.98 53.50
  L 115.75 53.63
  A 0.28 0.28 0.0 0 1 115.42 53.59
  Q 106.33 44.79 100.35 41.93
  Q 89.73 36.85 80.03 37.07
  Q 72.81 37.24 63.68 40.28
  Z"
/>
<path fill="#8a34de" d="
  M 59.11 38.67
  L 59.08 40.35
  A 1.08 1.07 70.0 0 1 58.72 41.13
  C 54.07 45.23 50.79 47.46 48.77 51.23
  A 0.53 0.53 0.0 0 0 49.43 51.97
  Q 50.72 51.47 52.23 50.23
  Q 64.55 40.16 78.80 39.31
  Q 85.96 38.88 93.04 41.46
  Q 85.77 40.04 81.03 40.13
  C 65.67 40.45 51.76 50.99 46.73 65.49
  Q 45.18 69.95 47.54 72.31
  Q 42.33 97.47 62.18 112.65
  Q 48.01 104.56 43.80 86.72
  A 0.62 0.61 -29.1 0 0 42.77 86.43
  Q 42.48 86.73 42.50 87.53
  Q 42.83 101.00 51.59 109.25
  C 64.21 123.09 82.08 125.65 98.54 116.78
  Q 102.67 114.55 105.27 111.63
  A 0.25 0.25 0.0 0 0 105.30 111.35
  L 105.15 111.10
  A 0.43 0.43 0.0 0 0 104.50 110.99
  Q 99.97 115.00 94.24 117.03
  L 90.43 116.24
  Q 97.04 114.06 102.34 109.83
  Q 106.65 110.47 110.54 104.79
  Q 115.69 97.28 117.40 93.49
  Q 122.55 82.09 117.34 70.45
  Q 123.84 67.64 126.71 74.06
  Q 127.40 75.60 127.17 78.82
  Q 125.79 89.80 121.83 98.09
  Q 116.55 109.14 106.34 115.80
  C 98.25 121.08 89.87 124.34 80.01 124.19
  C 64.52 123.97 53.54 116.14 45.36 103.63
  C 40.57 96.31 39.38 89.14 39.37 80.09
  Q 39.36 64.88 47.02 51.79
  A 0.56 0.56 0.0 0 0 46.33 50.99
  L 43.72 52.02
  Q 49.88 43.63 59.11 38.67
  Z
  M 120.2664 72.3006
  A 1.89 0.75 -157.3 0 0 121.7206 73.7219
  A 1.89 0.75 -157.3 0 0 123.7536 73.7594
  A 1.89 0.75 -157.3 0 0 122.2994 72.3381
  A 1.89 0.75 -157.3 0 0 120.2664 72.3006
  Z"
/>
<path fill="#7123ca" d="
  M 93.04 41.46
  C 101.70 44.45 107.02 48.60 113.34 55.33
  A 2.17 2.14 78.2 0 0 114.11 55.84
  Q 118.27 57.43 119.44 52.91
  C 122.79 59.57 115.67 64.81 110.04 60.90
  A 2.93 2.76 1.3 0 1 109.42 60.29
  Q 97.07 43.45 77.09 45.68
  C 62.66 47.30 51.40 58.45 47.54 72.31
  Q 45.18 69.95 46.73 65.49
  C 51.76 50.99 65.67 40.45 81.03 40.13
  Q 85.77 40.04 93.04 41.46
  Z
  M 113.93 61.22
  A 0.89 0.88 78.2 0 0 114.89 59.75
  C 111.36 56.79 106.41 51.41 102.20 48.52
  Q 91.16 40.94 76.69 43.04
  A 0.52 0.52 0.0 0 0 76.73 44.07
  Q 84.85 44.57 85.41 44.61
  C 96.15 45.45 102.25 51.16 109.67 58.29
  C 110.82 59.39 112.79 60.65 113.93 61.22
  Z"
/>
<path fill="#4e16a7" d="
  M 113.93 61.22
  C 112.79 60.65 110.82 59.39 109.67 58.29
  C 102.25 51.16 96.15 45.45 85.41 44.61
  Q 84.85 44.57 76.73 44.07
  A 0.52 0.52 0.0 0 1 76.69 43.04
  Q 91.16 40.94 102.20 48.52
  C 106.41 51.41 111.36 56.79 114.89 59.75
  A 0.89 0.88 78.2 0 1 113.93 61.22
  Z"
/>
<path fill="#7123ca" d="
  M 127.17 78.82
  Q 128.50 103.42 110.00 119.27
  C 87.90 138.22 53.87 131.32 39.77 106.07
  C 30.54 89.54 31.84 67.39 43.72 52.02
  L 46.33 50.99
  A 0.56 0.56 0.0 0 1 47.02 51.79
  Q 39.36 64.88 39.37 80.09
  C 39.38 89.14 40.57 96.31 45.36 103.63
  C 53.54 116.14 64.52 123.97 80.01 124.19
  C 89.87 124.34 98.25 121.08 106.34 115.80
  Q 116.55 109.14 121.83 98.09
  Q 125.79 89.80 127.17 78.82
  Z
  M 36.48 85.68
  A 0.83 0.81 -13.6 0 0 36.00 86.45
  Q 36.85 103.73 47.94 114.82
  C 61.69 128.56 81.22 132.86 99.59 123.88
  A 0.39 0.39 0.0 0 0 99.78 123.38
  L 99.75 123.30
  A 0.38 0.37 67.0 0 0 99.27 123.10
  C 85.84 127.95 70.65 127.81 58.64 119.72
  Q 40.07 107.21 37.14 85.99
  A 0.44 0.43 -16.3 0 0 36.53 85.66
  L 36.48 85.68
  Z"
/>
<path fill="#8a34de" d="
  M 111.22 69.94
  Q 109.10 71.12 107.14 72.23
  Q 95.31 78.90 87.48 84.23
  C 80.85 88.74 77.40 85.04 72.02 79.92
  Q 65.56 73.76 63.75 72.06
  Q 63.05 71.41 63.49 70.55
  Q 63.61 70.31 64.20 70.18
  Q 69.30 73.51 74.06 77.40
  C 78.42 80.96 80.72 82.48 85.72 79.70
  Q 90.86 76.85 102.44 70.69
  Q 104.64 69.52 107.77 68.94
  A 0.68 0.67 -34.2 0 0 108.01 67.70
  Q 106.79 66.95 105.29 67.79
  Q 96.15 72.92 87.18 77.64
  Q 82.30 80.21 78.62 77.40
  Q 74.05 73.92 69.38 70.62
  Q 66.77 68.78 64.53 69.25
  L 64.04 67.03
  Q 66.81 66.97 67.82 67.68
  Q 70.93 69.89 76.25 73.79
  C 79.62 76.26 81.24 78.22 85.02 76.30
  Q 88.69 74.42 104.13 66.16
  C 107.12 64.57 111.43 66.31 111.22 69.94
  Z"
/>
<path fill="#7123ca" d="
  M 64.04 67.03
  L 64.53 69.25
  Q 64.29 69.67 64.20 70.18
  Q 63.61 70.31 63.49 70.55
  Q 63.05 71.41 63.75 72.06
  Q 65.56 73.76 72.02 79.92
  C 77.40 85.04 80.85 88.74 87.48 84.23
  Q 95.31 78.90 107.14 72.23
  Q 109.10 71.12 111.22 69.94
  Q 110.97 72.29 109.88 73.13
  Q 103.35 78.21 86.11 90.32
  C 83.78 88.86 81.63 89.82 79.69 89.29
  C 76.56 88.44 73.75 84.75 70.94 81.46
  Q 69.02 79.19 62.73 72.99
  A 0.48 0.47 36.9 0 0 61.98 73.09
  Q 61.34 74.27 62.00 76.43
  Q 57.11 70.41 64.04 67.03
  Z"
/>
<path fill="#b76cf3" d="
  M 64.20 70.18
  Q 64.29 69.67 64.53 69.25
  Q 66.77 68.78 69.38 70.62
  Q 74.05 73.92 78.62 77.40
  Q 82.30 80.21 87.18 77.64
  Q 96.15 72.92 105.29 67.79
  Q 106.79 66.95 108.01 67.70
  A 0.68 0.67 -34.2 0 1 107.77 68.94
  Q 104.64 69.52 102.44 70.69
  Q 90.86 76.85 85.72 79.70
  C 80.72 82.48 78.42 80.96 74.06 77.40
  Q 69.30 73.51 64.20 70.18
  Z"
/>
<path fill="#7123ca" d="
  M 117.34 70.45
  Q 122.55 82.09 117.40 93.49
  Q 115.69 97.28 110.54 104.79
  Q 106.65 110.47 102.34 109.83
  Q 116.19 97.56 114.94 79.25
  Q 114.78 76.85 114.74 74.51
  Q 114.70 72.46 117.34 70.45
  Z"
/>
<ellipse fill="#b76cf3" cx="0.00" cy="0.00" transform="translate(122.01,73.03) rotate(-157.3)" rx="1.89" ry="0.75"/>
<path fill="#4e16a7" d="
  M 86.11 90.32
  Q 78.79 96.14 72.98 89.24
  Q 67.47 82.70 62.00 76.43
  Q 61.34 74.27 61.98 73.09
  A 0.48 0.47 36.9 0 1 62.73 72.99
  Q 69.02 79.19 70.94 81.46
  C 73.75 84.75 76.56 88.44 79.69 89.29
  C 81.63 89.82 83.78 88.86 86.11 90.32
  Z"
/>
<path fill="#4e16a7" d="
  M 37.14 85.99
  Q 40.07 107.21 58.64 119.72
  C 70.65 127.81 85.84 127.95 99.27 123.10
  A 0.38 0.37 67.0 0 1 99.75 123.30
  L 99.78 123.38
  A 0.39 0.39 0.0 0 1 99.59 123.88
  C 81.22 132.86 61.69 128.56 47.94 114.82
  Q 36.85 103.73 36.00 86.45
  A 0.83 0.81 -13.6 0 1 36.48 85.68
  L 36.53 85.66
  A 0.44 0.43 -16.3 0 1 37.14 85.99
  Z"
/>
<path fill="#a04dea" d="
  M 62.18 112.65
  Q 75.79 120.45 90.43 116.24
  L 94.24 117.03
  Q 79.66 123.38 65.42 116.17
  Q 58.30 112.56 54.43 108.69
  Q 50.51 104.78 45.95 96.26
  A 0.62 0.61 65.3 0 0 45.19 95.97
  L 45.17 95.97
  A 0.61 0.61 0.0 0 0 44.82 96.77
  Q 47.44 103.31 51.59 109.25
  Q 42.83 101.00 42.50 87.53
  Q 42.48 86.73 42.77 86.43
  A 0.62 0.61 -29.1 0 1 43.80 86.72
  Q 48.01 104.56 62.18 112.65
  Z"
/>
<path fill="#b76cf3" d="
  M 94.24 117.03
  Q 99.97 115.00 104.50 110.99
  A 0.43 0.43 0.0 0 1 105.15 111.10
  L 105.30 111.35
  A 0.25 0.25 0.0 0 1 105.27 111.63
  Q 102.67 114.55 98.54 116.78
  C 82.08 125.65 64.21 123.09 51.59 109.25
  Q 47.44 103.31 44.82 96.77
  A 0.61 0.61 0.0 0 1 45.17 95.97
  L 45.19 95.97
  A 0.62 0.61 65.3 0 1 45.95 96.26
  Q 50.51 104.78 54.43 108.69
  Q 58.30 112.56 65.42 116.17
  Q 79.66 123.38 94.24 117.03
  Z"
/>
</svg>
