<svg width="1000" height="1000" viewBox="0 0 1000 1000" fill="none" xmlns="http://www.w3.org/2000/svg">
<g clip-path="url(#clip0_1595_20)">
<path d="M545.254 206.758C544.476 207.099 543.614 207.201 542.779 207.052C541.944 206.902 541.174 206.507 540.567 205.918C534.148 199.668 524.655 190.267 512.09 177.715C500.046 165.684 485.502 159.603 468.457 159.473C442.872 159.277 415.274 169.98 393.184 182.773C361.283 201.263 331.4 223.952 303.536 250.84C252.442 300.156 208.575 355.644 181.192 419.394C171.075 442.969 163.438 473.555 169.727 498.809C173.204 512.715 180.293 521.953 192.188 531.621C199.519 537.572 205.079 542.259 208.868 545.684C209.105 545.905 209.273 546.192 209.349 546.508C209.426 546.824 209.408 547.155 209.297 547.461C199.532 574.961 200.372 608.75 215.547 634.062C231.289 660.339 253.861 677.637 283.262 685.957C290.372 687.975 297.539 688.945 304.766 688.867C305.127 688.867 305.48 688.973 305.782 689.171C306.083 689.368 306.321 689.65 306.465 689.98C346.739 780.859 434.61 833.437 532.168 839.805C579.877 842.917 624.213 836.224 665.176 819.727C716.674 798.984 756.283 764.212 784.004 715.41C793.783 698.197 800.899 678.053 805.352 654.98C807.448 644.173 808.568 636.152 808.711 630.918C809.18 615.039 801.973 593.281 784.082 590.312C783.817 590.266 783.569 590.148 783.366 589.973C783.163 589.797 783.012 589.57 782.93 589.316L773.438 559.59C773.376 559.381 773.359 559.162 773.386 558.947C773.412 558.732 773.483 558.525 773.594 558.34C784.805 540.254 786.27 520.996 775.918 503.516C762.598 480.957 730.528 471.836 706.426 465.781C706.268 465.736 706.127 465.642 706.026 465.512C705.924 465.382 705.866 465.223 705.86 465.059C705.573 454.837 705.183 441.973 704.688 426.465C703.653 393.906 696.309 363.769 674.161 340.664C673.94 340.433 673.816 340.126 673.816 339.809C673.816 339.492 673.94 339.189 674.161 338.965C696.641 315.801 717.188 286.211 723.067 254.473C726.973 233.301 722.422 211.504 705.821 197.891C670.762 169.141 609.825 180.937 571.328 196.035C561.25 199.993 552.559 203.568 545.254 206.758Z" stroke="#80700E" stroke-width="3.90625"/>
<path d="M517.989 219.942C517.286 219.447 516.876 219.115 516.759 218.945C515.378 216.849 507.195 208.275 492.208 193.223C486.283 187.272 478.946 184.382 470.196 184.551C442.911 185.059 414.884 198.301 391.583 212.891C343.829 242.793 302.344 281.699 266.817 325.938C244.786 353.36 226.166 382.559 210.958 413.535C199.337 437.168 180.118 486.66 201.719 508.496C208.529 515.384 214.688 520.938 220.196 525.156C220.256 525.202 220.325 525.235 220.398 525.254C220.47 525.273 220.546 525.277 220.621 525.266C220.696 525.255 220.767 525.23 220.832 525.191C220.896 525.152 220.952 525.1 220.997 525.039C234.552 506.732 252.755 495.189 275.606 490.41C275.858 490.356 276.092 490.238 276.287 490.067C276.481 489.896 276.63 489.678 276.719 489.434C299.454 428.197 332.078 374.948 374.591 329.688C385.554 318.008 397.813 306.654 411.368 295.625C427.839 282.227 438.946 273.412 444.688 269.18C454.779 261.758 470.385 250.938 491.505 236.719C495.203 234.219 504.018 228.959 517.95 220.938C518.035 220.89 518.105 220.821 518.156 220.737C518.206 220.653 518.235 220.558 518.238 220.459C518.242 220.36 518.221 220.261 518.178 220.171C518.134 220.08 518.069 220.002 517.989 219.942Z" stroke="#80700E" stroke-width="3.90625"/>
<path d="M522.227 286.894C520.261 286.986 519.056 287.122 518.614 287.305C507.95 291.562 498.106 296.582 489.082 302.363C488.674 302.618 488.207 302.754 487.735 302.754H486.348C486.162 302.755 485.979 302.715 485.811 302.636C485.643 302.557 485.495 302.442 485.378 302.299C485.262 302.156 485.18 301.99 485.138 301.811C485.096 301.633 485.096 301.448 485.137 301.269C486.609 294.668 489.2 288.913 492.911 284.004C493.01 283.874 493.077 283.724 493.108 283.564C493.139 283.404 493.133 283.239 493.089 283.082C493.046 282.925 492.966 282.78 492.857 282.658C492.748 282.537 492.613 282.443 492.461 282.383C491.797 282.122 491.211 282.194 490.704 282.598C488.907 284.03 485.964 285.664 481.875 287.5C481.453 287.692 481.09 287.981 480.821 288.34C479.857 289.59 478.848 290.553 477.793 291.23C464.799 299.368 453.946 307.194 445.235 314.707C442.11 317.402 430.345 328.952 409.942 349.355C409.823 349.47 409.728 349.608 409.663 349.76C409.598 349.911 409.563 350.075 409.561 350.24C409.559 350.405 409.59 350.569 409.652 350.723C409.714 350.876 409.806 351.015 409.922 351.133L409.961 351.172C410.184 351.395 410.482 351.526 410.795 351.536C411.107 351.547 411.41 351.438 411.641 351.23C414.48 348.743 418.028 346.256 422.286 343.769C442.39 332.051 462.429 323.164 482.403 317.109C482.439 317.104 482.472 317.085 482.494 317.055C482.516 317.026 482.525 316.989 482.52 316.953C482.515 316.917 482.495 316.884 482.466 316.862C482.437 316.84 482.4 316.831 482.364 316.836L481.778 316.797C481.754 316.799 481.732 316.793 481.716 316.778C481.701 316.763 481.694 316.742 481.697 316.719C481.699 316.695 481.711 316.672 481.73 316.654C481.749 316.635 481.773 316.624 481.797 316.621C482.93 316.66 484.076 316.497 485.235 316.133C526.914 303.529 569.206 301.94 612.11 311.367C612.293 311.407 612.482 311.41 612.665 311.374C612.849 311.339 613.023 311.267 613.177 311.163C613.331 311.059 613.461 310.924 613.56 310.768C613.658 310.611 613.723 310.436 613.75 310.254C613.868 309.551 613.549 309.004 612.793 308.613C595.267 299.681 575.339 294.434 553.008 292.871C552.663 292.849 552.332 292.727 552.054 292.521C551.776 292.316 551.563 292.034 551.442 291.71C551.32 291.386 551.294 291.034 551.368 290.696C551.441 290.358 551.611 290.049 551.856 289.805L562.168 279.492C562.334 279.332 562.445 279.125 562.486 278.9C562.527 278.674 562.497 278.44 562.398 278.231C562.3 278.021 562.139 277.846 561.937 277.729C561.735 277.612 561.502 277.56 561.27 277.578C551.426 278.385 541.107 280.391 530.313 283.594C526.081 284.844 523.848 285.664 523.614 286.055C523.47 286.3 523.268 286.506 523.026 286.653C522.783 286.8 522.509 286.883 522.227 286.894Z" stroke="#80700E" stroke-width="3.90625"/>
<path d="M531.759 648.535C535.704 662.989 549.259 670.196 562.911 674.004C588.145 681.035 616.563 680.996 642.852 676.016C681.134 668.763 716.7 654.252 749.551 632.481C749.754 632.344 749.992 632.27 750.236 632.268C750.48 632.267 750.72 632.338 750.926 632.473C751.131 632.608 751.294 632.801 751.393 633.028C751.493 633.255 751.525 633.506 751.485 633.75C751.407 634.206 751.121 634.753 750.626 635.391C744.552 643.067 734.962 652.188 726.036 658.223C689.434 682.95 646.837 694.278 602.071 695.391C569.044 696.211 510.704 684.043 514.473 638.184C515.762 622.657 524.844 608.164 540.333 604.18C543.575 603.334 549.232 603.412 557.305 604.414C602.787 610.013 647.078 604.733 690.176 588.575C708.953 581.543 725.242 572.487 739.044 561.407C753.184 550.078 768.282 527.735 751.173 511.367C746.811 507.188 742.318 504.05 737.696 501.953C726.342 496.81 712.865 492.403 697.266 488.731C687.826 486.504 682.839 480.241 682.305 469.942C681.459 453.913 680.619 437.735 679.786 421.407C679.044 406.973 677.403 392.52 669.864 380.664C660.469 365.918 643.36 365.117 629.259 374.434C628.009 375.254 624.298 378.19 618.126 383.242C601.212 397.051 582.637 399.356 559.747 397.285C552.051 396.595 542.37 395.801 530.704 394.903C509.024 393.242 490.157 402.715 476.622 419.336C461.309 438.125 456.602 462.832 461.915 486.504C466.27 505.899 478.946 523.242 493.126 538.633C497.911 543.809 506.856 553.418 502.13 558.399C481.413 580.209 469.766 606.498 467.188 637.266C463.829 677.5 478.165 717.383 510.704 742.325C566.661 785.235 644.18 780.02 703.341 747.305C743.028 725.371 774.61 686.953 783.243 642.227C785.88 628.653 787.54 610.313 767.657 610.625C767.352 610.629 767.055 610.522 766.822 610.325C766.589 610.128 766.434 609.853 766.387 609.551C764.33 597.754 760.997 586.283 756.387 575.137C756.342 575.025 756.27 574.925 756.179 574.844C756.088 574.764 755.979 574.706 755.86 574.674C755.742 574.642 755.617 574.637 755.495 574.66C755.373 574.683 755.258 574.732 755.157 574.805C705.645 611.797 642.54 626.231 580.958 624.043C571.212 623.692 562.618 621.934 552.227 621.035C542.865 620.228 536.563 623.822 533.321 631.817C533.267 631.949 533.24 632.09 533.242 632.232C533.243 632.375 533.273 632.516 533.329 632.647C533.386 632.777 533.467 632.896 533.57 632.995C533.673 633.094 533.794 633.171 533.926 633.223C540.671 635.853 548.301 638.086 556.817 639.922C583.158 645.625 610.137 646.927 637.755 643.828C638.175 643.778 638.6 643.855 638.976 644.05C639.351 644.244 639.66 644.547 639.863 644.92C640.067 645.293 640.155 645.719 640.117 646.144C640.079 646.568 639.916 646.973 639.649 647.305C639.337 647.696 638.907 647.995 638.36 648.203C605.606 660.254 566.895 657.617 533.126 647.207C532.94 647.152 532.742 647.148 532.554 647.194C532.366 647.241 532.193 647.337 532.054 647.472C531.915 647.607 531.814 647.777 531.762 647.964C531.71 648.151 531.709 648.348 531.759 648.535Z" stroke="#80700E" stroke-width="3.90625"/>
<path d="M293.555 514.004C288.646 514.317 284.044 514.955 279.747 515.918C241.895 524.414 224.337 559.649 229.122 596.172C234.063 633.672 274.044 666.895 311.993 663.067C348.145 659.414 359.981 622.735 357.794 591.66C357.064 581.205 355.697 572.279 353.692 564.883C347.286 541.192 331.622 522.09 307.422 515.469C302.748 514.193 298.126 513.705 293.555 514.004Z" stroke="#80700E" stroke-width="3.90625"/>
<path d="M664.082 479.727C668.477 467.656 663.536 447.578 658.282 436.348C655.821 431.074 648.223 427.285 642.852 431.289C631.954 439.414 641.797 469.551 647.383 479.238C647.716 479.814 648.192 480.293 648.765 480.625C649.337 480.958 649.986 481.133 650.645 481.133H662.071C662.512 481.132 662.941 480.997 663.301 480.745C663.661 480.493 663.934 480.138 664.082 479.727Z" stroke="#80700E" stroke-width="3.90625"/>
<path d="M544.688 488.848C551.043 489.043 556.628 490.059 561.446 491.895C570.483 495.332 575.821 497.363 577.462 497.988C577.917 498.158 578.407 498.214 578.888 498.152C579.369 498.089 579.828 497.911 580.223 497.631C580.618 497.352 580.938 496.98 581.155 496.548C581.372 496.117 581.478 495.639 581.466 495.156C581.44 494.141 580.821 492.806 579.61 491.152C571.485 480.117 558.692 473.965 545.118 473.574C531.544 473.184 518.419 478.574 509.669 489.141C508.367 490.716 507.677 492.012 507.599 493.027C507.56 493.507 507.641 493.988 507.833 494.429C508.025 494.87 508.322 495.258 508.7 495.558C509.077 495.859 509.523 496.063 509.998 496.153C510.474 496.243 510.964 496.216 511.427 496.074C513.093 495.553 518.536 493.835 527.755 490.918C532.677 489.356 538.321 488.665 544.688 488.848Z" stroke="#80700E" stroke-width="3.90625"/>
<path d="M660.357 496.703C657.986 496.645 655.68 497.875 653.947 500.123C652.214 502.37 651.196 505.451 651.117 508.688C651.037 511.924 651.904 515.051 653.525 517.381C655.146 519.71 657.389 521.052 659.761 521.11C662.133 521.167 664.439 519.937 666.172 517.69C667.905 515.442 668.923 512.361 669.002 509.125C669.081 505.888 668.214 502.761 666.593 500.432C664.972 498.102 662.729 496.761 660.357 496.703Z" stroke="#80700E" stroke-width="3.90625"/>
<path d="M555.781 512.93C562.559 512.187 569.609 513.359 575.625 513.535C575.972 513.544 576.318 513.487 576.64 513.367C576.962 513.246 577.253 513.066 577.492 512.837C577.732 512.608 577.916 512.336 578.032 512.039C578.148 511.742 578.193 511.426 578.164 511.113C578.047 509.785 577.409 508.626 576.25 507.637C570.176 502.363 562.461 501.016 554.57 501.894C546.66 502.773 539.434 505.781 534.668 512.246C533.756 513.47 533.385 514.746 533.555 516.074C533.594 516.387 533.706 516.686 533.883 516.952C534.061 517.218 534.3 517.444 534.584 517.616C534.868 517.787 535.192 517.901 535.533 517.948C535.874 517.995 536.225 517.976 536.562 517.891C542.402 516.387 549.023 513.691 555.781 512.93Z" stroke="#80700E" stroke-width="3.90625"/>
<path d="M614.611 517.264C613.589 519.416 613.784 522.039 615.152 524.554C616.521 527.068 618.951 529.27 621.908 530.674C624.865 532.079 628.107 532.57 630.921 532.041C633.735 531.512 635.89 530.006 636.912 527.853C637.934 525.701 637.74 523.079 636.371 520.564C635.003 518.049 632.573 515.847 629.615 514.443C626.658 513.039 623.416 512.547 620.602 513.076C617.788 513.605 615.633 515.112 614.611 517.264Z" stroke="#80700E" stroke-width="3.90625"/>
<path d="M333.809 616.113C333.509 615.9 333.139 615.809 332.774 615.859L324.766 616.934C324.469 616.972 324.172 616.966 323.887 616.914C313.36 615 313.594 605.586 317.325 598.027C326.895 578.77 328.868 559.648 310.352 545.937C302.839 540.378 294.473 538.522 285.254 540.371C265.567 544.336 254.981 564.199 256.934 583.359C257.029 584.275 257.401 585.125 257.986 585.764C258.571 586.402 259.332 586.789 260.137 586.855C262.924 587.064 264.89 585.573 266.036 582.383C268.184 576.348 270.586 568.809 275.235 565.156C285.079 557.441 297.051 559.395 304.082 569.336C310.254 578.105 304.473 589.707 302.813 596.289C299.414 609.805 304.336 627.207 320.704 628.164C324.707 628.398 333.848 625.625 334.961 620.117C335.339 618.242 334.955 616.908 333.809 616.113Z" stroke="#80700E" stroke-width="3.90625"/>
<path d="M1000 0V1000H0V0H1000ZM545.254 206.758C544.475 207.099 543.614 207.201 542.779 207.052C541.944 206.902 541.174 206.508 540.566 205.918C534.147 199.668 524.655 190.267 512.09 177.715C500.046 165.684 485.501 159.603 468.457 159.473C442.871 159.277 415.273 169.98 393.184 182.773C361.283 201.263 331.4 223.952 303.535 250.84C252.441 300.156 208.574 355.645 181.191 419.395C171.074 442.969 163.438 473.555 169.727 498.809C173.203 512.715 180.293 521.953 192.188 531.621C199.518 537.572 205.078 542.259 208.867 545.684C209.105 545.905 209.272 546.192 209.349 546.508C209.425 546.824 209.407 547.155 209.297 547.461C199.531 574.961 200.371 608.75 215.547 634.063C231.289 660.339 253.861 677.637 283.262 685.957C290.371 687.975 297.539 688.945 304.766 688.867C305.126 688.867 305.479 688.973 305.781 689.171C306.083 689.368 306.321 689.65 306.465 689.98C346.738 780.859 434.609 833.438 532.168 839.805C579.876 842.917 624.212 836.224 665.176 819.727C716.673 798.984 756.283 764.212 784.004 715.41C793.783 698.197 800.898 678.053 805.352 654.98C807.448 644.173 808.568 636.152 808.711 630.918C809.18 615.039 801.973 593.281 784.082 590.312C783.816 590.266 783.568 590.148 783.365 589.973C783.162 589.797 783.012 589.57 782.93 589.316L773.438 559.59C773.376 559.381 773.358 559.162 773.385 558.947C773.412 558.732 773.483 558.525 773.594 558.34C784.805 540.254 786.27 520.996 775.918 503.516C762.598 480.957 730.527 471.836 706.426 465.781C706.267 465.736 706.127 465.642 706.025 465.512C705.923 465.382 705.865 465.223 705.859 465.059C705.573 454.837 705.182 441.973 704.687 426.465C703.652 393.906 696.309 363.77 674.16 340.664C673.939 340.433 673.816 340.126 673.816 339.809C673.816 339.492 673.939 339.189 674.16 338.965C696.641 315.801 717.187 286.211 723.066 254.473C726.973 233.301 722.422 211.504 705.82 197.891C670.762 169.141 609.824 180.938 571.328 196.035C561.25 199.993 552.559 203.568 545.254 206.758Z" fill="#FFE01B"/>
<path d="M545.254 206.758C552.559 203.568 561.25 199.993 571.328 196.035C609.825 180.937 670.762 169.141 705.821 197.891C722.422 211.504 726.973 233.301 723.067 254.473C717.188 286.211 696.641 315.801 674.161 338.965C673.94 339.189 673.816 339.492 673.816 339.809C673.816 340.126 673.94 340.433 674.161 340.664C696.309 363.769 703.653 393.906 704.688 426.465C705.183 441.973 705.573 454.837 705.86 465.059C705.866 465.223 705.924 465.382 706.026 465.512C706.127 465.642 706.268 465.736 706.426 465.781C730.528 471.836 762.598 480.957 775.918 503.516C786.27 520.996 784.805 540.254 773.594 558.34C773.483 558.525 773.412 558.732 773.386 558.947C773.359 559.162 773.376 559.381 773.438 559.59L782.93 589.316C783.012 589.57 783.163 589.797 783.366 589.973C783.569 590.148 783.817 590.266 784.082 590.312C801.973 593.281 809.18 615.039 808.711 630.918C808.568 636.152 807.448 644.173 805.352 654.98C800.899 678.053 793.783 698.197 784.004 715.41C756.283 764.212 716.674 798.984 665.176 819.727C624.213 836.224 579.877 842.917 532.168 839.805C434.61 833.437 346.739 780.859 306.465 689.98C306.321 689.65 306.083 689.368 305.782 689.171C305.48 688.973 305.127 688.867 304.766 688.867C297.539 688.945 290.372 687.975 283.262 685.957C253.861 677.637 231.289 660.339 215.547 634.062C200.372 608.75 199.532 574.961 209.297 547.461C209.408 547.155 209.426 546.824 209.349 546.508C209.273 546.192 209.105 545.905 208.868 545.684C205.079 542.259 199.519 537.572 192.188 531.621C180.293 521.953 173.204 512.715 169.727 498.809C163.438 473.555 171.075 442.969 181.192 419.394C208.575 355.644 252.442 300.156 303.536 250.84C331.4 223.952 361.283 201.263 393.184 182.773C415.274 169.98 442.872 159.277 468.457 159.473C485.502 159.603 500.046 165.684 512.09 177.715C524.655 190.267 534.148 199.668 540.567 205.918C541.174 206.507 541.944 206.902 542.779 207.052C543.614 207.201 544.476 207.099 545.254 206.758ZM517.989 219.941C517.286 219.447 516.875 219.115 516.758 218.945C515.378 216.849 507.194 208.275 492.207 193.223C486.283 187.272 478.946 184.381 470.196 184.551C442.911 185.059 414.883 198.301 391.582 212.891C343.829 242.793 302.344 281.699 266.817 325.937C244.786 353.359 226.166 382.559 210.957 413.535C199.336 437.168 180.118 486.66 201.719 508.496C208.529 515.384 214.688 520.937 220.196 525.156C220.256 525.202 220.324 525.235 220.397 525.254C220.47 525.273 220.546 525.277 220.621 525.266C220.695 525.255 220.767 525.229 220.831 525.19C220.896 525.151 220.952 525.1 220.997 525.039C234.551 506.732 252.754 495.189 275.606 490.41C275.858 490.356 276.092 490.237 276.286 490.067C276.481 489.896 276.63 489.678 276.719 489.434C299.454 428.197 332.077 374.948 374.59 329.687C385.554 318.008 397.813 306.654 411.368 295.625C427.839 282.227 438.946 273.411 444.688 269.18C454.779 261.758 470.385 250.937 491.504 236.719C495.202 234.219 504.017 228.958 517.95 220.937C518.034 220.889 518.105 220.82 518.155 220.737C518.206 220.653 518.234 220.558 518.238 220.459C518.242 220.36 518.221 220.261 518.178 220.171C518.134 220.08 518.069 220.001 517.989 219.941ZM522.227 286.894C520.261 286.986 519.056 287.122 518.614 287.305C507.95 291.562 498.106 296.582 489.082 302.363C488.674 302.618 488.207 302.754 487.735 302.754H486.348C486.162 302.755 485.979 302.715 485.811 302.636C485.643 302.557 485.495 302.442 485.378 302.299C485.262 302.156 485.18 301.989 485.138 301.811C485.096 301.633 485.096 301.448 485.137 301.269C486.608 294.668 489.2 288.913 492.911 284.004C493.01 283.874 493.077 283.724 493.108 283.564C493.139 283.404 493.133 283.239 493.089 283.082C493.046 282.925 492.966 282.78 492.857 282.658C492.748 282.537 492.613 282.443 492.461 282.383C491.797 282.122 491.211 282.194 490.704 282.598C488.907 284.03 485.964 285.664 481.875 287.5C481.453 287.692 481.09 287.981 480.821 288.34C479.857 289.59 478.848 290.553 477.793 291.23C464.799 299.368 453.946 307.194 445.235 314.707C442.11 317.402 430.345 328.952 409.942 349.355C409.823 349.47 409.728 349.608 409.663 349.76C409.597 349.911 409.563 350.075 409.561 350.24C409.559 350.405 409.59 350.569 409.652 350.723C409.714 350.876 409.806 351.015 409.922 351.133L409.961 351.172C410.184 351.395 410.482 351.525 410.795 351.536C411.107 351.547 411.41 351.438 411.641 351.23C414.48 348.743 418.028 346.256 422.286 343.769C442.39 332.051 462.429 323.164 482.403 317.109C482.439 317.104 482.472 317.085 482.494 317.055C482.516 317.026 482.525 316.989 482.52 316.953C482.515 316.917 482.495 316.884 482.466 316.862C482.437 316.84 482.4 316.831 482.364 316.836L481.778 316.797C481.754 316.799 481.731 316.793 481.716 316.778C481.701 316.763 481.694 316.742 481.696 316.719C481.699 316.695 481.711 316.672 481.73 316.654C481.749 316.635 481.773 316.624 481.797 316.621C482.93 316.66 484.076 316.497 485.235 316.133C526.914 303.529 569.206 301.94 612.11 311.367C612.293 311.407 612.482 311.41 612.665 311.374C612.849 311.339 613.023 311.267 613.177 311.163C613.331 311.059 613.461 310.924 613.56 310.768C613.658 310.611 613.723 310.436 613.75 310.254C613.868 309.551 613.549 309.004 612.793 308.613C595.267 299.681 575.339 294.434 553.008 292.871C552.663 292.849 552.332 292.727 552.054 292.521C551.776 292.316 551.563 292.034 551.442 291.71C551.32 291.386 551.294 291.034 551.368 290.696C551.441 290.358 551.611 290.049 551.856 289.805L562.168 279.492C562.334 279.332 562.445 279.125 562.486 278.9C562.527 278.674 562.497 278.44 562.398 278.231C562.3 278.021 562.139 277.846 561.937 277.729C561.735 277.612 561.502 277.56 561.27 277.578C551.426 278.385 541.107 280.391 530.313 283.594C526.081 284.844 523.848 285.664 523.614 286.055C523.47 286.3 523.268 286.506 523.026 286.653C522.783 286.8 522.509 286.883 522.227 286.894ZM531.758 648.535C535.704 662.988 549.258 670.195 562.911 674.004C588.145 681.035 616.563 680.996 642.852 676.016C681.133 668.763 716.7 654.251 749.551 632.48C749.754 632.343 749.992 632.269 750.236 632.268C750.48 632.267 750.72 632.338 750.926 632.473C751.131 632.608 751.294 632.801 751.393 633.028C751.492 633.255 751.524 633.506 751.485 633.75C751.407 634.206 751.12 634.753 750.625 635.391C744.551 643.066 734.961 652.187 726.036 658.223C689.434 682.949 646.836 694.277 602.071 695.391C569.043 696.211 510.704 684.043 514.473 638.184C515.762 622.656 524.844 608.164 540.332 604.18C543.575 603.333 549.232 603.411 557.305 604.414C602.787 610.013 647.077 604.733 690.176 588.574C708.952 581.543 725.241 572.487 739.043 561.406C753.184 550.078 768.282 527.734 751.172 511.367C746.81 507.187 742.318 504.049 737.696 501.953C726.342 496.81 712.865 492.402 697.266 488.73C687.826 486.504 682.839 480.241 682.305 469.941C681.459 453.913 680.619 437.734 679.786 421.406C679.043 406.973 677.403 392.519 669.864 380.664C660.469 365.918 643.36 365.117 629.258 374.434C628.008 375.254 624.297 378.19 618.125 383.242C601.211 397.051 582.637 399.355 559.746 397.285C552.051 396.595 542.37 395.801 530.704 394.902C509.024 393.242 490.157 402.715 476.621 419.336C461.309 438.125 456.602 462.832 461.914 486.504C466.27 505.898 478.946 523.242 493.125 538.633C497.911 543.809 506.856 553.418 502.129 558.398C481.413 580.208 469.766 606.497 467.188 637.266C463.829 677.5 478.164 717.383 510.704 742.324C566.661 785.234 644.18 780.019 703.34 747.305C743.028 725.371 774.61 686.953 783.243 642.227C785.879 628.652 787.539 610.312 767.657 610.625C767.351 610.629 767.055 610.522 766.821 610.325C766.588 610.127 766.434 609.853 766.387 609.551C764.33 597.754 760.996 586.283 756.387 575.137C756.341 575.024 756.27 574.924 756.179 574.844C756.087 574.764 755.978 574.706 755.86 574.674C755.741 574.642 755.616 574.637 755.495 574.66C755.373 574.682 755.257 574.732 755.157 574.805C705.645 611.797 642.539 626.23 580.957 624.043C571.211 623.691 562.618 621.934 552.227 621.035C542.865 620.228 536.563 623.822 533.321 631.816C533.267 631.948 533.24 632.09 533.241 632.232C533.243 632.375 533.273 632.515 533.329 632.646C533.385 632.777 533.467 632.895 533.57 632.994C533.672 633.093 533.793 633.171 533.926 633.223C540.671 635.853 548.301 638.086 556.817 639.922C583.158 645.625 610.137 646.927 637.754 643.828C638.175 643.778 638.6 643.855 638.975 644.049C639.351 644.244 639.66 644.547 639.863 644.92C640.066 645.292 640.155 645.718 640.116 646.143C640.078 646.568 639.915 646.972 639.649 647.305C639.336 647.695 638.907 647.995 638.36 648.203C605.606 660.254 566.895 657.617 533.125 647.207C532.939 647.152 532.742 647.148 532.554 647.194C532.365 647.241 532.193 647.336 532.054 647.471C531.914 647.607 531.814 647.776 531.762 647.963C531.71 648.15 531.709 648.348 531.758 648.535ZM293.555 514.004C288.646 514.316 284.043 514.954 279.746 515.918C241.895 524.414 224.336 559.648 229.122 596.172C234.063 633.672 274.043 666.894 311.993 663.066C348.145 659.414 359.981 622.734 357.793 591.66C357.064 581.204 355.697 572.279 353.692 564.883C347.286 541.191 331.621 522.09 307.422 515.469C302.748 514.193 298.125 513.704 293.555 514.004Z" fill="black"/>
<path d="M517.949 220.938C504.017 228.959 495.202 234.219 491.504 236.719C470.384 250.938 454.778 261.758 444.687 269.18C438.945 273.412 427.838 282.227 411.367 295.625C397.812 306.654 385.553 318.008 374.59 329.688C332.077 374.948 299.453 428.197 276.719 489.434C276.629 489.678 276.48 489.896 276.286 490.067C276.091 490.238 275.857 490.356 275.605 490.41C252.754 495.189 234.551 506.732 220.996 525.039C220.951 525.1 220.895 525.152 220.831 525.191C220.766 525.23 220.695 525.255 220.62 525.266C220.546 525.277 220.47 525.273 220.397 525.254C220.324 525.235 220.255 525.202 220.195 525.156C214.687 520.938 208.528 515.384 201.719 508.496C180.117 486.66 199.336 437.168 210.957 413.535C226.165 382.559 244.785 353.36 266.816 325.938C302.344 281.699 343.828 242.793 391.582 212.891C414.883 198.301 442.91 185.059 470.195 184.551C478.945 184.382 486.282 187.272 492.207 193.223C507.194 208.275 515.377 216.849 516.758 218.945C516.875 219.115 517.285 219.447 517.988 219.942C518.068 220.002 518.133 220.08 518.177 220.171C518.221 220.261 518.241 220.36 518.237 220.459C518.234 220.558 518.205 220.653 518.155 220.737C518.104 220.821 518.034 220.89 517.949 220.938Z" fill="#FFE01B"/>
<path d="M523.613 286.055C523.847 285.664 526.08 284.844 530.312 283.594C541.106 280.391 551.425 278.385 561.269 277.578C561.501 277.56 561.734 277.612 561.936 277.729C562.138 277.846 562.299 278.021 562.398 278.231C562.496 278.44 562.527 278.674 562.485 278.9C562.444 279.125 562.333 279.332 562.168 279.492L551.855 289.805C551.61 290.049 551.441 290.358 551.367 290.696C551.294 291.034 551.319 291.386 551.441 291.71C551.563 292.034 551.775 292.316 552.053 292.521C552.331 292.727 552.662 292.849 553.007 292.871C575.338 294.434 595.267 299.681 612.793 308.613C613.548 309.004 613.867 309.551 613.75 310.254C613.722 310.436 613.657 310.611 613.559 310.768C613.46 310.924 613.33 311.059 613.176 311.163C613.022 311.267 612.848 311.339 612.664 311.374C612.481 311.41 612.292 311.407 612.109 311.367C569.205 301.94 526.914 303.529 485.234 316.133C484.075 316.497 482.929 316.66 481.796 316.621C481.772 316.624 481.748 316.635 481.729 316.654C481.71 316.672 481.698 316.695 481.696 316.719C481.693 316.742 481.7 316.763 481.715 316.778C481.731 316.793 481.753 316.799 481.777 316.797L482.363 316.836C482.399 316.831 482.436 316.84 482.465 316.862C482.495 316.884 482.514 316.917 482.519 316.953C482.524 316.989 482.515 317.026 482.493 317.055C482.471 317.085 482.438 317.104 482.402 317.109C462.428 323.164 442.389 332.051 422.285 343.769C418.027 346.256 414.479 348.743 411.64 351.23C411.409 351.438 411.107 351.547 410.794 351.536C410.482 351.526 410.183 351.395 409.961 351.172L409.921 351.133C409.805 351.015 409.713 350.876 409.651 350.723C409.589 350.569 409.558 350.405 409.56 350.24C409.562 350.075 409.597 349.911 409.662 349.76C409.727 349.608 409.822 349.47 409.941 349.355C430.345 328.952 442.109 317.402 445.234 314.707C453.945 307.194 464.798 299.368 477.793 291.23C478.847 290.553 479.856 289.59 480.82 288.34C481.089 287.981 481.452 287.692 481.875 287.5C485.963 285.664 488.906 284.03 490.703 282.598C491.211 282.194 491.796 282.122 492.461 282.383C492.612 282.443 492.748 282.537 492.856 282.658C492.965 282.78 493.045 282.925 493.088 283.082C493.132 283.239 493.138 283.404 493.107 283.564C493.076 283.724 493.009 283.874 492.91 284.004C489.199 288.913 486.608 294.668 485.136 301.269C485.095 301.448 485.095 301.633 485.137 301.811C485.179 301.99 485.261 302.156 485.378 302.299C485.494 302.442 485.642 302.557 485.81 302.636C485.978 302.715 486.161 302.755 486.347 302.754H487.734C488.206 302.754 488.673 302.618 489.082 302.363C498.105 296.582 507.949 291.562 518.613 287.305C519.056 287.122 520.26 286.986 522.226 286.894C522.508 286.883 522.782 286.8 523.025 286.653C523.267 286.506 523.469 286.3 523.613 286.055Z" fill="#FFE01B"/>
<path d="M531.758 648.535C531.708 648.348 531.709 648.15 531.761 647.963C531.813 647.776 531.914 647.607 532.053 647.472C532.192 647.336 532.365 647.241 532.553 647.194C532.742 647.148 532.939 647.152 533.125 647.207C566.894 657.617 605.605 660.254 638.359 648.203C638.906 647.995 639.336 647.695 639.648 647.305C639.915 646.972 640.078 646.568 640.116 646.143C640.154 645.719 640.066 645.293 639.863 644.92C639.659 644.547 639.35 644.244 638.975 644.049C638.599 643.855 638.174 643.778 637.754 643.828C610.137 646.927 583.157 645.625 556.816 639.922C548.301 638.086 540.67 635.853 533.926 633.223C533.793 633.171 533.672 633.093 533.569 632.995C533.467 632.896 533.385 632.777 533.328 632.646C533.272 632.515 533.242 632.375 533.241 632.232C533.239 632.09 533.266 631.948 533.32 631.816C536.562 623.822 542.864 620.228 552.226 621.035C562.617 621.934 571.211 623.691 580.957 624.043C642.539 626.231 705.644 611.797 755.156 574.805C755.257 574.732 755.372 574.682 755.494 574.66C755.616 574.637 755.741 574.642 755.859 574.674C755.978 574.706 756.087 574.764 756.178 574.844C756.269 574.924 756.341 575.024 756.387 575.137C760.996 586.283 764.329 597.754 766.387 609.551C766.434 609.853 766.588 610.127 766.821 610.325C767.054 610.522 767.351 610.629 767.656 610.625C787.539 610.313 785.879 628.652 783.242 642.227C774.609 686.953 743.027 725.371 703.34 747.305C644.18 780.02 566.66 785.234 510.703 742.324C478.164 717.383 463.828 677.5 467.187 637.266C469.765 606.497 481.413 580.208 502.129 558.398C506.855 553.418 497.91 543.809 493.125 538.633C478.945 523.242 466.269 505.898 461.914 486.504C456.601 462.832 461.308 438.125 476.621 419.336C490.156 402.715 509.023 393.242 530.703 394.902C542.37 395.801 552.051 396.595 559.746 397.285C582.637 399.356 601.211 397.051 618.125 383.242C624.297 378.19 628.008 375.254 629.258 374.434C643.359 365.117 660.469 365.918 669.863 380.664C677.402 392.52 679.043 406.973 679.785 421.406C680.618 437.734 681.458 453.913 682.305 469.941C682.838 480.241 687.825 486.504 697.265 488.73C712.864 492.402 726.341 496.81 737.695 501.953C742.318 504.05 746.81 507.188 751.172 511.367C768.281 527.734 753.183 550.078 739.043 561.406C725.241 572.487 708.952 581.543 690.176 588.574C647.077 604.733 602.786 610.013 557.305 604.414C549.232 603.411 543.574 603.333 540.332 604.18C524.844 608.164 515.762 622.656 514.473 638.184C510.703 684.043 569.043 696.211 602.07 695.391C646.836 694.277 689.433 682.949 726.035 658.223C734.961 652.188 744.551 643.066 750.625 635.391C751.12 634.753 751.406 634.206 751.484 633.75C751.524 633.506 751.492 633.255 751.393 633.028C751.293 632.801 751.131 632.608 750.925 632.473C750.719 632.338 750.48 632.267 750.235 632.268C749.991 632.269 749.753 632.343 749.551 632.48C716.699 654.251 681.133 668.763 642.851 676.016C616.562 680.996 588.144 681.035 562.91 674.004C549.258 670.195 535.703 662.988 531.758 648.535ZM664.082 479.727C668.476 467.656 663.535 447.578 658.281 436.348C655.82 431.074 648.223 427.285 642.851 431.289C631.953 439.414 641.797 469.551 647.383 479.238C647.715 479.814 648.191 480.293 648.764 480.626C649.337 480.958 649.985 481.133 650.644 481.133H662.07C662.511 481.132 662.941 480.997 663.301 480.745C663.661 480.493 663.933 480.138 664.082 479.727ZM544.687 488.848C551.042 489.043 556.627 490.059 561.445 491.895C570.482 495.332 575.82 497.363 577.461 497.988C577.916 498.158 578.406 498.214 578.887 498.152C579.368 498.089 579.827 497.911 580.222 497.631C580.617 497.352 580.937 496.98 581.154 496.548C581.371 496.117 581.477 495.639 581.465 495.156C581.439 494.141 580.82 492.806 579.609 491.152C571.484 480.117 558.691 473.965 545.117 473.574C531.543 473.184 518.418 478.574 509.668 489.141C508.366 490.716 507.676 492.012 507.598 493.027C507.559 493.507 507.64 493.988 507.832 494.429C508.024 494.87 508.321 495.258 508.699 495.558C509.076 495.859 509.522 496.063 509.997 496.153C510.473 496.243 510.963 496.216 511.426 496.074C513.092 495.553 518.535 493.835 527.754 490.918C532.676 489.356 538.32 488.665 544.687 488.848ZM660.357 496.703C657.985 496.645 655.679 497.875 653.946 500.123C652.213 502.37 651.195 505.451 651.116 508.688C651.037 511.924 651.903 515.051 653.524 517.381C655.145 519.71 657.388 521.052 659.76 521.11C662.132 521.168 664.438 519.937 666.171 517.69C667.904 515.442 668.922 512.361 669.001 509.125C669.08 505.888 668.214 502.761 666.593 500.432C664.972 498.102 662.728 496.761 660.357 496.703ZM555.781 512.93C562.558 512.188 569.609 513.359 575.625 513.535C575.972 513.545 576.318 513.487 576.64 513.367C576.962 513.247 577.252 513.066 577.492 512.837C577.732 512.608 577.916 512.336 578.032 512.039C578.148 511.742 578.193 511.427 578.164 511.113C578.047 509.785 577.409 508.626 576.25 507.637C570.176 502.363 562.461 501.016 554.57 501.895C546.66 502.773 539.433 505.781 534.668 512.246C533.756 513.47 533.385 514.746 533.555 516.074C533.594 516.387 533.706 516.686 533.883 516.952C534.061 517.218 534.3 517.444 534.584 517.616C534.868 517.787 535.192 517.901 535.533 517.948C535.874 517.996 536.225 517.976 536.562 517.891C542.402 516.387 549.023 513.691 555.781 512.93ZM614.611 517.264C613.589 519.416 613.784 522.038 615.152 524.553C616.52 527.068 618.951 529.27 621.908 530.674C624.865 532.079 628.107 532.57 630.921 532.041C633.735 531.512 635.89 530.006 636.912 527.853C637.934 525.701 637.74 523.079 636.371 520.564C635.003 518.049 632.573 515.847 629.615 514.443C626.658 513.039 623.416 512.547 620.602 513.076C617.788 513.605 615.633 515.111 614.611 517.264Z" fill="#FFE01B"/>
<path d="M662.07 481.133H650.644C649.985 481.133 649.336 480.958 648.764 480.625C648.191 480.293 647.715 479.814 647.382 479.238C641.796 469.551 631.953 439.414 642.851 431.289C648.222 427.285 655.82 431.074 658.281 436.348C663.535 447.578 668.476 467.656 664.082 479.727C663.933 480.138 663.66 480.493 663.3 480.745C662.941 480.997 662.511 481.132 662.07 481.133Z" fill="black"/>
<path d="M545.117 473.574C558.691 473.965 571.484 480.117 579.609 491.152C580.82 492.806 581.439 494.141 581.465 495.156C581.477 495.639 581.371 496.117 581.154 496.548C580.937 496.98 580.617 497.352 580.222 497.631C579.827 497.911 579.369 498.089 578.887 498.152C578.406 498.214 577.916 498.158 577.461 497.988C575.82 497.363 570.482 495.332 561.445 491.895C556.627 490.059 551.042 489.043 544.687 488.848C538.32 488.665 532.676 489.356 527.754 490.918C518.535 493.835 513.092 495.553 511.426 496.074C510.963 496.216 510.473 496.243 509.997 496.153C509.522 496.063 509.076 495.859 508.699 495.558C508.321 495.258 508.024 494.87 507.832 494.429C507.64 493.988 507.56 493.507 507.598 493.027C507.676 492.012 508.366 490.716 509.668 489.141C518.418 478.574 531.543 473.184 545.117 473.574Z" fill="black"/>
<path d="M669.001 509.125C669.166 502.385 665.296 496.824 660.357 496.703C655.418 496.582 651.281 501.948 651.116 508.688C650.951 515.427 654.822 520.989 659.761 521.11C664.699 521.23 668.837 515.865 669.001 509.125Z" fill="black"/>
<path d="M554.57 501.894C562.461 501.016 570.176 502.363 576.25 507.637C577.409 508.626 578.047 509.785 578.164 511.113C578.193 511.426 578.148 511.742 578.032 512.039C577.916 512.336 577.732 512.608 577.492 512.837C577.253 513.066 576.962 513.246 576.64 513.367C576.318 513.487 575.972 513.544 575.625 513.535C569.609 513.359 562.559 512.187 555.781 512.93C549.023 513.691 542.402 516.387 536.562 517.891C536.225 517.976 535.874 517.995 535.533 517.948C535.192 517.901 534.868 517.787 534.584 517.616C534.3 517.444 534.061 517.218 533.883 516.952C533.706 516.686 533.594 516.387 533.555 516.074C533.385 514.746 533.756 513.47 534.668 512.246C539.434 505.781 546.66 502.773 554.57 501.894Z" fill="black"/>
<path d="M629.615 514.443C623.457 511.519 616.74 512.782 614.611 517.264C612.483 521.746 615.75 527.75 621.908 530.675C628.066 533.599 634.784 532.336 636.912 527.853C639.041 523.371 635.774 517.367 629.615 514.443Z" fill="black"/>
<path d="M307.422 515.469C331.621 522.09 347.285 541.191 353.691 564.883C355.696 572.279 357.064 581.204 357.793 591.66C359.98 622.734 348.144 659.414 311.992 663.066C274.043 666.894 234.062 633.672 229.121 596.172C224.336 559.648 241.894 524.414 279.746 515.918C284.043 514.954 288.646 514.316 293.554 514.004C298.125 513.704 302.747 514.193 307.422 515.469ZM333.808 616.113C333.508 615.9 333.138 615.809 332.773 615.859L324.765 616.933C324.468 616.972 324.171 616.966 323.887 616.914C313.359 615 313.594 605.586 317.324 598.027C326.894 578.769 328.867 559.648 310.351 545.937C302.838 540.377 294.472 538.522 285.254 540.371C265.566 544.336 254.98 564.199 256.933 583.359C257.028 584.275 257.4 585.125 257.985 585.764C258.57 586.402 259.331 586.788 260.136 586.855C262.923 587.064 264.889 585.573 266.035 582.383C268.183 576.348 270.586 568.808 275.234 565.156C285.078 557.441 297.051 559.394 304.082 569.336C310.254 578.105 304.472 589.707 302.812 596.289C299.414 609.805 304.336 627.207 320.703 628.164C324.707 628.398 333.847 625.625 334.961 620.117C335.338 618.242 334.954 616.907 333.808 616.113Z" fill="#FFE01B"/>
<path d="M333.808 616.114C334.954 616.908 335.338 618.242 334.961 620.117C333.847 625.625 324.707 628.399 320.703 628.164C304.336 627.207 299.414 609.805 302.812 596.289C304.472 589.707 310.254 578.106 304.082 569.336C297.05 559.395 285.078 557.442 275.234 565.156C270.586 568.809 268.183 576.348 266.035 582.383C264.889 585.573 262.923 587.064 260.136 586.856C259.331 586.789 258.57 586.403 257.985 585.764C257.4 585.126 257.028 584.275 256.933 583.36C254.98 564.199 265.566 544.336 285.254 540.371C294.472 538.522 302.838 540.378 310.351 545.938C328.867 559.649 326.894 578.77 317.324 598.028C313.593 605.586 313.359 615 323.886 616.914C324.171 616.966 324.468 616.973 324.765 616.934L332.773 615.86C333.138 615.809 333.508 615.9 333.808 616.114Z" fill="black"/>
</g>
<defs>
<clipPath id="clip0_1595_20">
<rect width="1000" height="1000" rx="200" fill="white"/>
</clipPath>
</defs>
</svg>
