<svg width="1000" height="1000" viewBox="0 0 1000 1000" fill="none" xmlns="http://www.w3.org/2000/svg">
<g clip-path="url(#clip0_1595_128)">
<path d="M998.102 217.436C998.153 195.744 987.282 176.923 968.923 164.461C902.324 119.094 831.265 70.9401 755.743 19.9999C732.495 4.34179 706.222 -2.47872 676.923 -0.461629C361.401 21.3845 166.239 34.6495 91.4355 39.3332C64.1534 41.0426 45.2474 44.9401 34.7175 51.0256C12.7688 63.7093 1.81152 85.1452 1.84571 115.333C2.05084 343.709 2.03375 532.325 1.79443 681.179C1.69187 731.231 6.92263 763.179 36.256 799.641C108.324 889.419 151.128 942.803 164.666 959.795C188.427 989.504 221.538 1003.03 264 1000.36C517.025 984.427 734.136 971.043 915.333 960.205C940.29 958.735 957.47 955.231 966.871 949.692C988.068 937.214 998.564 916 998.359 886.051C998.017 838.803 997.931 615.932 998.102 217.436Z" stroke="#808080" stroke-width="2"/>
<path d="M854.358 155.59C853.606 154.427 852.136 153.026 849.948 151.385C831.111 137.162 791.64 109.179 731.538 67.4358C719.777 59.2649 705.452 55.4529 688.564 55.9999C670.034 56.5811 648.546 57.8119 624.102 59.6922C579.965 63.0768 413.948 75.0084 126.051 95.4871C116.17 96.1708 107.538 97.2307 100.153 98.6666C97.9411 99.0883 95.9425 100.191 94.4944 101.788C93.0464 103.386 92.2377 105.381 92.2046 107.436C92.102 111.914 94.0336 115.675 97.9994 118.718C123.811 138.547 152.017 159.436 182.615 181.385C198.273 192.632 213.914 197.846 229.538 197.026C492.957 182.94 699.914 171.692 850.41 163.282C851.281 163.229 852.123 162.95 852.853 162.473C853.583 161.996 854.177 161.337 854.575 160.561C854.974 159.785 855.163 158.918 855.125 158.046C855.087 157.175 854.823 156.328 854.358 155.59Z" stroke="#808080" stroke-width="2"/>
<path d="M929.692 265.179C929.693 260.052 928.648 254.978 926.62 250.268C924.593 245.559 921.626 241.312 917.901 237.789C914.176 234.265 909.771 231.539 904.956 229.776C900.141 228.014 895.017 227.252 889.897 227.538L240.718 263.641C231.099 264.178 222.051 268.379 215.432 275.379C208.813 282.379 205.126 291.648 205.128 301.282V885.949C205.127 891.076 206.172 896.15 208.2 900.86C210.227 905.569 213.194 909.816 216.919 913.339C220.644 916.863 225.049 919.589 229.864 921.352C234.679 923.114 239.803 923.876 244.923 923.59L894.102 887.487C903.721 886.95 912.769 882.749 919.388 875.749C926.007 868.749 929.694 859.48 929.692 849.846V265.179Z" stroke="#808080" stroke-width="2"/>
<path d="M705.999 652.205L504.717 355.333C504.017 354.305 503.061 353.478 501.945 352.938C500.828 352.398 499.591 352.163 498.358 352.256C465.333 354.513 421.675 357.385 367.384 360.872C349.504 362.034 337.675 365.06 331.897 369.949C322.256 378.085 317.435 388.906 317.435 402.41C317.43 403 317.642 403.57 318.029 404.014C318.417 404.458 318.953 404.745 319.538 404.82L368.41 411.026C368.709 411.063 368.983 411.209 369.182 411.436C369.38 411.663 369.489 411.955 369.486 412.256V791.744C369.488 792.143 369.406 792.539 369.246 792.905C369.086 793.271 368.851 793.6 368.557 793.871C368.262 794.141 367.915 794.347 367.536 794.475C367.158 794.603 366.756 794.651 366.358 794.615C342.769 792.718 319.999 803.436 317.179 829.692C317.135 830.158 317.189 830.627 317.339 831.069C317.488 831.511 317.728 831.916 318.044 832.255C318.359 832.595 318.743 832.863 319.169 833.04C319.594 833.217 320.052 833.299 320.512 833.282C362.529 831.812 409.965 829.761 462.82 827.128C487.999 825.897 502.974 817.128 507.281 792.718C507.419 791.936 507.249 791.131 506.808 790.479C506.367 789.826 505.689 789.378 504.922 789.231L449.128 778.41C448.317 778.255 447.587 777.821 447.063 777.185C446.538 776.548 446.253 775.748 446.256 774.923V492.82C446.263 492.583 446.344 492.355 446.488 492.167C446.632 491.978 446.832 491.841 447.059 491.772C447.286 491.704 447.529 491.709 447.753 491.787C447.977 491.865 448.171 492.011 448.307 492.205C464.751 516.991 529.538 614.769 642.666 785.538C666.512 821.538 700.974 833.436 740.41 820.41C757.982 814.598 769.811 810.581 775.897 808.359C776.738 808.046 777.463 807.48 777.976 806.738C778.489 805.996 778.766 805.112 778.769 804.205V379.487C778.769 378.742 779.031 378.02 779.509 377.449C779.987 376.877 780.65 376.491 781.384 376.359L815.127 370.051C817.826 369.542 820.295 368.187 822.183 366.18C824.071 364.172 825.281 361.614 825.64 358.872L827.948 340.718C828.076 339.772 827.987 338.81 827.689 337.903C827.391 336.996 826.891 336.167 826.226 335.478C825.561 334.788 824.748 334.256 823.848 333.92C822.948 333.584 821.983 333.454 821.025 333.538C797.298 335.658 762.649 337.744 717.076 339.795C702.444 340.479 694.905 340.803 694.461 340.769C672.922 339.385 656.307 357.744 655.23 378.769C655.197 379.469 655.426 380.155 655.871 380.696C656.317 381.236 656.947 381.591 657.64 381.692L705.743 387.795C706.412 387.882 707.027 388.207 707.471 388.707C707.915 389.208 708.157 389.85 708.153 390.513V651.538C708.154 651.791 708.073 652.036 707.924 652.24C707.774 652.443 707.563 652.593 707.322 652.667C707.081 652.742 706.823 652.737 706.585 652.654C706.347 652.571 706.141 652.413 705.999 652.205Z" stroke="#808080" stroke-width="2"/>
<path d="M968.923 164.461C987.282 176.923 998.153 195.744 998.102 217.436C997.931 615.932 998.017 838.803 998.359 886.051C998.564 916 988.068 937.214 966.871 949.692C957.47 955.231 940.29 958.735 915.333 960.205C734.136 971.043 517.025 984.427 264 1000.36C221.538 1003.03 188.427 989.504 164.666 959.795C151.128 942.803 108.324 889.419 36.256 799.641C6.92263 763.179 1.69187 731.231 1.79443 681.179C2.03375 532.325 2.05084 343.709 1.84571 115.333C1.81152 85.1452 12.7688 63.7093 34.7175 51.0256C45.2474 44.9401 64.1534 41.0426 91.4355 39.3332C166.239 34.6495 361.401 21.3845 676.923 -0.461629C706.222 -2.47872 732.495 4.34179 755.743 19.9999C831.265 70.9401 902.324 119.094 968.923 164.461ZM854.359 155.59C853.606 154.427 852.136 153.026 849.948 151.385C831.111 137.162 791.641 109.179 731.538 67.4358C719.777 59.2649 705.453 55.4529 688.564 55.9999C670.034 56.5811 648.547 57.8119 624.102 59.6922C579.965 63.0768 413.948 75.0085 126.051 95.4871C116.171 96.1709 107.538 97.2307 100.153 98.6666C97.9412 99.0883 95.9426 100.191 94.4946 101.788C93.0465 103.386 92.2378 105.381 92.2047 107.436C92.1021 111.914 94.0338 115.675 97.9996 118.718C123.812 138.547 152.017 159.436 182.615 181.385C198.273 192.632 213.914 197.846 229.538 197.026C492.957 182.94 699.914 171.692 850.41 163.282C851.281 163.229 852.123 162.95 852.853 162.473C853.584 161.996 854.177 161.337 854.576 160.561C854.974 159.785 855.163 158.918 855.125 158.046C855.087 157.175 854.823 156.328 854.359 155.59ZM929.692 265.179C929.693 260.052 928.648 254.978 926.62 250.268C924.593 245.559 921.626 241.312 917.901 237.789C914.176 234.265 909.771 231.539 904.956 229.776C900.141 228.014 895.017 227.252 889.897 227.538L240.718 263.641C231.099 264.178 222.051 268.379 215.432 275.379C208.813 282.379 205.126 291.648 205.128 301.282V885.949C205.127 891.076 206.172 896.15 208.199 900.86C210.227 905.569 213.194 909.816 216.919 913.339C220.644 916.863 225.049 919.589 229.864 921.352C234.679 923.114 239.803 923.876 244.923 923.59L894.102 887.487C903.721 886.95 912.769 882.75 919.388 875.749C926.007 868.749 929.694 859.48 929.692 849.846V265.179Z" fill="black"/>
<path d="M708.154 651.539V390.513C708.158 389.85 707.916 389.208 707.472 388.708C707.028 388.207 706.413 387.882 705.744 387.795L657.641 381.692C656.948 381.591 656.318 381.236 655.872 380.696C655.427 380.156 655.198 379.469 655.231 378.769C656.308 357.744 672.923 339.385 694.462 340.769C694.906 340.804 702.445 340.479 717.077 339.795C762.65 337.744 797.299 335.658 821.026 333.539C821.984 333.454 822.949 333.585 823.849 333.92C824.749 334.256 825.562 334.788 826.227 335.478C826.892 336.167 827.392 336.996 827.69 337.903C827.988 338.811 828.077 339.773 827.949 340.718L825.641 358.872C825.282 361.615 824.072 364.172 822.184 366.18C820.296 368.188 817.826 369.543 815.128 370.051L781.385 376.359C780.651 376.491 779.988 376.877 779.51 377.449C779.032 378.021 778.77 378.742 778.769 379.487V804.205C778.767 805.112 778.49 805.996 777.977 806.738C777.464 807.48 776.739 808.046 775.898 808.359C769.812 810.581 757.983 814.598 740.411 820.41C700.975 833.436 666.513 821.539 642.667 785.539C529.539 614.769 464.752 516.992 448.308 492.205C448.172 492.011 447.978 491.865 447.754 491.787C447.53 491.71 447.287 491.705 447.06 491.773C446.833 491.841 446.633 491.979 446.489 492.167C446.345 492.355 446.264 492.584 446.257 492.821V774.923C446.254 775.748 446.539 776.548 447.064 777.185C447.588 777.821 448.318 778.255 449.128 778.41L504.923 789.231C505.69 789.378 506.368 789.827 506.809 790.479C507.25 791.131 507.42 791.936 507.282 792.718C502.975 817.128 488 825.898 462.821 827.128C409.966 829.761 362.53 831.812 320.513 833.282C320.053 833.3 319.595 833.217 319.169 833.04C318.744 832.863 318.36 832.595 318.045 832.256C317.729 831.916 317.489 831.511 317.34 831.069C317.19 830.627 317.136 830.158 317.18 829.692C320 803.436 342.77 792.718 366.359 794.615C366.757 794.651 367.159 794.603 367.537 794.475C367.916 794.347 368.263 794.141 368.558 793.871C368.852 793.6 369.087 793.272 369.247 792.905C369.407 792.539 369.489 792.143 369.487 791.744V412.257C369.49 411.955 369.381 411.663 369.183 411.436C368.984 411.21 368.71 411.063 368.411 411.026L319.539 404.821C318.954 404.745 318.417 404.459 318.03 404.015C317.643 403.57 317.431 403 317.436 402.41C317.436 388.906 322.257 378.086 331.898 369.949C337.675 365.06 349.505 362.034 367.385 360.872C421.675 357.385 465.334 354.513 498.359 352.257C499.592 352.163 500.829 352.398 501.946 352.938C503.062 353.479 504.018 354.305 504.718 355.333L706 652.205C706.142 652.414 706.348 652.571 706.586 652.654C706.824 652.737 707.082 652.742 707.323 652.667C707.564 652.593 707.775 652.443 707.925 652.24C708.074 652.037 708.154 651.791 708.154 651.539Z" fill="black"/>
</g>
<defs>
<clipPath id="clip0_1595_128">
<rect width="1000" height="1000" fill="white"/>
</clipPath>
</defs>
</svg>
