<svg width="1001" height="1000" viewBox="0 0 1001 1000" fill="none" xmlns="http://www.w3.org/2000/svg">
<g clip-path="url(#clip0_1595_128)">
<path d="M998.811 217.436C998.862 195.744 987.991 176.923 969.632 164.461C903.033 119.094 831.973 70.9401 756.452 19.9999C733.204 4.34182 706.931 -2.47869 677.632 -0.461599C362.11 21.3846 166.948 34.6495 92.1445 39.3333C64.8624 41.0427 45.9564 44.9401 35.4265 51.0256C13.4778 63.7093 2.52051 85.1453 2.55469 115.333C2.75982 343.709 2.74273 532.325 2.50342 681.179C2.40085 731.231 7.63162 763.179 36.965 799.641C109.033 889.419 151.837 942.803 165.375 959.795C189.136 989.504 222.247 1003.03 264.709 1000.36C517.734 984.427 734.845 971.043 916.042 960.205C940.999 958.735 958.179 955.231 967.58 949.692C988.777 937.214 999.273 916 999.068 886.051C998.726 838.803 998.64 615.932 998.811 217.436Z" stroke="#808080" stroke-width="2"/>
<path d="M855.067 155.59C854.315 154.427 852.845 153.026 850.657 151.385C831.82 137.162 792.349 109.179 732.247 67.4359C720.486 59.2649 706.161 55.453 689.273 56C670.743 56.5812 649.255 57.8119 624.811 59.6923C580.674 63.0769 414.657 75.0085 126.76 95.4871C116.879 96.1709 108.247 97.2307 100.862 98.6666C98.6501 99.0884 96.6514 100.191 95.2034 101.788C93.7554 103.386 92.9466 105.381 92.9135 107.436C92.811 111.915 94.7426 115.675 98.7084 118.718C124.52 138.547 152.726 159.436 183.324 181.385C198.982 192.632 214.623 197.846 230.247 197.026C493.666 182.94 700.623 171.692 851.119 163.282C851.99 163.229 852.832 162.95 853.562 162.473C854.292 161.996 854.886 161.337 855.284 160.561C855.683 159.785 855.872 158.918 855.834 158.046C855.796 157.175 855.532 156.328 855.067 155.59Z" stroke="#808080" stroke-width="2"/>
<path d="M930.401 265.179C930.402 260.052 929.357 254.978 927.329 250.268C925.302 245.559 922.335 241.312 918.61 237.789C914.885 234.265 910.48 231.539 905.665 229.776C900.85 228.014 895.726 227.252 890.606 227.538L241.427 263.641C231.808 264.178 222.76 268.379 216.141 275.379C209.522 282.379 205.835 291.648 205.837 301.282V885.949C205.836 891.076 206.881 896.15 208.909 900.86C210.936 905.569 213.903 909.816 217.628 913.339C221.353 916.863 225.758 919.589 230.573 921.352C235.388 923.114 240.512 923.876 245.632 923.59L894.811 887.487C904.43 886.95 913.478 882.75 920.097 875.749C926.716 868.749 930.403 859.48 930.401 849.846V265.179Z" stroke="#808080" stroke-width="2"/>
<path d="M706.708 652.205L505.426 355.333C504.726 354.305 503.77 353.478 502.654 352.938C501.537 352.398 500.3 352.163 499.067 352.256C466.042 354.513 422.383 357.385 368.093 360.872C350.213 362.034 338.384 365.06 332.606 369.949C322.965 378.085 318.144 388.906 318.144 402.41C318.139 403 318.351 403.57 318.738 404.014C319.125 404.458 319.662 404.745 320.247 404.82L369.119 411.026C369.418 411.063 369.692 411.209 369.891 411.436C370.089 411.663 370.198 411.955 370.195 412.256V791.744C370.197 792.143 370.115 792.539 369.955 792.905C369.795 793.271 369.56 793.6 369.266 793.871C368.971 794.141 368.624 794.347 368.245 794.475C367.867 794.603 367.465 794.651 367.067 794.615C343.478 792.718 320.708 803.436 317.888 829.692C317.844 830.158 317.898 830.627 318.048 831.069C318.197 831.511 318.437 831.916 318.753 832.255C319.068 832.595 319.452 832.863 319.878 833.04C320.303 833.217 320.761 833.299 321.221 833.282C363.238 831.812 410.674 829.761 463.529 827.128C488.708 825.897 503.683 817.128 507.99 792.718C508.128 791.936 507.958 791.131 507.517 790.479C507.076 789.826 506.398 789.378 505.631 789.231L449.836 778.41C449.026 778.255 448.296 777.821 447.772 777.185C447.247 776.548 446.962 775.748 446.965 774.923V492.82C446.972 492.583 447.053 492.355 447.197 492.167C447.341 491.978 447.541 491.841 447.768 491.772C447.995 491.704 448.238 491.709 448.462 491.787C448.686 491.865 448.88 492.011 449.016 492.205C465.46 516.991 530.247 614.769 643.375 785.538C667.221 821.538 701.683 833.436 741.119 820.41C758.691 814.598 770.52 810.581 776.606 808.359C777.447 808.046 778.172 807.48 778.685 806.738C779.198 805.996 779.475 805.112 779.477 804.205V379.487C779.478 378.742 779.74 378.02 780.218 377.449C780.696 376.877 781.359 376.491 782.093 376.359L815.836 370.051C818.534 369.542 821.004 368.187 822.892 366.18C824.78 364.172 825.99 361.614 826.349 358.872L828.657 340.718C828.785 339.772 828.696 338.81 828.398 337.903C828.1 336.996 827.6 336.167 826.935 335.478C826.27 334.788 825.457 334.256 824.557 333.92C823.657 333.584 822.692 333.454 821.734 333.538C798.007 335.658 763.358 337.744 717.785 339.795C703.153 340.479 695.614 340.803 695.17 340.769C673.631 339.385 657.016 357.744 655.939 378.769C655.906 379.469 656.135 380.155 656.58 380.696C657.026 381.236 657.656 381.591 658.349 381.692L706.452 387.795C707.121 387.882 707.736 388.207 708.18 388.707C708.624 389.208 708.866 389.85 708.862 390.513V651.538C708.863 651.791 708.782 652.036 708.633 652.24C708.483 652.443 708.272 652.593 708.031 652.667C707.79 652.742 707.532 652.737 707.294 652.654C707.056 652.571 706.85 652.413 706.708 652.205Z" stroke="#808080" stroke-width="2"/>
<path d="M1077.63 -76.9231V1076.92H-76.2139V-76.9231H1077.63ZM998.812 217.436C998.863 195.744 987.991 176.923 969.632 164.462C903.034 119.094 831.974 70.9402 756.453 20C733.205 4.34186 706.931 -2.47865 677.632 -0.461555C362.111 21.3846 166.949 34.6496 92.1451 39.3333C64.8631 41.0427 45.9571 44.9402 35.4272 51.0256C13.4784 63.7094 2.52118 85.1453 2.55536 115.333C2.76049 343.709 2.7434 532.325 2.50409 681.18C2.40152 731.231 7.63229 763.179 36.9656 799.641C109.034 889.419 151.837 942.803 165.376 959.795C189.137 989.504 222.248 1003.03 264.709 1000.36C517.735 984.427 734.846 971.043 916.043 960.205C941 958.735 958.179 955.231 967.581 949.692C988.778 937.214 999.273 916 999.068 886.051C998.726 838.803 998.641 615.932 998.812 217.436Z" fill="white"/>
<path d="M969.632 164.461C987.991 176.923 998.862 195.744 998.811 217.436C998.64 615.932 998.726 838.803 999.068 886.051C999.273 916 988.777 937.214 967.58 949.692C958.179 955.231 940.999 958.735 916.042 960.205C734.845 971.043 517.734 984.427 264.709 1000.36C222.247 1003.03 189.136 989.504 165.375 959.795C151.837 942.803 109.033 889.419 36.965 799.641C7.63162 763.179 2.40085 731.231 2.50342 681.179C2.74273 532.325 2.75982 343.709 2.55469 115.333C2.52051 85.1453 13.4778 63.7093 35.4265 51.0256C45.9564 44.9401 64.8624 41.0427 92.1445 39.3333C166.948 34.6495 362.11 21.3846 677.632 -0.461599C706.931 -2.47869 733.204 4.34182 756.452 19.9999C831.973 70.9401 903.033 119.094 969.632 164.461ZM855.068 155.59C854.315 154.427 852.845 153.026 850.657 151.385C831.82 137.162 792.35 109.179 732.247 67.4358C720.486 59.2649 706.162 55.4529 689.273 55.9999C670.743 56.5811 649.256 57.8119 624.811 59.6922C580.674 63.0769 414.657 75.0085 126.76 95.4871C116.88 96.1709 108.247 97.2307 100.862 98.6666C98.6502 99.0884 96.6516 100.191 95.2036 101.788C93.7555 103.386 92.9468 105.381 92.9137 107.436C92.8111 111.914 94.7427 115.675 98.7086 118.718C124.521 138.547 152.726 159.436 183.324 181.385C198.982 192.632 214.623 197.846 230.247 197.026C493.666 182.94 700.623 171.692 851.119 163.282C851.99 163.229 852.832 162.95 853.562 162.473C854.293 161.996 854.886 161.337 855.285 160.561C855.683 159.785 855.872 158.918 855.834 158.046C855.796 157.175 855.532 156.328 855.068 155.59ZM930.401 265.179C930.402 260.052 929.357 254.978 927.329 250.268C925.302 245.559 922.335 241.312 918.61 237.789C914.885 234.265 910.48 231.539 905.665 229.776C900.85 228.014 895.726 227.252 890.606 227.538L241.426 263.641C231.808 264.178 222.76 268.379 216.141 275.379C209.522 282.379 205.835 291.648 205.837 301.282V885.949C205.836 891.076 206.881 896.15 208.908 900.86C210.936 905.569 213.903 909.816 217.628 913.339C221.353 916.863 225.758 919.589 230.573 921.352C235.388 923.114 240.512 923.876 245.632 923.59L894.811 887.487C904.43 886.95 913.478 882.75 920.097 875.749C926.716 868.749 930.403 859.48 930.401 849.846V265.179Z" fill="black"/>
<path d="M708.863 651.539V390.513C708.867 389.85 708.625 389.208 708.181 388.708C707.737 388.207 707.122 387.883 706.453 387.795L658.35 381.692C657.657 381.591 657.027 381.236 656.581 380.696C656.136 380.156 655.907 379.469 655.94 378.769C657.017 357.744 673.632 339.385 695.171 340.769C695.615 340.804 703.154 340.479 717.786 339.795C763.359 337.744 798.008 335.658 821.735 333.539C822.693 333.454 823.658 333.585 824.558 333.92C825.458 334.256 826.271 334.788 826.936 335.478C827.601 336.167 828.101 336.996 828.399 337.903C828.697 338.811 828.785 339.773 828.658 340.718L826.35 358.872C825.991 361.615 824.781 364.172 822.893 366.18C821.005 368.188 818.535 369.543 815.837 370.051L782.094 376.359C781.36 376.491 780.697 376.877 780.219 377.449C779.741 378.021 779.479 378.742 779.478 379.487V804.205C779.476 805.113 779.199 805.996 778.686 806.738C778.173 807.48 777.448 808.046 776.607 808.359C770.521 810.581 758.692 814.598 741.12 820.41C701.684 833.436 667.222 821.539 643.376 785.539C530.248 614.769 465.461 516.992 449.017 492.205C448.881 492.011 448.687 491.865 448.463 491.787C448.239 491.71 447.996 491.705 447.769 491.773C447.542 491.841 447.342 491.979 447.198 492.167C447.054 492.355 446.972 492.584 446.966 492.821V774.923C446.963 775.748 447.248 776.548 447.773 777.185C448.297 777.822 449.027 778.255 449.837 778.41L505.632 789.231C506.399 789.378 507.077 789.827 507.518 790.479C507.959 791.132 508.129 791.936 507.991 792.718C503.684 817.128 488.709 825.898 463.53 827.128C410.675 829.761 363.239 831.812 321.222 833.282C320.762 833.3 320.304 833.217 319.878 833.04C319.453 832.863 319.069 832.595 318.754 832.256C318.438 831.916 318.198 831.511 318.049 831.069C317.899 830.627 317.845 830.158 317.889 829.692C320.709 803.436 343.479 792.718 367.068 794.616C367.466 794.651 367.868 794.603 368.246 794.475C368.625 794.347 368.972 794.141 369.267 793.871C369.561 793.6 369.796 793.272 369.956 792.905C370.116 792.539 370.198 792.143 370.196 791.744V412.257C370.199 411.955 370.09 411.663 369.892 411.436C369.693 411.21 369.419 411.063 369.119 411.026L320.248 404.821C319.663 404.745 319.126 404.459 318.739 404.015C318.352 403.57 318.14 403 318.145 402.41C318.145 388.906 322.966 378.086 332.607 369.949C338.384 365.06 350.214 362.034 368.094 360.872C422.384 357.385 466.043 354.513 499.068 352.257C500.301 352.163 501.538 352.398 502.655 352.938C503.771 353.479 504.727 354.305 505.427 355.334L706.709 652.205C706.851 652.414 707.057 652.571 707.295 652.654C707.533 652.737 707.791 652.742 708.032 652.667C708.273 652.593 708.484 652.443 708.634 652.24C708.783 652.037 708.863 651.791 708.863 651.539Z" fill="black"/>
</g>
<defs>
<clipPath id="clip0_1595_128">
<rect width="1000" height="1000" fill="white" transform="translate(0.708984)"/>
</clipPath>
</defs>
</svg>
