<?xml version="1.0" encoding="UTF-8" standalone="no"?>
<!DOCTYPE svg PUBLIC "-//W3C//DTD SVG 1.1//EN" "http://www.w3.org/Graphics/SVG/1.1/DTD/svg11.dtd">
<svg xmlns="http://www.w3.org/2000/svg" version="1.1" viewBox="0.00 0.00 432.00 117.00">
<g stroke-width="2.00" fill="none" stroke-linecap="butt">
<path stroke="#808080" vector-effect="non-scaling-stroke" d="
  M 50.58 0.00
  Q 31.40 2.13 24.36 19.93
  A 0.82 0.81 -86.8 0 1 23.83 20.41
  Q 7.06 25.24 2.20 40.70
  C -0.85 50.37 1.41 60.77 8.02 68.56
  A 1.02 1.01 -58.5 0 1 8.23 69.45
  Q 3.72 88.41 17.09 100.39
  Q 27.43 109.66 42.21 107.29
  A 1.00 0.98 62.4 0 1 43.09 107.58
  Q 51.32 116.18 63.37 117.00"
/>
<path stroke="#808080" vector-effect="non-scaling-stroke" d="
  M 54.87 0.00
  Q 66.47 1.27 74.23 9.59
  A 0.53 0.51 -26.3 0 0 74.70 9.74
  C 96.86 5.47 115.26 25.89 108.76 47.44
  A 0.79 0.78 -57.1 0 0 108.92 48.19
  C 123.41 64.77 115.21 91.67 93.22 96.42
  A 0.68 0.67 -85.7 0 0 92.74 96.84
  Q 85.98 114.73 66.60 117.00"
/>
<path stroke="#808080" vector-effect="non-scaling-stroke" d="
  M 40.63 62.59
  Q 40.62 33.76 40.55 30.51
  Q 40.49 27.73 42.81 26.40
  Q 53.96 19.98 66.14 12.92
  A 0.31 0.30 48.3 0 0 66.16 12.42
  C 53.25 2.49 34.28 8.93 30.87 25.19
  Q 30.43 27.34 30.44 32.30
  Q 30.47 40.72 30.44 56.65
  A 0.55 0.54 -75.6 0 0 30.71 57.12
  L 40.44 62.71
  A 0.13 0.13 0.0 0 0 40.63 62.59"
/>
<path stroke="#808080" vector-effect="non-scaling-stroke" d="
  M 46.04 45.00
  Q 71.07 30.60 73.86 28.92
  Q 76.24 27.48 78.55 28.83
  Q 89.69 35.32 101.90 42.36
  A 0.31 0.30 -71.6 0 0 102.35 42.13
  C 104.53 25.97 89.47 12.71 73.65 17.87
  Q 71.57 18.56 67.27 21.04
  Q 59.96 25.26 46.12 33.19
  A 0.55 0.54 -15.5 0 0 45.85 33.66
  L 45.85 44.89
  A 0.13 0.13 0.0 0 0 46.04 45.00"
/>
<path stroke="#808080" vector-effect="non-scaling-stroke" d="
  M 53.08 76.08
  Q 28.09 61.64 25.24 60.08
  Q 22.80 58.73 22.81 56.06
  Q 22.84 43.17 22.82 29.09
  A 0.31 0.30 -11.7 0 0 22.40 28.81
  C 7.32 35.02 3.39 54.69 15.78 65.79
  Q 17.42 67.25 21.72 69.72
  Q 29.03 73.92 42.82 81.93
  A 0.55 0.54 44.4 0 0 43.36 81.93
  L 53.08 76.31
  A 0.13 0.13 0.0 0 0 53.08 76.08"
/>
<path stroke="#808080" vector-effect="non-scaling-stroke" d="
  M 64.06 40.92
  Q 89.04 55.35 91.89 56.91
  Q 94.33 58.25 94.32 60.93
  Q 94.30 73.81 94.32 87.89
  A 0.31 0.30 -11.7 0 0 94.75 88.16
  C 109.82 81.94 113.73 62.28 101.34 51.19
  Q 99.71 49.74 95.41 47.26
  Q 88.09 43.07 74.30 35.07
  A 0.55 0.54 44.4 0 0 73.76 35.07
  L 64.05 40.70
  A 0.13 0.13 0.0 0 0 64.06 40.92"
/>
<path stroke="#808080" vector-effect="non-scaling-stroke" d="
  M 52.24 47.46
  Q 46.04 51.06 45.96 51.18
  Q 45.89 51.31 45.90 58.48
  Q 45.91 65.65 45.98 65.77
  Q 46.05 65.90 52.26 69.48
  Q 58.48 73.06 58.62 73.06
  Q 58.77 73.06 64.97 69.47
  Q 71.18 65.88 71.25 65.75
  Q 71.33 65.62 71.32 58.45
  Q 71.31 51.28 71.24 51.16
  Q 71.17 51.03 64.95 47.45
  Q 58.74 43.87 58.60 43.87
  Q 58.45 43.87 52.24 47.46"
/>
<path stroke="#808080" vector-effect="non-scaling-stroke" d="
  M 76.51 54.41
  Q 76.48 83.29 76.55 86.55
  Q 76.61 89.33 74.28 90.66
  Q 63.10 97.08 50.89 104.14
  A 0.31 0.30 48.3 0 0 50.87 104.64
  C 63.79 114.61 82.81 108.18 86.24 91.89
  Q 86.68 89.74 86.68 84.77
  Q 86.66 76.33 86.71 60.37
  A 0.55 0.54 -75.6 0 0 86.44 59.90
  L 76.70 54.29
  A 0.13 0.13 0.0 0 0 76.51 54.41"
/>
<path stroke="#808080" vector-effect="non-scaling-stroke" d="
  M 71.19 71.93
  Q 46.10 86.37 43.31 88.06
  Q 40.92 89.50 38.60 88.15
  Q 27.43 81.65 15.19 74.59
  A 0.31 0.30 -71.6 0 0 14.74 74.82
  C 12.56 91.03 27.66 104.32 43.52 99.14
  Q 45.61 98.45 49.92 95.96
  Q 57.24 91.72 71.12 83.77
  A 0.55 0.54 -15.5 0 0 71.39 83.30
  L 71.39 72.04
  A 0.13 0.13 0.0 0 0 71.19 71.93"
/>
<path stroke="#808080" vector-effect="non-scaling-stroke" d="
  M 134.56 56.22
  C 134.57 73.39 145.19 88.61 163.84 88.61
  C 182.49 88.60 193.10 73.38 193.10 56.20
  C 193.09 39.03 182.47 23.81 163.82 23.81
  C 145.17 23.82 134.56 39.04 134.56 56.22"
/>
<path stroke="#808080" vector-effect="non-scaling-stroke" d="
  M 377.64 73.19
  Q 389.93 73.20 390.89 73.21
  A 0.53 0.53 0.0 0 1 391.37 73.55
  L 396.56 87.26
  A 0.77 0.76 -10.7 0 0 397.27 87.74
  L 407.44 87.74
  A 0.28 0.27 -10.2 0 0 407.70 87.37
  L 384.25 25.54
  A 0.86 0.85 -9.3 0 0 383.48 24.99
  Q 380.94 24.90 377.66 24.90
  Q 374.38 24.90 371.85 24.98
  A 0.86 0.85 9.3 0 0 371.07 25.53
  L 347.56 87.34
  A 0.28 0.27 10.3 0 0 347.82 87.71
  L 357.99 87.72
  A 0.77 0.76 10.8 0 0 358.70 87.24
  L 363.90 73.54
  A 0.53 0.53 0.0 0 1 364.39 73.20
  Q 365.34 73.18 377.64 73.19"
/>
<path stroke="#808080" vector-effect="non-scaling-stroke" d="
  M 426.00 25.19
  A 0.27 0.27 0.0 0 0 425.73 24.92
  L 415.11 24.92
  A 0.27 0.27 0.0 0 0 414.84 25.19
  L 414.84 87.59
  A 0.27 0.27 0.0 0 0 415.11 87.86
  L 425.73 87.86
  A 0.27 0.27 0.0 0 0 426.00 87.59
  L 426.00 25.19"
/>
<path stroke="#808080" vector-effect="non-scaling-stroke" d="
  M 212.05 83.23
  Q 216.63 88.11 223.17 88.55
  C 242.94 89.89 249.07 67.15 242.68 52.85
  C 237.26 40.75 222.39 36.35 212.08 46.20
  A 0.33 0.33 0.0 0 1 211.52 45.96
  L 211.52 42.26
  A 0.56 0.55 -90.0 0 0 210.97 41.70
  L 201.66 41.70
  A 0.59 0.59 0.0 0 0 201.07 42.29
  L 201.07 102.82
  A 0.56 0.56 0.0 0 0 201.63 103.38
  L 210.96 103.38
  A 0.55 0.55 0.0 0 0 211.51 102.83
  L 211.51 83.45
  A 0.32 0.31 -66.9 0 1 212.05 83.23"
/>
<path stroke="#808080" vector-effect="non-scaling-stroke" d="
  M 284.75 72.58
  A 0.31 0.31 0.0 0 0 284.35 72.75
  Q 281.39 80.01 273.20 79.78
  C 266.12 79.57 262.41 74.26 261.36 67.49
  A 0.48 0.47 -4.6 0 1 261.83 66.94
  L 293.05 66.94
  A 0.55 0.55 0.0 0 0 293.60 66.42
  Q 294.00 58.05 291.50 52.49
  C 287.00 42.47 277.23 38.91 266.99 41.81
  C 256.94 44.66 251.50 53.92 251.36 64.04
  C 251.19 76.32 257.99 86.83 270.82 88.42
  Q 280.86 89.66 288.63 82.96
  Q 291.09 80.84 293.27 75.99
  A 0.23 0.23 0.0 0 0 293.14 75.68
  L 284.75 72.58"
/>
<path stroke="#808080" vector-effect="non-scaling-stroke" d="
  M 312.14 45.91
  L 312.14 42.22
  A 0.52 0.52 0.0 0 0 311.62 41.70
  L 302.29 41.70
  A 0.59 0.58 90.0 0 0 301.71 42.29
  L 301.71 87.15
  A 0.59 0.58 -0.0 0 0 302.30 87.73
  L 311.60 87.73
  A 0.53 0.52 -0.0 0 0 312.13 87.21
  Q 312.16 85.17 312.12 66.21
  Q 312.11 59.39 312.35 58.35
  C 313.54 53.32 318.16 49.90 323.29 50.67
  C 328.07 51.38 329.85 55.74 329.88 60.32
  Q 329.94 68.42 329.90 87.43
  A 0.32 0.31 0.0 0 0 330.22 87.74
  L 339.73 87.74
  A 0.58 0.57 0.0 0 0 340.31 87.17
  Q 340.48 59.69 340.21 55.82
  C 339.51 45.74 332.63 39.90 322.71 41.05
  Q 316.92 41.72 312.79 46.17
  A 0.38 0.38 0.0 0 1 312.14 45.91"
/>
<path stroke="#808080" vector-effect="non-scaling-stroke" d="
  M 145.67 56.22
  C 145.66 67.20 151.25 78.81 163.81 78.82
  C 176.37 78.84 181.98 67.25 181.99 56.27
  C 182.01 45.28 176.42 33.68 163.86 33.67
  C 151.30 33.65 145.69 45.24 145.67 56.22"
/>
<path stroke="#808080" vector-effect="non-scaling-stroke" d="
  M 367.68 63.14
  A 0.35 0.35 0.0 0 0 368.01 63.61
  L 387.02 63.55
  A 0.35 0.35 0.0 0 0 387.34 63.07
  L 377.75 37.87
  A 0.35 0.35 0.0 0 0 377.09 37.87
  L 367.68 63.14"
/>
<path stroke="#808080" vector-effect="non-scaling-stroke" d="
  M 211.17 64.72
  C 211.16 72.17 214.11 79.49 222.80 79.51
  C 231.49 79.52 234.46 72.22 234.48 64.76
  C 234.49 57.31 231.54 49.99 222.85 49.98
  C 214.16 49.96 211.19 57.27 211.17 64.72"
/>
<path stroke="#808080" vector-effect="non-scaling-stroke" d="
  M 262.56 59.41
  L 283.10 59.23
  A 0.14 0.14 0.0 0 0 283.24 59.09
  L 283.24 58.99
  A 10.31 9.56 -0.5 0 0 272.85 49.52
  L 272.65 49.52
  A 10.31 9.56 -0.5 0 0 262.42 59.17
  L 262.42 59.27
  A 0.14 0.14 0.0 0 0 262.56 59.41"
/>
</g>
<path fill="#ffffff" d="
  M 50.58 0.00
  Q 31.40 2.13 24.36 19.93
  A 0.82 0.81 -86.8 0 1 23.83 20.41
  Q 7.06 25.24 2.20 40.70
  C -0.85 50.37 1.41 60.77 8.02 68.56
  A 1.02 1.01 -58.5 0 1 8.23 69.45
  Q 3.72 88.41 17.09 100.39
  Q 27.43 109.66 42.21 107.29
  A 1.00 0.98 62.4 0 1 43.09 107.58
  Q 51.32 116.18 63.37 117.00
  L 0.00 117.00
  L 0.00 0.00
  L 50.58 0.00
  Z"
/>
<path fill="#000000" d="
  M 54.87 0.00
  Q 66.47 1.27 74.23 9.59
  A 0.53 0.51 -26.3 0 0 74.70 9.74
  C 96.86 5.47 115.26 25.89 108.76 47.44
  A 0.79 0.78 -57.1 0 0 108.92 48.19
  C 123.41 64.77 115.21 91.67 93.22 96.42
  A 0.68 0.67 -85.7 0 0 92.74 96.84
  Q 85.98 114.73 66.60 117.00
  L 63.37 117.00
  Q 51.32 116.18 43.09 107.58
  A 1.00 0.98 62.4 0 0 42.21 107.29
  Q 27.43 109.66 17.09 100.39
  Q 3.72 88.41 8.23 69.45
  A 1.02 1.01 -58.5 0 0 8.02 68.56
  C 1.41 60.77 -0.85 50.37 2.20 40.70
  Q 7.06 25.24 23.83 20.41
  A 0.82 0.81 -86.8 0 0 24.36 19.93
  Q 31.40 2.13 50.58 0.00
  L 54.87 0.00
  Z
  M 40.63 62.59
  Q 40.62 33.76 40.55 30.51
  Q 40.49 27.73 42.81 26.40
  Q 53.96 19.98 66.14 12.92
  A 0.31 0.30 48.3 0 0 66.16 12.42
  C 53.25 2.49 34.28 8.93 30.87 25.19
  Q 30.43 27.34 30.44 32.30
  Q 30.47 40.72 30.44 56.65
  A 0.55 0.54 -75.6 0 0 30.71 57.12
  L 40.44 62.71
  A 0.13 0.13 0.0 0 0 40.63 62.59
  Z
  M 46.04 45.00
  Q 71.07 30.60 73.86 28.92
  Q 76.24 27.48 78.55 28.83
  Q 89.69 35.32 101.90 42.36
  A 0.31 0.30 -71.6 0 0 102.35 42.13
  C 104.53 25.97 89.47 12.71 73.65 17.87
  Q 71.57 18.56 67.27 21.04
  Q 59.96 25.26 46.12 33.19
  A 0.55 0.54 -15.5 0 0 45.85 33.66
  L 45.85 44.89
  A 0.13 0.13 0.0 0 0 46.04 45.00
  Z
  M 53.08 76.08
  Q 28.09 61.64 25.24 60.08
  Q 22.80 58.73 22.81 56.06
  Q 22.84 43.17 22.82 29.09
  A 0.31 0.30 -11.7 0 0 22.40 28.81
  C 7.32 35.02 3.39 54.69 15.78 65.79
  Q 17.42 67.25 21.72 69.72
  Q 29.03 73.92 42.82 81.93
  A 0.55 0.54 44.4 0 0 43.36 81.93
  L 53.08 76.31
  A 0.13 0.13 0.0 0 0 53.08 76.08
  Z
  M 64.06 40.92
  Q 89.04 55.35 91.89 56.91
  Q 94.33 58.25 94.32 60.93
  Q 94.30 73.81 94.32 87.89
  A 0.31 0.30 -11.7 0 0 94.75 88.16
  C 109.82 81.94 113.73 62.28 101.34 51.19
  Q 99.71 49.74 95.41 47.26
  Q 88.09 43.07 74.30 35.07
  A 0.55 0.54 44.4 0 0 73.76 35.07
  L 64.05 40.70
  A 0.13 0.13 0.0 0 0 64.06 40.92
  Z
  M 52.24 47.46
  Q 46.04 51.06 45.96 51.18
  Q 45.89 51.31 45.90 58.48
  Q 45.91 65.65 45.98 65.77
  Q 46.05 65.90 52.26 69.48
  Q 58.48 73.06 58.62 73.06
  Q 58.77 73.06 64.97 69.47
  Q 71.18 65.88 71.25 65.75
  Q 71.33 65.62 71.32 58.45
  Q 71.31 51.28 71.24 51.16
  Q 71.17 51.03 64.95 47.45
  Q 58.74 43.87 58.60 43.87
  Q 58.45 43.87 52.24 47.46
  Z
  M 76.51 54.41
  Q 76.48 83.29 76.55 86.55
  Q 76.61 89.33 74.28 90.66
  Q 63.10 97.08 50.89 104.14
  A 0.31 0.30 48.3 0 0 50.87 104.64
  C 63.79 114.61 82.81 108.18 86.24 91.89
  Q 86.68 89.74 86.68 84.77
  Q 86.66 76.33 86.71 60.37
  A 0.55 0.54 -75.6 0 0 86.44 59.90
  L 76.70 54.29
  A 0.13 0.13 0.0 0 0 76.51 54.41
  Z
  M 71.19 71.93
  Q 46.10 86.37 43.31 88.06
  Q 40.92 89.50 38.60 88.15
  Q 27.43 81.65 15.19 74.59
  A 0.31 0.30 -71.6 0 0 14.74 74.82
  C 12.56 91.03 27.66 104.32 43.52 99.14
  Q 45.61 98.45 49.92 95.96
  Q 57.24 91.72 71.12 83.77
  A 0.55 0.54 -15.5 0 0 71.39 83.30
  L 71.39 72.04
  A 0.13 0.13 0.0 0 0 71.19 71.93
  Z"
/>
<path fill="#ffffff" d="
  M 432.00 0.00
  L 432.00 117.00
  L 66.60 117.00
  Q 85.98 114.73 92.74 96.84
  A 0.68 0.67 -85.7 0 1 93.22 96.42
  C 115.21 91.67 123.41 64.77 108.92 48.19
  A 0.79 0.78 -57.1 0 1 108.76 47.44
  C 115.26 25.89 96.86 5.47 74.70 9.74
  A 0.53 0.51 -26.3 0 1 74.23 9.59
  Q 66.47 1.27 54.87 0.00
  L 432.00 0.00
  Z
  M 134.56 56.22
  C 134.57 73.39 145.19 88.61 163.84 88.61
  C 182.49 88.60 193.10 73.38 193.10 56.20
  C 193.09 39.03 182.47 23.81 163.82 23.81
  C 145.17 23.82 134.56 39.04 134.56 56.22
  Z
  M 377.64 73.19
  Q 389.93 73.20 390.89 73.21
  A 0.53 0.53 0.0 0 1 391.37 73.55
  L 396.56 87.26
  A 0.77 0.76 -10.7 0 0 397.27 87.74
  L 407.44 87.74
  A 0.28 0.27 -10.2 0 0 407.70 87.37
  L 384.25 25.54
  A 0.86 0.85 -9.3 0 0 383.48 24.99
  Q 380.94 24.90 377.66 24.90
  Q 374.38 24.90 371.85 24.98
  A 0.86 0.85 9.3 0 0 371.07 25.53
  L 347.56 87.34
  A 0.28 0.27 10.3 0 0 347.82 87.71
  L 357.99 87.72
  A 0.77 0.76 10.8 0 0 358.70 87.24
  L 363.90 73.54
  A 0.53 0.53 0.0 0 1 364.39 73.20
  Q 365.34 73.18 377.64 73.19
  Z
  M 426.00 25.19
  A 0.27 0.27 0.0 0 0 425.73 24.92
  L 415.11 24.92
  A 0.27 0.27 0.0 0 0 414.84 25.19
  L 414.84 87.59
  A 0.27 0.27 0.0 0 0 415.11 87.86
  L 425.73 87.86
  A 0.27 0.27 0.0 0 0 426.00 87.59
  L 426.00 25.19
  Z
  M 212.05 83.23
  Q 216.63 88.11 223.17 88.55
  C 242.94 89.89 249.07 67.15 242.68 52.85
  C 237.26 40.75 222.39 36.35 212.08 46.20
  A 0.33 0.33 0.0 0 1 211.52 45.96
  L 211.52 42.26
  A 0.56 0.55 -90.0 0 0 210.97 41.70
  L 201.66 41.70
  A 0.59 0.59 0.0 0 0 201.07 42.29
  L 201.07 102.82
  A 0.56 0.56 0.0 0 0 201.63 103.38
  L 210.96 103.38
  A 0.55 0.55 0.0 0 0 211.51 102.83
  L 211.51 83.45
  A 0.32 0.31 -66.9 0 1 212.05 83.23
  Z
  M 284.75 72.58
  A 0.31 0.31 0.0 0 0 284.35 72.75
  Q 281.39 80.01 273.20 79.78
  C 266.12 79.57 262.41 74.26 261.36 67.49
  A 0.48 0.47 -4.6 0 1 261.83 66.94
  L 293.05 66.94
  A 0.55 0.55 0.0 0 0 293.60 66.42
  Q 294.00 58.05 291.50 52.49
  C 287.00 42.47 277.23 38.91 266.99 41.81
  C 256.94 44.66 251.50 53.92 251.36 64.04
  C 251.19 76.32 257.99 86.83 270.82 88.42
  Q 280.86 89.66 288.63 82.96
  Q 291.09 80.84 293.27 75.99
  A 0.23 0.23 0.0 0 0 293.14 75.68
  L 284.75 72.58
  Z
  M 312.14 45.91
  L 312.14 42.22
  A 0.52 0.52 0.0 0 0 311.62 41.70
  L 302.29 41.70
  A 0.59 0.58 90.0 0 0 301.71 42.29
  L 301.71 87.15
  A 0.59 0.58 -0.0 0 0 302.30 87.73
  L 311.60 87.73
  A 0.53 0.52 -0.0 0 0 312.13 87.21
  Q 312.16 85.17 312.12 66.21
  Q 312.11 59.39 312.35 58.35
  C 313.54 53.32 318.16 49.90 323.29 50.67
  C 328.07 51.38 329.85 55.74 329.88 60.32
  Q 329.94 68.42 329.90 87.43
  A 0.32 0.31 0.0 0 0 330.22 87.74
  L 339.73 87.74
  A 0.58 0.57 0.0 0 0 340.31 87.17
  Q 340.48 59.69 340.21 55.82
  C 339.51 45.74 332.63 39.90 322.71 41.05
  Q 316.92 41.72 312.79 46.17
  A 0.38 0.38 0.0 0 1 312.14 45.91
  Z"
/>
<path fill="#ffffff" d="
  M 40.63 62.59
  A 0.13 0.13 0.0 0 1 40.44 62.71
  L 30.71 57.12
  A 0.55 0.54 -75.6 0 1 30.44 56.65
  Q 30.47 40.72 30.44 32.30
  Q 30.43 27.34 30.87 25.19
  C 34.28 8.93 53.25 2.49 66.16 12.42
  A 0.31 0.30 48.3 0 1 66.14 12.92
  Q 53.96 19.98 42.81 26.40
  Q 40.49 27.73 40.55 30.51
  Q 40.62 33.76 40.63 62.59
  Z"
/>
<path fill="#ffffff" d="
  M 46.04 45.00
  A 0.13 0.13 0.0 0 1 45.85 44.89
  L 45.85 33.66
  A 0.55 0.54 -15.5 0 1 46.12 33.19
  Q 59.96 25.26 67.27 21.04
  Q 71.57 18.56 73.65 17.87
  C 89.47 12.71 104.53 25.97 102.35 42.13
  A 0.31 0.30 -71.6 0 1 101.90 42.36
  Q 89.69 35.32 78.55 28.83
  Q 76.24 27.48 73.86 28.92
  Q 71.07 30.60 46.04 45.00
  Z"
/>
<path fill="#000000" d="
  M 163.82 23.81
  C 182.47 23.81 193.09 39.03 193.10 56.20
  C 193.10 73.38 182.49 88.60 163.84 88.61
  C 145.19 88.61 134.57 73.39 134.56 56.22
  C 134.56 39.04 145.17 23.82 163.82 23.81
  Z
  M 145.67 56.22
  C 145.66 67.20 151.25 78.81 163.81 78.82
  C 176.37 78.84 181.98 67.25 181.99 56.27
  C 182.01 45.28 176.42 33.68 163.86 33.67
  C 151.30 33.65 145.69 45.24 145.67 56.22
  Z"
/>
<path fill="#000000" d="
  M 377.66 24.90
  Q 380.94 24.90 383.48 24.99
  A 0.86 0.85 -9.3 0 1 384.25 25.54
  L 407.70 87.37
  A 0.28 0.27 -10.2 0 1 407.44 87.74
  L 397.27 87.74
  A 0.77 0.76 -10.7 0 1 396.56 87.26
  L 391.37 73.55
  A 0.53 0.53 0.0 0 0 390.89 73.21
  Q 389.93 73.20 377.64 73.19
  Q 365.34 73.18 364.39 73.20
  A 0.53 0.53 0.0 0 0 363.90 73.54
  L 358.70 87.24
  A 0.77 0.76 10.8 0 1 357.99 87.72
  L 347.82 87.71
  A 0.28 0.27 10.3 0 1 347.56 87.34
  L 371.07 25.53
  A 0.86 0.85 9.3 0 1 371.85 24.98
  Q 374.38 24.90 377.66 24.90
  Z
  M 367.68 63.14
  A 0.35 0.35 0.0 0 0 368.01 63.61
  L 387.02 63.55
  A 0.35 0.35 0.0 0 0 387.34 63.07
  L 377.75 37.87
  A 0.35 0.35 0.0 0 0 377.09 37.87
  L 367.68 63.14
  Z"
/>
<rect fill="#000000" x="414.84" y="24.92" width="11.16" height="62.94" rx="0.27"/>
<path fill="#ffffff" d="
  M 53.08 76.08
  A 0.13 0.13 0.0 0 1 53.08 76.31
  L 43.36 81.93
  A 0.55 0.54 44.4 0 1 42.82 81.93
  Q 29.03 73.92 21.72 69.72
  Q 17.42 67.25 15.78 65.79
  C 3.39 54.69 7.32 35.02 22.40 28.81
  A 0.31 0.30 -11.7 0 1 22.82 29.09
  Q 22.84 43.17 22.81 56.06
  Q 22.80 58.73 25.24 60.08
  Q 28.09 61.64 53.08 76.08
  Z"
/>
<path fill="#ffffff" d="
  M 163.86 33.67
  C 176.42 33.68 182.01 45.28 181.99 56.27
  C 181.98 67.25 176.37 78.84 163.81 78.82
  C 151.25 78.81 145.66 67.20 145.67 56.22
  C 145.69 45.24 151.30 33.65 163.86 33.67
  Z"
/>
<path fill="#ffffff" d="
  M 64.06 40.92
  A 0.13 0.13 0.0 0 1 64.05 40.70
  L 73.76 35.07
  A 0.55 0.54 44.4 0 1 74.30 35.07
  Q 88.09 43.07 95.41 47.26
  Q 99.71 49.74 101.34 51.19
  C 113.73 62.28 109.82 81.94 94.75 88.16
  A 0.31 0.30 -11.7 0 1 94.32 87.89
  Q 94.30 73.81 94.32 60.93
  Q 94.33 58.25 91.89 56.91
  Q 89.04 55.35 64.06 40.92
  Z"
/>
<path fill="#ffffff" d="
  M 367.68 63.14
  L 377.09 37.87
  A 0.35 0.35 0.0 0 1 377.75 37.87
  L 387.34 63.07
  A 0.35 0.35 0.0 0 1 387.02 63.55
  L 368.01 63.61
  A 0.35 0.35 0.0 0 1 367.68 63.14
  Z"
/>
<path fill="#000000" d="
  M 212.05 83.23
  A 0.32 0.31 -66.9 0 0 211.51 83.45
  L 211.51 102.83
  A 0.55 0.55 0.0 0 1 210.96 103.38
  L 201.63 103.38
  A 0.56 0.56 0.0 0 1 201.07 102.82
  L 201.07 42.29
  A 0.59 0.59 0.0 0 1 201.66 41.70
  L 210.97 41.70
  A 0.56 0.55 -90.0 0 1 211.52 42.26
  L 211.52 45.96
  A 0.33 0.33 0.0 0 0 212.08 46.20
  C 222.39 36.35 237.26 40.75 242.68 52.85
  C 249.07 67.15 242.94 89.89 223.17 88.55
  Q 216.63 88.11 212.05 83.23
  Z
  M 211.17 64.72
  C 211.16 72.17 214.11 79.49 222.80 79.51
  C 231.49 79.52 234.46 72.22 234.48 64.76
  C 234.49 57.31 231.54 49.99 222.85 49.98
  C 214.16 49.96 211.19 57.27 211.17 64.72
  Z"
/>
<path fill="#000000" d="
  M 293.27 75.99
  Q 291.09 80.84 288.63 82.96
  Q 280.86 89.66 270.82 88.42
  C 257.99 86.83 251.19 76.32 251.36 64.04
  C 251.50 53.92 256.94 44.66 266.99 41.81
  C 277.23 38.91 287.00 42.47 291.50 52.49
  Q 294.00 58.05 293.60 66.42
  A 0.55 0.55 0.0 0 1 293.05 66.94
  L 261.83 66.94
  A 0.48 0.47 -4.6 0 0 261.36 67.49
  C 262.41 74.26 266.12 79.57 273.20 79.78
  Q 281.39 80.01 284.35 72.75
  A 0.31 0.31 0.0 0 1 284.75 72.58
  L 293.14 75.68
  A 0.23 0.23 0.0 0 1 293.27 75.99
  Z
  M 262.56 59.41
  L 283.10 59.23
  A 0.14 0.14 0.0 0 0 283.24 59.09
  L 283.24 58.99
  A 10.31 9.56 -0.5 0 0 272.85 49.52
  L 272.65 49.52
  A 10.31 9.56 -0.5 0 0 262.42 59.17
  L 262.42 59.27
  A 0.14 0.14 0.0 0 0 262.56 59.41
  Z"
/>
<path fill="#000000" d="
  M 312.79 46.17
  Q 316.92 41.72 322.71 41.05
  C 332.63 39.90 339.51 45.74 340.21 55.82
  Q 340.48 59.69 340.31 87.17
  A 0.58 0.57 0.0 0 1 339.73 87.74
  L 330.22 87.74
  A 0.32 0.31 0.0 0 1 329.90 87.43
  Q 329.94 68.42 329.88 60.32
  C 329.85 55.74 328.07 51.38 323.29 50.67
  C 318.16 49.90 313.54 53.32 312.35 58.35
  Q 312.11 59.39 312.12 66.21
  Q 312.16 85.17 312.13 87.21
  A 0.53 0.52 -0.0 0 1 311.60 87.73
  L 302.30 87.73
  A 0.59 0.58 -0.0 0 1 301.71 87.15
  L 301.71 42.29
  A 0.59 0.58 -90.0 0 1 302.29 41.70
  L 311.62 41.70
  A 0.52 0.52 0.0 0 1 312.14 42.22
  L 312.14 45.91
  A 0.38 0.38 0.0 0 0 312.79 46.17
  Z"
/>
<path fill="#ffffff" d="
  M 58.60 43.87
  Q 58.74 43.87 64.95 47.45
  Q 71.17 51.03 71.24 51.16
  Q 71.31 51.28 71.32 58.45
  Q 71.33 65.62 71.25 65.75
  Q 71.18 65.88 64.97 69.47
  Q 58.77 73.06 58.62 73.06
  Q 58.48 73.06 52.26 69.48
  Q 46.05 65.90 45.98 65.77
  Q 45.91 65.65 45.90 58.48
  Q 45.89 51.31 45.96 51.18
  Q 46.04 51.06 52.24 47.46
  Q 58.45 43.87 58.60 43.87
  Z"
/>
<path fill="#ffffff" d="
  M 262.56 59.41
  A 0.14 0.14 0.0 0 1 262.42 59.27
  L 262.42 59.17
  A 10.31 9.56 -0.5 0 1 272.65 49.52
  L 272.85 49.52
  A 10.31 9.56 -0.5 0 1 283.24 58.99
  L 283.24 59.09
  A 0.14 0.14 0.0 0 1 283.10 59.23
  L 262.56 59.41
  Z"
/>
<path fill="#ffffff" d="
  M 222.85 49.98
  C 231.54 49.99 234.49 57.31 234.48 64.76
  C 234.46 72.22 231.49 79.52 222.80 79.51
  C 214.11 79.49 211.16 72.17 211.17 64.72
  C 211.19 57.27 214.16 49.96 222.85 49.98
  Z"
/>
<path fill="#ffffff" d="
  M 76.51 54.41
  A 0.13 0.13 0.0 0 1 76.70 54.29
  L 86.44 59.90
  A 0.55 0.54 -75.6 0 1 86.71 60.37
  Q 86.66 76.33 86.68 84.77
  Q 86.68 89.74 86.24 91.89
  C 82.81 108.18 63.79 114.61 50.87 104.64
  A 0.31 0.30 48.3 0 1 50.89 104.14
  Q 63.10 97.08 74.28 90.66
  Q 76.61 89.33 76.55 86.55
  Q 76.48 83.29 76.51 54.41
  Z"
/>
<path fill="#ffffff" d="
  M 71.19 71.93
  A 0.13 0.13 0.0 0 1 71.39 72.04
  L 71.39 83.30
  A 0.55 0.54 -15.5 0 1 71.12 83.77
  Q 57.24 91.72 49.92 95.96
  Q 45.61 98.45 43.52 99.14
  C 27.66 104.32 12.56 91.03 14.74 74.82
  A 0.31 0.30 -71.6 0 1 15.19 74.59
  Q 27.43 81.65 38.60 88.15
  Q 40.92 89.50 43.31 88.06
  Q 46.10 86.37 71.19 71.93
  Z"
/>
</svg>
