<svg width="1502" height="1000" viewBox="0 0 1502 1000" fill="none" xmlns="http://www.w3.org/2000/svg">
<g clip-path="url(#clip0_1595_148)">
<path d="M497.332 344.985C497.332 344.231 497.032 343.507 496.499 342.974C495.965 342.441 495.242 342.141 494.487 342.141H473.314C472.56 342.141 471.836 342.441 471.303 342.974C470.769 343.507 470.469 344.231 470.469 344.985V526.98C470.469 527.734 470.769 528.458 471.303 528.991C471.836 529.524 472.56 529.824 473.314 529.824H494.487C495.242 529.824 495.965 529.524 496.499 528.991C497.032 528.458 497.332 527.734 497.332 526.98V344.985Z" stroke="#81CDF2" stroke-width="2"/>
<path d="M836.071 402.405C838.769 384.487 841.056 365.66 862.112 365.572C867.136 365.552 870.812 366.1 873.138 367.214C873.544 367.404 873.984 367.507 874.432 367.518C874.879 367.528 875.324 367.445 875.738 367.274C876.152 367.103 876.525 366.848 876.835 366.524C877.145 366.201 877.384 365.817 877.537 365.396L883.226 349.766C883.398 349.294 883.471 348.792 883.438 348.292C883.405 347.792 883.268 347.304 883.036 346.862C882.803 346.419 882.481 346.032 882.089 345.723C881.698 345.415 881.246 345.194 880.763 345.073C853.49 338.153 827.39 344.78 816.071 373.343C812.786 381.593 810.509 391.447 809.238 402.903C809.187 403.396 808.955 403.852 808.586 404.183C808.217 404.513 807.739 404.695 807.244 404.692H790.323C789.589 404.693 788.879 404.949 788.316 405.415C787.754 405.881 787.374 406.528 787.244 407.244L784.194 424.047C784.129 424.407 784.144 424.777 784.236 425.131C784.329 425.484 784.497 425.812 784.73 426.092C784.962 426.372 785.253 426.597 785.581 426.75C785.909 426.904 786.266 426.982 786.628 426.98H803.901C804.075 426.981 804.247 427.021 804.404 427.096C804.562 427.17 804.701 427.278 804.813 427.412C804.924 427.546 805.005 427.703 805.05 427.871C805.095 428.039 805.103 428.216 805.074 428.387C799.443 460.274 793.011 496.09 785.778 535.836C784.526 542.679 782.425 549.863 779.472 557.39C774.526 569.922 763.852 573.852 747.449 569.179C746.73 568.979 745.961 569.059 745.298 569.401C744.635 569.744 744.125 570.324 743.871 571.027L737.977 587.156C737.851 587.504 737.795 587.875 737.812 588.245C737.83 588.615 737.92 588.977 738.079 589.31C738.237 589.643 738.46 589.941 738.735 590.185C739.009 590.43 739.33 590.616 739.678 590.733C749.218 593.94 759.257 594.741 769.795 593.138C801.291 588.299 808.857 557.625 813.49 531.32C822.366 480.978 828.407 446.794 831.613 428.769C831.703 428.267 831.963 427.813 832.349 427.486C832.735 427.159 833.222 426.98 833.725 426.98H858.769C859.583 426.98 860.371 426.696 860.997 426.176C861.624 425.657 862.049 424.935 862.2 424.135L865.25 407.419C865.31 407.085 865.296 406.742 865.209 406.414C865.121 406.085 864.963 405.78 864.745 405.52C864.526 405.26 864.254 405.051 863.946 404.908C863.638 404.765 863.302 404.691 862.962 404.692H838.065C837.775 404.691 837.489 404.627 837.226 404.507C836.962 404.387 836.728 404.213 836.539 403.996C836.35 403.779 836.211 403.525 836.13 403.25C836.049 402.976 836.029 402.687 836.071 402.405Z" stroke="#81CDF2" stroke-width="2"/>
<path d="M215.602 512.991C215.377 513.602 215.371 514.273 215.585 514.887C215.799 515.502 216.219 516.024 216.775 516.364C240.323 530.88 281.525 537.419 304.78 517.185C314.692 508.563 318.769 489.15 311.144 477.508C302.053 463.519 282.464 458.417 265.689 453.666C256.54 451.066 250.655 448.182 248.036 445.015C243.461 439.443 244.174 434.184 250.176 429.238C261.613 419.854 290.88 428.769 301.965 434.282C302.324 434.458 302.716 434.557 303.115 434.572C303.515 434.586 303.913 434.517 304.284 434.367C304.654 434.218 304.989 433.992 305.267 433.705C305.545 433.417 305.759 433.074 305.895 432.698L310.968 418.739C311.227 418.02 311.212 417.229 310.925 416.517C310.639 415.804 310.102 415.218 309.414 414.868C286.775 403.373 246.511 397.83 227.977 418.827C210.176 438.915 219.121 463.49 243.93 472.024C255.289 475.914 265.074 479.013 273.285 481.32C283.754 484.252 294.634 491.906 285.396 503.255C273.285 518.094 237.86 505.191 224.575 496.51C224.286 496.322 223.958 496.201 223.615 496.158C223.273 496.114 222.925 496.149 222.597 496.259C222.27 496.369 221.972 496.551 221.725 496.793C221.479 497.035 221.29 497.329 221.173 497.654L215.602 512.991Z" stroke="#81CDF2" stroke-width="2"/>
<path d="M416.921 452.61C394.106 448.827 368.798 449.179 350.294 463.255C330.235 478.505 332.962 512.317 355.836 523.255C380.147 534.898 417.215 529.238 443.021 522.434C443.502 522.307 443.928 522.026 444.235 521.634C444.542 521.243 444.713 520.762 444.722 520.264C444.917 487.947 444.859 463.48 444.546 446.862C443.519 394.282 379.824 400.352 346.716 414.106C345.78 414.493 345.036 415.237 344.646 416.177C344.256 417.116 344.252 418.174 344.634 419.12L349.766 431.848C349.949 432.291 350.218 432.693 350.559 433.029C350.9 433.365 351.305 433.629 351.749 433.805C352.193 433.98 352.667 434.063 353.142 434.05C353.618 434.036 354.086 433.925 354.517 433.724C372.845 425.279 422.786 415.015 417.801 451.994C417.788 452.092 417.754 452.185 417.702 452.269C417.65 452.353 417.581 452.426 417.499 452.484C417.417 452.541 417.323 452.582 417.224 452.604C417.125 452.625 417.022 452.628 416.921 452.61Z" stroke="#81CDF2" stroke-width="2"/>
<path d="M558.446 473.871H640.088C640.604 473.869 641.101 473.681 641.489 473.342C641.877 473.002 642.129 472.534 642.2 472.024C645.719 447.537 637.977 418.534 612.346 408.856C597.126 403.109 576.716 403.226 561.672 409.854C542.141 418.436 531.017 434.516 528.299 458.094C520.352 527.126 584.898 541.115 636.129 522.669C636.5 522.537 636.84 522.33 637.13 522.062C637.419 521.794 637.651 521.47 637.812 521.109C637.974 520.747 638.061 520.357 638.069 519.96C638.077 519.563 638.006 519.168 637.86 518.798L632.17 504.751C631.882 504.026 631.322 503.443 630.61 503.126C629.898 502.808 629.09 502.781 628.358 503.05C612.131 508.935 596.266 510.147 580.763 506.686C565.787 503.343 557.772 493.011 556.716 475.689C556.7 475.456 556.733 475.223 556.812 475.003C556.892 474.783 557.017 474.581 557.179 474.411C557.341 474.24 557.538 474.104 557.756 474.011C557.974 473.919 558.209 473.871 558.446 473.871Z" stroke="#81CDF2" stroke-width="2"/>
<path d="M664.839 512.991C664.614 513.602 664.609 514.273 664.823 514.887C665.036 515.502 665.457 516.024 666.012 516.364C689.56 530.88 730.763 537.42 754.047 517.214C763.959 508.593 768.035 489.179 760.411 477.508C751.32 463.519 731.731 458.417 714.956 453.666C705.807 451.066 699.922 448.182 697.302 445.015C692.728 439.443 693.441 434.184 699.443 429.238C710.88 419.854 740.147 428.769 751.232 434.282C751.591 434.458 751.983 434.557 752.382 434.572C752.782 434.586 753.18 434.517 753.55 434.367C753.921 434.218 754.256 433.992 754.534 433.705C754.812 433.417 755.025 433.074 755.162 432.698L760.264 418.739C760.523 418.02 760.508 417.23 760.222 416.517C759.935 415.804 759.398 415.218 758.71 414.868C736.071 403.373 695.807 397.83 677.244 418.798C659.443 438.886 668.387 463.49 693.197 472.024C704.556 475.914 714.341 479.013 722.552 481.32C733.021 484.252 743.901 491.906 734.663 503.255C722.552 518.094 687.126 505.191 673.842 496.511C673.553 496.322 673.224 496.201 672.882 496.158C672.539 496.114 672.191 496.149 671.864 496.259C671.537 496.369 671.239 496.551 670.992 496.793C670.746 497.035 670.557 497.329 670.44 497.654L664.839 512.991Z" stroke="#81CDF2" stroke-width="2"/>
<path d="M987.291 459.307C987.253 452.163 985.809 445.097 983.041 438.511C980.273 431.926 976.234 425.95 971.156 420.925C966.079 415.9 960.061 411.925 953.447 409.225C946.833 406.526 939.751 405.156 932.608 405.194L922.168 405.248C915.024 405.286 907.958 406.73 901.373 409.498C894.787 412.266 888.811 416.305 883.786 421.382C878.761 426.46 874.786 432.478 872.087 439.092C869.388 445.706 868.018 452.787 868.055 459.931L868.135 475.297C868.173 482.441 869.617 489.507 872.385 496.093C875.153 502.679 879.192 508.654 884.27 513.679C889.347 518.704 895.365 522.68 901.979 525.379C908.594 528.078 915.675 529.448 922.818 529.411L933.258 529.356C940.402 529.319 947.468 527.875 954.053 525.106C960.639 522.338 966.615 518.3 971.64 513.222C976.665 508.144 980.64 502.126 983.339 495.512C986.039 488.898 987.408 481.817 987.371 474.673L987.291 459.307Z" stroke="#81CDF2" stroke-width="2"/>
<path d="M1036.39 415.132V408.827C1036.39 408.049 1036.08 407.304 1035.53 406.754C1034.97 406.204 1034.22 405.895 1033.43 405.895H1013.28C1012.51 405.895 1011.76 406.204 1011.21 406.754C1010.66 407.304 1010.35 408.049 1010.35 408.827V526.804C1010.35 527.597 1010.67 528.358 1011.23 528.919C1011.79 529.48 1012.55 529.795 1013.34 529.795H1034.11C1034.93 529.795 1035.72 529.467 1036.3 528.884C1036.89 528.302 1037.21 527.511 1037.21 526.686C1037.18 493.431 1037.19 474.028 1037.27 468.475C1037.51 448.035 1042.35 429.59 1066.04 427.977C1069.89 427.723 1073.4 427.967 1076.57 428.71C1077.55 428.935 1078.58 428.795 1079.47 428.314C1080.35 427.834 1081.03 427.046 1081.38 426.1L1086.86 411.027C1087.01 410.623 1087.07 410.194 1087.04 409.766C1087.01 409.338 1086.9 408.92 1086.7 408.538C1086.51 408.156 1086.24 407.818 1085.91 407.545C1085.58 407.272 1085.19 407.069 1084.78 406.95C1067.15 401.848 1051.64 404.868 1038.27 416.012C1038.1 416.151 1037.9 416.24 1037.68 416.268C1037.47 416.296 1037.25 416.262 1037.05 416.17C1036.85 416.077 1036.69 415.931 1036.57 415.747C1036.45 415.563 1036.39 415.35 1036.39 415.132Z" stroke="#81CDF2" stroke-width="2"/>
<path d="M1091.76 468.035C1092.2 506.862 1117.48 530.675 1156.28 529.795C1171.19 529.443 1182.98 527.449 1191.64 523.812C1192.09 523.622 1192.45 523.266 1192.63 522.822C1192.82 522.377 1192.82 521.88 1192.64 521.437L1186.28 505.719C1186.07 505.211 1185.68 504.798 1185.19 504.565C1184.69 504.331 1184.13 504.292 1183.61 504.458C1151.73 514.604 1120.26 507.654 1119.79 467.713C1119.35 427.771 1150.7 420.147 1182.79 429.59C1183.31 429.743 1183.88 429.692 1184.36 429.447C1184.85 429.203 1185.23 428.782 1185.43 428.27L1191.44 412.405C1191.61 411.958 1191.59 411.462 1191.39 411.023C1191.2 410.584 1190.83 410.238 1190.38 410.059C1181.64 406.618 1169.81 404.888 1154.9 404.868C1116.07 404.839 1091.32 429.208 1091.76 468.035Z" stroke="#81CDF2" stroke-width="2"/>
<path d="M1231.29 473.842L1312.9 473.901C1313.42 473.898 1313.92 473.71 1314.3 473.371C1314.69 473.031 1314.94 472.564 1315.02 472.053C1318.56 447.566 1310.82 418.563 1285.22 408.886C1270 403.138 1249.59 403.226 1234.55 409.854C1215.02 418.417 1203.88 434.487 1201.14 458.065C1193.17 527.068 1257.71 541.115 1308.94 522.698C1309.32 522.566 1309.66 522.36 1309.95 522.092C1310.23 521.824 1310.47 521.499 1310.63 521.138C1310.79 520.777 1310.88 520.386 1310.88 519.989C1310.89 519.592 1310.82 519.197 1310.68 518.827L1304.99 504.78C1304.7 504.056 1304.14 503.472 1303.43 503.155C1302.71 502.837 1301.91 502.81 1301.17 503.079C1284.95 508.944 1269.08 510.147 1253.58 506.686C1238.6 503.324 1230.6 492.982 1229.56 475.66C1229.54 475.427 1229.58 475.193 1229.66 474.973C1229.74 474.754 1229.86 474.552 1230.02 474.381C1230.19 474.211 1230.38 474.075 1230.6 473.982C1230.82 473.889 1231.05 473.842 1231.29 473.842Z" stroke="#81CDF2" stroke-width="2"/>
<path d="M418.71 503.314L417.977 475.572C417.938 474.138 417.334 472.778 416.295 471.789C415.256 470.799 413.868 470.262 412.434 470.293L386.745 470.968C380.599 471.129 374.752 473.135 370.491 476.544C366.229 479.953 363.901 484.487 364.018 489.15L364.106 492.551C364.229 497.214 366.788 501.622 371.22 504.806C375.652 507.99 381.595 509.689 387.742 509.531L413.431 508.856C414.865 508.818 416.225 508.213 417.215 507.175C418.204 506.136 418.741 504.748 418.71 503.314Z" stroke="#81CDF2" stroke-width="2"/>
<path d="M558.299 454.692L615.777 454.809C615.858 454.809 615.938 454.794 616.013 454.763C616.088 454.732 616.156 454.686 616.213 454.629C616.27 454.572 616.315 454.504 616.346 454.429C616.377 454.355 616.393 454.275 616.393 454.194V453.812C616.401 450.069 615.671 446.361 614.246 442.9C612.821 439.439 610.727 436.292 608.086 433.64C605.445 430.987 602.307 428.881 598.851 427.442C595.396 426.002 591.691 425.257 587.948 425.249H586.247C582.503 425.242 578.795 425.971 575.334 427.397C571.873 428.822 568.726 430.915 566.074 433.557C563.421 436.198 561.315 439.336 559.876 442.791C558.436 446.247 557.691 449.952 557.684 453.695V454.076C557.684 454.24 557.748 454.396 557.864 454.512C557.979 454.627 558.136 454.692 558.299 454.692Z" stroke="#81CDF2" stroke-width="2"/>
<path d="M896.1 467.419C896.071 488.504 902.61 509.091 927.713 509.15C952.816 509.179 959.443 488.592 959.473 467.507C959.502 446.422 952.962 425.806 927.86 425.777C902.728 425.748 896.13 446.334 896.1 467.419Z" stroke="#81CDF2" stroke-width="2"/>
<path d="M1231.17 454.721L1288.59 454.839C1288.76 454.839 1288.91 454.774 1289.03 454.658C1289.14 454.543 1289.21 454.386 1289.21 454.223V453.783C1289.22 450.04 1288.49 446.332 1287.07 442.87C1285.64 439.409 1283.55 436.263 1280.92 433.61C1278.28 430.958 1275.15 428.852 1271.7 427.412C1268.25 425.973 1264.56 425.228 1260.82 425.22H1259.06C1255.33 425.212 1251.63 425.942 1248.17 427.367C1244.72 428.793 1241.58 430.886 1238.93 433.527C1236.28 436.169 1234.18 439.307 1232.75 442.762C1231.31 446.217 1230.57 449.923 1230.56 453.666V454.106C1230.56 454.269 1230.62 454.426 1230.74 454.541C1230.85 454.657 1231.01 454.721 1231.17 454.721Z" stroke="#81CDF2" stroke-width="2"/>
<path d="M644.369 95.1907C761.994 -9.35478 936.422 13.4605 1023.31 143.783C1023.55 144.134 1023.89 144.397 1024.29 144.53C1024.69 144.663 1025.12 144.658 1025.51 144.516C1102.21 116.774 1177.72 116.031 1252.05 142.287C1394.9 192.757 1485.4 336.892 1467.92 488.974C1454.93 602.141 1385.51 698.416 1282.87 748.094C1220.39 778.319 1151.78 786.931 1077.04 773.93C1076.72 773.877 1076.39 773.912 1076.08 774.03C1075.78 774.149 1075.51 774.347 1075.31 774.604C1015.78 849.355 928.006 885.953 834.34 870.147C825.171 868.602 817.331 867.009 810.821 865.367C810.324 865.239 809.796 865.282 809.319 865.489C808.843 865.695 808.443 866.054 808.182 866.51C791.974 895.112 770.664 919.873 744.252 940.792C611.466 1045.89 418.211 1003.37 341.466 852.757C340.078 850 338.054 846.09 335.396 841.026C335.224 840.682 334.949 840.4 334.609 840.216C334.268 840.032 333.877 839.957 333.489 840C278.045 846.745 227.243 838.69 181.085 815.836C4.0173 728.153 -20.7041 491.936 132.874 367.947C133.217 367.666 133.475 367.293 133.62 366.869C133.765 366.444 133.791 365.985 133.695 365.543C132.033 358.465 130.469 350.264 129.003 340.938C102.434 172.727 222.58 16.5103 393.489 -0.439825C487.302 -9.73601 576.686 25.6012 641.554 95.0734C641.916 95.455 642.412 95.6807 642.938 95.7026C643.463 95.7245 643.977 95.5409 644.369 95.1907ZM497.331 344.985C497.331 344.231 497.031 343.507 496.498 342.974C495.964 342.44 495.241 342.141 494.487 342.141H473.314C472.559 342.141 471.836 342.44 471.302 342.974C470.769 343.507 470.469 344.231 470.469 344.985V526.98C470.469 527.734 470.769 528.457 471.302 528.991C471.836 529.524 472.559 529.824 473.314 529.824H494.487C495.241 529.824 495.964 529.524 496.498 528.991C497.031 528.457 497.331 527.734 497.331 526.98V344.985ZM836.07 402.405C838.768 384.487 841.055 365.66 862.111 365.572C867.136 365.552 870.811 366.1 873.138 367.214C873.543 367.404 873.984 367.507 874.431 367.517C874.879 367.528 875.324 367.445 875.737 367.274C876.151 367.103 876.525 366.847 876.834 366.524C877.144 366.201 877.383 365.817 877.536 365.396L883.226 349.765C883.398 349.294 883.47 348.792 883.437 348.292C883.404 347.792 883.267 347.304 883.035 346.862C882.803 346.419 882.48 346.031 882.089 345.723C881.697 345.415 881.245 345.194 880.762 345.073C853.489 338.153 827.39 344.78 816.07 373.343C812.786 381.593 810.508 391.447 809.237 402.903C809.186 403.396 808.954 403.852 808.585 404.182C808.217 404.513 807.738 404.695 807.243 404.692H790.322C789.588 404.693 788.878 404.949 788.316 405.415C787.753 405.881 787.374 406.528 787.243 407.243L784.193 424.047C784.129 424.407 784.143 424.777 784.236 425.131C784.328 425.484 784.497 425.812 784.729 426.092C784.962 426.372 785.252 426.597 785.58 426.75C785.908 426.903 786.266 426.982 786.627 426.98H803.9C804.074 426.981 804.246 427.021 804.404 427.095C804.561 427.17 804.7 427.278 804.812 427.412C804.924 427.546 805.005 427.703 805.05 427.871C805.095 428.039 805.103 428.215 805.073 428.387C799.443 460.274 793.011 496.09 785.777 535.836C784.526 542.678 782.424 549.863 779.472 557.39C774.526 569.922 763.851 573.851 747.448 569.179C746.729 568.979 745.961 569.059 745.297 569.401C744.634 569.744 744.124 570.324 743.871 571.026L737.976 587.155C737.85 587.504 737.794 587.875 737.812 588.245C737.829 588.614 737.92 588.977 738.078 589.31C738.237 589.643 738.46 589.941 738.734 590.185C739.009 590.43 739.329 590.616 739.677 590.733C749.218 593.939 759.257 594.741 769.794 593.138C801.29 588.299 808.856 557.625 813.489 531.32C822.365 480.978 828.406 446.794 831.613 428.768C831.702 428.267 831.963 427.813 832.349 427.486C832.735 427.159 833.222 426.98 833.724 426.98H858.768C859.582 426.98 860.37 426.696 860.997 426.176C861.623 425.657 862.049 424.935 862.199 424.135L865.249 407.419C865.309 407.085 865.295 406.742 865.208 406.414C865.121 406.085 864.962 405.78 864.744 405.52C864.526 405.26 864.253 405.051 863.945 404.908C863.637 404.765 863.301 404.691 862.962 404.692H838.064C837.774 404.69 837.488 404.627 837.225 404.507C836.962 404.387 836.728 404.213 836.539 403.996C836.35 403.779 836.21 403.525 836.129 403.25C836.048 402.976 836.028 402.687 836.07 402.405ZM215.601 512.991C215.376 513.602 215.37 514.272 215.584 514.887C215.798 515.502 216.219 516.024 216.774 516.364C240.322 530.88 281.525 537.419 304.78 517.185C314.692 508.563 318.768 489.15 311.143 477.507C302.052 463.519 282.463 458.416 265.689 453.666C256.539 451.066 250.655 448.182 248.035 445.015C243.46 439.443 244.174 434.184 250.176 429.238C261.613 419.853 290.879 428.768 301.965 434.282C302.323 434.458 302.715 434.557 303.115 434.572C303.514 434.586 303.912 434.517 304.283 434.367C304.654 434.218 304.989 433.992 305.266 433.704C305.544 433.417 305.758 433.074 305.894 432.698L310.967 418.739C311.226 418.02 311.211 417.229 310.925 416.517C310.639 415.804 310.101 415.218 309.413 414.868C286.774 403.372 246.51 397.83 227.976 418.827C210.176 438.915 219.12 463.49 243.929 472.024C255.288 475.914 265.073 479.013 273.284 481.32C283.753 484.252 294.633 491.906 285.396 503.255C273.284 518.094 237.859 505.191 224.574 496.51C224.285 496.322 223.957 496.201 223.614 496.158C223.272 496.114 222.924 496.149 222.597 496.259C222.269 496.369 221.971 496.551 221.725 496.793C221.478 497.035 221.289 497.329 221.173 497.654L215.601 512.991ZM416.921 452.61C394.105 448.827 368.797 449.179 350.293 463.255C330.234 478.504 332.962 512.317 355.835 523.255C380.146 534.897 417.214 529.238 443.02 522.434C443.501 522.307 443.927 522.026 444.234 521.634C444.541 521.242 444.712 520.761 444.721 520.264C444.917 487.947 444.858 463.48 444.545 446.862C443.519 394.282 379.824 400.352 346.715 414.106C345.779 414.493 345.035 415.237 344.645 416.177C344.255 417.116 344.251 418.174 344.633 419.12L349.765 431.848C349.948 432.291 350.218 432.693 350.559 433.029C350.899 433.365 351.304 433.629 351.748 433.805C352.192 433.98 352.666 434.063 353.142 434.049C353.617 434.036 354.085 433.925 354.516 433.724C372.844 425.279 422.786 415.015 417.8 451.994C417.787 452.092 417.753 452.185 417.701 452.269C417.649 452.353 417.58 452.426 417.498 452.483C417.416 452.541 417.323 452.582 417.224 452.603C417.124 452.625 417.021 452.627 416.921 452.61ZM558.445 473.871H640.088C640.603 473.869 641.1 473.681 641.488 473.341C641.876 473.002 642.129 472.534 642.199 472.024C645.718 447.537 637.976 418.534 612.346 408.856C597.126 403.109 576.715 403.226 561.671 409.853C542.14 418.436 531.016 434.516 528.299 458.094C520.352 527.126 584.897 541.114 636.129 522.669C636.5 522.536 636.84 522.33 637.129 522.062C637.418 521.794 637.65 521.47 637.812 521.109C637.973 520.747 638.061 520.357 638.069 519.96C638.077 519.563 638.006 519.167 637.859 518.798L632.17 504.751C631.881 504.026 631.322 503.443 630.609 503.125C629.897 502.808 629.089 502.781 628.358 503.05C612.131 508.935 596.266 510.147 580.762 506.686C565.787 503.343 557.771 493.011 556.715 475.689C556.699 475.456 556.732 475.223 556.812 475.003C556.891 474.783 557.016 474.581 557.179 474.411C557.341 474.24 557.537 474.104 557.755 474.011C557.973 473.918 558.208 473.871 558.445 473.871ZM664.838 512.991C664.614 513.602 664.608 514.272 664.822 514.887C665.036 515.502 665.456 516.024 666.011 516.364C689.56 530.88 730.762 537.419 754.047 517.214C763.959 508.592 768.035 489.179 760.41 477.507C751.319 463.519 731.73 458.416 714.956 453.666C705.806 451.066 699.922 448.182 697.302 445.015C692.727 439.443 693.441 434.184 699.443 429.238C710.879 419.853 740.146 428.768 751.231 434.282C751.59 434.458 751.982 434.557 752.381 434.572C752.781 434.586 753.179 434.517 753.55 434.367C753.921 434.218 754.256 433.992 754.533 433.704C754.811 433.417 755.025 433.074 755.161 432.698L760.264 418.739C760.522 418.02 760.507 417.229 760.221 416.517C759.935 415.804 759.397 415.218 758.709 414.868C736.07 403.372 695.806 397.83 677.243 418.798C659.443 438.886 668.387 463.49 693.196 472.024C704.555 475.914 714.34 479.013 722.551 481.32C733.02 484.252 743.9 491.906 734.663 503.255C722.551 518.094 687.126 505.191 673.841 496.51C673.552 496.322 673.224 496.201 672.881 496.158C672.539 496.114 672.191 496.149 671.864 496.259C671.536 496.369 671.238 496.551 670.992 496.793C670.745 497.035 670.556 497.329 670.44 497.654L664.838 512.991ZM987.29 459.307C987.253 452.163 985.809 445.097 983.04 438.511C980.272 431.926 976.234 425.95 971.156 420.925C966.078 415.9 960.06 411.925 953.446 409.225C946.832 406.526 939.751 405.156 932.607 405.194L922.167 405.248C915.024 405.286 907.958 406.73 901.372 409.498C894.786 412.266 888.811 416.305 883.786 421.382C878.761 426.46 874.785 432.478 872.086 439.092C869.387 445.706 868.017 452.787 868.054 459.931L868.135 475.297C868.172 482.441 869.616 489.507 872.384 496.093C875.153 502.679 879.191 508.654 884.269 513.679C889.347 518.704 895.365 522.68 901.979 525.379C908.593 528.078 915.674 529.448 922.818 529.411L933.257 529.356C940.401 529.319 947.467 527.875 954.053 525.106C960.638 522.338 966.614 518.3 971.639 513.222C976.664 508.144 980.639 502.126 983.339 495.512C986.038 488.898 987.408 481.817 987.37 474.673L987.29 459.307ZM1036.39 415.132V408.827C1036.39 408.049 1036.08 407.303 1035.53 406.753C1034.97 406.203 1034.22 405.894 1033.43 405.894H1013.28C1012.51 405.894 1011.76 406.203 1011.21 406.753C1010.66 407.303 1010.35 408.049 1010.35 408.827V526.804C1010.35 527.597 1010.67 528.358 1011.23 528.919C1011.79 529.48 1012.55 529.795 1013.34 529.795H1034.11C1034.93 529.795 1035.72 529.467 1036.3 528.884C1036.89 528.301 1037.21 527.511 1037.21 526.686C1037.17 493.431 1037.19 474.027 1037.27 468.475C1037.51 448.035 1042.35 429.589 1066.04 427.977C1069.89 427.722 1073.4 427.967 1076.57 428.71C1077.55 428.935 1078.58 428.795 1079.47 428.314C1080.35 427.833 1081.03 427.046 1081.38 426.1L1086.86 411.026C1087.01 410.623 1087.07 410.194 1087.04 409.766C1087.01 409.337 1086.9 408.919 1086.7 408.537C1086.51 408.155 1086.24 407.818 1085.91 407.544C1085.58 407.271 1085.19 407.069 1084.78 406.95C1067.15 401.848 1051.64 404.868 1038.27 416.012C1038.1 416.151 1037.9 416.24 1037.68 416.268C1037.47 416.296 1037.25 416.262 1037.05 416.17C1036.85 416.077 1036.69 415.93 1036.57 415.747C1036.45 415.563 1036.39 415.35 1036.39 415.132ZM1091.76 468.035C1092.2 506.862 1117.48 530.675 1156.28 529.795C1171.19 529.443 1182.98 527.449 1191.64 523.812C1192.09 523.622 1192.44 523.266 1192.63 522.822C1192.82 522.377 1192.82 521.879 1192.64 521.437L1186.28 505.719C1186.07 505.211 1185.68 504.798 1185.19 504.564C1184.69 504.331 1184.13 504.292 1183.61 504.457C1151.73 514.604 1120.26 507.654 1119.79 467.713C1119.35 427.771 1150.7 420.147 1182.79 429.59C1183.31 429.743 1183.87 429.692 1184.36 429.447C1184.85 429.203 1185.23 428.782 1185.43 428.27L1191.44 412.405C1191.61 411.958 1191.59 411.462 1191.39 411.023C1191.2 410.584 1190.83 410.238 1190.38 410.059C1181.64 406.618 1169.81 404.888 1154.9 404.868C1116.07 404.839 1091.32 429.208 1091.76 468.035ZM1231.29 473.842L1312.9 473.9C1313.42 473.898 1313.92 473.71 1314.3 473.371C1314.69 473.031 1314.94 472.563 1315.01 472.053C1318.56 447.566 1310.82 418.563 1285.22 408.886C1270 403.138 1249.59 403.226 1234.55 409.853C1215.01 418.416 1203.88 434.487 1201.14 458.065C1193.17 527.067 1257.71 541.114 1308.94 522.698C1309.31 522.566 1309.66 522.359 1309.94 522.091C1310.23 521.823 1310.47 521.499 1310.63 521.138C1310.79 520.777 1310.88 520.386 1310.88 519.989C1310.89 519.592 1310.82 519.197 1310.67 518.827L1304.99 504.78C1304.7 504.056 1304.14 503.472 1303.42 503.155C1302.71 502.837 1301.9 502.81 1301.17 503.079C1284.95 508.944 1269.08 510.147 1253.58 506.686C1238.6 503.324 1230.6 492.981 1229.56 475.66C1229.54 475.427 1229.58 475.193 1229.66 474.973C1229.74 474.753 1229.86 474.552 1230.02 474.381C1230.19 474.211 1230.38 474.075 1230.6 473.982C1230.82 473.889 1231.05 473.841 1231.29 473.842Z" fill="#039BE5"/>
<path d="M494.487 342.141H473.314C471.743 342.141 470.469 343.414 470.469 344.985V526.98C470.469 528.551 471.743 529.824 473.314 529.824H494.487C496.058 529.824 497.331 528.551 497.331 526.98V344.985C497.331 343.414 496.058 342.141 494.487 342.141Z" fill="white"/>
<path d="M838.064 404.692H862.962C863.301 404.691 863.637 404.765 863.945 404.908C864.253 405.051 864.526 405.26 864.744 405.52C864.962 405.78 865.121 406.085 865.208 406.413C865.295 406.742 865.309 407.085 865.249 407.419L862.199 424.135C862.049 424.935 861.624 425.657 860.997 426.176C860.37 426.696 859.582 426.98 858.768 426.979H833.724C833.222 426.98 832.735 427.159 832.349 427.486C831.963 427.813 831.702 428.267 831.613 428.768C828.406 446.794 822.365 480.977 813.49 531.32C808.856 557.625 801.29 588.299 769.795 593.138C759.257 594.741 749.218 593.939 739.677 590.733C739.329 590.616 739.009 590.429 738.734 590.185C738.46 589.941 738.237 589.643 738.078 589.31C737.92 588.977 737.829 588.614 737.812 588.244C737.794 587.874 737.85 587.504 737.976 587.155L743.871 571.026C744.125 570.324 744.634 569.744 745.297 569.401C745.961 569.059 746.729 568.979 747.449 569.179C763.851 573.851 774.526 569.922 779.472 557.39C782.424 549.863 784.526 542.678 785.777 535.836C793.011 496.09 799.443 460.274 805.073 428.387C805.103 428.215 805.095 428.039 805.05 427.871C805.005 427.702 804.924 427.546 804.812 427.412C804.701 427.278 804.561 427.17 804.404 427.095C804.246 427.021 804.074 426.981 803.9 426.979H786.627C786.266 426.982 785.908 426.903 785.58 426.75C785.252 426.597 784.962 426.372 784.729 426.092C784.497 425.812 784.329 425.484 784.236 425.13C784.143 424.777 784.129 424.407 784.193 424.047L787.243 407.243C787.374 406.528 787.753 405.881 788.316 405.415C788.878 404.948 789.588 404.693 790.322 404.692H807.243C807.738 404.695 808.217 404.513 808.585 404.182C808.954 403.852 809.186 403.396 809.237 402.903C810.508 391.447 812.786 381.593 816.07 373.343C827.39 344.78 853.49 338.152 880.762 345.073C881.245 345.194 881.697 345.415 882.089 345.723C882.48 346.031 882.803 346.419 883.035 346.862C883.267 347.304 883.404 347.791 883.437 348.292C883.47 348.792 883.398 349.294 883.226 349.765L877.537 365.396C877.383 365.817 877.144 366.201 876.835 366.524C876.525 366.847 876.151 367.103 875.737 367.274C875.324 367.445 874.879 367.528 874.431 367.517C873.984 367.507 873.543 367.404 873.138 367.214C870.811 366.1 867.136 365.552 862.111 365.572C841.056 365.66 838.768 384.487 836.07 402.405C836.028 402.687 836.048 402.975 836.129 403.25C836.21 403.524 836.35 403.779 836.539 403.996C836.728 404.212 836.962 404.387 837.225 404.507C837.488 404.627 837.775 404.69 838.064 404.692Z" fill="white"/>
<path d="M215.602 512.991L221.173 497.654C221.29 497.329 221.479 497.035 221.725 496.793C221.972 496.551 222.27 496.368 222.597 496.258C222.925 496.148 223.273 496.114 223.615 496.158C223.958 496.201 224.286 496.322 224.575 496.51C237.86 505.191 273.285 518.094 285.396 503.255C294.634 491.906 283.754 484.252 273.285 481.32C265.074 479.013 255.289 475.914 243.93 472.023C219.121 463.49 210.176 438.915 227.977 418.827C246.511 397.83 286.775 403.372 309.414 414.868C310.102 415.218 310.639 415.804 310.925 416.516C311.212 417.229 311.227 418.02 310.968 418.739L305.895 432.698C305.759 433.074 305.545 433.417 305.267 433.704C304.989 433.992 304.654 434.218 304.284 434.367C303.913 434.517 303.515 434.586 303.115 434.571C302.716 434.557 302.324 434.458 301.965 434.281C290.88 428.768 261.613 419.853 250.176 429.237C244.174 434.184 243.461 439.443 248.036 445.015C250.655 448.182 256.54 451.065 265.689 453.666C282.464 458.416 302.053 463.519 311.144 477.507C318.769 489.15 314.692 508.563 304.78 517.185C281.525 537.419 240.323 530.88 216.775 516.364C216.219 516.024 215.799 515.502 215.585 514.887C215.371 514.272 215.377 513.602 215.602 512.991Z" fill="white"/>
<path d="M416.921 452.61C417.022 452.628 417.125 452.625 417.224 452.604C417.323 452.582 417.417 452.541 417.499 452.484C417.581 452.426 417.65 452.353 417.702 452.269C417.754 452.185 417.787 452.092 417.801 451.994C422.786 415.015 372.845 425.279 354.516 433.724C354.085 433.925 353.618 434.036 353.142 434.05C352.666 434.063 352.192 433.98 351.748 433.805C351.304 433.629 350.9 433.365 350.559 433.029C350.218 432.693 349.948 432.291 349.766 431.848L344.634 419.12C344.251 418.174 344.256 417.116 344.646 416.177C345.036 415.237 345.78 414.493 346.716 414.106C379.824 400.352 443.519 394.282 444.546 446.862C444.858 463.48 444.917 487.947 444.722 520.264C444.713 520.762 444.542 521.243 444.235 521.634C443.928 522.026 443.502 522.307 443.021 522.434C417.214 529.238 380.147 534.898 355.836 523.255C332.962 512.317 330.235 478.505 350.293 463.255C368.798 449.179 394.106 448.827 416.921 452.61ZM418.71 503.314L417.977 475.572C417.938 474.138 417.334 472.778 416.295 471.789C415.256 470.8 413.868 470.262 412.434 470.293L386.745 470.968C380.599 471.129 374.752 473.135 370.491 476.544C366.229 479.953 363.901 484.487 364.018 489.15L364.106 492.552C364.229 497.214 366.788 501.622 371.22 504.806C375.652 507.99 381.595 509.689 387.742 509.531L413.431 508.856C414.865 508.818 416.225 508.213 417.215 507.175C418.204 506.136 418.741 504.748 418.71 503.314Z" fill="white"/>
<path d="M556.716 475.689C557.771 493.011 565.787 503.343 580.762 506.686C596.266 510.147 612.131 508.934 628.358 503.05C629.09 502.78 629.898 502.808 630.61 503.125C631.322 503.443 631.882 504.026 632.17 504.751L637.859 518.798C638.006 519.167 638.077 519.562 638.069 519.959C638.061 520.356 637.974 520.747 637.812 521.108C637.651 521.47 637.418 521.794 637.129 522.062C636.84 522.33 636.5 522.536 636.129 522.669C584.897 541.114 520.352 527.126 528.299 458.094C531.017 434.516 542.141 418.436 561.672 409.853C576.716 403.226 597.126 403.108 612.346 408.856C637.977 418.534 645.719 447.537 642.199 472.023C642.129 472.534 641.876 473.002 641.489 473.341C641.101 473.681 640.603 473.869 640.088 473.871H558.446C558.208 473.871 557.973 473.918 557.755 474.011C557.537 474.104 557.341 474.24 557.179 474.411C557.017 474.581 556.892 474.783 556.812 475.003C556.732 475.223 556.699 475.456 556.716 475.689ZM558.299 454.692L615.777 454.809C615.858 454.809 615.938 454.793 616.013 454.762C616.088 454.732 616.155 454.686 616.213 454.629C616.27 454.572 616.315 454.504 616.346 454.429C616.377 454.354 616.393 454.274 616.393 454.194V453.812C616.401 450.069 615.671 446.361 614.246 442.9C612.82 439.438 610.727 436.292 608.086 433.639C605.444 430.987 602.306 428.881 598.851 427.441C595.396 426.002 591.691 425.257 587.947 425.249H586.246C582.503 425.241 578.795 425.971 575.334 427.397C571.873 428.822 568.726 430.915 566.074 433.556C563.421 436.198 561.315 439.336 559.876 442.791C558.436 446.247 557.691 449.952 557.683 453.695V454.076C557.683 454.24 557.748 454.396 557.864 454.512C557.979 454.627 558.136 454.692 558.299 454.692Z" fill="white"/>
<path d="M664.839 512.991L670.44 497.654C670.557 497.329 670.745 497.035 670.992 496.793C671.239 496.551 671.537 496.369 671.864 496.259C672.191 496.148 672.539 496.114 672.882 496.158C673.224 496.201 673.552 496.322 673.842 496.51C687.126 505.191 722.551 518.094 734.663 503.255C743.9 491.906 733.021 484.252 722.551 481.32C714.34 479.013 704.555 475.914 693.197 472.023C668.387 463.49 659.443 438.886 677.243 418.798C695.807 397.83 736.07 403.372 758.71 414.868C759.398 415.218 759.935 415.804 760.221 416.517C760.508 417.229 760.523 418.02 760.264 418.739L755.161 432.698C755.025 433.074 754.811 433.417 754.534 433.704C754.256 433.992 753.921 434.218 753.55 434.367C753.179 434.517 752.781 434.586 752.382 434.571C751.982 434.557 751.591 434.458 751.232 434.282C740.147 428.768 710.88 419.853 699.443 429.238C693.441 434.184 692.727 439.443 697.302 445.015C699.922 448.182 705.807 451.065 714.956 453.666C731.73 458.416 751.32 463.519 760.411 477.507C768.035 489.179 763.959 508.592 754.047 517.214C730.763 537.419 689.56 530.88 666.012 516.364C665.457 516.024 665.036 515.502 664.822 514.887C664.608 514.272 664.614 513.602 664.839 512.991Z" fill="white"/>
<path d="M987.371 474.673C987.408 481.817 986.038 488.898 983.339 495.512C980.64 502.126 976.664 508.144 971.639 513.222C966.614 518.3 960.639 522.338 954.053 525.106C947.467 527.875 940.401 529.319 933.257 529.356L922.818 529.411C915.674 529.448 908.593 528.078 901.979 525.379C895.365 522.68 889.347 518.704 884.269 513.679C879.191 508.654 875.153 502.679 872.385 496.093C869.616 489.507 868.172 482.441 868.135 475.297L868.054 459.931C868.017 452.787 869.387 445.706 872.086 439.092C874.785 432.478 878.761 426.46 883.786 421.382C888.811 416.305 894.787 412.266 901.372 409.498C907.958 406.73 915.024 405.286 922.168 405.248L932.607 405.194C939.751 405.156 946.832 406.526 953.446 409.225C960.06 411.925 966.078 415.9 971.156 420.925C976.234 425.95 980.272 431.926 983.04 438.511C985.809 445.097 987.253 452.163 987.29 459.307L987.371 474.673ZM896.1 467.419C896.07 488.504 902.61 509.091 927.713 509.15C952.815 509.179 959.443 488.592 959.472 467.507C959.501 446.422 952.962 425.807 927.859 425.777C902.727 425.748 896.129 446.334 896.1 467.419Z" fill="white"/>
<path d="M1038.27 416.011C1051.64 404.868 1067.15 401.847 1084.78 406.95C1085.19 407.069 1085.58 407.271 1085.91 407.544C1086.24 407.817 1086.51 408.155 1086.7 408.537C1086.9 408.919 1087.01 409.337 1087.04 409.765C1087.07 410.193 1087.01 410.622 1086.86 411.026L1081.38 426.099C1081.03 427.046 1080.35 427.833 1079.47 428.314C1078.58 428.794 1077.55 428.935 1076.57 428.709C1073.4 427.966 1069.89 427.722 1066.04 427.976C1042.35 429.589 1037.51 448.035 1037.27 468.475C1037.19 474.027 1037.18 493.431 1037.21 526.686C1037.21 527.51 1036.89 528.301 1036.3 528.884C1035.72 529.467 1034.93 529.794 1034.11 529.794H1013.34C1012.55 529.794 1011.79 529.479 1011.23 528.918C1010.67 528.357 1010.35 527.597 1010.35 526.803V408.827C1010.35 408.049 1010.66 407.303 1011.21 406.753C1011.76 406.203 1012.51 405.894 1013.28 405.894H1033.43C1034.22 405.894 1034.97 406.203 1035.53 406.753C1036.08 407.303 1036.39 408.049 1036.39 408.827V415.132C1036.39 415.349 1036.45 415.563 1036.57 415.746C1036.69 415.93 1036.85 416.077 1037.05 416.169C1037.25 416.262 1037.47 416.296 1037.68 416.268C1037.9 416.24 1038.1 416.151 1038.27 416.011Z" fill="white"/>
<path d="M1119.79 467.713C1120.26 507.654 1151.73 514.604 1183.61 504.457C1184.13 504.292 1184.69 504.33 1185.19 504.564C1185.68 504.798 1186.07 505.21 1186.28 505.718L1192.64 521.437C1192.82 521.879 1192.82 522.377 1192.63 522.822C1192.45 523.266 1192.09 523.622 1191.64 523.812C1182.98 527.449 1171.19 529.443 1156.28 529.795C1117.48 530.674 1092.2 506.862 1091.76 468.035C1091.32 429.208 1116.07 404.839 1154.9 404.868C1169.81 404.887 1181.64 406.618 1190.38 410.059C1190.83 410.238 1191.2 410.584 1191.39 411.023C1191.59 411.462 1191.61 411.958 1191.44 412.405L1185.43 428.27C1185.23 428.782 1184.85 429.202 1184.36 429.447C1183.88 429.692 1183.31 429.743 1182.79 429.589C1150.7 420.147 1119.35 427.771 1119.79 467.713Z" fill="white"/>
<path d="M1231.29 473.842C1231.05 473.842 1230.82 473.889 1230.6 473.982C1230.38 474.075 1230.19 474.211 1230.02 474.381C1229.86 474.552 1229.74 474.754 1229.66 474.973C1229.58 475.193 1229.54 475.427 1229.56 475.66C1230.6 492.982 1238.6 503.324 1253.58 506.686C1269.08 510.147 1284.95 508.944 1301.17 503.079C1301.9 502.81 1302.71 502.837 1303.42 503.155C1304.14 503.472 1304.7 504.056 1304.99 504.78L1310.67 518.827C1310.82 519.197 1310.89 519.592 1310.88 519.989C1310.88 520.386 1310.79 520.777 1310.63 521.138C1310.47 521.499 1310.23 521.824 1309.94 522.092C1309.66 522.36 1309.32 522.566 1308.94 522.698C1257.71 541.115 1193.17 527.068 1201.14 458.065C1203.88 434.487 1215.01 418.417 1234.55 409.854C1249.59 403.226 1270 403.138 1285.22 408.886C1310.82 418.563 1318.56 447.566 1315.01 472.053C1314.94 472.564 1314.69 473.031 1314.3 473.371C1313.92 473.71 1313.42 473.898 1312.9 473.901L1231.29 473.842ZM1231.17 454.722L1288.59 454.839C1288.76 454.839 1288.91 454.774 1289.03 454.659C1289.14 454.543 1289.21 454.386 1289.21 454.223V453.783C1289.22 450.04 1288.49 446.332 1287.07 442.871C1285.64 439.409 1283.55 436.263 1280.92 433.61C1278.28 430.958 1275.15 428.852 1271.7 427.412C1268.25 425.973 1264.56 425.228 1260.82 425.22H1259.06C1255.33 425.212 1251.63 425.942 1248.17 427.367C1244.72 428.793 1241.58 430.886 1238.93 433.527C1236.28 436.169 1234.18 439.307 1232.74 442.762C1231.31 446.218 1230.56 449.923 1230.56 453.666V454.106C1230.56 454.269 1230.62 454.426 1230.74 454.541C1230.85 454.657 1231.01 454.722 1231.17 454.722Z" fill="white"/>
<path d="M558.299 454.692C558.136 454.692 557.979 454.627 557.863 454.512C557.748 454.396 557.683 454.24 557.683 454.076V453.695C557.691 449.952 558.436 446.247 559.875 442.791C561.315 439.336 563.421 436.198 566.073 433.557C568.726 430.915 571.872 428.822 575.334 427.397C578.795 425.971 582.503 425.242 586.246 425.249H587.947C591.69 425.257 595.395 426.002 598.851 427.442C602.306 428.881 605.444 430.987 608.086 433.64C610.727 436.292 612.82 439.439 614.245 442.9C615.671 446.361 616.401 450.069 616.393 453.812V454.194C616.393 454.275 616.377 454.355 616.346 454.429C616.315 454.504 616.27 454.572 616.212 454.629C616.155 454.686 616.087 454.732 616.013 454.763C615.938 454.794 615.858 454.809 615.777 454.809L558.299 454.692Z" fill="#039BE5"/>
<path d="M1231.17 454.721C1231.01 454.721 1230.85 454.657 1230.74 454.541C1230.62 454.426 1230.56 454.269 1230.56 454.106V453.666C1230.56 449.923 1231.31 446.217 1232.74 442.762C1234.18 439.307 1236.28 436.169 1238.93 433.527C1241.58 430.886 1244.72 428.793 1248.17 427.367C1251.63 425.942 1255.33 425.212 1259.06 425.22H1260.82C1264.56 425.228 1268.25 425.973 1271.7 427.412C1275.15 428.852 1278.28 430.958 1280.92 433.61C1283.55 436.263 1285.64 439.409 1287.07 442.87C1288.49 446.332 1289.22 450.04 1289.21 453.783V454.223C1289.21 454.386 1289.14 454.543 1289.03 454.658C1288.91 454.774 1288.76 454.839 1288.59 454.839L1231.17 454.721Z" fill="#039BE5"/>
<path d="M927.859 425.777C952.962 425.806 959.501 446.422 959.472 467.507C959.443 488.592 952.815 509.179 927.713 509.149C902.61 509.091 896.07 488.504 896.1 467.419C896.129 446.334 902.727 425.748 927.859 425.777Z" fill="#039BE5"/>
<path d="M418.71 503.314C418.741 504.748 418.204 506.136 417.215 507.174C416.225 508.213 414.865 508.818 413.431 508.856L387.742 509.531C381.595 509.689 375.652 507.989 371.22 504.806C366.788 501.622 364.229 497.214 364.106 492.551L364.018 489.149C363.901 484.487 366.229 479.953 370.491 476.544C374.752 473.134 380.599 471.129 386.745 470.968L412.434 470.293C413.868 470.262 415.256 470.799 416.295 471.788C417.334 472.778 417.938 474.138 417.977 475.572L418.71 503.314Z" fill="#039BE5"/>
</g>
<defs>
<clipPath id="clip0_1595_148">
<rect width="1501.47" height="1000" fill="white"/>
</clipPath>
</defs>
</svg>
