<svg width="728" height="1000" viewBox="0 0 728 1000" fill="none" xmlns="http://www.w3.org/2000/svg">
<g clip-path="url(#clip0_1595_45)">
<path d="M478.36 0.820312L477.891 249.219C477.891 249.431 477.975 249.635 478.125 249.785C478.276 249.935 478.479 250.02 478.692 250.02L727.357 249.434" stroke="#00982D" stroke-width="2"/>
<path d="M591.631 392.969C591.631 392.72 591.532 392.482 591.356 392.306C591.18 392.13 590.942 392.031 590.693 392.031H137.725C137.476 392.031 137.238 392.13 137.062 392.306C136.886 392.482 136.787 392.72 136.787 392.969V709.258C136.787 709.506 136.886 709.745 137.062 709.921C137.238 710.097 137.476 710.195 137.725 710.195H590.693C590.942 710.195 591.18 710.097 591.356 709.921C591.532 709.745 591.631 709.506 591.631 709.258V392.969Z" stroke="#7ED69E" stroke-width="2"/>
<path d="M335.754 449.473C335.754 449.312 335.691 449.158 335.577 449.045C335.463 448.931 335.309 448.867 335.149 448.867H194.244C194.083 448.867 193.929 448.931 193.815 449.045C193.702 449.158 193.638 449.312 193.638 449.473V522.129C193.638 522.289 193.702 522.443 193.815 522.557C193.929 522.671 194.083 522.734 194.244 522.734H335.149C335.309 522.734 335.463 522.671 335.577 522.557C335.691 522.443 335.754 522.289 335.754 522.129V449.473Z" stroke="#7ED69E" stroke-width="2"/>
<path d="M534.78 449.512C534.78 449.341 534.712 449.177 534.591 449.056C534.471 448.935 534.307 448.867 534.135 448.867H393.309C393.137 448.867 392.973 448.935 392.852 449.056C392.732 449.177 392.664 449.341 392.664 449.512V522.09C392.664 522.261 392.732 522.425 392.852 522.546C392.973 522.666 393.137 522.734 393.309 522.734H534.135C534.307 522.734 534.471 522.666 534.591 522.546C534.712 522.425 534.78 522.261 534.78 522.09V449.512Z" stroke="#7ED69E" stroke-width="2"/>
<path d="M335.754 580.195C335.754 580.019 335.684 579.85 335.56 579.726C335.435 579.601 335.266 579.531 335.09 579.531H194.302C194.126 579.531 193.957 579.601 193.832 579.726C193.708 579.85 193.638 580.019 193.638 580.195V652.773C193.638 652.95 193.708 653.118 193.832 653.243C193.957 653.368 194.126 653.437 194.302 653.437H335.09C335.266 653.437 335.435 653.368 335.56 653.243C335.684 653.118 335.754 652.95 335.754 652.773V580.195Z" stroke="#7ED69E" stroke-width="2"/>
<path d="M534.78 580.234C534.78 580.048 534.706 579.869 534.574 579.737C534.442 579.605 534.263 579.531 534.077 579.531H393.367C393.181 579.531 393.002 579.605 392.87 579.737C392.738 579.869 392.664 580.048 392.664 580.234V652.695C392.664 652.788 392.682 652.879 392.717 652.964C392.752 653.05 392.804 653.127 392.87 653.193C392.935 653.258 393.013 653.31 393.098 653.345C393.183 653.38 393.275 653.398 393.367 653.398H534.077C534.263 653.398 534.442 653.324 534.574 653.193C534.706 653.061 534.78 652.882 534.78 652.695V580.234Z" stroke="#7ED69E" stroke-width="2"/>
<path d="M476.855 0C477.285 0.364583 477.787 0.638021 478.36 0.820312L477.891 249.219C477.891 249.431 477.975 249.635 478.126 249.785C478.276 249.935 478.48 250.02 478.692 250.02L727.357 249.434C727.279 249.147 727.449 249.199 727.866 249.59C727.933 249.652 727.987 249.727 728.024 249.811C728.061 249.895 728.08 249.986 728.081 250.078C727.989 683.75 728.015 904.245 728.159 911.563C728.497 930.482 727.481 943.77 725.11 951.426C716.609 978.75 693.431 997.07 664.683 1000H63.755C27.3268 995.977 0.396517 967.969 0.396517 931.152C0.383489 644.043 0.363948 356.934 0.337891 69.8242C0.337891 32.8125 26.5646 4.00391 63.5986 0H476.855ZM591.631 392.969C591.631 392.72 591.532 392.482 591.356 392.306C591.181 392.13 590.942 392.031 590.693 392.031H137.725C137.476 392.031 137.238 392.13 137.062 392.306C136.886 392.482 136.787 392.72 136.787 392.969V709.258C136.787 709.506 136.886 709.745 137.062 709.921C137.238 710.097 137.476 710.195 137.725 710.195H590.693C590.942 710.195 591.181 710.097 591.356 709.921C591.532 709.745 591.631 709.506 591.631 709.258V392.969Z" fill="#00AD3C"/>
<path d="M727.357 249.434L478.692 250.02C478.479 250.02 478.276 249.935 478.125 249.785C477.975 249.635 477.891 249.431 477.891 249.219L478.36 0.820406C478.646 0.781344 478.998 0.826917 479.415 0.957125C479.466 0.969789 479.519 0.996468 479.571 1.03525L727.357 249.434Z" fill="#00831E"/>
<path d="M591.631 709.258C591.631 709.506 591.532 709.745 591.356 709.921C591.18 710.097 590.942 710.195 590.693 710.195H137.725C137.476 710.195 137.238 710.097 137.062 709.921C136.886 709.745 136.787 709.506 136.787 709.258V392.969C136.787 392.72 136.886 392.482 137.062 392.306C137.238 392.13 137.476 392.031 137.725 392.031H590.693C590.942 392.031 591.18 392.13 591.356 392.306C591.532 392.482 591.631 392.72 591.631 392.969V709.258ZM335.755 449.473C335.755 449.312 335.691 449.158 335.577 449.045C335.463 448.931 335.309 448.867 335.149 448.867H194.244C194.083 448.867 193.929 448.931 193.815 449.045C193.702 449.158 193.638 449.312 193.638 449.473V522.129C193.638 522.289 193.702 522.443 193.815 522.557C193.929 522.671 194.083 522.734 194.244 522.734H335.149C335.309 522.734 335.463 522.671 335.577 522.557C335.691 522.443 335.755 522.289 335.755 522.129V449.473ZM534.781 449.512C534.781 449.341 534.713 449.177 534.592 449.056C534.471 448.935 534.307 448.867 534.136 448.867H393.309C393.138 448.867 392.974 448.935 392.853 449.056C392.732 449.177 392.664 449.341 392.664 449.512V522.09C392.664 522.261 392.732 522.425 392.853 522.546C392.974 522.666 393.138 522.734 393.309 522.734H534.136C534.307 522.734 534.471 522.666 534.592 522.546C534.713 522.425 534.781 522.261 534.781 522.09V449.512ZM335.755 580.195C335.755 580.019 335.685 579.85 335.56 579.726C335.435 579.601 335.266 579.531 335.09 579.531H194.302C194.126 579.531 193.957 579.601 193.832 579.726C193.708 579.85 193.638 580.019 193.638 580.195V652.773C193.638 652.95 193.708 653.118 193.832 653.243C193.957 653.368 194.126 653.438 194.302 653.438H335.09C335.266 653.438 335.435 653.368 335.56 653.243C335.685 653.118 335.755 652.95 335.755 652.773V580.195ZM534.781 580.234C534.781 580.048 534.706 579.869 534.574 579.737C534.443 579.605 534.264 579.531 534.077 579.531H393.367C393.181 579.531 393.002 579.605 392.87 579.737C392.738 579.869 392.664 580.048 392.664 580.234V652.695C392.664 652.788 392.682 652.879 392.717 652.964C392.753 653.05 392.804 653.127 392.87 653.193C392.935 653.258 393.013 653.31 393.098 653.345C393.183 653.38 393.275 653.398 393.367 653.398H534.077C534.264 653.398 534.443 653.324 534.574 653.193C534.706 653.061 534.781 652.882 534.781 652.695V580.234Z" fill="#FBFFFF"/>
<path d="M335.149 448.867H194.244C193.909 448.867 193.638 449.138 193.638 449.473V522.129C193.638 522.463 193.909 522.734 194.244 522.734H335.149C335.483 522.734 335.754 522.463 335.754 522.129V449.473C335.754 449.138 335.483 448.867 335.149 448.867Z" fill="#00AD3C"/>
<path d="M534.135 448.867H393.309C392.952 448.867 392.664 449.156 392.664 449.512V522.09C392.664 522.446 392.952 522.734 393.309 522.734H534.135C534.492 522.734 534.78 522.446 534.78 522.09V449.512C534.78 449.156 534.492 448.867 534.135 448.867Z" fill="#00AD3C"/>
<path d="M335.09 579.531H194.302C193.935 579.531 193.638 579.829 193.638 580.195V652.773C193.638 653.14 193.935 653.437 194.302 653.437H335.09C335.457 653.437 335.754 653.14 335.754 652.773V580.195C335.754 579.829 335.457 579.531 335.09 579.531Z" fill="#00AD3C"/>
<path d="M534.077 579.531H393.367C392.979 579.531 392.664 579.846 392.664 580.234V652.695C392.664 653.084 392.979 653.398 393.367 653.398H534.077C534.465 653.398 534.78 653.084 534.78 652.695V580.234C534.78 579.846 534.465 579.531 534.077 579.531Z" fill="#00AD3C"/>
</g>
<defs>
<clipPath id="clip0_1595_45">
<rect width="727" height="1000" fill="white" transform="translate(0.708984)"/>
</clipPath>
</defs>
</svg>
