<svg width="1000" height="1000" viewBox="0 0 1000 1000" fill="none" xmlns="http://www.w3.org/2000/svg">
<path d="M475.469 239.316C475.469 239.336 475.195 239.531 475.117 239.531C459.661 239.583 428.893 239.583 382.812 239.531C335.723 239.473 296.055 206.621 288.418 160.215C283.516 130.41 293.418 99.9413 314.883 78.496C336.367 57.0507 366.836 47.1874 396.641 52.1093C443.027 59.8046 475.84 99.5116 475.859 146.601C475.859 192.682 475.82 223.45 475.742 238.906C475.742 238.984 475.547 239.238 475.469 239.316Z" fill="#36C5F0"/>
<path d="M618.516 50.8203C643.867 50.8203 667.383 60.9766 685.039 78.4766C703.125 96.3672 712.396 118.802 712.852 145.781C712.891 147.37 712.91 186.543 712.91 263.301C712.91 340.072 712.897 379.245 712.871 380.82C712.402 407.799 703.125 430.241 685.039 448.145C667.383 465.625 643.887 475.801 618.516 475.801C593.145 475.801 569.629 465.625 551.973 448.145C533.887 430.241 524.616 407.799 524.16 380.82C524.134 379.245 524.121 340.072 524.121 263.301C524.121 186.543 524.134 147.37 524.16 145.781C524.616 118.802 533.887 96.3672 551.973 78.4766C569.629 60.9766 593.145 50.8203 618.516 50.8203Z" fill="#2EB67D"/>
<path d="M263.32 475.879C186.563 475.879 147.389 475.866 145.801 475.84C118.822 475.384 96.3867 466.113 78.4961 448.027C60.9961 430.352 50.8398 406.855 50.8398 381.484C50.8398 356.113 60.9961 332.617 78.4961 314.941C96.3867 296.868 118.822 287.598 145.801 287.129C147.389 287.103 186.563 287.09 263.32 287.09C340.078 287.09 379.251 287.103 380.84 287.129C407.819 287.585 430.254 296.855 448.145 314.941C465.645 332.617 475.801 356.113 475.801 381.484C475.801 406.855 465.645 430.352 448.164 448.027C430.26 466.1 407.819 475.371 380.84 475.84C379.251 475.866 340.078 475.879 263.32 475.879Z" fill="#36C5F0"/>
<path d="M921.387 314.785C942.871 336.231 952.773 366.699 947.891 396.504C940.273 442.91 900.605 475.781 853.535 475.84C807.454 475.918 776.686 475.931 761.23 475.879C761.152 475.879 760.879 475.684 760.801 475.606C760.781 475.606 760.586 475.332 760.586 475.254C760.508 459.798 760.462 429.03 760.449 382.949C760.449 335.859 793.242 296.133 839.629 288.438C869.434 283.496 899.902 293.359 921.387 314.785Z" fill="#2EB67D"/>
<path d="M78.5742 685.156C57.0899 663.711 47.207 633.242 52.1094 603.438C59.7461 557.051 99.4141 524.199 146.504 524.141C192.585 524.102 223.353 524.115 238.809 524.18C238.887 524.18 239.16 524.375 239.16 524.375C239.238 524.453 239.434 524.727 239.434 524.805C239.499 540.26 239.531 571.022 239.531 617.09C239.512 664.18 206.699 703.867 160.293 711.543C130.508 716.484 100.039 706.602 78.5742 685.156Z" fill="#E01E5A"/>
<path d="M736.68 524.102C813.45 524.102 852.624 524.115 854.199 524.141C881.178 524.609 903.62 533.887 921.523 551.973C939.023 569.629 949.18 593.145 949.18 618.496C949.18 643.867 939.023 667.383 921.523 685.039C903.62 703.125 881.178 712.396 854.199 712.852C852.624 712.891 813.45 712.904 736.68 712.891C659.922 712.891 620.749 712.878 619.16 712.852C592.181 712.396 569.74 703.125 551.836 685.039C534.355 667.363 524.199 643.867 524.199 618.496C524.199 593.125 534.355 569.629 551.855 551.953C569.746 533.88 592.181 524.609 619.16 524.141C620.749 524.115 659.922 524.102 736.68 524.102Z" fill="#ECB22E"/>
<path d="M475.879 736.68C475.879 813.437 475.866 852.611 475.84 854.199C475.384 881.178 466.113 903.613 448.027 921.504C430.352 939.004 406.855 949.16 381.484 949.16C356.113 949.16 332.617 939.004 314.941 921.504C296.868 903.613 287.598 881.178 287.129 854.199C287.103 852.611 287.09 813.437 287.09 736.68C287.09 659.922 287.103 620.749 287.129 619.16C287.585 592.181 296.855 569.74 314.941 551.836C332.617 534.355 356.113 524.199 381.484 524.199C406.855 524.18 430.352 534.355 448.027 551.836C466.1 569.74 475.371 592.181 475.84 619.16C475.866 620.736 475.879 659.909 475.879 736.68Z" fill="#E01E5A"/>
<path d="M685.137 921.484C663.672 942.93 633.203 952.812 603.398 947.871C556.992 940.195 524.18 900.508 524.16 853.418C524.147 807.337 524.18 776.569 524.258 761.113C524.258 761.035 524.453 760.781 524.531 760.703C524.531 760.684 524.805 760.488 524.883 760.488C540.339 760.436 571.107 760.43 617.187 760.469C664.277 760.527 703.945 793.359 711.582 839.766C716.484 869.57 706.602 900.039 685.137 921.484Z" fill="#ECB22E"/>
</svg>
