<svg width="1000" height="1000" viewBox="0 0 1000 1000" fill="none" xmlns="http://www.w3.org/2000/svg">
<g clip-path="url(#clip0_1595_60)">
<path d="M64.9066 64.9066C31.1449 98.6683 10.8177 140.865 4.27568 188.131C1.58098 207.617 0.179136 224.541 0.0701014 238.902C0.0233725 245.662 -0.00780014 332.695 -0.0233765 500C-0.0233765 667.29 -1.48292e-05 754.315 0.0467141 761.075C0.155748 775.436 1.55766 792.36 4.25236 811.846C10.7944 859.112 31.0981 901.309 64.8832 935.07C98.6448 968.855 140.841 989.159 188.108 995.701C207.593 998.396 224.517 999.798 238.878 999.907C245.639 999.953 332.664 999.985 499.953 1000C667.259 1000 754.291 999.977 761.051 999.93C775.413 999.821 792.337 998.419 811.823 995.724C859.066 989.182 901.285 968.879 935.047 935.117C968.808 901.332 989.136 859.136 995.678 811.869C998.372 792.383 999.774 775.46 999.883 761.098C999.93 754.354 999.953 667.329 999.953 500.024C999.969 332.718 999.953 245.693 999.907 238.949C999.798 224.572 998.388 207.64 995.678 188.154C989.159 140.911 968.832 98.6917 935.07 64.93C901.309 31.1683 859.112 10.8646 811.846 4.32253C792.36 1.61225 775.436 0.202597 761.075 0.0935626C754.315 0.0468337 667.29 0.023472 500 0.023472C332.695 0.0078957 245.662 0.0312573 238.902 0.0935626C224.541 0.202597 207.617 1.60446 188.131 4.29916C140.864 10.8412 98.6682 31.145 64.9066 64.9066Z" stroke="#AEAAFC" stroke-width="4.6729"/>
<path d="M314.953 598.341V738.995C314.953 739.328 315.051 739.653 315.233 739.932C315.416 740.21 315.676 740.428 315.981 740.561C368.894 763.209 423.988 774.564 481.262 774.626C592.57 774.72 698.949 719.556 691.075 591.705C689.112 559.883 678.941 532.827 660.561 510.537C620.514 462.009 556.402 449.486 503.645 428.598C483.995 420.841 456.028 408.364 461.869 381.705C466.799 359.205 493.738 355.841 513.481 356.332C564.946 357.593 614.073 370.241 660.865 394.276C660.989 394.34 661.128 394.371 661.268 394.366C661.407 394.361 661.544 394.32 661.663 394.247C661.783 394.174 661.882 394.072 661.95 393.95C662.019 393.829 662.056 393.691 662.056 393.551V254.392C662.055 253.994 661.935 253.604 661.71 253.275C661.485 252.946 661.166 252.692 660.795 252.547C606.433 231.659 549.914 222.85 491.238 226.121C407.757 230.771 328.692 272.173 311.846 360.304C300.327 420.491 316.215 474.626 369.112 509.86C405.818 534.322 458.224 550.467 488.551 562.29C510.654 570.911 540.981 584.836 537.383 613.341C531.682 658.575 448.738 644.112 419.977 637.196C384.618 628.691 350.125 615.428 316.495 597.406C316.335 597.322 316.155 597.28 315.974 597.285C315.792 597.291 315.615 597.343 315.46 597.437C315.305 597.531 315.176 597.664 315.088 597.822C314.999 597.981 314.953 598.159 314.953 598.341Z" stroke="#AEAAFC" stroke-width="4.6729"/>
<path d="M500 0.023472C667.29 0.023472 754.315 0.0468337 761.075 0.0935626C775.436 0.202597 792.36 1.61225 811.846 4.32253C859.112 10.8646 901.309 31.1683 935.07 64.93C968.832 98.6917 989.159 140.911 995.678 188.154C998.388 207.64 999.798 224.572 999.907 238.949C999.953 245.693 999.969 332.718 999.953 500.024C999.953 667.329 999.93 754.354 999.883 761.098C999.774 775.46 998.372 792.383 995.678 811.869C989.136 859.136 968.808 901.332 935.047 935.117C901.285 968.879 859.066 989.182 811.823 995.724C792.337 998.419 775.413 999.821 761.051 999.93C754.291 999.977 667.259 1000 499.953 1000C332.664 999.985 245.639 999.953 238.878 999.907C224.517 999.798 207.593 998.396 188.108 995.701C140.841 989.159 98.6448 968.855 64.8832 935.07C31.0981 901.309 10.7944 859.112 4.25236 811.846C1.55766 792.36 0.155748 775.436 0.0467141 761.075C-1.48292e-05 754.315 -0.0233765 667.29 -0.0233765 500C-0.00780014 332.695 0.0233725 245.662 0.0701014 238.902C0.179136 224.541 1.58098 207.617 4.27568 188.131C10.8177 140.865 31.1449 98.6683 64.9066 64.9066C98.6682 31.145 140.864 10.8412 188.131 4.29916C207.617 1.60446 224.541 0.202597 238.902 0.0935626C245.662 0.0312573 332.695 0.0078957 500 0.023472ZM314.953 598.341V738.995C314.953 739.328 315.051 739.654 315.233 739.932C315.416 740.21 315.676 740.429 315.981 740.561C368.894 763.209 423.988 774.564 481.262 774.626C592.57 774.72 698.949 719.556 691.075 591.706C689.112 559.883 678.941 532.827 660.561 510.538C620.514 462.009 556.402 449.486 503.645 428.598C483.995 420.841 456.028 408.365 461.869 381.706C466.799 359.206 493.738 355.841 513.481 356.332C564.946 357.594 614.073 370.242 660.864 394.276C660.989 394.34 661.128 394.371 661.267 394.366C661.407 394.361 661.543 394.32 661.663 394.247C661.783 394.175 661.882 394.073 661.95 393.951C662.019 393.829 662.056 393.691 662.056 393.552V254.393C662.055 253.994 661.935 253.605 661.71 253.275C661.485 252.946 661.166 252.692 660.794 252.547C606.433 231.659 549.914 222.851 491.238 226.122C407.757 230.771 328.692 272.173 311.846 360.304C300.327 420.491 316.215 474.626 369.112 509.86C405.818 534.323 458.224 550.467 488.551 562.29C510.654 570.911 540.981 584.837 537.383 613.341C531.682 658.575 448.738 644.112 419.977 637.196C384.618 628.692 350.125 615.428 316.495 597.407C316.335 597.322 316.155 597.28 315.973 597.286C315.792 597.291 315.615 597.343 315.46 597.437C315.305 597.532 315.176 597.664 315.087 597.823C314.999 597.981 314.952 598.16 314.953 598.341Z" fill="#635BFF"/>
<path d="M316.495 597.406C350.125 615.428 384.618 628.691 419.977 637.196C448.738 644.112 531.682 658.575 537.383 613.341C540.981 584.836 510.654 570.911 488.551 562.29C458.224 550.467 405.818 534.322 369.112 509.86C316.215 474.626 300.327 420.491 311.846 360.304C328.692 272.173 407.757 230.771 491.238 226.121C549.914 222.85 606.433 231.659 660.794 252.547C661.166 252.692 661.485 252.946 661.71 253.275C661.935 253.604 662.055 253.994 662.056 254.392V393.551C662.056 393.691 662.019 393.829 661.95 393.95C661.882 394.072 661.783 394.174 661.663 394.247C661.544 394.32 661.407 394.361 661.267 394.366C661.128 394.371 660.989 394.34 660.864 394.276C614.073 370.241 564.946 357.593 513.481 356.332C493.738 355.841 466.799 359.205 461.869 381.705C456.028 408.364 483.995 420.841 503.645 428.598C556.402 449.486 620.514 462.009 660.561 510.537C678.941 532.827 689.112 559.883 691.075 591.705C698.949 719.556 592.57 774.72 481.262 774.626C423.988 774.564 368.894 763.209 315.981 740.561C315.676 740.428 315.416 740.21 315.233 739.932C315.051 739.653 314.953 739.328 314.953 738.995V598.341C314.952 598.159 314.999 597.981 315.087 597.822C315.176 597.664 315.305 597.531 315.46 597.437C315.615 597.343 315.792 597.291 315.973 597.285C316.155 597.28 316.335 597.322 316.495 597.406Z" fill="#F8F8F8"/>
</g>
<defs>
<clipPath id="clip0_1595_60">
<rect width="1000" height="1000" fill="white"/>
</clipPath>
</defs>
</svg>
