<svg width="1001" height="1000" viewBox="0 0 1001 1000" fill="none" xmlns="http://www.w3.org/2000/svg">
<g clip-path="url(#clip0_1595_67)">
<path d="M445.136 172.813C445.136 156.437 438.631 140.732 427.051 129.152C415.472 117.573 399.767 111.068 383.391 111.068H173.548C157.172 111.068 141.467 117.573 129.887 129.152C118.308 140.732 111.803 156.437 111.803 172.813V771.615C111.803 787.99 118.308 803.695 129.887 815.275C141.467 826.854 157.172 833.36 173.548 833.36H383.391C399.767 833.36 415.472 826.854 427.051 815.275C438.631 803.695 445.136 787.99 445.136 771.615V172.813Z" stroke="#8FC4F2" stroke-width="2"/>
<path d="M889.615 172.865C889.615 156.482 883.107 140.771 871.523 129.186C859.939 117.602 844.227 111.094 827.845 111.094H618.001C609.889 111.094 601.856 112.692 594.362 115.796C586.868 118.9 580.058 123.45 574.322 129.186C568.586 134.922 564.036 141.732 560.932 149.226C557.828 156.721 556.23 164.753 556.23 172.865V465.99C556.23 474.102 557.828 482.134 560.932 489.628C564.036 497.123 568.586 503.932 574.322 509.668C580.058 515.404 586.868 519.954 594.362 523.059C601.856 526.163 609.889 527.761 618.001 527.761H827.845C844.227 527.761 859.939 521.253 871.523 509.668C883.107 498.084 889.615 482.372 889.615 465.99V172.865Z" stroke="#8FC4F2" stroke-width="2"/>
<path d="M112.245 0H889.173C918.754 0 947.124 11.7511 968.041 32.6683C988.958 53.5854 1000.71 81.9552 1000.71 111.536V888.464C1000.71 918.045 988.958 946.415 968.041 967.332C947.124 988.249 918.754 1000 889.173 1000H112.245C82.6641 1000 54.2944 988.249 33.3773 967.332C12.4601 946.415 0.708984 918.045 0.708984 888.464V111.536C0.708984 81.9552 12.4601 53.5854 33.3773 32.6683C54.2944 11.7511 82.6641 0 112.245 0ZM445.136 172.813C445.136 156.437 438.631 140.732 427.051 129.152C415.472 117.573 399.767 111.068 383.391 111.068H173.548C157.172 111.068 141.467 117.573 129.887 129.152C118.308 140.732 111.803 156.437 111.803 172.813V771.615C111.803 787.99 118.308 803.695 129.887 815.275C141.467 826.854 157.172 833.359 173.548 833.359H383.391C399.767 833.359 415.472 826.854 427.051 815.275C438.631 803.695 445.136 787.99 445.136 771.615V172.813ZM889.615 172.865C889.615 156.482 883.107 140.77 871.523 129.186C859.939 117.602 844.227 111.094 827.844 111.094H618.001C609.889 111.094 601.856 112.691 594.362 115.796C586.868 118.9 580.058 123.45 574.322 129.186C568.586 134.922 564.036 141.732 560.932 149.226C557.828 156.72 556.23 164.753 556.23 172.865V465.99C556.23 474.101 557.828 482.134 560.932 489.628C564.036 497.123 568.586 503.932 574.322 509.668C580.058 515.404 586.868 519.954 594.362 523.058C601.856 526.163 609.889 527.76 618.001 527.76H827.844C844.227 527.76 859.939 521.252 871.523 509.668C883.107 498.084 889.615 482.372 889.615 465.99V172.865Z" fill="#1E88E5"/>
</g>
<defs>
<clipPath id="clip0_1595_67">
<rect width="1000" height="1000" fill="white" transform="translate(0.708984)"/>
</clipPath>
</defs>
</svg>
