<svg width="1290" height="1000" viewBox="0 0 1290 1000" fill="none" xmlns="http://www.w3.org/2000/svg">
<g clip-path="url(#clip0_1595_179)">
<path d="M681.574 -2.81855H1286.91C1287.11 -2.82058 1287.3 -2.76539 1287.47 -2.65951C1287.64 -2.55363 1287.78 -2.40152 1287.86 -2.22128C1287.95 -2.04104 1287.98 -1.84025 1287.95 -1.64275C1287.93 -1.44525 1287.84 -1.25935 1287.71 -1.10716L682.379 746.644C682.242 746.812 682.057 746.932 681.849 746.989C681.641 747.046 681.421 747.038 681.218 746.964C681.015 746.89 680.84 746.755 680.718 746.578C680.595 746.4 680.531 746.189 680.533 745.973V-1.77829C680.533 -2.05419 680.643 -2.3188 680.838 -2.51389C681.033 -2.70897 681.298 -2.81855 681.574 -2.81855Z" fill="#37474F"/>
<path d="M607.345 -2.78516C607.532 -2.78516 607.711 -2.71091 607.844 -2.57875C607.976 -2.4466 608.05 -2.26736 608.05 -2.08046V-0.335481C608.05 79.5766 576.291 156.216 519.759 212.722C463.228 269.228 386.555 300.973 306.607 300.973H302.714C222.767 300.973 146.094 269.228 89.5621 212.722C33.0306 156.216 1.27148 79.5766 1.27148 -0.335481V-2.08046C1.27148 -2.26736 1.34573 -2.4466 1.47789 -2.57875C1.61004 -2.71091 1.78928 -2.78516 1.97618 -2.78516H607.345Z" fill="#37474F"/>
<path d="M607.983 999.429H2.61421C2.42425 999.428 2.23855 999.373 2.07857 999.271C1.91859 999.168 1.79085 999.022 1.71013 998.85C1.62941 998.678 1.59901 998.487 1.62242 998.299C1.64582 998.11 1.7221 997.932 1.84242 997.785L607.211 249.966C607.344 249.808 607.521 249.695 607.72 249.641C607.919 249.587 608.129 249.596 608.323 249.665C608.517 249.734 608.685 249.862 608.804 250.03C608.923 250.198 608.988 250.398 608.99 250.604V998.423C608.99 998.69 608.884 998.946 608.695 999.135C608.506 999.323 608.25 999.429 607.983 999.429Z" fill="#37474F"/>
<path d="M682.144 999.43C681.957 999.43 681.778 999.355 681.646 999.223C681.514 999.091 681.439 998.912 681.439 998.725V996.913C681.439 917.001 713.199 840.362 769.73 783.855C826.262 727.349 902.935 695.604 982.882 695.604H986.775C1066.72 695.604 1143.4 727.349 1199.93 783.855C1256.46 840.362 1288.22 917.001 1288.22 996.913V998.725C1288.22 998.912 1288.14 999.091 1288.01 999.223C1287.88 999.355 1287.7 999.43 1287.51 999.43H682.144Z" fill="#37474F"/>
</g>
<defs>
<clipPath id="clip0_1595_179">
<rect width="1288.59" height="1000" fill="white" transform="translate(0.466309)"/>
</clipPath>
</defs>
</svg>
