<svg width="401" height="100" viewBox="0 0 401 100" fill="none" xmlns="http://www.w3.org/2000/svg">
<g clip-path="url(#clip0_1567_25)">
<path d="M30.4433 38.1288C30.4416 38.2131 30.4656 38.2959 30.512 38.3663C30.5584 38.4367 30.6252 38.4913 30.7034 38.5228C30.7815 38.5544 30.8675 38.5615 30.9497 38.5431C31.032 38.5247 31.1068 38.4817 31.1641 38.4199C54.2687 14.7608 90.7067 37.9764 84.5113 68.6486C81.2403 84.7678 66.8952 96.0221 50.0691 95.2459C36.3754 94.6361 25.1904 85.7518 20.3948 73.0699C19.0827 69.5957 18.4498 63.853 18.496 55.8419C18.6346 33.2778 18.6808 16.6042 18.6346 5.82113C18.6327 5.73688 18.6479 5.65313 18.6793 5.57492C18.7107 5.49671 18.7575 5.42567 18.8171 5.36609C18.8767 5.3065 18.9478 5.25961 19.026 5.22824C19.1042 5.19687 19.1879 5.18167 19.2722 5.18357L29.9444 5.21129C30.0988 5.21129 30.2468 5.27262 30.356 5.38179C30.4652 5.49096 30.5265 5.63902 30.5265 5.79341L30.4433 38.1288ZM72.5085 62.0789C72.5085 56.6055 70.3342 51.3563 66.4639 47.486C62.5936 43.6157 57.3443 41.4414 51.8709 41.4414C46.3975 41.4414 41.1483 43.6157 37.278 47.486C33.4077 51.3563 31.2334 56.6055 31.2334 62.0789C31.2334 67.5523 33.4077 72.8016 37.278 76.6719C41.1483 80.5422 46.3975 82.7165 51.8709 82.7165C57.3443 82.7165 62.5936 80.5422 66.4639 76.6719C70.3342 72.8016 72.5085 67.5523 72.5085 62.0789Z" fill="url(#paint0_linear_1567_25)"/>
<path d="M173.922 38.1705C173.92 38.2548 173.944 38.3376 173.991 38.408C174.037 38.4783 174.104 38.5329 174.182 38.5645C174.26 38.5961 174.346 38.6031 174.428 38.5847C174.511 38.5663 174.585 38.5234 174.643 38.4615C197.706 14.7193 234.241 37.8656 228.101 68.5794C224.871 84.7263 210.54 96.0222 193.7 95.2876C179.993 94.7055 168.78 85.8489 163.943 73.167C162.621 69.6928 161.975 63.9455 162.002 55.9252C162.085 33.3426 162.095 16.6551 162.03 5.86278C162.028 5.77972 162.043 5.69712 162.073 5.61984C162.104 5.54257 162.15 5.47216 162.208 5.41277C162.266 5.35338 162.335 5.3062 162.412 5.27399C162.488 5.24178 162.571 5.2252 162.654 5.22522H173.34C173.494 5.22522 173.642 5.28655 173.751 5.39572C173.861 5.50489 173.922 5.65296 173.922 5.80734V38.1705ZM216.07 62.079C216.07 56.6019 213.894 51.3491 210.022 47.4762C206.149 43.6034 200.896 41.4276 195.419 41.4276C189.942 41.4276 184.689 43.6034 180.816 47.4762C176.943 51.3491 174.767 56.6019 174.767 62.079C174.767 64.791 175.302 67.4764 176.339 69.982C177.377 72.4875 178.898 74.7641 180.816 76.6818C182.734 78.5994 185.01 80.1206 187.516 81.1584C190.021 82.1963 192.707 82.7304 195.419 82.7304C198.131 82.7304 200.816 82.1963 203.322 81.1584C205.827 80.1206 208.104 78.5994 210.022 76.6818C211.939 74.7641 213.46 72.4875 214.498 69.982C215.536 67.4764 216.07 64.791 216.07 62.079Z" fill="url(#paint1_linear_1567_25)"/>
<path d="M248.794 38.1982C248.792 38.2825 248.816 38.3654 248.862 38.4357C248.909 38.5061 248.976 38.5607 249.054 38.5923C249.132 38.6238 249.218 38.6309 249.3 38.6125C249.382 38.5941 249.457 38.5511 249.515 38.4893C272.536 14.7471 309.071 37.8517 302.959 68.5517C299.743 84.6986 285.426 95.9945 268.6 95.2738C254.892 94.7055 243.679 85.8628 238.842 73.1809C237.521 69.7159 236.87 63.9732 236.888 55.9529C236.953 33.3796 236.948 16.7014 236.874 5.91826C236.872 5.8352 236.887 5.75261 236.918 5.67533C236.948 5.59805 236.994 5.52765 237.052 5.46826C237.11 5.40886 237.179 5.36168 237.256 5.32947C237.333 5.29727 237.415 5.28068 237.498 5.2807L248.184 5.26685C248.338 5.26685 248.486 5.32817 248.596 5.43734C248.705 5.54651 248.766 5.69458 248.766 5.84896L248.794 38.1982ZM290.928 62.079C290.928 56.6056 288.754 51.3564 284.884 47.4861C281.013 43.6158 275.764 41.4415 270.291 41.4415C264.817 41.4415 259.568 43.6158 255.698 47.4861C251.827 51.3564 249.653 56.6056 249.653 62.079C249.653 67.5525 251.827 72.8017 255.698 76.672C259.568 80.5423 264.817 82.7166 270.291 82.7166C275.764 82.7166 281.013 80.5423 284.884 76.672C288.754 72.8017 290.928 67.5525 290.928 62.079Z" fill="url(#paint2_linear_1567_25)"/>
<path d="M326.77 5.2807H314.739C314.533 5.2807 314.365 5.44825 314.365 5.65492V93.6106C314.365 93.8173 314.533 93.9848 314.739 93.9848H326.77C326.977 93.9848 327.144 93.8173 327.144 93.6106V5.65492C327.144 5.44825 326.977 5.2807 326.77 5.2807Z" fill="url(#paint3_linear_1567_25)"/>
<path d="M351.011 68.0804C356.07 88.3576 379.479 86.4727 392.965 77.4914C393.048 77.436 393.141 77.3981 393.239 77.3799C393.338 77.3618 393.438 77.3638 393.536 77.3858C393.633 77.4079 393.725 77.4495 393.805 77.5081C393.886 77.5668 393.954 77.6413 394.005 77.727L398.648 85.7797C398.747 85.9519 398.777 86.1558 398.73 86.3492C398.684 86.5426 398.565 86.7109 398.398 86.8192C376.333 101.22 343.623 98.4061 338.287 68.1359C336.356 57.1218 338.874 47.5214 345.841 39.3348C354.032 29.7159 368.488 26.6528 380.048 30.2565C396.208 35.2876 402.57 49.8268 400.616 66.3202C400.592 66.527 400.494 66.7177 400.34 66.8558C400.187 66.9939 399.989 67.0697 399.784 67.0686H351.801C351.677 67.0693 351.556 67.0979 351.445 67.1524C351.334 67.2069 351.237 67.2857 351.161 67.3831C351.085 67.4805 351.032 67.5938 351.006 67.7146C350.98 67.8353 350.982 67.9604 351.011 68.0804ZM369.639 56.5905C381.244 56.572 387.236 56.5581 387.615 56.5489C387.698 56.5445 387.78 56.5223 387.854 56.4838C387.927 56.4452 387.992 56.3913 388.043 56.3256C388.095 56.2599 388.131 56.184 388.151 56.1029C388.17 56.0219 388.172 55.9377 388.156 55.8559C386.312 46.4449 379.271 40.1109 369.611 40.1248C359.951 40.1386 352.924 46.4865 351.108 55.9113C351.094 55.9932 351.098 56.0771 351.119 56.1574C351.14 56.2377 351.178 56.3125 351.231 56.3768C351.283 56.4411 351.349 56.4935 351.423 56.5303C351.498 56.5672 351.579 56.5877 351.662 56.5905C352.041 56.609 358.033 56.609 369.639 56.5905Z" fill="url(#paint4_linear_1567_25)"/>
<path d="M121.808 83.5204C131.066 83.5204 136.638 77.6021 136.749 68.0942C136.795 64.0471 136.795 51.6608 136.749 30.9355C136.749 30.8142 136.797 30.6978 136.883 30.6121C136.969 30.5263 137.085 30.4781 137.206 30.4781H149.14C149.283 30.4781 149.421 30.5351 149.522 30.6364C149.623 30.7378 149.68 30.8753 149.68 31.0186C149.616 44.0009 149.611 54.7886 149.667 63.3818C149.713 70.9309 149.047 76.3363 147.671 79.598C143.111 90.4088 133.381 95.4261 121.808 95.4261C110.221 95.4123 100.491 90.3811 95.9452 79.5841C94.5684 76.3132 93.9077 70.9031 93.9632 63.354C94.0279 54.7608 94.0325 43.9731 93.977 30.9909C93.977 30.8476 94.034 30.7101 94.1354 30.6087C94.2367 30.5073 94.3742 30.4504 94.5176 30.4504L106.451 30.4642C106.511 30.4642 106.571 30.4761 106.626 30.4991C106.682 30.522 106.732 30.5557 106.774 30.5982C106.817 30.6407 106.851 30.6911 106.874 30.7466C106.897 30.8021 106.908 30.8616 106.908 30.9216C106.844 51.647 106.835 64.0332 106.881 68.0803C106.978 77.5883 112.549 83.5065 121.808 83.5204Z" fill="url(#paint5_linear_1567_25)"/>
<path d="M9.63857 95.3431C14.1242 95.3431 17.7605 91.7067 17.7605 87.2211C17.7605 82.7355 14.1242 79.0991 9.63857 79.0991C5.15293 79.0991 1.5166 82.7355 1.5166 87.2211C1.5166 91.7067 5.15293 95.3431 9.63857 95.3431Z" fill="url(#paint6_linear_1567_25)"/>
</g>
<defs>
<linearGradient id="paint0_linear_1567_25" x1="51.8517" y1="5.18341" x2="51.8517" y2="95.2837" gradientUnits="userSpaceOnUse">
<stop/>
<stop offset="1" stop-color="#666666"/>
</linearGradient>
<linearGradient id="paint1_linear_1567_25" x1="195.394" y1="5.22522" x2="195.394" y2="95.3214" gradientUnits="userSpaceOnUse">
<stop/>
<stop offset="1" stop-color="#666666"/>
</linearGradient>
<linearGradient id="paint2_linear_1567_25" x1="270.256" y1="5.26685" x2="270.256" y2="95.3064" gradientUnits="userSpaceOnUse">
<stop/>
<stop offset="1" stop-color="#666666"/>
</linearGradient>
<linearGradient id="paint3_linear_1567_25" x1="320.755" y1="5.2807" x2="320.755" y2="93.9848" gradientUnits="userSpaceOnUse">
<stop/>
<stop offset="1" stop-color="#666666"/>
</linearGradient>
<linearGradient id="paint4_linear_1567_25" x1="369.308" y1="28.7933" x2="369.308" y2="95.2175" gradientUnits="userSpaceOnUse">
<stop/>
<stop offset="1" stop-color="#666666"/>
</linearGradient>
<linearGradient id="paint5_linear_1567_25" x1="121.82" y1="30.4504" x2="121.82" y2="95.4261" gradientUnits="userSpaceOnUse">
<stop/>
<stop offset="1" stop-color="#666666"/>
</linearGradient>
<linearGradient id="paint6_linear_1567_25" x1="9.63857" y1="79.0991" x2="9.63857" y2="95.3431" gradientUnits="userSpaceOnUse">
<stop/>
<stop offset="1" stop-color="#666666"/>
</linearGradient>
<clipPath id="clip0_1567_25">
<rect width="400" height="100" fill="white" transform="translate(0.94873)"/>
</clipPath>
</defs>
</svg>
