<svg width="323" height="100" viewBox="0 0 323 100" fill="none" xmlns="http://www.w3.org/2000/svg">
<g clip-path="url(#clip0_1567_91)">
<path d="M66.474 0.226075V32.3602C66.474 32.3868 66.4688 32.4132 66.4586 32.4379C66.4484 32.4625 66.4334 32.4849 66.4146 32.5038C66.3957 32.5226 66.3733 32.5376 66.3487 32.5478C66.324 32.558 66.2976 32.5632 66.271 32.5632H33.1445C33.0916 32.5633 33.0407 32.5427 33.0028 32.5058L0.320789 0.371671C0.291806 0.343492 0.271891 0.307299 0.263598 0.267736C0.255304 0.228172 0.259006 0.18704 0.274232 0.149594C0.289457 0.112148 0.315512 0.0801006 0.349061 0.0575502C0.38261 0.0349998 0.422126 0.0229691 0.462549 0.0230104H66.271C66.2976 0.0230104 66.324 0.0282629 66.3487 0.0384679C66.3733 0.0486729 66.3957 0.0636341 66.4146 0.0824904C66.4334 0.101347 66.4484 0.123729 66.4586 0.148366C66.4688 0.173003 66.474 0.199408 66.474 0.226075Z" fill="url(#paint0_linear_1567_91)"/>
<path d="M104.869 49.9732V69.5325C104.869 69.5844 104.848 69.6341 104.812 69.6707C104.775 69.7074 104.725 69.728 104.673 69.728H93.5968C93.5449 69.728 93.4952 69.7074 93.4586 69.6707C93.422 69.6341 93.4014 69.5844 93.4014 69.5325V17.4981C93.4014 17.4463 93.422 17.3966 93.4586 17.3599C93.4952 17.3233 93.5449 17.3027 93.5968 17.3027H126.129C126.181 17.3027 126.231 17.3233 126.268 17.3599C126.304 17.3966 126.325 17.4463 126.325 17.4981V27.2797C126.325 27.3315 126.304 27.3812 126.268 27.4179C126.231 27.4545 126.181 27.4751 126.129 27.4751H105.06C105.035 27.4751 105.009 27.4801 104.986 27.49C104.962 27.4998 104.94 27.5142 104.922 27.5323C104.904 27.5505 104.89 27.572 104.88 27.5957C104.87 27.6194 104.865 27.6448 104.865 27.6705V40.0536C104.865 40.1055 104.886 40.1552 104.922 40.1918C104.959 40.2284 105.009 40.249 105.06 40.249H123.501C123.553 40.249 123.603 40.2696 123.639 40.3063C123.676 40.3429 123.696 40.3926 123.696 40.4444V49.5824C123.696 49.6342 123.676 49.6839 123.639 49.7205C123.603 49.7572 123.553 49.7778 123.501 49.7778H105.064C105.012 49.7778 104.963 49.7984 104.926 49.835C104.889 49.8717 104.869 49.9213 104.869 49.9732Z" fill="url(#paint1_linear_1567_91)"/>
<path d="M154.118 42.954C152.907 42.8889 151.773 42.5824 150.302 42.5517C146.319 42.4751 143.623 44.3384 142.213 48.1418C141.833 49.1737 141.622 50.6245 141.581 52.4943C141.525 54.9975 141.506 60.6424 141.524 69.4291C141.524 69.5084 141.492 69.5844 141.436 69.6404C141.38 69.6965 141.304 69.728 141.225 69.728H130.669C130.653 69.728 130.636 69.7247 130.621 69.7184C130.606 69.712 130.592 69.7027 130.58 69.691C130.568 69.6792 130.559 69.6653 130.553 69.6499C130.546 69.6346 130.543 69.6181 130.543 69.6015V32.4023C130.543 32.3495 130.564 32.2988 130.601 32.2614C130.639 32.2241 130.689 32.2031 130.742 32.2031H140.681C140.74 32.2031 140.796 32.2269 140.838 32.2693C140.88 32.3117 140.903 32.3692 140.903 32.4291V37.7203C140.903 37.76 140.914 37.7988 140.936 37.8319C140.958 37.865 140.989 37.8908 141.026 37.9061C141.062 37.9213 141.103 37.9252 141.142 37.9174C141.181 37.9096 141.216 37.8903 141.244 37.8621C141.362 37.7446 141.593 37.4036 141.938 36.8391C142.666 35.6462 143.57 34.6245 144.65 33.774C145.685 32.9591 146.892 32.3589 148.271 31.9732C150.069 31.4649 152.032 31.3231 154.16 31.5479C154.231 31.5555 154.296 31.5891 154.343 31.6422C154.391 31.6953 154.417 31.7641 154.417 31.8353V42.6667C154.417 42.7057 154.409 42.7444 154.394 42.7803C154.378 42.8162 154.356 42.8486 154.328 42.8755C154.3 42.9024 154.267 42.9232 154.231 42.9367C154.195 42.9502 154.156 42.9561 154.118 42.954Z" fill="url(#paint2_linear_1567_91)"/>
<path d="M205.665 37.1992C205.665 37.2392 205.678 37.278 205.701 37.3101C205.725 37.3422 205.758 37.3659 205.796 37.3778C205.835 37.3897 205.876 37.3893 205.914 37.3764C205.953 37.3636 205.986 37.3391 206.01 37.3065C206.646 36.4061 207.846 34.705 209.121 33.8084C212.21 31.6449 215.68 30.9783 219.531 31.8084C222.816 32.5185 225.373 34.2695 227.202 37.0613C227.222 37.0916 227.248 37.1167 227.28 37.1344C227.311 37.152 227.347 37.1619 227.383 37.163C227.419 37.1641 227.456 37.1565 227.489 37.1408C227.522 37.1251 227.551 37.1018 227.574 37.0728C230.263 33.5249 233.999 31.4751 238.508 31.4253C240.963 31.3972 243.077 31.779 244.849 32.5709C248.262 34.0958 250.461 36.4866 251.447 39.7433C251.863 41.1277 252.065 43.0702 252.052 45.5709C252.017 51.341 252.017 59.2963 252.052 69.4368C252.053 69.4758 252.046 69.5146 252.031 69.5508C252.017 69.5871 251.995 69.6201 251.967 69.6479C251.94 69.6757 251.907 69.6977 251.871 69.7128C251.835 69.7279 251.797 69.7356 251.757 69.7356H241.416C241.384 69.7356 241.353 69.7231 241.33 69.7008C241.307 69.6786 241.294 69.6484 241.294 69.6169V46.9962C241.294 46.5664 241.237 46.1387 241.125 45.7241C241 45.2669 240.923 44.977 240.895 44.8544C240.202 42.0383 237.688 40.7318 234.857 41.0153C232.875 41.212 231.356 42.1903 230.301 43.9502C229.903 44.613 229.757 45.3678 229.558 46.1456C229.444 46.5908 229.386 47.0491 229.386 47.5096V69.5287C229.386 69.5846 229.363 69.6382 229.323 69.6777C229.283 69.7172 229.228 69.7395 229.171 69.7395H218.42C218.388 69.7395 218.357 69.7269 218.334 69.7047C218.311 69.6824 218.298 69.6522 218.298 69.6207C218.298 56.1647 218.304 49.1073 218.317 48.4483C218.355 46.4329 218.187 45.0064 217.811 44.1686C216.351 40.931 212.788 40.3448 209.773 41.6628C206.731 42.9885 206.041 46.0958 206.033 49.3295C206.031 49.6871 206.027 56.3959 206.022 69.4559C206.022 69.4917 206.015 69.527 206.001 69.56C205.987 69.593 205.967 69.623 205.941 69.6483C205.915 69.6735 205.885 69.6936 205.851 69.7073C205.818 69.7209 205.782 69.728 205.746 69.728H195.436C195.419 69.728 195.404 69.7248 195.389 69.7186C195.374 69.7125 195.36 69.7034 195.349 69.6921C195.337 69.6807 195.328 69.6672 195.322 69.6523C195.316 69.6374 195.313 69.6214 195.313 69.6053V32.4253C195.313 32.3966 195.319 32.3682 195.33 32.3417C195.341 32.3152 195.357 32.2911 195.378 32.2709C195.399 32.2506 195.423 32.2345 195.45 32.2235C195.477 32.2125 195.506 32.2069 195.535 32.2069H205.455C205.511 32.2069 205.564 32.2291 205.604 32.2686C205.643 32.3081 205.665 32.3617 205.665 32.4176V37.1992Z" fill="url(#paint3_linear_1567_91)"/>
<path d="M309.363 37.954C309.616 37.7139 309.783 37.4393 309.865 37.1302C309.898 37.0071 309.961 36.8938 310.049 36.8007C310.945 35.8659 311.762 34.6398 312.88 33.8544C315.58 31.9514 318.619 31.1928 321.995 31.5785C322.116 31.5926 322.226 31.6503 322.307 31.7407C322.387 31.8311 322.432 31.9479 322.432 32.0689V42.4444C322.432 42.5176 322.416 42.5899 322.385 42.6561C322.354 42.7224 322.309 42.7809 322.252 42.8274C322.196 42.874 322.13 42.9074 322.059 42.9253C321.988 42.9433 321.914 42.9452 321.842 42.931C319.332 42.4444 316.627 42.203 314.294 43.203C311.908 44.2248 310.357 46.0932 309.639 48.8084C309.322 50.0064 309.155 51.5543 309.137 53.4521C309.099 57.4189 309.099 62.7343 309.137 69.3984C309.137 69.4868 309.102 69.5716 309.039 69.6341C308.977 69.6966 308.892 69.7318 308.804 69.7318H298.62C298.556 69.7318 298.494 69.7063 298.449 69.6611C298.404 69.6158 298.378 69.5544 298.378 69.4904V32.3065C298.378 32.279 298.39 32.2527 298.41 32.2333C298.43 32.2139 298.457 32.203 298.486 32.203H308.838C308.902 32.203 308.964 32.2281 309.009 32.2726C309.054 32.3172 309.08 32.3776 309.08 32.4406V37.8276C309.079 37.8607 309.088 37.8932 309.106 37.9211C309.124 37.9491 309.149 37.9712 309.179 37.9847C309.21 37.9981 309.243 38.0024 309.276 37.997C309.309 37.9915 309.339 37.9766 309.363 37.954Z" fill="url(#paint4_linear_1567_91)"/>
<path d="M189.049 69.7509H179.44C179.391 69.7509 179.344 69.7316 179.31 69.6971C179.275 69.6626 179.256 69.6158 179.256 69.567V66.0421C179.255 66.0088 179.244 65.9764 179.225 65.9492C179.206 65.9219 179.179 65.9011 179.148 65.8892C179.116 65.8773 179.082 65.8749 179.05 65.8823C179.017 65.8898 178.988 65.9067 178.965 65.931C177.122 67.9923 175.084 69.6284 172.444 70.3103C169.312 71.12 166.283 71.0639 163.356 70.1418C159.09 68.7957 156.483 66.0358 155.536 61.8621C155.423 61.364 155.391 60.212 155.44 58.4061C155.476 57.106 155.693 56.0025 156.091 55.0958C157.044 52.9297 158.55 51.2541 160.609 50.069C162.299 49.0958 164.09 48.5057 165.98 48.2988C167.248 48.1609 168.547 47.8352 170.022 47.8927C170.868 47.9259 173.707 47.9029 178.54 47.8238C178.61 47.823 178.677 47.796 178.729 47.7479C178.78 47.6998 178.813 47.634 178.819 47.5632C179.072 44.6284 178.735 41.3142 175.306 40.3908C173.888 40.0102 172.556 39.9527 171.31 40.2184C169.041 40.7011 167.858 42.0153 167.133 44.1418C167.089 44.2742 167 44.3872 166.881 44.4613C166.763 44.5354 166.621 44.566 166.482 44.5479C163.708 44.1647 160.798 43.9847 157.75 44.0077C157.694 44.0079 157.638 43.9958 157.587 43.9722C157.535 43.9485 157.49 43.914 157.453 43.8709C157.417 43.8278 157.39 43.7772 157.375 43.7228C157.36 43.6683 157.358 43.6112 157.367 43.5555C158.412 37.3282 162.024 33.5479 168.202 32.2145C170.734 31.6679 173.494 31.5556 176.482 31.8774C182.398 32.5096 186.796 35.2912 188.609 40.8774C189.038 42.2005 189.259 44.106 189.271 46.5939C189.312 54.811 189.328 62.4406 189.317 69.4827C189.317 69.518 189.31 69.5528 189.297 69.5854C189.283 69.6179 189.264 69.6475 189.239 69.6724C189.214 69.6973 189.184 69.7171 189.152 69.7305C189.119 69.744 189.084 69.7509 189.049 69.7509ZM178.854 54.2337C178.853 54.199 178.845 54.1648 178.831 54.1331C178.816 54.1014 178.796 54.0728 178.771 54.049C178.746 54.0251 178.716 54.0065 178.683 53.9942C178.651 53.9818 178.616 53.976 178.582 53.977C177.353 54 175.113 54.023 171.861 54.046C171.064 54.0536 170.344 54.2835 169.708 54.3601C169.213 54.4163 168.698 54.5798 168.164 54.8506C166.374 55.7548 165.608 57.2861 165.869 59.4444C165.884 59.574 165.918 59.6992 165.969 59.8161C166.395 60.7867 166.723 61.3589 166.953 61.5326C169.39 63.3946 172.746 63.1379 175.39 61.8965C176.11 61.5568 176.837 60.9489 177.57 60.0728C178.068 59.4776 178.425 58.6079 178.639 57.4636C178.81 56.5466 178.882 55.47 178.854 54.2337Z" fill="url(#paint5_linear_1567_91)"/>
<path d="M293.7 53.8008C293.697 53.8587 293.672 53.9133 293.63 53.9532C293.588 53.9932 293.532 54.0154 293.474 54.0153H267.643C267.592 54.0151 267.542 54.026 267.496 54.0473C267.45 54.0685 267.41 54.0997 267.377 54.1384C267.345 54.1772 267.321 54.2226 267.308 54.2716C267.295 54.3205 267.293 54.3716 267.302 54.4215C267.445 55.1877 267.648 55.9847 267.911 56.8123C268.846 59.7523 270.727 61.5671 273.555 62.2567C276.168 62.8902 278.519 62.5211 280.608 61.1494C281.262 60.7177 281.934 59.9425 282.624 58.8238C282.644 58.7935 282.658 58.7583 282.666 58.7203L282.811 58.1456C282.828 58.0788 282.866 58.0193 282.92 57.977C282.975 57.9346 283.041 57.9116 283.11 57.9119H293.241C293.292 57.9121 293.342 57.9242 293.388 57.9475C293.434 57.9707 293.474 58.0043 293.504 58.0456C293.535 58.0869 293.555 58.1348 293.564 58.1854C293.573 58.2361 293.57 58.288 293.555 58.3372C291.733 64.424 287.785 68.3346 281.708 70.069C280.763 70.3372 279.8 70.5607 278.819 70.7395C277.958 70.8953 276.23 70.9272 273.635 70.8353C273.014 70.8123 272.35 70.7101 271.643 70.5287C270.915 70.3448 269.884 70.1609 269.014 69.8736C264.067 68.2465 260.564 65.0115 258.505 60.1686C257.672 58.2043 257.173 56.1252 257.007 53.931C256.589 48.3908 257.624 43.0613 260.9 38.5786C261.735 37.4368 262.892 36.2989 264.371 35.1648C266.251 33.7241 268.516 32.7293 271.168 32.1801C274.782 31.4317 278.29 31.5683 281.693 32.59C287.957 34.4674 292.022 39.8429 293.233 46.1264C293.703 48.5556 293.859 51.1137 293.7 53.8008ZM275.486 47.5172C280.525 47.5198 283.068 47.5198 283.114 47.5172C283.138 47.5169 283.162 47.5115 283.184 47.5014C283.205 47.4913 283.225 47.4768 283.241 47.4588C283.257 47.4407 283.269 47.4196 283.276 47.3966C283.283 47.3737 283.285 47.3496 283.283 47.3257C282.731 42.931 280.11 39.9655 275.49 39.9617C270.869 39.9617 268.248 42.9272 267.693 47.3219C267.689 47.346 267.691 47.3706 267.698 47.394C267.705 47.4174 267.717 47.439 267.733 47.4575C267.749 47.4759 267.769 47.4908 267.791 47.5011C267.813 47.5114 267.837 47.5169 267.861 47.5172C267.907 47.5172 270.449 47.5172 275.486 47.5172Z" fill="url(#paint6_linear_1567_91)"/>
<path d="M66.6732 66.1034C66.6899 66.1201 66.7013 66.1413 66.706 66.1644C66.7106 66.1875 66.7082 66.2115 66.6992 66.2333C66.6902 66.255 66.6749 66.2736 66.6552 66.2867C66.6356 66.2997 66.6125 66.3066 66.5889 66.3065H36.0602C36.0446 66.3065 36.0291 66.3095 36.0147 66.3152C36.0003 66.321 35.9872 66.3295 35.9762 66.3402C35.9651 66.3508 35.9564 66.3635 35.9504 66.3774C35.9445 66.3914 35.9414 66.4063 35.9414 66.4214V100.027C35.9411 100.049 35.9355 100.07 35.9251 100.089C35.9147 100.108 35.8998 100.124 35.8817 100.136C35.8636 100.149 35.8428 100.156 35.8212 100.158C35.7995 100.161 35.7777 100.157 35.7575 100.149C35.5787 100.075 35.396 99.9451 35.2096 99.7586C20.0908 84.7854 9.15595 74.0076 2.40499 67.4253C1.73577 66.7714 1.2032 66.1686 0.807288 65.6168C0.715179 65.4872 0.665642 65.3319 0.665527 65.1724V33.3372C0.665527 33.2721 0.69136 33.2098 0.737346 33.1638C0.783332 33.1178 0.845704 33.0919 0.910738 33.0919C8.07549 33.0843 18.3411 33.0804 31.7077 33.0804C32.2568 33.0804 32.7243 33.1379 33.11 33.2529C33.2509 33.2957 33.3784 33.3706 33.4816 33.4712L66.6732 66.1034Z" fill="url(#paint7_linear_1567_91)"/>
</g>
<defs>
<linearGradient id="paint0_linear_1567_91" x1="33.3667" y1="0.0230103" x2="33.3667" y2="32.5632" gradientUnits="userSpaceOnUse">
<stop/>
<stop offset="1" stop-color="#666666"/>
</linearGradient>
<linearGradient id="paint1_linear_1567_91" x1="109.863" y1="17.3027" x2="109.863" y2="69.728" gradientUnits="userSpaceOnUse">
<stop/>
<stop offset="1" stop-color="#666666"/>
</linearGradient>
<linearGradient id="paint2_linear_1567_91" x1="142.48" y1="31.4445" x2="142.48" y2="69.728" gradientUnits="userSpaceOnUse">
<stop/>
<stop offset="1" stop-color="#666666"/>
</linearGradient>
<linearGradient id="paint3_linear_1567_91" x1="223.683" y1="31.4238" x2="223.683" y2="69.7395" gradientUnits="userSpaceOnUse">
<stop/>
<stop offset="1" stop-color="#666666"/>
</linearGradient>
<linearGradient id="paint4_linear_1567_91" x1="310.405" y1="31.481" x2="310.405" y2="69.7318" gradientUnits="userSpaceOnUse">
<stop/>
<stop offset="1" stop-color="#666666"/>
</linearGradient>
<linearGradient id="paint5_linear_1567_91" x1="172.369" y1="31.6985" x2="172.369" y2="70.8782" gradientUnits="userSpaceOnUse">
<stop/>
<stop offset="1" stop-color="#666666"/>
</linearGradient>
<linearGradient id="paint6_linear_1567_91" x1="275.34" y1="31.7054" x2="275.34" y2="70.8864" gradientUnits="userSpaceOnUse">
<stop/>
<stop offset="1" stop-color="#666666"/>
</linearGradient>
<linearGradient id="paint7_linear_1567_91" x1="33.6869" y1="33.0804" x2="33.6869" y2="100.159" gradientUnits="userSpaceOnUse">
<stop/>
<stop offset="1" stop-color="#666666"/>
</linearGradient>
<clipPath id="clip0_1567_91">
<rect width="322.222" height="100" fill="white" transform="translate(0.290039)"/>
</clipPath>
</defs>
</svg>
