<svg width="479" height="100" viewBox="0 0 479 100" fill="none" xmlns="http://www.w3.org/2000/svg">
<path d="M361.158 44.5218C361.159 44.5966 361.182 44.6693 361.224 44.7314C361.266 44.7934 361.325 44.8422 361.393 44.8719C361.462 44.9017 361.538 44.9111 361.611 44.8992C361.685 44.8872 361.754 44.8543 361.81 44.8045L379.353 28.7827C381.479 26.8525 384.254 25.783 387.136 25.7827H405.745C406.231 25.7848 406.706 25.9331 407.108 26.2082C407.51 26.4832 407.819 26.8721 407.996 27.3237C408.172 27.7754 408.207 28.2685 408.096 28.7385C407.986 29.2084 407.734 29.6331 407.375 29.9566L386.723 48.8045C386.409 49.0897 386.202 49.4732 386.134 49.8919C386.067 50.3106 386.144 50.7397 386.353 51.1088L410.81 93.4566C411.044 93.8571 411.167 94.3123 411.169 94.776C411.17 95.2397 411.048 95.6955 410.817 96.0972C410.585 96.4989 410.251 96.8322 409.849 97.0633C409.447 97.2944 408.991 97.4151 408.527 97.4131H388.092C387.755 97.4125 387.425 97.3237 387.135 97.1557C386.845 96.9877 386.605 96.7466 386.44 96.4566L368.005 64.5218C367.957 64.4347 367.889 64.3599 367.807 64.3031C367.725 64.2464 367.631 64.2092 367.532 64.1945C367.433 64.1798 367.333 64.188 367.237 64.2183C367.142 64.2487 367.056 64.3005 366.984 64.3697L361.962 68.9349C361.707 69.1752 361.505 69.465 361.366 69.7865C361.228 70.108 361.157 70.4544 361.158 70.8045V94.5871C361.158 95.3424 360.858 96.0667 360.324 96.6008C359.789 97.1349 359.065 97.4349 358.31 97.4349H340.723C340.089 97.4349 339.48 97.183 339.032 96.7345C338.583 96.286 338.332 95.6778 338.332 95.0436V3.91315C338.332 3.41155 338.531 2.93049 338.886 2.5758C339.24 2.22111 339.721 2.02185 340.223 2.02185H358.332C359.081 2.02185 359.8 2.3173 360.33 2.84322C360.86 3.36914 361.158 4.08244 361.158 4.8262V44.5218Z" fill="url(#paint0_linear_1567_117)"/>
<path d="M307.287 92.1305C295.07 100.957 283.041 101.015 271.2 92.3044C268.012 89.9566 265.853 85.6377 264.722 79.3479C262.005 64.174 274.157 57.3696 286.7 54.1088C293.787 52.2682 300.686 50.5001 307.396 48.8044C307.554 48.7648 307.702 48.6907 307.828 48.5876C307.954 48.4845 308.056 48.355 308.125 48.2088C308.193 48.0626 308.228 47.9034 308.226 47.7431C308.224 47.5828 308.186 47.4254 308.114 47.2827C306.374 43.7175 303.679 41.7899 300.027 41.5001C293.635 41.0073 289.563 42.4421 287.809 45.8044C287.233 46.9037 286.306 47.7789 285.176 48.291C284.045 48.803 282.776 48.9225 281.57 48.6305L269.114 45.6305C268.58 45.4996 268.082 45.2498 267.659 44.9001C267.235 44.5504 266.897 44.1098 266.668 43.6116C266.44 43.1134 266.329 42.5705 266.342 42.024C266.355 41.4775 266.492 40.9415 266.744 40.4566C271.556 31.2247 279.722 25.7899 291.244 24.1522C305.353 22.1305 323.287 25.2609 329.027 39.8262C330.273 42.9711 330.874 48.3696 330.831 56.0218C330.729 77.1377 330.7 90.1667 330.744 95.1088C330.747 95.3989 330.692 95.6868 330.583 95.9557C330.474 96.2246 330.313 96.4692 330.109 96.6754C329.904 96.8816 329.661 97.0453 329.394 97.157C329.126 97.2687 328.838 97.3262 328.548 97.3261L311.831 97.4566C310.965 97.4566 310.119 97.2075 309.396 96.7392C308.628 96.232 308.345 94.9348 308.548 92.8479C308.567 92.697 308.54 92.5446 308.472 92.4093C308.403 92.2739 308.296 92.1615 308.162 92.0855C308.029 92.0096 307.875 91.9734 307.72 91.9814C307.565 91.9893 307.414 92.0411 307.287 92.1305ZM307.135 64.0435C301.635 65.4131 280.853 69.3696 288.679 78.2827C293.614 83.9131 302.114 79.7827 307.157 76.0001C307.448 75.7836 307.683 75.5038 307.846 75.1829C308.008 74.8621 308.092 74.5091 308.092 74.1522V64.7827C308.092 64.6658 308.066 64.5503 308.015 64.4452C307.963 64.3401 307.889 64.2483 307.796 64.1768C307.704 64.1053 307.596 64.0561 307.481 64.033C307.367 64.0099 307.248 64.0135 307.135 64.0435Z" fill="url(#paint1_linear_1567_117)"/>
<path d="M168.526 32.4565C171.244 30.3479 173.483 27.7392 176.961 26.3696C188.758 21.7319 198.932 23.9565 207.483 33.0435C207.68 33.2486 207.95 33.368 208.235 33.3761C208.519 33.3843 208.796 33.2804 209.005 33.087C227.005 16.6957 257.852 22.587 258.026 50.5435C258.113 63.616 258.113 78.6087 258.026 95.5218C258.026 96.0234 257.825 96.5044 257.466 96.8591C257.107 97.2138 256.621 97.4131 256.113 97.4131H237.679C237.328 97.4131 236.982 97.3438 236.659 97.2091C236.335 97.0745 236.042 96.8772 235.795 96.6286C235.549 96.38 235.354 96.0851 235.222 95.7608C235.09 95.4365 235.023 95.0893 235.026 94.7392C235.128 82.8116 235.142 69.616 235.07 55.1522C235.07 53.2826 234.352 51.0073 232.918 48.3261C232.548 47.63 231.983 47.0496 231.287 46.6522C224.505 42.7392 218.65 44.2754 213.722 51.2609C213.34 51.8123 213.135 52.4646 213.135 53.1305V94.6957C213.135 95.4164 212.849 96.1076 212.339 96.6172C211.83 97.1268 211.138 97.4131 210.418 97.4131H192.287C191.98 97.413 191.676 97.3527 191.392 97.2355C191.108 97.1184 190.851 96.9467 190.635 96.7304C190.418 96.5141 190.248 96.2575 190.132 95.9754C190.016 95.6934 189.958 95.3914 189.961 95.087C189.99 79.3189 189.968 66.0797 189.896 55.3696C189.809 42.5218 173.526 41.1305 168.07 51.8696C167.755 52.4841 167.591 53.1622 167.592 53.8478V95C167.592 95.3226 167.528 95.6421 167.405 95.9401C167.281 96.2381 167.1 96.5089 166.872 96.7371C166.644 96.9652 166.373 97.1461 166.075 97.2695C165.777 97.393 165.458 97.4566 165.135 97.4566H146.918C146.307 97.4566 145.72 97.2115 145.288 96.7752C144.856 96.339 144.613 95.7474 144.613 95.1305V27.7392C144.613 27.2145 144.819 26.7113 145.186 26.3403C145.553 25.9693 146.051 25.7609 146.57 25.7609H166.178C166.547 25.7609 166.901 25.9052 167.162 26.162C167.423 26.4189 167.57 26.7672 167.57 27.1305V31.9783C167.573 32.091 167.607 32.2013 167.667 32.2967C167.727 32.3922 167.812 32.469 167.911 32.5187C168.01 32.5684 168.12 32.5888 168.229 32.5779C168.338 32.5669 168.441 32.5249 168.526 32.4565Z" fill="url(#paint2_linear_1567_117)"/>
<path d="M429.026 68.2826C430.548 73.3695 432.324 76.5217 434.353 77.7391C443.874 83.5072 452.555 82.3913 460.396 74.3913C460.818 73.9618 461.37 73.6839 461.964 73.6012C462.558 73.5186 463.161 73.6359 463.679 73.9348L475.526 80.7826C475.83 80.9588 476.091 81.1984 476.293 81.485C476.495 81.7716 476.633 82.0984 476.697 82.4431C476.761 82.7878 476.749 83.1423 476.664 83.4823C476.578 83.8223 476.42 84.1398 476.2 84.413C472.331 89.1811 469.186 92.1884 466.766 93.4348C454.36 99.8695 441.555 100.645 428.353 95.7608C407.679 88.1522 401.331 64.1521 409.244 45.0652C421.287 15.9348 466.961 16.3261 476.07 47.8261C477.737 53.5942 478.497 59.0869 478.353 64.3043C478.336 64.9848 478.053 65.6317 477.566 66.1069C477.078 66.5821 476.425 66.848 475.744 66.8478H430.113C429.937 66.848 429.762 66.8889 429.604 66.9671C429.446 67.0453 429.309 67.1588 429.203 67.2983C429.097 67.4378 429.026 67.5995 428.996 67.7705C428.965 67.9414 428.976 68.1168 429.026 68.2826ZM429.874 53.2391L454.57 53.1521C454.616 53.1521 454.661 53.1432 454.703 53.1257C454.745 53.1082 454.784 53.0826 454.816 53.0503C454.848 53.018 454.874 52.9796 454.891 52.9374C454.909 52.8952 454.918 52.85 454.918 52.8043V52.5869C454.912 51.0908 454.593 49.6104 453.978 48.2304C453.364 46.8504 452.465 45.5977 451.335 44.5439C450.205 43.4902 448.864 42.6559 447.39 42.0889C445.916 41.5218 444.337 41.2331 442.744 41.2391H441.613C438.397 41.2512 435.316 42.4627 433.05 44.6071C430.783 46.7515 429.516 49.6531 429.526 52.6739V52.8913C429.526 52.9835 429.563 53.072 429.628 53.1372C429.694 53.2025 429.782 53.2391 429.874 53.2391Z" fill="url(#paint3_linear_1567_117)"/>
<path d="M55.8533 33.631L39.7479 25.4956C38.5048 24.8676 36.988 25.3663 36.3601 26.6094L6.34731 86.0246C5.71937 87.2677 6.21806 88.7845 7.46119 89.4125L23.5665 97.5479C24.8097 98.1758 26.3265 97.6771 26.9544 96.434L56.9672 37.0188C57.5951 35.7757 57.0964 34.2589 55.8533 33.631Z" fill="url(#paint4_linear_1567_117)"/>
<path d="M76.2878 71.7392C73.5632 61.232 67.7516 51.0001 58.853 41.0436L61.7009 26.6305C61.8165 26.0586 62.1529 25.5552 62.6372 25.2297C63.1214 24.9041 63.7145 24.7826 64.2878 24.8914L82.44 28.4349C83.012 28.5505 83.5153 28.8869 83.8408 29.3712C84.1664 29.8554 84.2879 30.4485 84.1791 31.0218L76.2878 71.7392Z" fill="url(#paint5_linear_1567_117)"/>
<path d="M107.74 25.7767L89.6101 25.7451C88.2894 25.7428 87.2169 26.8115 87.2146 28.1322L87.0985 94.6538C87.0962 95.9745 88.1649 97.047 89.4856 97.0493L107.616 97.081C108.937 97.0833 110.009 96.0145 110.011 94.6938L110.128 28.1722C110.13 26.8515 109.061 25.779 107.74 25.7767Z" fill="url(#paint6_linear_1567_117)"/>
<path d="M58.8523 41.0435C67.7509 51 73.5625 61.2319 76.2871 71.7391L71.5045 96.1304C71.3836 96.7315 71.0304 97.2605 70.5215 97.6025C70.0126 97.9444 69.3893 98.0717 68.7871 97.9565L50.8523 94.4565C50.5237 94.3916 50.211 94.2624 49.9325 94.0763C49.6539 93.8902 49.4148 93.6509 49.2289 93.3721C49.0431 93.0933 48.9142 92.7806 48.8495 92.4519C48.7849 92.1231 48.7859 91.7849 48.8523 91.4565L58.8523 41.0435Z" fill="url(#paint7_linear_1567_117)"/>
<defs>
<linearGradient id="paint0_linear_1567_117" x1="374.75" y1="2.02185" x2="374.75" y2="97.4349" gradientUnits="userSpaceOnUse">
<stop/>
<stop offset="1" stop-color="#666666"/>
</linearGradient>
<linearGradient id="paint1_linear_1567_117" x1="297.585" y1="23.5978" x2="297.585" y2="98.7938" gradientUnits="userSpaceOnUse">
<stop/>
<stop offset="1" stop-color="#666666"/>
</linearGradient>
<linearGradient id="paint2_linear_1567_117" x1="201.352" y1="24.0189" x2="201.352" y2="97.4566" gradientUnits="userSpaceOnUse">
<stop/>
<stop offset="1" stop-color="#666666"/>
</linearGradient>
<linearGradient id="paint3_linear_1567_117" x1="442.161" y1="23.6938" x2="442.161" y2="98.922" gradientUnits="userSpaceOnUse">
<stop/>
<stop offset="1" stop-color="#666666"/>
</linearGradient>
<linearGradient id="paint4_linear_1567_117" x1="47.8006" y1="29.5633" x2="15.5139" y2="93.4802" gradientUnits="userSpaceOnUse">
<stop/>
<stop offset="1" stop-color="#666666"/>
</linearGradient>
<linearGradient id="paint5_linear_1567_117" x1="71.5355" y1="24.8525" x2="71.5355" y2="71.7392" gradientUnits="userSpaceOnUse">
<stop/>
<stop offset="1" stop-color="#666666"/>
</linearGradient>
<linearGradient id="paint6_linear_1567_117" x1="98.6753" y1="25.7609" x2="98.5508" y2="97.0651" gradientUnits="userSpaceOnUse">
<stop/>
<stop offset="1" stop-color="#666666"/>
</linearGradient>
<linearGradient id="paint7_linear_1567_117" x1="62.5444" y1="41.0435" x2="62.5444" y2="97.9979" gradientUnits="userSpaceOnUse">
<stop/>
<stop offset="1" stop-color="#666666"/>
</linearGradient>
</defs>
</svg>
