<svg width="373" height="104" viewBox="0 0 373 104" fill="none" xmlns="http://www.w3.org/2000/svg">
<path d="M132.501 87.7764C134.014 92.3098 136.552 95.8353 140.112 98.3529C156.089 109.647 177.054 93.7647 170.477 75.1764C166.348 63.5059 152.524 58.4941 141.759 64.6353C137.383 67.1294 134.269 71.0235 132.418 76.3176C132.355 76.5006 132.242 76.6618 132.092 76.7826C131.942 76.9034 131.762 76.9788 131.571 77C124.23 77.847 120.136 73.4588 119.054 66.5529C118.112 60.5059 116.983 57.1059 112.759 52.4588C112.63 52.3185 112.557 52.1356 112.555 51.9462C112.553 51.7569 112.622 51.5746 112.748 51.4353C117.277 46.3412 118.242 42.6706 119.183 36.9059C120.159 30.9529 122.959 27.1294 129.477 26.9529C135.65 26.7725 143.038 26.749 151.642 26.8823C151.861 26.8856 152.073 26.9583 152.246 27.0896C152.42 27.2209 152.546 27.4039 152.607 27.6117C154.567 34.051 158.779 38.4392 165.242 40.7764C177.265 45.1294 190.889 36.5647 191.642 23.3176C192.995 -0.788257 159.548 -6.44708 152.43 16.5059C152.388 16.6321 152.308 16.742 152.2 16.8201C152.093 16.8982 151.963 16.9405 151.83 16.9412C145.007 16.9176 139.763 16.8627 136.101 16.7765C124.395 16.5059 116.159 18.3176 111.065 28.6353C109.418 31.9764 109.371 37.0823 108.242 40.2C105.607 47.4941 99.6065 47 91.9595 46.9412C91.7358 46.9373 91.5164 46.8771 91.3212 46.7661C91.126 46.6552 90.9612 46.497 90.8418 46.3059C90.5124 45.7725 90.1281 44.9019 89.6889 43.6941C87.3242 37.247 79.9712 32.4235 72.6065 32.0588C63.5712 31.6117 55.0889 37.0117 52.2536 46.1412C52.1811 46.3702 52.0381 46.5702 51.8456 46.712C51.653 46.8537 51.4209 46.9299 51.183 46.9294L41.5477 46.9412C41.3358 46.9405 41.1293 46.8718 40.958 46.7449C40.7867 46.618 40.6595 46.4396 40.5948 46.2353C35.5595 30.8588 15.9595 26.7294 5.71242 39.5059C-6.35817 54.5294 8.14771 76.1764 26.4536 71.2941C33.3477 69.451 38.1007 64.8549 40.7124 57.5059C40.7738 57.327 40.8896 57.1719 41.0437 57.0621C41.1977 56.9524 41.3821 56.8937 41.5712 56.8941H51.0183C51.2813 56.8947 51.5381 56.9761 51.7546 57.1274C51.9711 57.2787 52.1369 57.4928 52.2301 57.7412C55.3281 65.7961 60.6811 70.4196 68.2889 71.6117C78.6065 73.2235 87.4183 67.4706 90.7477 57.6C90.8061 57.419 90.9179 57.2596 91.0689 57.1422C91.2198 57.0248 91.4029 56.9548 91.5948 56.9412C93.2967 56.8235 95.8105 56.8431 99.136 57C110.654 57.5529 107.901 69.0588 111.454 75.9294C114.795 82.3882 121.136 86.8588 128.689 86.8941C129.944 86.8941 130.869 86.9176 131.465 86.9647C131.698 86.9814 131.92 87.0675 132.105 87.212C132.289 87.3566 132.427 87.553 132.501 87.7764Z" stroke="url(#paint0_linear_1567_2)" stroke-width="2.35294"/>
<path d="M302.018 72.7764C310.606 72.7999 320.065 69.1176 320.748 59.1529C321.179 52.8784 318.442 48.2901 312.536 45.3882C312.459 45.3488 312.393 45.2894 312.347 45.2161C312.301 45.1428 312.275 45.0583 312.272 44.9716C312.27 44.8849 312.291 44.7992 312.333 44.7234C312.375 44.6476 312.437 44.5847 312.512 44.5411C317.579 41.5686 319.712 37.3882 318.912 31.9999C317.665 23.5646 309.736 20.3176 302.101 20.3058C294.465 20.2941 286.536 23.5176 285.254 31.9529C284.438 37.3333 286.559 41.5176 291.618 44.5058C291.693 44.5494 291.755 44.6123 291.797 44.6881C291.84 44.7639 291.861 44.8496 291.858 44.9363C291.856 45.023 291.83 45.1075 291.784 45.1808C291.737 45.2541 291.672 45.3135 291.595 45.3529C285.681 48.2391 282.928 52.8195 283.336 59.094C283.983 69.0588 293.442 72.7646 302.018 72.7764Z" stroke="url(#paint1_linear_1567_2)" stroke-width="2.35294"/>
<path d="M270.607 71.8236C270.678 71.8236 270.747 71.7951 270.798 71.7443C270.849 71.6936 270.877 71.6248 270.877 71.553C271.105 60.2432 271.062 51.5569 270.748 45.4942C270.477 40.3059 267.677 35.0353 262.418 32.8236C255.313 29.851 249.054 31.1608 243.642 36.753C243.56 36.8393 243.454 36.8994 243.338 36.9255C243.222 36.9517 243.101 36.9427 242.99 36.8999C242.879 36.857 242.784 36.7821 242.715 36.6848C242.647 36.5874 242.609 36.4719 242.607 36.353V33.3412C242.605 33.2006 242.576 33.0617 242.522 32.9324C242.467 32.8031 242.388 32.6859 242.288 32.5876C242.189 32.4893 242.071 32.4117 241.942 32.3594C241.813 32.307 241.675 32.2808 241.536 32.2824L233.771 32.2942C233.662 32.2941 233.554 32.3161 233.453 32.3588C233.353 32.4015 233.261 32.4641 233.185 32.5429C233.108 32.6218 233.048 32.7152 233.007 32.8179C232.966 32.9207 232.946 33.0305 232.948 33.1412L233.054 71.5295C233.054 71.6262 233.091 71.7189 233.157 71.7873C233.223 71.8557 233.313 71.8942 233.407 71.8942L242.713 71.8706C242.794 71.8706 242.871 71.8384 242.929 71.7811C242.986 71.7237 243.018 71.6459 243.018 71.5648C243.026 63.5334 243.018 56.7177 242.995 51.1177C242.96 44.2589 246.83 39.2353 253.936 40.2942C257.105 40.7726 259.352 42.9687 260.677 46.8824C260.802 47.2487 260.865 47.6342 260.865 48.0236L260.936 71.5648C260.936 71.6396 260.966 71.7115 261.019 71.7644C261.072 71.8174 261.144 71.8471 261.218 71.8471L270.607 71.8236Z" stroke="url(#paint2_linear_1567_2)" stroke-width="2.35294"/>
<path d="M370.736 71.8705C370.772 71.8705 370.807 71.8635 370.84 71.8499C370.873 71.8363 370.903 71.8164 370.928 71.7913C370.953 71.7662 370.973 71.7363 370.986 71.7035C371 71.6707 371.007 71.6355 371.007 71.6C371.266 60.298 371.246 51.6196 370.948 45.5647C370.689 40.3764 367.901 35.0941 362.654 32.8705C355.564 29.8823 349.305 31.1764 343.878 36.7529C343.794 36.8379 343.686 36.8965 343.569 36.9211C343.451 36.9457 343.33 36.9352 343.22 36.8908C343.109 36.8465 343.016 36.7704 342.951 36.6725C342.885 36.5745 342.852 36.4591 342.854 36.3411V33.3411C342.854 33.2005 342.827 33.0613 342.774 32.9314C342.72 32.8015 342.642 32.6835 342.544 32.5841C342.446 32.4847 342.329 32.4058 342.2 32.352C342.072 32.2982 341.934 32.2705 341.795 32.2705H334.031C333.812 32.2705 333.603 32.3585 333.448 32.5152C333.294 32.6718 333.207 32.8843 333.207 33.1058V71.4705C333.207 71.5673 333.244 71.66 333.31 71.7284C333.377 71.7968 333.466 71.8352 333.56 71.8352H342.854C342.894 71.8352 342.934 71.8273 342.971 71.812C343.008 71.7966 343.042 71.7741 343.07 71.7456C343.099 71.7172 343.121 71.6835 343.137 71.6464C343.152 71.6093 343.16 71.5695 343.16 71.5294C343.191 63.5058 343.203 56.698 343.195 51.1058C343.183 44.247 347.066 39.2352 354.16 40.3176C357.329 40.8039 359.568 43.0039 360.878 46.9176C361.002 47.2839 361.066 47.6694 361.066 48.0588V71.5882C361.066 71.6631 361.096 71.7349 361.149 71.7878C361.202 71.8408 361.273 71.8705 361.348 71.8705H370.736Z" stroke="url(#paint3_linear_1567_2)" stroke-width="2.35294"/>
<path d="M181.76 21.8706C181.76 19.209 180.703 16.6565 178.821 14.7745C176.939 12.8926 174.386 11.8353 171.725 11.8353C169.063 11.8353 166.511 12.8926 164.629 14.7745C162.747 16.6565 161.689 19.209 161.689 21.8706C161.689 24.5321 162.747 27.0846 164.629 28.9666C166.511 30.8486 169.063 31.9059 171.725 31.9059C174.386 31.9059 176.939 30.8486 178.821 28.9666C180.703 27.0846 181.76 24.5321 181.76 21.8706Z" stroke="url(#paint4_linear_1567_2)" stroke-width="2.35294"/>
<path d="M31.4065 51.9295C31.4065 49.2679 30.3492 46.7154 28.4673 44.8334C26.5853 42.9515 24.0328 41.8942 21.3712 41.8942C18.7097 41.8942 16.1572 42.9515 14.2752 44.8334C12.3932 46.7154 11.3359 49.2679 11.3359 51.9295C11.3359 54.591 12.3932 57.1435 14.2752 59.0255C16.1572 60.9075 18.7097 61.9648 21.3712 61.9648C24.0328 61.9648 26.5853 60.9075 28.4673 59.0255C30.3492 57.1435 31.4065 54.591 31.4065 51.9295Z" stroke="url(#paint5_linear_1567_2)" stroke-width="2.35294"/>
<path d="M81.5364 51.9295C81.5364 49.2679 80.4791 46.7154 78.5971 44.8334C76.7152 42.9515 74.1626 41.8942 71.5011 41.8942C68.8396 41.8942 66.2871 42.9515 64.4051 44.8334C62.5231 46.7154 61.4658 49.2679 61.4658 51.9295C61.4658 54.591 62.5231 57.1435 64.4051 59.0255C66.2871 60.9075 68.8396 61.9648 71.5011 61.9648C74.1626 61.9648 76.7152 60.9075 78.5971 59.0255C80.4791 57.1435 81.5364 54.591 81.5364 51.9295Z" stroke="url(#paint6_linear_1567_2)" stroke-width="2.35294"/>
<path d="M161.713 82.0118C161.713 79.3534 160.657 76.8039 158.777 74.9241C156.897 73.0443 154.347 71.9883 151.689 71.9883C149.031 71.9883 146.481 73.0443 144.601 74.9241C142.722 76.8039 141.666 79.3534 141.666 82.0118C141.666 84.6702 142.722 87.2197 144.601 89.0995C146.481 90.9793 149.031 92.0353 151.689 92.0353C154.347 92.0353 156.897 90.9793 158.777 89.0995C160.657 87.2197 161.713 84.6702 161.713 82.0118Z" stroke="url(#paint7_linear_1567_2)" stroke-width="2.35294"/>
<path d="M294.885 33.6536C294.8 34.5613 294.902 35.4772 295.184 36.3491C295.466 37.221 295.923 38.0318 296.528 38.7353C297.133 39.4388 297.875 40.021 298.711 40.4489C299.547 40.8768 300.461 41.142 301.401 41.2291C302.341 41.3164 303.288 41.2239 304.189 40.9571C305.089 40.6904 305.926 40.2545 306.65 39.6743C307.374 39.0942 307.972 38.3812 308.41 37.576C308.847 36.7708 309.116 35.8893 309.2 34.9816C309.284 34.074 309.182 33.1581 308.9 32.2861C308.618 31.4142 308.162 30.6034 307.557 29.8999C306.952 29.1965 306.21 28.6142 305.374 28.1863C304.537 27.7584 303.623 27.4933 302.683 27.4061C301.743 27.3189 300.796 27.4113 299.895 27.6781C298.995 27.9449 298.159 28.3808 297.434 28.9609C296.71 29.541 296.112 30.2541 295.675 31.0592C295.237 31.8644 294.969 32.746 294.885 33.6536Z" stroke="url(#paint8_linear_1567_2)" stroke-width="2.35294"/>
<path d="M293.704 56.3747C293.602 57.4343 293.716 58.5043 294.04 59.5235C294.364 60.5427 294.892 61.4912 295.593 62.3149C296.294 63.1386 297.155 63.8213 298.126 64.3241C299.097 64.8269 300.16 65.1398 301.253 65.2451C302.346 65.3504 303.449 65.2459 304.498 64.9377C305.548 64.6295 306.523 64.1236 307.368 63.4488C308.213 62.774 308.912 61.9436 309.425 61.005C309.938 60.0663 310.254 59.0378 310.356 57.9783C310.458 56.9187 310.344 55.8487 310.02 54.8295C309.695 53.8103 309.168 52.8618 308.467 52.0381C307.766 51.2144 306.905 50.5317 305.934 50.0289C304.963 49.5261 303.9 49.2132 302.807 49.1079C301.713 49.0026 300.611 49.1071 299.561 49.4153C298.512 49.7235 297.537 50.2294 296.692 50.9042C295.846 51.579 295.147 52.4094 294.635 53.348C294.122 54.2867 293.806 55.3152 293.704 56.3747Z" stroke="url(#paint9_linear_1567_2)" stroke-width="2.35294"/>
<path d="M131.465 86.9647C130.869 86.9176 129.944 86.8941 128.689 86.8941C121.136 86.8588 114.795 82.3882 111.454 75.9294C107.901 69.0588 110.654 57.5529 99.136 57C95.8105 56.8431 93.2967 56.8235 91.5948 56.9412C91.4029 56.9548 91.2198 57.0248 91.0689 57.1422C90.9179 57.2596 90.8061 57.419 90.7477 57.6C87.4183 67.4706 78.6065 73.2235 68.2889 71.6117C60.6811 70.4196 55.3281 65.7961 52.2301 57.7412C52.1369 57.4928 51.9711 57.2787 51.7546 57.1274C51.5381 56.9761 51.2813 56.8947 51.0183 56.8941H41.5712C41.3821 56.8937 41.1977 56.9524 41.0437 57.0621C40.8896 57.1719 40.7738 57.327 40.7124 57.5059C38.1007 64.8549 33.3477 69.451 26.4536 71.2941C8.14771 76.1764 -6.35817 54.5294 5.71242 39.5059C15.9595 26.7294 35.5595 30.8588 40.5948 46.2353C40.6595 46.4396 40.7867 46.618 40.958 46.7449C41.1293 46.8718 41.3358 46.9405 41.5477 46.9412L51.183 46.9294C51.4209 46.9299 51.653 46.8537 51.8456 46.712C52.0381 46.5702 52.1811 46.3702 52.2536 46.1412C55.0889 37.0117 63.5712 31.6117 72.6065 32.0588C79.9712 32.4235 87.3242 37.247 89.6889 43.6941C90.1281 44.9019 90.5124 45.7725 90.8418 46.3059C90.9612 46.497 91.126 46.6552 91.3212 46.7661C91.5164 46.8771 91.7358 46.9373 91.9595 46.9412C99.6065 47 105.607 47.4941 108.242 40.2C109.371 37.0823 109.418 31.9764 111.065 28.6353C116.159 18.3176 124.395 16.5059 136.101 16.7765C139.763 16.8627 145.007 16.9176 151.83 16.9412C151.963 16.9405 152.093 16.8982 152.2 16.8201C152.308 16.742 152.388 16.6321 152.43 16.5059C159.548 -6.44708 192.995 -0.788257 191.642 23.3176C190.889 36.5647 177.265 45.1294 165.242 40.7764C158.779 38.4392 154.567 34.051 152.607 27.6117C152.546 27.4039 152.42 27.2209 152.246 27.0896C152.073 26.9583 151.861 26.8856 151.642 26.8823C143.038 26.749 135.65 26.7725 129.477 26.9529C122.959 27.1294 120.159 30.9529 119.183 36.9059C118.242 42.6706 117.277 46.3412 112.748 51.4353C112.622 51.5746 112.553 51.7569 112.555 51.9462C112.557 52.1356 112.63 52.3185 112.759 52.4588C116.983 57.1059 118.112 60.5059 119.054 66.5529C120.136 73.4588 124.23 77.847 131.571 77C131.762 76.9788 131.942 76.9034 132.092 76.7826C132.242 76.6618 132.355 76.5006 132.418 76.3176C134.269 71.0235 137.383 67.1294 141.759 64.6353C152.524 58.4941 166.348 63.5059 170.477 75.1764C177.054 93.7647 156.089 109.647 140.112 98.3529C136.552 95.8353 134.014 92.3098 132.501 87.7764C132.427 87.553 132.289 87.3566 132.105 87.212C131.92 87.0675 131.698 86.9814 131.465 86.9647ZM181.759 21.8706C181.759 19.209 180.702 16.6565 178.82 14.7745C176.938 12.8926 174.386 11.8353 171.724 11.8353C169.063 11.8353 166.51 12.8926 164.628 14.7745C162.746 16.6565 161.689 19.209 161.689 21.8706C161.689 24.5321 162.746 27.0846 164.628 28.9666C166.51 30.8486 169.063 31.9059 171.724 31.9059C174.386 31.9059 176.938 30.8486 178.82 28.9666C180.702 27.0846 181.759 24.5321 181.759 21.8706ZM31.4065 51.9294C31.4065 49.2679 30.3493 46.7153 28.4673 44.8334C26.5853 42.9514 24.0328 41.8941 21.3712 41.8941C18.7097 41.8941 16.1572 42.9514 14.2752 44.8334C12.3932 46.7153 11.3359 49.2679 11.3359 51.9294C11.3359 54.5909 12.3932 57.1434 14.2752 59.0254C16.1572 60.9074 18.7097 61.9647 21.3712 61.9647C24.0328 61.9647 26.5853 60.9074 28.4673 59.0254C30.3493 57.1434 31.4065 54.5909 31.4065 51.9294ZM81.5359 51.9294C81.5359 49.2679 80.4787 46.7153 78.5967 44.8334C76.7147 42.9514 74.1622 41.8941 71.5007 41.8941C68.8391 41.8941 66.2866 42.9514 64.4046 44.8334C62.5227 46.7153 61.4654 49.2679 61.4654 51.9294C61.4654 54.5909 62.5227 57.1434 64.4046 59.0254C66.2866 60.9074 68.8391 61.9647 71.5007 61.9647C74.1622 61.9647 76.7147 60.9074 78.5967 59.0254C80.4787 57.1434 81.5359 54.5909 81.5359 51.9294ZM161.712 82.0117C161.712 79.3533 160.656 76.8038 158.777 74.924C156.897 73.0443 154.347 71.9882 151.689 71.9882C149.03 71.9882 146.481 73.0443 144.601 74.924C142.721 76.8038 141.665 79.3533 141.665 82.0117C141.665 84.6701 142.721 87.2197 144.601 89.0994C146.481 90.9792 149.03 92.0353 151.689 92.0353C154.347 92.0353 156.897 90.9792 158.777 89.0994C160.656 87.2197 161.712 84.6701 161.712 82.0117Z" fill="url(#paint10_linear_1567_2)"/>
<path d="M302.101 20.3058C309.736 20.3176 317.666 23.5646 318.913 31.9999C319.713 37.3882 317.58 41.5686 312.513 44.5411C312.438 44.5847 312.376 44.6476 312.334 44.7234C312.291 44.7992 312.27 44.8849 312.273 44.9716C312.275 45.0583 312.301 45.1428 312.347 45.2161C312.394 45.2894 312.459 45.3488 312.536 45.3882C318.442 48.2901 321.18 52.8784 320.748 59.1529C320.066 69.1176 310.607 72.7999 302.019 72.7764C293.442 72.7646 283.983 69.0588 283.336 59.094C282.929 52.8195 285.681 48.2391 291.595 45.3529C291.673 45.3135 291.738 45.2541 291.784 45.1808C291.831 45.1075 291.856 45.023 291.859 44.9363C291.861 44.8496 291.84 44.7639 291.798 44.6881C291.756 44.6123 291.694 44.5494 291.619 44.5058C286.56 41.5176 284.438 37.3333 285.254 31.9529C286.536 23.5176 294.466 20.2941 302.101 20.3058ZM294.885 33.6536C294.8 34.5612 294.902 35.4771 295.184 36.3491C295.466 37.221 295.923 38.0318 296.528 38.7353C297.133 39.4387 297.875 40.021 298.711 40.4489C299.547 40.8768 300.461 41.1419 301.401 41.2291C302.341 41.3163 303.288 41.2239 304.189 40.9571C305.09 40.6903 305.926 40.2544 306.65 39.6743C307.374 39.0942 307.972 38.3811 308.41 37.576C308.847 36.7708 309.116 35.8892 309.2 34.9816C309.284 34.0739 309.182 33.158 308.9 32.2861C308.618 31.4142 308.162 30.6034 307.557 29.8999C306.952 29.1964 306.21 28.6142 305.374 28.1863C304.538 27.7584 303.623 27.4932 302.683 27.4061C301.743 27.3189 300.796 27.4113 299.896 27.6781C298.995 27.9448 298.159 28.3807 297.434 28.9609C296.71 29.541 296.112 30.254 295.675 31.0592C295.237 31.8644 294.969 32.7459 294.885 33.6536ZM293.704 56.3746C293.602 57.4342 293.717 58.5042 294.041 59.5234C294.365 60.5426 294.893 61.4911 295.594 62.3148C296.295 63.1385 297.155 63.8212 298.126 64.324C299.097 64.8268 300.16 65.1397 301.254 65.245C302.347 65.3503 303.45 65.2458 304.499 64.9376C305.548 64.6294 306.523 64.1235 307.369 63.4487C308.214 62.7739 308.913 61.9435 309.426 61.0049C309.938 60.0662 310.255 59.0377 310.357 57.9782C310.459 56.9186 310.344 55.8486 310.02 54.8294C309.696 53.8102 309.168 52.8617 308.467 52.038C307.766 51.2143 306.906 50.5316 305.935 50.0288C304.963 49.526 303.901 49.2131 302.807 49.1078C301.714 49.0025 300.611 49.107 299.562 49.4152C298.513 49.7234 297.538 50.2293 296.692 50.9041C295.847 51.5789 295.148 52.4093 294.635 53.3479C294.123 54.2866 293.806 55.3151 293.704 56.3746Z" fill="url(#paint11_linear_1567_2)"/>
<path d="M270.607 71.8236L261.218 71.8471C261.144 71.8471 261.072 71.8174 261.019 71.7644C260.966 71.7115 260.936 71.6396 260.936 71.5648L260.865 48.0236C260.865 47.6342 260.802 47.2487 260.677 46.8824C259.352 42.9687 257.105 40.7726 253.936 40.2942C246.83 39.2353 242.96 44.2589 242.995 51.1177C243.018 56.7177 243.026 63.5334 243.018 71.5648C243.018 71.6459 242.986 71.7237 242.929 71.7811C242.871 71.8384 242.794 71.8706 242.713 71.8706L233.407 71.8942C233.313 71.8942 233.223 71.8557 233.157 71.7873C233.091 71.7189 233.054 71.6262 233.054 71.5295L232.948 33.1412C232.946 33.0305 232.966 32.9207 233.007 32.8179C233.048 32.7152 233.108 32.6218 233.185 32.5429C233.261 32.4641 233.353 32.4015 233.453 32.3588C233.554 32.3161 233.662 32.2941 233.771 32.2942L241.536 32.2824C241.675 32.2808 241.813 32.307 241.942 32.3594C242.071 32.4117 242.189 32.4893 242.288 32.5876C242.388 32.6859 242.467 32.8031 242.522 32.9324C242.576 33.0617 242.605 33.2006 242.607 33.3412V36.353C242.609 36.4719 242.647 36.5874 242.715 36.6848C242.784 36.7821 242.879 36.857 242.99 36.8999C243.101 36.9427 243.222 36.9517 243.338 36.9255C243.454 36.8994 243.56 36.8393 243.642 36.753C249.054 31.1608 255.313 29.851 262.418 32.8236C267.677 35.0353 270.477 40.3059 270.748 45.4942C271.062 51.5569 271.105 60.2432 270.877 71.553C270.877 71.6248 270.849 71.6936 270.798 71.7443C270.747 71.7951 270.678 71.8236 270.607 71.8236Z" fill="url(#paint12_linear_1567_2)"/>
<path d="M370.736 71.8705H361.348C361.273 71.8705 361.202 71.8408 361.149 71.7878C361.096 71.7349 361.066 71.6631 361.066 71.5882V48.0588C361.066 47.6694 361.002 47.2839 360.878 46.9176C359.568 43.0039 357.329 40.8039 354.16 40.3176C347.066 39.2352 343.183 44.247 343.195 51.1058C343.203 56.698 343.191 63.5058 343.16 71.5294C343.16 71.5695 343.152 71.6093 343.137 71.6464C343.121 71.6835 343.099 71.7172 343.07 71.7456C343.042 71.7741 343.008 71.7966 342.971 71.812C342.934 71.8273 342.894 71.8352 342.854 71.8352H333.56C333.466 71.8352 333.377 71.7968 333.31 71.7284C333.244 71.66 333.207 71.5673 333.207 71.4705V33.1058C333.207 32.8843 333.294 32.6718 333.448 32.5152C333.603 32.3585 333.812 32.2705 334.031 32.2705H341.795C341.934 32.2705 342.072 32.2982 342.2 32.352C342.329 32.4058 342.446 32.4847 342.544 32.5841C342.642 32.6835 342.72 32.8015 342.774 32.9314C342.827 33.0613 342.854 33.2005 342.854 33.3411V36.3411C342.852 36.4591 342.885 36.5745 342.951 36.6725C343.016 36.7704 343.109 36.8465 343.22 36.8908C343.33 36.9352 343.451 36.9457 343.569 36.9211C343.686 36.8965 343.794 36.8379 343.878 36.7529C349.305 31.1764 355.564 29.8823 362.654 32.8705C367.901 35.0941 370.689 40.3764 370.948 45.5647C371.246 51.6196 371.266 60.298 371.007 71.6C371.007 71.6355 371 71.6707 370.986 71.7035C370.973 71.7363 370.953 71.7662 370.928 71.7913C370.903 71.8164 370.873 71.8363 370.84 71.8499C370.807 71.8635 370.772 71.8705 370.736 71.8705Z" fill="url(#paint13_linear_1567_2)"/>
<defs>
<linearGradient id="paint0_linear_1567_2" x1="96.4835" y1="1.95776" x2="96.4835" y2="102.131" gradientUnits="userSpaceOnUse">
<stop/>
<stop offset="1" stop-color="#666666"/>
</linearGradient>
<linearGradient id="paint1_linear_1567_2" x1="302.044" y1="20.3058" x2="302.044" y2="72.7765" gradientUnits="userSpaceOnUse">
<stop/>
<stop offset="1" stop-color="#666666"/>
</linearGradient>
<linearGradient id="paint2_linear_1567_2" x1="251.984" y1="31.2761" x2="251.984" y2="71.8942" gradientUnits="userSpaceOnUse">
<stop/>
<stop offset="1" stop-color="#666666"/>
</linearGradient>
<linearGradient id="paint3_linear_1567_2" x1="352.197" y1="31.3066" x2="352.197" y2="71.8705" gradientUnits="userSpaceOnUse">
<stop/>
<stop offset="1" stop-color="#666666"/>
</linearGradient>
<linearGradient id="paint4_linear_1567_2" x1="171.725" y1="11.8353" x2="171.725" y2="31.9059" gradientUnits="userSpaceOnUse">
<stop/>
<stop offset="1" stop-color="#666666"/>
</linearGradient>
<linearGradient id="paint5_linear_1567_2" x1="21.3712" y1="41.8942" x2="21.3712" y2="61.9648" gradientUnits="userSpaceOnUse">
<stop/>
<stop offset="1" stop-color="#666666"/>
</linearGradient>
<linearGradient id="paint6_linear_1567_2" x1="71.5011" y1="41.8942" x2="71.5011" y2="61.9648" gradientUnits="userSpaceOnUse">
<stop/>
<stop offset="1" stop-color="#666666"/>
</linearGradient>
<linearGradient id="paint7_linear_1567_2" x1="151.689" y1="71.9883" x2="151.689" y2="92.0353" gradientUnits="userSpaceOnUse">
<stop/>
<stop offset="1" stop-color="#666666"/>
</linearGradient>
<linearGradient id="paint8_linear_1567_2" x1="302.042" y1="27.3743" x2="302.042" y2="41.261" gradientUnits="userSpaceOnUse">
<stop/>
<stop offset="1" stop-color="#666666"/>
</linearGradient>
<linearGradient id="paint9_linear_1567_2" x1="302.03" y1="49.0682" x2="302.03" y2="65.2848" gradientUnits="userSpaceOnUse">
<stop/>
<stop offset="1" stop-color="#666666"/>
</linearGradient>
<linearGradient id="paint10_linear_1567_2" x1="96.4835" y1="1.95776" x2="96.4835" y2="102.131" gradientUnits="userSpaceOnUse">
<stop/>
<stop offset="1" stop-color="#666666"/>
</linearGradient>
<linearGradient id="paint11_linear_1567_2" x1="302.045" y1="20.3058" x2="302.045" y2="72.7765" gradientUnits="userSpaceOnUse">
<stop/>
<stop offset="1" stop-color="#666666"/>
</linearGradient>
<linearGradient id="paint12_linear_1567_2" x1="251.984" y1="31.2761" x2="251.984" y2="71.8942" gradientUnits="userSpaceOnUse">
<stop/>
<stop offset="1" stop-color="#666666"/>
</linearGradient>
<linearGradient id="paint13_linear_1567_2" x1="352.197" y1="31.3066" x2="352.197" y2="71.8705" gradientUnits="userSpaceOnUse">
<stop/>
<stop offset="1" stop-color="#666666"/>
</linearGradient>
</defs>
</svg>
