<svg width="366" height="102" viewBox="0 0 366 102" fill="none" xmlns="http://www.w3.org/2000/svg">
<path d="M44.1548 1C33.226 2.21368 25.7559 7.89174 21.7445 18.0342C21.7048 18.1329 21.6433 18.2211 21.5648 18.2922C21.4863 18.3633 21.3928 18.4154 21.2915 18.4444C11.736 21.1966 5.5736 26.9772 2.80437 35.7863C0.197532 44.0513 2.12916 52.9402 7.77873 59.5983C7.86593 59.7016 7.9276 59.8243 7.95878 59.9564C7.98995 60.0885 7.98976 60.2264 7.95822 60.359C5.38841 71.1624 7.91263 79.9772 15.5309 86.8034C21.4226 92.0855 28.5793 94.0513 37.001 92.7009C37.1358 92.6773 37.2748 92.6876 37.4059 92.7308C37.537 92.774 37.6562 92.8488 37.7531 92.9487C42.4425 97.849 48.2203 100.533 55.0864 101" stroke="url(#paint0_linear_1567_50)" stroke-width="1.7094"/>
<path d="M47.8218 1C54.4315 1.72365 59.9471 4.45584 64.3688 9.19658C64.4186 9.24911 64.4814 9.28832 64.5515 9.3107C64.6216 9.33307 64.6969 9.33792 64.7705 9.32479C83.7107 5.67521 99.4372 23.1282 93.8816 41.547C93.8478 41.6573 93.8427 41.7742 93.8666 41.8864C93.8905 41.9987 93.9428 42.1025 94.0184 42.188C106.403 56.359 99.3944 79.3504 80.5996 83.4103C80.5074 83.4312 80.4217 83.4749 80.3501 83.5376C80.2786 83.6002 80.2233 83.6798 80.1893 83.7692C76.3374 93.963 68.8902 99.7066 57.8474 101" stroke="url(#paint1_linear_1567_50)" stroke-width="1.7094"/>
<path d="M35.6505 54.4958C35.6448 38.0684 35.622 28.9288 35.5821 27.077C35.5479 25.4929 36.1918 24.322 37.5138 23.5642C43.867 19.906 50.5138 16.0656 57.4539 12.0428C57.4892 12.0213 57.5186 11.9914 57.5394 11.9556C57.5603 11.9198 57.5721 11.8792 57.5737 11.8372C57.5754 11.7953 57.567 11.7532 57.5491 11.7146C57.5312 11.676 57.5044 11.6419 57.471 11.6154C46.4368 3.12826 30.2232 8.63253 27.3086 22.53C27.0579 23.755 26.9354 25.7807 26.9411 28.6069C26.9582 33.4046 26.9582 40.3419 26.9411 49.4189C26.9416 49.5008 26.9631 49.5809 27.0036 49.6514C27.0441 49.7219 27.1021 49.7802 27.1719 49.8206L35.4881 54.5983C35.5054 54.6073 35.5247 54.6116 35.5441 54.6108C35.5635 54.61 35.5824 54.6041 35.5988 54.5938C35.6152 54.5834 35.6287 54.5689 35.6377 54.5517C35.6468 54.5345 35.6512 54.5152 35.6505 54.4958Z" stroke="url(#paint2_linear_1567_50)" stroke-width="1.7094"/>
<path d="M40.2747 39.4616C54.5368 31.2564 62.4627 26.6752 64.0525 25.718C65.4086 24.8975 66.7448 24.8718 68.061 25.641C74.4086 29.3391 81.061 33.1938 88.0183 37.2051C88.0546 37.2263 88.0956 37.2378 88.1376 37.2388C88.1797 37.2398 88.2215 37.2301 88.2595 37.2107C88.2974 37.1913 88.3304 37.1627 88.3554 37.1275C88.3804 37.0923 88.3967 37.0514 88.4029 37.0086C90.2662 23.1966 77.3944 11.8633 63.873 16.2735C62.6878 16.6667 60.8701 17.5698 58.42 18.9829C54.2548 21.3875 48.2291 24.849 40.3431 29.3675C40.2725 29.4092 40.2141 29.4682 40.1737 29.5387C40.1332 29.6091 40.112 29.6886 40.1123 29.7693V39.3675C40.1131 39.3862 40.1185 39.4045 40.1282 39.4205C40.1379 39.4365 40.1515 39.4498 40.1677 39.4592C40.1839 39.4686 40.2022 39.4737 40.2209 39.4741C40.2396 39.4745 40.2581 39.4702 40.2747 39.4616Z" stroke="url(#paint3_linear_1567_50)" stroke-width="1.7094"/>
<path d="M46.2914 66.0257C32.0521 57.7977 24.1204 53.2393 22.4965 52.3504C21.1062 51.5812 20.4139 50.4359 20.4196 48.9145C20.4367 41.5698 20.4395 33.8861 20.4281 25.8633C20.4288 25.8213 20.4189 25.78 20.3992 25.7428C20.3795 25.7057 20.3507 25.674 20.3153 25.6504C20.2799 25.6267 20.2389 25.612 20.196 25.6074C20.1531 25.6028 20.1095 25.6085 20.0691 25.6239C7.18026 30.9316 3.82128 47.7436 14.411 57.2308C15.3455 58.0627 17.0378 59.1823 19.4879 60.5898C23.6532 62.9829 29.6646 66.4615 37.5221 71.0257C37.5932 71.0657 37.6731 71.0868 37.754 71.0868C37.835 71.0868 37.9141 71.0657 37.9837 71.0257L46.2914 66.2222C46.3093 66.2128 46.3242 66.1987 46.3347 66.1813C46.3451 66.164 46.3507 66.1442 46.3507 66.1239C46.3507 66.1037 46.3451 66.0839 46.3347 66.0665C46.3242 66.0492 46.3093 66.0351 46.2914 66.0257Z" stroke="url(#paint4_linear_1567_50)" stroke-width="1.7094"/>
<path d="M55.6765 35.9743C69.9101 44.1965 77.8389 48.7521 79.4628 49.641C80.8531 50.4045 81.5454 51.5498 81.5397 53.0769C81.5284 60.4159 81.5284 68.0968 81.5397 76.1196C81.5399 76.1619 81.5509 76.2033 81.5716 76.2402C81.5923 76.2772 81.6222 76.3084 81.6586 76.3313C81.6949 76.3541 81.7367 76.3678 81.78 76.3711C81.8234 76.3744 81.8671 76.3673 81.9073 76.3504C94.7876 71.0341 98.1295 54.2307 87.5397 44.7521C86.611 43.9259 84.9215 42.8062 82.4714 41.3931C78.3004 39.0056 72.2862 35.5327 64.4286 30.9743C64.3576 30.9342 64.2777 30.9131 64.1967 30.9131C64.1158 30.9131 64.0367 30.9342 63.9671 30.9743L55.668 35.7863C55.6525 35.797 55.64 35.8114 55.6317 35.8283C55.6233 35.8452 55.6194 35.8639 55.6202 35.8827C55.6211 35.9014 55.6267 35.9197 55.6365 35.9357C55.6464 35.9518 55.6601 35.965 55.6765 35.9743Z" stroke="url(#paint5_linear_1567_50)" stroke-width="1.7094"/>
<path d="M45.5737 41.5641C42.0409 43.6154 40.2517 44.6752 40.2062 44.7436C40.1663 44.8177 40.1492 46.8974 40.1549 50.9829C40.1606 55.0684 40.1834 57.1453 40.2233 57.2137C40.2631 57.2877 42.0523 58.3447 45.5908 60.3846C49.1349 62.4245 50.9469 63.4444 51.0267 63.4444C51.1121 63.4444 52.9213 62.4217 56.454 60.3761C59.9925 58.3305 61.7817 57.2707 61.8215 57.1966C61.8671 57.1225 61.8871 55.0427 61.8814 50.9573C61.8757 46.8718 61.8529 44.7949 61.813 44.7265C61.7731 44.6524 59.9811 43.5954 56.4369 41.5556C52.8985 39.5157 51.0893 38.4957 51.0096 38.4957C50.9241 38.4957 49.1121 39.5185 45.5737 41.5641Z" stroke="url(#paint6_linear_1567_50)" stroke-width="1.7094"/>
<path d="M66.3173 47.5042C66.3002 63.9601 66.3116 73.1168 66.3514 74.9743C66.3856 76.5584 65.7389 77.7293 64.4113 78.4872C58.0409 82.1453 51.3771 85.9857 44.4198 90.0085C44.3845 90.03 44.3552 90.0599 44.3343 90.0957C44.3135 90.1315 44.3017 90.1721 44.3 90.2141C44.2983 90.256 44.3068 90.2981 44.3247 90.3367C44.3426 90.3754 44.3693 90.4094 44.4027 90.4359C55.4455 98.9572 71.7019 93.4615 74.6335 79.5384C74.8842 78.3134 75.0096 76.2849 75.0096 73.453C74.9982 68.6438 75.0067 61.6923 75.0352 52.5983C75.0347 52.5164 75.0132 52.4362 74.9727 52.3657C74.9322 52.2952 74.8742 52.2369 74.8044 52.1966L66.4796 47.4017C66.4624 47.3927 66.4431 47.3884 66.4237 47.3892C66.4043 47.39 66.3854 47.3959 66.369 47.4063C66.3525 47.4166 66.3391 47.4312 66.33 47.4484C66.321 47.4655 66.3166 47.4848 66.3173 47.5042Z" stroke="url(#paint7_linear_1567_50)" stroke-width="1.7094"/>
<path d="M61.7702 62.4787C47.4739 70.7066 39.5308 75.302 37.9411 76.265C36.5793 77.0855 35.2374 77.1111 33.9155 76.3419C27.5508 72.6382 20.8813 68.775 13.9069 64.7522C13.8706 64.731 13.8296 64.7195 13.7876 64.7185C13.7455 64.7176 13.7037 64.7272 13.6657 64.7466C13.6278 64.766 13.5948 64.7946 13.5698 64.8298C13.5448 64.8651 13.5285 64.9059 13.5223 64.9488C11.659 78.8035 24.565 90.1624 38.1206 85.7351C39.3115 85.3419 41.1348 84.4359 43.5907 83.0171C47.7616 80.6012 53.8015 77.1282 61.7103 72.5983C61.7809 72.5567 61.8393 72.4977 61.8798 72.4272C61.9202 72.3567 61.9414 72.2772 61.9411 72.1966V62.5727C61.9412 62.5527 61.9359 62.5331 61.9257 62.5159C61.9156 62.4987 61.901 62.4846 61.8835 62.4749C61.866 62.4653 61.8463 62.4606 61.8263 62.4612C61.8064 62.4619 61.787 62.4679 61.7702 62.4787Z" stroke="url(#paint8_linear_1567_50)" stroke-width="1.7094"/>
<path d="M115.933 49.0513C115.942 63.7265 125.019 76.7351 140.959 76.7351C156.899 76.7265 165.967 63.718 165.967 49.0342C165.959 34.359 156.882 21.3505 140.942 21.3505C125.001 21.359 115.933 34.3676 115.933 49.0513Z" stroke="url(#paint9_linear_1567_50)" stroke-width="1.7094"/>
<path d="M323.693 63.5555C330.696 63.5612 334.471 63.5669 335.018 63.5726C335.108 63.5751 335.194 63.6041 335.267 63.6558C335.34 63.7075 335.396 63.7797 335.428 63.8632L339.864 75.5812C339.912 75.7018 339.996 75.8053 340.104 75.8784C340.212 75.9516 340.34 75.9909 340.471 75.9914H349.163C349.202 75.9908 349.24 75.9811 349.274 75.9632C349.309 75.9453 349.338 75.9197 349.36 75.8886C349.381 75.8575 349.395 75.8218 349.4 75.7847C349.404 75.7475 349.4 75.7099 349.386 75.6752L329.343 22.8291C329.293 22.6952 329.203 22.5791 329.086 22.4955C328.969 22.4119 328.829 22.3644 328.685 22.359C327.238 22.3077 325.579 22.282 323.711 22.282C321.842 22.282 320.186 22.3048 318.745 22.3504C318.599 22.3542 318.457 22.4009 318.338 22.4846C318.22 22.5684 318.129 22.6853 318.078 22.8205L297.984 75.6496C297.97 75.6843 297.965 75.7219 297.97 75.759C297.974 75.7962 297.988 75.8318 298.01 75.8629C298.032 75.894 298.061 75.9196 298.095 75.9375C298.13 75.9555 298.168 75.9652 298.206 75.9658L306.899 75.9744C307.03 75.9738 307.158 75.9345 307.266 75.8614C307.374 75.7882 307.458 75.6847 307.505 75.5641L311.95 63.8547C311.982 63.7698 312.04 63.6967 312.114 63.6449C312.189 63.5931 312.278 63.5649 312.369 63.5641C312.91 63.5527 316.685 63.5499 323.693 63.5555Z" stroke="url(#paint10_linear_1567_50)" stroke-width="1.7094"/>
<path d="M365.027 22.53C365.027 22.4688 365.002 22.4101 364.959 22.3668C364.916 22.3235 364.857 22.2992 364.796 22.2992H355.719C355.658 22.2992 355.599 22.3235 355.556 22.3668C355.513 22.4101 355.488 22.4688 355.488 22.53V75.8633C355.488 75.9245 355.513 75.9832 355.556 76.0265C355.599 76.0698 355.658 76.0941 355.719 76.0941H364.796C364.857 76.0941 364.916 76.0698 364.959 76.0265C365.002 75.9832 365.027 75.9245 365.027 75.8633V22.53Z" stroke="url(#paint11_linear_1567_50)" stroke-width="1.7094"/>
<path d="M182.163 72.1368C184.773 74.9174 187.941 76.4331 191.668 76.6838C208.565 77.8291 213.804 58.3932 208.343 46.171C203.71 35.8291 191.001 32.0684 182.189 40.4872C182.149 40.5261 182.099 40.5522 182.044 40.5623C181.989 40.5725 181.933 40.5662 181.881 40.5442C181.83 40.5223 181.787 40.4857 181.756 40.4391C181.726 40.3924 181.71 40.3378 181.71 40.2821V37.1197C181.71 36.9928 181.661 36.871 181.573 36.7813C181.485 36.6915 181.365 36.6411 181.24 36.6411H173.283C173.149 36.6411 173.021 36.6942 172.927 36.7888C172.832 36.8834 172.779 37.0116 172.779 37.1454V88.8804C172.779 89.0073 172.829 89.1291 172.919 89.2188C173.009 89.3086 173.13 89.359 173.257 89.359H181.232C181.356 89.359 181.476 89.3095 181.564 89.2214C181.652 89.1332 181.702 89.0136 181.702 88.8889V72.3248C181.703 72.2708 181.721 72.218 181.751 72.1733C181.782 72.1286 181.825 72.0939 181.874 72.0738C181.924 72.0536 181.978 72.0488 182.029 72.0601C182.081 72.0713 182.127 72.098 182.163 72.1368Z" stroke="url(#paint12_linear_1567_50)" stroke-width="1.7094"/>
<path d="M244.3 63.0342C244.236 63.0087 244.164 63.0097 244.1 63.0369C244.036 63.0641 243.985 63.1153 243.959 63.1795C242.272 67.3162 239.095 69.3191 234.429 69.188C228.377 69.0085 225.206 64.4701 224.309 58.6838C224.299 58.6264 224.302 58.5676 224.318 58.5114C224.333 58.4551 224.361 58.4029 224.399 58.3582C224.437 58.3135 224.485 58.2774 224.539 58.2524C224.593 58.2275 224.651 58.2143 224.711 58.2137H251.394C251.515 58.2138 251.631 58.1679 251.718 58.0852C251.806 58.0025 251.858 57.8894 251.865 57.7692C252.092 53 251.494 49.0313 250.07 45.8632C246.223 37.2991 237.873 34.2564 229.121 36.735C220.531 39.1709 215.882 47.0855 215.762 55.735C215.617 66.2308 221.429 75.2137 232.394 76.5726C238.115 77.2792 243.189 75.7236 247.617 71.906C249.018 70.698 250.34 68.7122 251.582 65.9487C251.593 65.9241 251.599 65.8976 251.6 65.8706C251.6 65.8437 251.595 65.817 251.584 65.7921C251.574 65.7673 251.559 65.7448 251.539 65.7262C251.52 65.7075 251.497 65.6931 251.471 65.6838L244.3 63.0342Z" stroke="url(#paint13_linear_1567_50)" stroke-width="1.7094"/>
<path d="M267.71 40.2393V37.0855C267.71 36.9676 267.664 36.8545 267.58 36.7712C267.497 36.6878 267.384 36.641 267.266 36.641H259.292C259.16 36.641 259.034 36.6941 258.941 36.7887C258.848 36.8833 258.796 37.0115 258.796 37.1453V75.4872C258.796 75.6186 258.849 75.7447 258.944 75.8377C259.038 75.9307 259.166 75.9829 259.3 75.9829H267.249C267.308 75.9829 267.367 75.9714 267.422 75.9491C267.477 75.9267 267.527 75.894 267.569 75.8527C267.611 75.8114 267.645 75.7624 267.667 75.7085C267.69 75.6546 267.702 75.5968 267.702 75.5384C267.719 74.376 267.716 68.3931 267.693 57.5897C267.688 53.7037 267.753 51.4644 267.89 50.8718C268.907 46.5726 272.856 43.6496 277.24 44.3077C281.326 44.9145 282.847 48.641 282.873 52.5555C282.907 57.1709 282.913 64.8946 282.89 75.7265C282.89 75.7967 282.919 75.8641 282.97 75.9138C283.021 75.9635 283.091 75.9914 283.163 75.9914H291.292C291.423 75.9914 291.549 75.9401 291.642 75.8487C291.735 75.7574 291.787 75.6335 291.787 75.5043C291.884 59.8461 291.856 50.9145 291.702 48.7094C291.104 40.094 285.223 35.1025 276.745 36.0855C273.445 36.4672 270.619 37.9259 268.266 40.4615C268.221 40.5069 268.164 40.538 268.101 40.551C268.039 40.564 267.974 40.5583 267.915 40.5346C267.855 40.5109 267.804 40.4702 267.768 40.4177C267.732 40.3652 267.712 40.3031 267.71 40.2393Z" stroke="url(#paint14_linear_1567_50)" stroke-width="1.7094"/>
<path d="M125.429 49.0512C125.42 58.4359 130.198 68.3589 140.933 68.3675C151.668 68.3846 156.463 58.4786 156.471 49.094C156.489 39.7008 151.711 29.7863 140.976 29.7777C130.241 29.7606 125.446 39.6666 125.429 49.0512Z" stroke="url(#paint15_linear_1567_50)" stroke-width="1.7094"/>
<path d="M315.181 54.9658C315.164 55.0111 315.159 55.0597 315.165 55.1075C315.171 55.1553 315.189 55.2008 315.217 55.2403C315.245 55.2797 315.281 55.3119 315.324 55.334C315.367 55.3562 315.415 55.3677 315.463 55.3675L331.711 55.3162C331.759 55.3155 331.807 55.303 331.849 55.2798C331.892 55.2566 331.928 55.2234 331.955 55.183C331.982 55.1427 331.999 55.0963 332.004 55.0481C332.009 54.9998 332.002 54.951 331.984 54.906L323.788 33.3675C323.767 33.3092 323.729 33.2587 323.678 33.2229C323.628 33.1872 323.567 33.168 323.506 33.168C323.444 33.168 323.383 33.1872 323.333 33.2229C323.282 33.2587 323.244 33.3092 323.223 33.3675L315.181 54.9658Z" stroke="url(#paint16_linear_1567_50)" stroke-width="1.7094"/>
<path d="M181.412 56.3163C181.403 62.6838 183.924 68.9402 191.352 68.9573C198.779 68.9659 201.318 62.7265 201.335 56.3505C201.343 49.983 198.822 43.7265 191.395 43.718C183.967 43.7009 181.429 49.9488 181.412 56.3163Z" stroke="url(#paint17_linear_1567_50)" stroke-width="1.7094"/>
<path d="M225.334 51.7778L242.89 51.6239C242.922 51.6239 242.952 51.6113 242.974 51.5889C242.997 51.5665 243.009 51.536 243.009 51.5043V51.4188C242.991 49.2522 242.045 47.1824 240.379 45.6645C238.714 44.1466 236.466 43.305 234.129 43.3248H233.958C232.801 43.3345 231.656 43.5556 230.591 43.9754C229.525 44.3951 228.558 45.0054 227.746 45.7714C226.934 46.5373 226.293 47.4438 225.858 48.4393C225.424 49.4347 225.205 50.4994 225.215 51.5727V51.6581C225.215 51.6899 225.227 51.7203 225.25 51.7427C225.272 51.7652 225.303 51.7778 225.334 51.7778Z" stroke="url(#paint18_linear_1567_50)" stroke-width="1.7094"/>
<path d="M47.8215 1C54.4312 1.72365 59.9468 4.45584 64.3685 9.19658C64.4183 9.24911 64.4811 9.28832 64.5512 9.3107C64.6213 9.33307 64.6966 9.33792 64.7702 9.32479C83.7104 5.67521 99.4369 23.1282 93.8813 41.547C93.8475 41.6573 93.8423 41.7742 93.8663 41.8864C93.8902 41.9987 93.9425 42.1025 94.018 42.188C106.403 56.359 99.3941 79.3504 80.5992 83.4103C80.5071 83.4312 80.4214 83.4749 80.3498 83.5376C80.2782 83.6002 80.223 83.6798 80.189 83.7692C76.3371 93.963 68.8898 99.7066 57.8471 101H55.0864C48.2203 100.533 42.4425 97.849 37.7531 92.9487C37.6562 92.8488 37.537 92.774 37.4059 92.7308C37.2748 92.6876 37.1358 92.6773 37.001 92.7009C28.5793 94.0513 21.4226 92.0855 15.5309 86.8034C7.91263 79.9772 5.38841 71.1624 7.95822 60.359C7.98976 60.2264 7.98995 60.0885 7.95878 59.9564C7.9276 59.8243 7.86593 59.7016 7.77873 59.5983C2.12916 52.9402 0.197532 44.0513 2.80437 35.7863C5.5736 26.9772 11.736 21.1966 21.2915 18.4444C21.3928 18.4154 21.4863 18.3633 21.5648 18.2922C21.6433 18.2211 21.7048 18.1329 21.7445 18.0342C25.7559 7.89174 33.226 2.21368 44.1548 1H47.8215ZM35.6505 54.4957C35.6448 38.0684 35.622 28.9288 35.5821 27.0769C35.548 25.4929 36.1918 24.3219 37.5138 23.5641C43.8671 19.906 50.5138 16.0655 57.4539 12.0427C57.4893 12.0212 57.5186 11.9913 57.5394 11.9555C57.5603 11.9197 57.5721 11.8791 57.5738 11.8372C57.5754 11.7952 57.567 11.7531 57.5491 11.7145C57.5312 11.6759 57.5044 11.6419 57.471 11.6154C46.4369 3.1282 30.2232 8.63248 27.3086 22.5299C27.0579 23.755 26.9354 25.7806 26.9411 28.6068C26.9582 33.4046 26.9582 40.3419 26.9411 49.4188C26.9416 49.5007 26.9631 49.5809 27.0036 49.6513C27.0441 49.7218 27.1021 49.7801 27.1719 49.8205L35.4881 54.5983C35.5054 54.6073 35.5247 54.6116 35.5441 54.6108C35.5635 54.61 35.5824 54.6041 35.5988 54.5937C35.6153 54.5833 35.6287 54.5688 35.6378 54.5516C35.6468 54.5344 35.6512 54.5152 35.6505 54.4957ZM40.2745 39.4615C54.5366 31.2564 62.4625 26.6752 64.0522 25.7179C65.4084 24.8974 66.7445 24.8718 68.0608 25.641C74.4084 29.339 81.0608 33.1937 88.018 37.2051C88.0543 37.2262 88.0953 37.2378 88.1374 37.2388C88.1794 37.2397 88.2213 37.2301 88.2592 37.2107C88.2972 37.1913 88.3301 37.1627 88.3551 37.1275C88.3801 37.0922 88.3965 37.0514 88.4027 37.0085C90.2659 23.1966 77.3941 11.8632 63.8727 16.2735C62.6876 16.6667 60.8699 17.5698 58.4198 18.9829C54.2545 21.3875 48.2289 24.849 40.3428 29.3675C40.2723 29.4092 40.2139 29.4682 40.1734 29.5386C40.1329 29.6091 40.1118 29.6886 40.1121 29.7692V39.3675C40.1128 39.3862 40.1183 39.4044 40.128 39.4205C40.1376 39.4365 40.1512 39.4498 40.1674 39.4592C40.1836 39.4686 40.2019 39.4737 40.2206 39.4741C40.2393 39.4745 40.2579 39.4702 40.2745 39.4615ZM46.2916 66.0256C32.0522 57.7977 24.1206 53.2393 22.4967 52.3504C21.1064 51.5812 20.4141 50.4359 20.4198 48.9145C20.4368 41.5698 20.4397 33.886 20.4283 25.8632C20.429 25.8213 20.419 25.7799 20.3994 25.7428C20.3797 25.7057 20.3509 25.674 20.3155 25.6504C20.2801 25.6267 20.2391 25.612 20.1962 25.6074C20.1533 25.6028 20.1097 25.6085 20.0693 25.6239C7.18044 30.9316 3.82146 47.7436 14.4112 57.2308C15.3457 58.0627 17.038 59.1823 19.4881 60.5897C23.6534 62.9829 29.6648 66.4615 37.5223 71.0256C37.5934 71.0657 37.6733 71.0868 37.7542 71.0868C37.8351 71.0868 37.9143 71.0657 37.9839 71.0256L46.2916 66.2222C46.3094 66.2128 46.3244 66.1986 46.3349 66.1813C46.3453 66.164 46.3508 66.1442 46.3508 66.1239C46.3508 66.1037 46.3453 66.0839 46.3349 66.0665C46.3244 66.0492 46.3094 66.0351 46.2916 66.0256ZM55.6762 35.9744C69.9098 44.1966 77.8386 48.7521 79.4625 49.641C80.8528 50.4046 81.5451 51.5499 81.5394 53.0769C81.528 60.416 81.528 68.0969 81.5394 76.1197C81.5396 76.1619 81.5505 76.2034 81.5713 76.2403C81.592 76.2772 81.6219 76.3085 81.6582 76.3313C81.6946 76.3541 81.7363 76.3678 81.7797 76.3712C81.8231 76.3745 81.8668 76.3674 81.9069 76.3504C94.7873 71.0342 98.1292 54.2308 87.5394 44.7521C86.6106 43.9259 84.9212 42.8063 82.471 41.3932C78.3001 39.0057 72.2859 35.5328 64.4283 30.9744C64.3573 30.9343 64.2773 30.9132 64.1964 30.9132C64.1155 30.9132 64.0363 30.9343 63.9668 30.9744L55.6676 35.7863C55.6522 35.797 55.6397 35.8115 55.6313 35.8284C55.623 35.8452 55.619 35.8639 55.6199 35.8827C55.6207 35.9015 55.6264 35.9198 55.6362 35.9358C55.646 35.9518 55.6598 35.9651 55.6762 35.9744ZM45.5736 41.5641C42.0408 43.6154 40.2517 44.6752 40.2061 44.7436C40.1662 44.8177 40.1491 46.8974 40.1548 50.9829C40.1605 55.0684 40.1833 57.1453 40.2232 57.2137C40.2631 57.2877 42.0522 58.3447 45.5907 60.3846C49.1349 62.4245 50.9468 63.4444 51.0266 63.4444C51.1121 63.4444 52.9212 62.4217 56.4539 60.3761C59.9924 58.3305 61.7816 57.2707 61.8215 57.1966C61.867 57.1225 61.887 55.0427 61.8813 50.9573C61.8756 46.8718 61.8528 44.7949 61.8129 44.7265C61.773 44.6524 59.981 43.5954 56.4368 41.5556C52.8984 39.5157 51.0893 38.4957 51.0095 38.4957C50.924 38.4957 49.1121 39.5185 45.5736 41.5641ZM66.3172 47.5043C66.3001 63.9601 66.3115 73.1168 66.3514 74.9744C66.3856 76.5584 65.7388 77.7293 64.4112 78.4872C58.0408 82.1453 51.377 85.9858 44.4198 90.0085C44.3844 90.03 44.3551 90.06 44.3343 90.0958C44.3134 90.1315 44.3016 90.1721 44.2999 90.2141C44.2983 90.2561 44.3067 90.2982 44.3246 90.3368C44.3425 90.3754 44.3693 90.4094 44.4027 90.4359C55.4454 98.9573 71.7018 93.4615 74.6334 79.5385C74.8841 78.3134 75.0095 76.2849 75.0095 73.453C74.9981 68.6439 75.0067 61.6923 75.0351 52.5983C75.0347 52.5164 75.0131 52.4362 74.9727 52.3657C74.9322 52.2953 74.8742 52.237 74.8044 52.1966L66.4796 47.4017C66.4623 47.3927 66.4431 47.3884 66.4236 47.3892C66.4042 47.39 66.3853 47.3959 66.3689 47.4063C66.3525 47.4167 66.339 47.4312 66.33 47.4484C66.3209 47.4656 66.3165 47.4848 66.3172 47.5043ZM61.7702 62.4786C47.4739 70.7066 39.5309 75.302 37.9411 76.265C36.5793 77.0855 35.2374 77.1111 33.9155 76.3419C27.5508 72.6382 20.8813 68.7749 13.9069 64.7521C13.8706 64.731 13.8297 64.7195 13.7876 64.7185C13.7456 64.7175 13.7037 64.7272 13.6658 64.7466C13.6278 64.766 13.5949 64.7945 13.5699 64.8298C13.5449 64.865 13.5285 64.9059 13.5223 64.9487C11.6591 78.8034 24.5651 90.1624 38.1206 85.735C39.3115 85.3419 41.1349 84.4359 43.5907 83.0171C47.7616 80.6011 53.8015 77.1282 61.7104 72.5983C61.7809 72.5566 61.8393 72.4976 61.8798 72.4272C61.9203 72.3567 61.9414 72.2772 61.9411 72.1966V62.5727C61.9412 62.5527 61.9359 62.5331 61.9258 62.5159C61.9156 62.4987 61.901 62.4845 61.8836 62.4749C61.8661 62.4653 61.8463 62.4606 61.8264 62.4612C61.8064 62.4619 61.787 62.4679 61.7702 62.4786Z" fill="url(#paint19_linear_1567_50)"/>
<path d="M140.942 21.3505C156.882 21.3505 165.959 34.359 165.967 49.0342C165.967 63.718 156.899 76.7265 140.959 76.7351C125.019 76.7351 115.942 63.7265 115.933 49.0513C115.933 34.3676 125.001 21.359 140.942 21.3505ZM125.429 49.0513C125.42 58.4359 130.198 68.359 140.933 68.3676C151.668 68.3847 156.463 58.4787 156.472 49.0941C156.489 39.7009 151.711 29.7864 140.976 29.7778C130.241 29.7607 125.446 39.6667 125.429 49.0513Z" fill="url(#paint20_linear_1567_50)"/>
<path d="M323.711 22.282C325.579 22.282 327.238 22.3077 328.685 22.359C328.829 22.3644 328.969 22.4119 329.086 22.4955C329.203 22.5791 329.293 22.6952 329.343 22.8291L349.386 75.6752C349.4 75.7099 349.404 75.7475 349.4 75.7847C349.395 75.8218 349.381 75.8575 349.36 75.8886C349.338 75.9197 349.309 75.9453 349.274 75.9632C349.24 75.9811 349.202 75.9908 349.163 75.9914H340.471C340.34 75.9909 340.212 75.9516 340.104 75.8784C339.996 75.8053 339.912 75.7018 339.864 75.5812L335.428 63.8632C335.396 63.7797 335.34 63.7075 335.267 63.6558C335.194 63.6041 335.108 63.5751 335.018 63.5726C334.471 63.5669 330.696 63.5612 323.693 63.5555C316.685 63.5499 312.91 63.5527 312.369 63.5641C312.278 63.5649 312.189 63.5931 312.114 63.6449C312.04 63.6967 311.982 63.7698 311.95 63.8547L307.505 75.5641C307.458 75.6847 307.374 75.7882 307.266 75.8614C307.158 75.9345 307.03 75.9738 306.899 75.9744L298.206 75.9658C298.168 75.9652 298.13 75.9555 298.095 75.9375C298.061 75.9196 298.032 75.894 298.01 75.8629C297.988 75.8318 297.974 75.7962 297.97 75.759C297.965 75.7219 297.97 75.6843 297.984 75.6496L318.078 22.8205C318.129 22.6853 318.22 22.5684 318.338 22.4846C318.457 22.4009 318.599 22.3542 318.745 22.3504C320.186 22.3048 321.842 22.282 323.711 22.282ZM315.181 54.9658C315.164 55.0111 315.159 55.0597 315.165 55.1075C315.171 55.1553 315.189 55.2008 315.217 55.2403C315.244 55.2797 315.281 55.3119 315.324 55.334C315.367 55.3562 315.414 55.3677 315.463 55.3675L331.71 55.3162C331.759 55.3155 331.807 55.3031 331.849 55.2799C331.892 55.2567 331.928 55.2234 331.955 55.1831C331.982 55.1427 331.999 55.0963 332.004 55.0481C332.009 54.9998 332.002 54.951 331.984 54.906L323.787 33.3675C323.767 33.3092 323.729 33.2587 323.678 33.2229C323.628 33.1872 323.567 33.168 323.505 33.168C323.444 33.168 323.383 33.1872 323.333 33.2229C323.282 33.2587 323.244 33.3092 323.223 33.3675L315.181 54.9658Z" fill="url(#paint21_linear_1567_50)"/>
<path d="M364.796 22.2992H355.719C355.592 22.2992 355.488 22.4025 355.488 22.53V75.8633C355.488 75.9907 355.592 76.0941 355.719 76.0941H364.796C364.923 76.0941 365.027 75.9907 365.027 75.8633V22.53C365.027 22.4025 364.923 22.2992 364.796 22.2992Z" fill="url(#paint22_linear_1567_50)"/>
<path d="M182.163 72.1368C182.127 72.098 182.081 72.0713 182.029 72.0601C181.978 72.0488 181.924 72.0536 181.874 72.0738C181.825 72.0939 181.782 72.1286 181.751 72.1733C181.721 72.218 181.703 72.2708 181.702 72.3248V88.8889C181.702 89.0136 181.652 89.1332 181.564 89.2214C181.476 89.3095 181.356 89.359 181.232 89.359H173.257C173.13 89.359 173.009 89.3086 172.919 89.2188C172.829 89.1291 172.779 89.0073 172.779 88.8804V37.1454C172.779 37.0116 172.832 36.8834 172.927 36.7888C173.021 36.6942 173.149 36.6411 173.283 36.6411H181.24C181.365 36.6411 181.485 36.6915 181.573 36.7813C181.661 36.871 181.71 36.9928 181.71 37.1197V40.2821C181.71 40.3378 181.726 40.3924 181.756 40.4391C181.787 40.4857 181.83 40.5223 181.881 40.5442C181.933 40.5662 181.989 40.5725 182.044 40.5623C182.099 40.5522 182.149 40.5261 182.189 40.4872C191.001 32.0684 203.71 35.8291 208.343 46.171C213.804 58.3932 208.565 77.8291 191.668 76.6838C187.941 76.4331 184.773 74.9174 182.163 72.1368ZM181.411 56.3163C181.403 62.6838 183.924 68.9402 191.351 68.9573C198.779 68.9659 201.317 62.7266 201.334 56.3505C201.343 49.983 198.822 43.7266 191.394 43.718C183.967 43.7009 181.428 49.9488 181.411 56.3163Z" fill="url(#paint23_linear_1567_50)"/>
<path d="M251.582 65.9487C250.34 68.7122 249.018 70.698 247.617 71.906C243.189 75.7236 238.115 77.2792 232.394 76.5726C221.429 75.2137 215.617 66.2308 215.762 55.735C215.882 47.0855 220.531 39.1709 229.121 36.735C237.873 34.2564 246.223 37.2991 250.07 45.8632C251.494 49.0313 252.092 53 251.865 57.7692C251.858 57.8894 251.806 58.0025 251.718 58.0852C251.631 58.1679 251.515 58.2138 251.394 58.2137H224.711C224.651 58.2143 224.593 58.2275 224.539 58.2524C224.485 58.2774 224.437 58.3135 224.399 58.3582C224.361 58.4029 224.333 58.4551 224.318 58.5114C224.302 58.5676 224.299 58.6264 224.309 58.6838C225.206 64.4701 228.377 69.0085 234.429 69.188C239.095 69.3191 242.272 67.3162 243.959 63.1795C243.985 63.1153 244.036 63.0641 244.1 63.0369C244.164 63.0097 244.236 63.0087 244.3 63.0342L251.471 65.6838C251.497 65.6931 251.52 65.7075 251.539 65.7262C251.559 65.7448 251.574 65.7673 251.584 65.7921C251.595 65.817 251.6 65.8437 251.6 65.8706C251.599 65.8976 251.593 65.9241 251.582 65.9487ZM225.335 51.7778L242.89 51.6239C242.922 51.6239 242.952 51.6113 242.975 51.5889C242.997 51.5664 243.01 51.536 243.01 51.5043V51.4188C242.991 49.2522 242.045 47.1823 240.38 45.6645C238.714 44.1466 236.466 43.305 234.129 43.3248H233.959C232.801 43.3345 231.657 43.5555 230.591 43.9753C229.525 44.3951 228.558 45.0054 227.746 45.7713C226.934 46.5373 226.293 47.4438 225.859 48.4392C225.424 49.4346 225.206 50.4994 225.215 51.5726V51.6581C225.215 51.6898 225.228 51.7203 225.25 51.7427C225.272 51.7652 225.303 51.7778 225.335 51.7778Z" fill="url(#paint24_linear_1567_50)"/>
<path d="M268.266 40.4615C270.619 37.9259 273.445 36.4672 276.745 36.0855C285.223 35.1025 291.104 40.094 291.702 48.7094C291.856 50.9145 291.884 59.8461 291.787 75.5043C291.787 75.6335 291.735 75.7574 291.642 75.8487C291.549 75.9401 291.423 75.9914 291.292 75.9914H283.163C283.091 75.9914 283.021 75.9635 282.97 75.9138C282.919 75.8641 282.89 75.7967 282.89 75.7265C282.913 64.8946 282.907 57.1709 282.873 52.5555C282.847 48.641 281.326 44.9145 277.24 44.3077C272.856 43.6496 268.907 46.5726 267.89 50.8718C267.753 51.4644 267.688 53.7037 267.693 57.5897C267.716 68.3931 267.719 74.376 267.702 75.5384C267.702 75.5968 267.69 75.6546 267.667 75.7085C267.645 75.7624 267.611 75.8114 267.569 75.8527C267.527 75.894 267.477 75.9267 267.422 75.9491C267.367 75.9714 267.308 75.9829 267.249 75.9829H259.3C259.166 75.9829 259.038 75.9307 258.944 75.8377C258.849 75.7447 258.796 75.6186 258.796 75.4872V37.1453C258.796 37.0115 258.848 36.8833 258.941 36.7887C259.034 36.6941 259.16 36.641 259.292 36.641H267.266C267.384 36.641 267.497 36.6878 267.58 36.7712C267.664 36.8545 267.71 36.9676 267.71 37.0855V40.2393C267.712 40.3031 267.732 40.3652 267.768 40.4177C267.804 40.4702 267.855 40.5109 267.915 40.5346C267.974 40.5583 268.039 40.564 268.101 40.551C268.164 40.538 268.221 40.5069 268.266 40.4615Z" fill="url(#paint25_linear_1567_50)"/>
<defs>
<linearGradient id="paint0_linear_1567_50" x1="28.3738" y1="1" x2="28.3738" y2="101" gradientUnits="userSpaceOnUse">
<stop/>
<stop offset="1" stop-color="#666666"/>
</linearGradient>
<linearGradient id="paint1_linear_1567_50" x1="74.0231" y1="1" x2="74.0231" y2="101" gradientUnits="userSpaceOnUse">
<stop/>
<stop offset="1" stop-color="#666666"/>
</linearGradient>
<linearGradient id="paint2_linear_1567_50" x1="42.2574" y1="7.58179" x2="42.2574" y2="54.6109" gradientUnits="userSpaceOnUse">
<stop/>
<stop offset="1" stop-color="#666666"/>
</linearGradient>
<linearGradient id="paint3_linear_1567_50" x1="64.3478" y1="15.3068" x2="64.3478" y2="39.4741" gradientUnits="userSpaceOnUse">
<stop/>
<stop offset="1" stop-color="#666666"/>
</linearGradient>
<linearGradient id="paint4_linear_1567_50" x1="27.2327" y1="25.6058" x2="27.2327" y2="71.0868" gradientUnits="userSpaceOnUse">
<stop/>
<stop offset="1" stop-color="#666666"/>
</linearGradient>
<linearGradient id="paint5_linear_1567_50" x1="74.7314" y1="30.9131" x2="74.7314" y2="76.3719" gradientUnits="userSpaceOnUse">
<stop/>
<stop offset="1" stop-color="#666666"/>
</linearGradient>
<linearGradient id="paint6_linear_1567_50" x1="51.0181" y1="38.4957" x2="51.0181" y2="63.4444" gradientUnits="userSpaceOnUse">
<stop/>
<stop offset="1" stop-color="#666666"/>
</linearGradient>
<linearGradient id="paint7_linear_1567_50" x1="59.6675" y1="47.3891" x2="59.6675" y2="94.4944" gradientUnits="userSpaceOnUse">
<stop/>
<stop offset="1" stop-color="#666666"/>
</linearGradient>
<linearGradient id="paint8_linear_1567_50" x1="37.6417" y1="62.4612" x2="37.6417" y2="86.7067" gradientUnits="userSpaceOnUse">
<stop/>
<stop offset="1" stop-color="#666666"/>
</linearGradient>
<linearGradient id="paint9_linear_1567_50" x1="140.95" y1="21.3505" x2="140.95" y2="76.7351" gradientUnits="userSpaceOnUse">
<stop/>
<stop offset="1" stop-color="#666666"/>
</linearGradient>
<linearGradient id="paint10_linear_1567_50" x1="323.685" y1="22.282" x2="323.685" y2="75.9914" gradientUnits="userSpaceOnUse">
<stop/>
<stop offset="1" stop-color="#666666"/>
</linearGradient>
<linearGradient id="paint11_linear_1567_50" x1="360.258" y1="22.2992" x2="360.258" y2="76.0941" gradientUnits="userSpaceOnUse">
<stop/>
<stop offset="1" stop-color="#666666"/>
</linearGradient>
<linearGradient id="paint12_linear_1567_50" x1="191.598" y1="35.8587" x2="191.598" y2="89.359" gradientUnits="userSpaceOnUse">
<stop/>
<stop offset="1" stop-color="#666666"/>
</linearGradient>
<linearGradient id="paint13_linear_1567_50" x1="233.835" y1="35.9005" x2="233.835" y2="76.7382" gradientUnits="userSpaceOnUse">
<stop/>
<stop offset="1" stop-color="#666666"/>
</linearGradient>
<linearGradient id="paint14_linear_1567_50" x1="275.32" y1="35.9628" x2="275.32" y2="75.9914" gradientUnits="userSpaceOnUse">
<stop/>
<stop offset="1" stop-color="#666666"/>
</linearGradient>
<linearGradient id="paint15_linear_1567_50" x1="140.95" y1="29.7777" x2="140.95" y2="68.3675" gradientUnits="userSpaceOnUse">
<stop/>
<stop offset="1" stop-color="#666666"/>
</linearGradient>
<linearGradient id="paint16_linear_1567_50" x1="323.584" y1="33.168" x2="323.584" y2="55.3675" gradientUnits="userSpaceOnUse">
<stop/>
<stop offset="1" stop-color="#666666"/>
</linearGradient>
<linearGradient id="paint17_linear_1567_50" x1="191.373" y1="43.718" x2="191.373" y2="68.9573" gradientUnits="userSpaceOnUse">
<stop/>
<stop offset="1" stop-color="#666666"/>
</linearGradient>
<linearGradient id="paint18_linear_1567_50" x1="234.112" y1="43.3245" x2="234.112" y2="51.7778" gradientUnits="userSpaceOnUse">
<stop/>
<stop offset="1" stop-color="#666666"/>
</linearGradient>
<linearGradient id="paint19_linear_1567_50" x1="50.9426" y1="1" x2="50.9426" y2="101" gradientUnits="userSpaceOnUse">
<stop/>
<stop offset="1" stop-color="#666666"/>
</linearGradient>
<linearGradient id="paint20_linear_1567_50" x1="140.95" y1="21.3505" x2="140.95" y2="76.7351" gradientUnits="userSpaceOnUse">
<stop/>
<stop offset="1" stop-color="#666666"/>
</linearGradient>
<linearGradient id="paint21_linear_1567_50" x1="323.685" y1="22.282" x2="323.685" y2="75.9914" gradientUnits="userSpaceOnUse">
<stop/>
<stop offset="1" stop-color="#666666"/>
</linearGradient>
<linearGradient id="paint22_linear_1567_50" x1="360.258" y1="22.2992" x2="360.258" y2="76.0941" gradientUnits="userSpaceOnUse">
<stop/>
<stop offset="1" stop-color="#666666"/>
</linearGradient>
<linearGradient id="paint23_linear_1567_50" x1="191.598" y1="35.8587" x2="191.598" y2="89.359" gradientUnits="userSpaceOnUse">
<stop/>
<stop offset="1" stop-color="#666666"/>
</linearGradient>
<linearGradient id="paint24_linear_1567_50" x1="233.835" y1="35.9005" x2="233.835" y2="76.7382" gradientUnits="userSpaceOnUse">
<stop/>
<stop offset="1" stop-color="#666666"/>
</linearGradient>
<linearGradient id="paint25_linear_1567_50" x1="275.32" y1="35.9628" x2="275.32" y2="75.9914" gradientUnits="userSpaceOnUse">
<stop/>
<stop offset="1" stop-color="#666666"/>
</linearGradient>
</defs>
</svg>
