<svg width="448" height="100" viewBox="0 0 448 100" fill="none" xmlns="http://www.w3.org/2000/svg">
<g clip-path="url(#clip0_1567_100)">
<path d="M197.51 61.4146H176.631C176.459 61.4155 176.29 61.4609 176.141 61.5463C175.991 61.6318 175.866 61.7544 175.778 61.9024L166.29 78.317C166.272 78.3513 166.263 78.3897 166.263 78.4282C166.262 78.4667 166.272 78.504 166.289 78.5362C166.306 78.5684 166.331 78.5945 166.361 78.6117C166.392 78.6289 166.426 78.6366 166.461 78.6341H208.022C208.384 78.634 208.742 78.7308 209.058 78.9148C209.375 79.0988 209.64 79.3636 209.827 79.6829L220.51 98.1951C220.673 98.4773 220.91 98.7115 221.197 98.8741C221.484 99.0368 221.81 99.1223 222.144 99.1219H249.071C249.202 99.1226 249.333 99.0885 249.447 99.0233C249.562 98.958 249.657 98.8641 249.722 98.7516C249.787 98.639 249.82 98.5119 249.817 98.3838C249.814 98.2558 249.775 98.1316 249.705 98.0243C235.51 74.6748 218.542 46.5691 198.802 13.7073C198.136 12.5853 196.778 10.439 194.729 7.26825C190.778 1.1463 183.656 -0.536644 177.583 3.02433C175.501 4.24384 173.022 7.31701 170.144 12.2438C166.355 18.7642 153.209 40.6585 130.705 77.9268C130.602 78.1014 130.563 78.306 130.594 78.506C130.626 78.706 130.725 78.8891 130.875 79.0243L147.827 95.0731C147.907 95.1508 148.005 95.2088 148.111 95.2429C148.218 95.277 148.331 95.2861 148.442 95.2696C148.553 95.2531 148.658 95.2114 148.75 95.1478C148.842 95.0841 148.918 95.0002 148.973 94.9024L182.339 37.0975C182.447 36.9155 182.6 36.7648 182.784 36.6601C182.968 36.5554 183.176 36.5003 183.388 36.5003C183.599 36.5003 183.807 36.5554 183.991 36.6601C184.175 36.7648 184.328 36.9155 184.436 37.0975L197.997 60.5609C198.044 60.6504 198.068 60.7504 198.066 60.8513C198.065 60.9521 198.039 61.0503 197.989 61.1362C197.94 61.2222 197.87 61.2931 197.786 61.3418C197.702 61.3906 197.607 61.4157 197.51 61.4146Z" stroke="url(#paint0_linear_1567_100)" stroke-width="4.87805"/>
<path d="M250.217 89.3171V42.9757C250.212 42.8322 250.25 42.6906 250.328 42.5697C250.405 42.4488 250.517 42.3543 250.65 42.2987C250.782 42.2431 250.928 42.2291 251.069 42.2585C251.209 42.288 251.337 42.3595 251.436 42.4635C268.672 59.8619 285.924 77.1545 303.192 94.3415C315.241 106.317 327.241 99.7562 327.095 83.5854C326.981 72.0082 326.973 44.935 327.07 2.36592C327.07 2.17186 326.993 1.98574 326.856 1.84851C326.719 1.71129 326.533 1.6342 326.339 1.6342H304.07C303.851 1.6342 303.64 1.72158 303.484 1.8771C303.329 2.03261 303.241 2.24354 303.241 2.46348V57.7318C303.243 57.8683 303.204 58.0022 303.129 58.1164C303.054 58.2305 302.947 58.3196 302.821 58.3721C302.695 58.4246 302.556 58.4381 302.422 58.4109C302.289 58.3838 302.166 58.3171 302.07 58.2196C284.981 41.4554 266.721 23.496 247.29 4.34152C242.924 0.0244473 233.851 -0.170663 229.705 5.43909C227.851 7.94316 226.892 9.91063 226.827 11.3415C226.55 17.4553 226.509 30.2602 226.705 49.7562C226.721 50.5564 226.939 51.3444 227.339 52.0488L249.046 89.6342C249.118 89.7492 249.226 89.8379 249.352 89.8874C249.479 89.9368 249.618 89.9444 249.749 89.9089C249.88 89.8734 249.996 89.7967 250.08 89.6902C250.165 89.5837 250.212 89.4529 250.217 89.3171Z" stroke="url(#paint1_linear_1567_100)" stroke-width="4.87805"/>
<path d="M51.3392 50.7074C51.3392 50.7724 51.3311 50.8374 51.3149 50.9025C51.2988 51.0109 51.2806 51.11 51.263 51.1848C51.2454 51.2596 51.2294 51.3061 51.2173 51.3171C46.3555 55.9187 29.7457 71.5122 1.38802 98.0976C1.29521 98.1796 1.23084 98.2877 1.20337 98.4077C1.1759 98.5277 1.1866 98.6541 1.23409 98.7701C1.28157 98.8862 1.3636 98.9866 1.46942 99.0581C1.57525 99.1296 1.69991 99.1689 1.82704 99.1708H39.949C41.8159 99.17 43.6178 98.4649 44.9978 97.1952C50.2336 92.4147 66.453 77.1301 93.6563 51.3415C93.7539 51.2439 93.7783 50.9025 93.7783 50.7805C93.7783 50.683 93.7539 50.3415 93.6563 50.2439C66.5506 24.3578 50.388 9.0163 45.1685 4.21955C43.7923 2.94094 41.9899 2.22697 40.1197 2.21955L1.99777 2.0976C1.87056 2.09943 1.74582 2.13866 1.63993 2.21014C1.53403 2.28162 1.45195 2.38201 1.40445 2.4981C1.35696 2.6142 1.34628 2.74057 1.37382 2.86063C1.40136 2.98068 1.46582 3.0888 1.55875 3.17077C29.8189 29.8537 46.3718 45.5041 51.2173 50.122C51.2292 50.1298 51.2452 50.1748 51.2629 50.2499C51.2805 50.3249 51.2988 50.4258 51.3149 50.5366C51.3311 50.6017 51.3392 50.6586 51.3392 50.7074Z" stroke="url(#paint2_linear_1567_100)" stroke-width="4.87805"/>
<path d="M446.643 46.5786C446.623 40.7364 445.452 34.9555 443.197 29.5658C440.943 24.1761 437.649 19.2833 433.503 15.1667C429.358 11.05 424.442 7.79024 419.037 5.57338C413.632 3.35652 407.843 2.22602 402 2.24643L375.22 2.33984C363.421 2.38104 352.122 7.1076 343.808 15.4797C335.494 23.8518 330.847 35.1837 330.888 46.9825L330.914 54.3484C330.934 60.1906 332.105 65.9715 334.359 71.3612C336.614 76.7509 339.908 81.6437 344.054 85.7603C348.199 89.877 353.115 93.1368 358.52 95.3536C363.925 97.5705 369.714 98.701 375.557 98.6806L402.337 98.5872C414.136 98.546 425.435 93.8194 433.749 85.4473C442.063 77.0752 446.71 65.7433 446.669 53.9445L446.643 46.5786Z" stroke="url(#paint3_linear_1567_100)" stroke-width="4.87805"/>
<path d="M96.9492 47.2197C97.0994 47.3657 97.3007 47.4474 97.5102 47.4474C97.7197 47.4474 97.9209 47.3657 98.0711 47.2197L144.315 3.60995C144.433 3.49884 144.514 3.35478 144.549 3.19661C144.584 3.03844 144.57 2.87351 144.509 2.72336C144.448 2.57321 144.344 2.44481 144.209 2.35496C144.075 2.2651 143.916 2.21798 143.754 2.21971H103.559C103.351 2.21751 103.149 2.29619 102.998 2.43921L76.9004 27.0734C76.8207 27.1486 76.7572 27.2393 76.7137 27.34C76.6703 27.4406 76.6479 27.5491 76.6479 27.6587C76.6479 27.7683 76.6703 27.8768 76.7137 27.9775C76.7572 28.0781 76.8207 28.1689 76.9004 28.2441L96.9492 47.2197Z" stroke="url(#paint4_linear_1567_100)" stroke-width="4.87805"/>
<path d="M76.9484 73.0246C76.8641 73.1023 76.7969 73.1965 76.7509 73.3015C76.7049 73.4064 76.6812 73.5198 76.6812 73.6344C76.6812 73.749 76.7049 73.8623 76.7509 73.9672C76.7969 74.0722 76.8641 74.1665 76.9484 74.2441L103.07 98.9758C103.229 99.1226 103.439 99.2013 103.656 99.1953H143.778C143.944 99.1951 144.107 99.1446 144.245 99.0504C144.383 98.9562 144.489 98.8227 144.549 98.6673C144.61 98.5119 144.622 98.3418 144.585 98.1793C144.547 98.0168 144.461 97.8694 144.339 97.7563L98.1679 54.0734C98.0149 53.9328 97.8147 53.8549 97.6069 53.8549C97.3992 53.8549 97.199 53.9328 97.046 54.0734L76.9484 73.0246Z" stroke="url(#paint5_linear_1567_100)" stroke-width="4.87805"/>
<path d="M422.428 48.8237C422.412 45.8546 421.812 42.9176 420.662 40.1804C419.511 37.4433 417.832 34.9595 415.722 32.871C413.611 30.7826 411.11 29.1302 408.361 28.0084C405.612 26.8865 402.669 26.3171 399.7 26.3327L377.554 26.4486C374.585 26.4641 371.648 27.0643 368.911 28.2149C366.174 29.3654 363.69 31.0439 361.601 33.1544C359.513 35.2648 357.86 37.766 356.739 40.5151C355.617 43.2641 355.047 46.2072 355.063 49.1764L355.08 52.4934C355.096 55.4626 355.696 58.3995 356.847 61.1367C357.997 63.8739 359.676 66.3576 361.786 68.4461C363.897 70.5346 366.398 72.1869 369.147 73.3088C371.896 74.4306 374.839 75 377.808 74.9844L399.954 74.8686C402.923 74.853 405.86 74.2528 408.597 73.1023C411.334 71.9517 413.818 70.2732 415.907 68.1628C417.995 66.0523 419.648 63.5511 420.769 60.8021C421.891 58.053 422.461 55.1099 422.445 52.1408L422.428 48.8237Z" stroke="url(#paint6_linear_1567_100)" stroke-width="4.87805"/>
<path d="M197.51 61.4145C197.607 61.4156 197.702 61.3906 197.786 61.3418C197.87 61.293 197.94 61.2222 197.989 61.1362C198.039 61.0502 198.065 60.952 198.066 60.8512C198.068 60.7504 198.044 60.6503 197.997 60.5609L184.436 37.0974C184.328 36.9155 184.175 36.7647 183.991 36.66C183.807 36.5553 183.599 36.5002 183.388 36.5002C183.176 36.5002 182.968 36.5553 182.784 36.66C182.6 36.7647 182.447 36.9155 182.339 37.0974L148.973 94.9023C148.918 95.0001 148.842 95.084 148.75 95.1477C148.658 95.2114 148.553 95.2531 148.442 95.2696C148.331 95.286 148.218 95.2769 148.111 95.2428C148.005 95.2088 147.907 95.1507 147.827 95.0731L130.875 79.0243C130.725 78.889 130.626 78.7059 130.594 78.5059C130.563 78.3059 130.602 78.1013 130.705 77.9267C153.209 40.6584 166.355 18.7641 170.144 12.2438C173.022 7.31695 175.501 4.24378 177.583 3.02427C183.656 -0.536705 190.778 1.14624 194.729 7.26819C196.778 10.4389 198.136 12.5853 198.802 13.7072C218.542 46.569 235.51 74.6747 249.705 98.0243C249.775 98.1315 249.814 98.2557 249.817 98.3838C249.82 98.5118 249.787 98.6389 249.722 98.7515C249.657 98.8641 249.562 98.958 249.447 99.0232C249.333 99.0884 249.202 99.1225 249.071 99.1218H222.144C221.81 99.1222 221.484 99.0368 221.197 98.8741C220.91 98.7114 220.673 98.4772 220.51 98.195L209.827 79.6828C209.64 79.3635 209.375 79.0987 209.058 78.9147C208.742 78.7307 208.384 78.634 208.022 78.634H166.461C166.426 78.6365 166.392 78.6288 166.361 78.6116C166.331 78.5944 166.306 78.5684 166.289 78.5361C166.272 78.5039 166.262 78.4666 166.263 78.4281C166.263 78.3896 166.272 78.3513 166.29 78.317L175.778 61.9023C175.866 61.7544 175.991 61.6317 176.141 61.5463C176.29 61.4608 176.459 61.4154 176.631 61.4145H197.51Z" fill="url(#paint7_linear_1567_100)"/>
<path d="M249.046 89.6341L227.339 52.0488C226.939 51.3443 226.721 50.5564 226.705 49.7561C226.509 30.2602 226.55 17.4553 226.827 11.3415C226.892 9.91057 227.851 7.9431 229.705 5.43903C233.851 -0.170724 242.924 0.0243863 247.29 4.34146C266.721 23.4959 284.981 41.4553 302.07 58.2195C302.166 58.317 302.289 58.3837 302.422 58.4109C302.556 58.4381 302.695 58.4245 302.821 58.372C302.947 58.3195 303.054 58.2305 303.129 58.1163C303.204 58.0022 303.243 57.8682 303.241 57.7317V2.46342C303.241 2.24348 303.329 2.03255 303.484 1.87703C303.64 1.72152 303.851 1.63414 304.07 1.63414H326.339C326.533 1.63414 326.719 1.71123 326.856 1.84845C326.993 1.98567 327.07 2.17179 327.07 2.36586C326.973 44.935 326.981 72.0081 327.095 83.5854C327.241 99.7561 315.241 106.317 303.192 94.3415C285.924 77.1545 268.672 59.8618 251.436 42.4634C251.337 42.3594 251.209 42.2879 251.069 42.2585C250.928 42.229 250.782 42.243 250.65 42.2986C250.517 42.3542 250.405 42.4487 250.328 42.5697C250.25 42.6906 250.212 42.8322 250.217 42.9756V89.3171C250.212 89.4528 250.165 89.5836 250.08 89.6901C249.996 89.7966 249.88 89.8733 249.749 89.9088C249.618 89.9443 249.479 89.9368 249.352 89.8873C249.226 89.8379 249.118 89.7491 249.046 89.6341Z" fill="url(#paint8_linear_1567_100)"/>
<path d="M93.7783 50.7805C93.7783 50.9024 93.7539 51.2439 93.6563 51.3414C66.453 77.1301 50.2336 92.4146 44.9978 97.1951C43.6178 98.4648 41.8159 99.1699 39.949 99.1707H1.82704C1.69991 99.1688 1.57525 99.1295 1.46942 99.058C1.3636 98.9865 1.28157 98.8861 1.23409 98.7701C1.1866 98.654 1.1759 98.5277 1.20337 98.4076C1.23084 98.2876 1.29521 98.1795 1.38802 98.0975C29.7457 71.5122 46.3555 55.9187 51.2173 51.317C51.2294 51.306 51.2454 51.2596 51.263 51.1848C51.2806 51.11 51.2988 51.0109 51.3149 50.9024C51.3311 50.8374 51.3392 50.7723 51.3392 50.7073C51.3392 50.6585 51.3311 50.6016 51.3149 50.5366C51.2988 50.4258 51.2805 50.3249 51.2629 50.2498C51.2452 50.1748 51.2292 50.1298 51.2173 50.1219C46.3718 45.504 29.8189 29.8536 1.55875 3.17071C1.46582 3.08874 1.40136 2.98062 1.37382 2.86057C1.34628 2.74051 1.35696 2.61413 1.40445 2.49804C1.45195 2.38195 1.53403 2.28156 1.63993 2.21008C1.74582 2.1386 1.87056 2.09937 1.99777 2.09753L40.1197 2.21949C41.9899 2.22691 43.7923 2.94088 45.1685 4.21949C50.388 9.01624 66.5506 24.3577 93.6563 50.2439C93.7539 50.3414 93.7783 50.6829 93.7783 50.7805Z" fill="url(#paint9_linear_1567_100)"/>
<path d="M446.669 53.9444C446.71 65.7432 442.063 77.0751 433.749 85.4472C425.435 93.8194 414.136 98.5459 402.337 98.5871L375.557 98.6805C369.714 98.7009 363.925 97.5704 358.52 95.3536C353.115 93.1367 348.199 89.8769 344.054 85.7603C339.908 81.6437 336.614 76.7508 334.359 71.3611C332.105 65.9715 330.934 60.1905 330.914 54.3483L330.888 46.9825C330.847 35.1837 335.494 23.8518 343.808 15.4797C352.122 7.10754 363.421 2.38098 375.22 2.33978L402 2.24637C407.843 2.22596 413.632 3.35646 419.037 5.57332C424.442 7.79018 429.358 11.05 433.503 15.1666C437.649 19.2832 440.943 24.1761 443.197 29.5657C445.452 34.9554 446.623 40.7364 446.643 46.5786L446.669 53.9444ZM422.428 48.8237C422.412 45.8546 421.812 42.9176 420.662 40.1804C419.511 37.4433 417.832 34.9595 415.722 32.8711C413.611 30.7826 411.11 29.1302 408.361 28.0084C405.612 26.8865 402.669 26.3171 399.7 26.3327L377.554 26.4486C374.585 26.4641 371.648 27.0643 368.911 28.2149C366.174 29.3655 363.69 31.0439 361.601 33.1544C359.513 35.2648 357.86 37.766 356.739 40.5151C355.617 43.2641 355.047 46.2072 355.063 49.1764L355.08 52.4934C355.096 55.4626 355.696 58.3996 356.847 61.1367C357.997 63.8739 359.676 66.3576 361.786 68.4461C363.897 70.5346 366.398 72.1869 369.147 73.3088C371.896 74.4306 374.839 75 377.808 74.9844L399.954 74.8686C402.923 74.853 405.86 74.2528 408.597 73.1023C411.335 71.9517 413.818 70.2732 415.907 68.1628C417.995 66.0523 419.648 63.5511 420.77 60.8021C421.891 58.053 422.461 55.1099 422.445 52.1408L422.428 48.8237Z" fill="url(#paint10_linear_1567_100)"/>
<path d="M96.9492 47.2196L76.9004 28.244C76.8207 28.1688 76.7572 28.0781 76.7137 27.9774C76.6703 27.8767 76.6479 27.7683 76.6479 27.6587C76.6479 27.549 76.6703 27.4406 76.7137 27.3399C76.7572 27.2393 76.8207 27.1485 76.9004 27.0733L102.998 2.43915C103.149 2.29613 103.351 2.21745 103.559 2.21965H143.754C143.916 2.21792 144.075 2.26504 144.209 2.3549C144.344 2.44475 144.448 2.57315 144.509 2.7233C144.57 2.87345 144.584 3.03838 144.549 3.19655C144.514 3.35472 144.433 3.49877 144.315 3.60989L98.0711 47.2196C97.9209 47.3657 97.7197 47.4473 97.5102 47.4473C97.3007 47.4473 97.0994 47.3657 96.9492 47.2196Z" fill="url(#paint11_linear_1567_100)"/>
<path d="M76.9484 73.0245L97.046 54.0733C97.199 53.9327 97.3992 53.8547 97.6069 53.8547C97.8147 53.8547 98.0149 53.9327 98.1679 54.0733L144.339 97.7562C144.461 97.8693 144.547 98.0167 144.585 98.1792C144.622 98.3417 144.61 98.5118 144.549 98.6672C144.489 98.8226 144.383 98.9561 144.245 99.0503C144.107 99.1445 143.944 99.195 143.778 99.1952H103.656C103.439 99.2012 103.229 99.1225 103.07 98.9757L76.9484 74.244C76.8641 74.1664 76.7969 74.0721 76.7509 73.9671C76.7049 73.8622 76.6812 73.7488 76.6812 73.6343C76.6812 73.5197 76.7049 73.4063 76.7509 73.3014C76.7969 73.1964 76.8641 73.1022 76.9484 73.0245Z" fill="url(#paint12_linear_1567_100)"/>
</g>
<defs>
<linearGradient id="paint0_linear_1567_100" x1="190.2" y1="1.17792" x2="190.2" y2="99.1219" gradientUnits="userSpaceOnUse">
<stop/>
<stop offset="1" stop-color="#666666"/>
</linearGradient>
<linearGradient id="paint1_linear_1567_100" x1="276.84" y1="1.16003" x2="276.84" y2="100.487" gradientUnits="userSpaceOnUse">
<stop/>
<stop offset="1" stop-color="#666666"/>
</linearGradient>
<linearGradient id="paint2_linear_1567_100" x1="47.4834" y1="2.0976" x2="47.4834" y2="99.1708" gradientUnits="userSpaceOnUse">
<stop/>
<stop offset="1" stop-color="#666666"/>
</linearGradient>
<linearGradient id="paint3_linear_1567_100" x1="388.778" y1="2.24615" x2="388.778" y2="98.6808" gradientUnits="userSpaceOnUse">
<stop/>
<stop offset="1" stop-color="#666666"/>
</linearGradient>
<linearGradient id="paint4_linear_1567_100" x1="110.608" y1="2.21967" x2="110.608" y2="47.4474" gradientUnits="userSpaceOnUse">
<stop/>
<stop offset="1" stop-color="#666666"/>
</linearGradient>
<linearGradient id="paint5_linear_1567_100" x1="110.644" y1="53.8549" x2="110.644" y2="99.1957" gradientUnits="userSpaceOnUse">
<stop/>
<stop offset="1" stop-color="#666666"/>
</linearGradient>
<linearGradient id="paint6_linear_1567_100" x1="388.754" y1="26.3324" x2="388.754" y2="74.9847" gradientUnits="userSpaceOnUse">
<stop/>
<stop offset="1" stop-color="#666666"/>
</linearGradient>
<linearGradient id="paint7_linear_1567_100" x1="190.2" y1="1.17786" x2="190.2" y2="99.1218" gradientUnits="userSpaceOnUse">
<stop/>
<stop offset="1" stop-color="#666666"/>
</linearGradient>
<linearGradient id="paint8_linear_1567_100" x1="276.84" y1="1.15997" x2="276.84" y2="100.487" gradientUnits="userSpaceOnUse">
<stop/>
<stop offset="1" stop-color="#666666"/>
</linearGradient>
<linearGradient id="paint9_linear_1567_100" x1="47.4834" y1="2.09753" x2="47.4834" y2="99.1707" gradientUnits="userSpaceOnUse">
<stop/>
<stop offset="1" stop-color="#666666"/>
</linearGradient>
<linearGradient id="paint10_linear_1567_100" x1="388.778" y1="2.24609" x2="388.778" y2="98.6808" gradientUnits="userSpaceOnUse">
<stop/>
<stop offset="1" stop-color="#666666"/>
</linearGradient>
<linearGradient id="paint11_linear_1567_100" x1="110.608" y1="2.2196" x2="110.608" y2="47.4473" gradientUnits="userSpaceOnUse">
<stop/>
<stop offset="1" stop-color="#666666"/>
</linearGradient>
<linearGradient id="paint12_linear_1567_100" x1="110.644" y1="53.8547" x2="110.644" y2="99.1955" gradientUnits="userSpaceOnUse">
<stop/>
<stop offset="1" stop-color="#666666"/>
</linearGradient>
<clipPath id="clip0_1567_100">
<rect width="446.341" height="100" fill="white" transform="translate(0.94873)"/>
</clipPath>
</defs>
</svg>
