<?xml version="1.0" encoding="UTF-8" standalone="no"?>
<!DOCTYPE svg PUBLIC "-//W3C//DTD SVG 1.1//EN" "http://www.w3.org/Graphics/SVG/1.1/DTD/svg11.dtd">
<svg xmlns="http://www.w3.org/2000/svg" version="1.1" viewBox="0.00 0.00 301.00 167.00">
<g stroke-width="2.00" fill="none" stroke-linecap="butt">
<path stroke="#808080" vector-effect="non-scaling-stroke" d="
  M 26.98 74.61
  L 27.04 51.28
  A 0.42 0.42 0.0 0 0 26.62 50.86
  L 18.92 50.84
  A 0.45 0.45 0.0 0 0 18.46 51.30
  Q 18.51 62.97 18.36 87.39
  Q 18.31 96.06 19.73 99.82
  C 23.19 108.97 31.26 115.38 41.14 115.82
  C 53.28 116.38 63.63 108.26 65.99 96.63
  C 70.46 74.50 44.17 57.75 27.50 74.82
  A 0.30 0.30 0.0 0 1 26.98 74.61"
/>
<path stroke="#808080" vector-effect="non-scaling-stroke" d="
  M 130.50 74.64
  L 130.50 51.29
  A 0.42 0.42 0.0 0 0 130.08 50.87
  L 122.37 50.87
  A 0.45 0.45 0.0 0 0 121.92 51.33
  Q 121.99 63.01 121.90 87.45
  Q 121.87 96.13 123.30 99.89
  C 126.79 109.04 134.88 115.43 144.77 115.85
  C 156.92 116.38 167.26 108.23 169.59 96.58
  C 174.02 74.42 147.66 57.72 131.02 74.85
  A 0.30 0.30 0.0 0 1 130.50 74.64"
/>
<path stroke="#808080" vector-effect="non-scaling-stroke" d="
  M 184.52 74.66
  L 184.50 51.32
  A 0.42 0.42 0.0 0 0 184.08 50.90
  L 176.37 50.91
  A 0.45 0.45 0.0 0 0 175.92 51.37
  Q 176.00 63.04 175.93 87.47
  Q 175.91 96.15 177.34 99.90
  C 180.83 109.05 188.92 115.43 198.81 115.84
  C 210.95 116.36 221.28 108.21 223.60 96.56
  C 228.01 74.41 201.65 57.74 185.04 74.87
  A 0.30 0.30 0.0 0 1 184.52 74.66"
/>
<path stroke="#808080" vector-effect="non-scaling-stroke" d="
  M 241.05 51.18
  A 0.27 0.27 0.0 0 0 240.78 50.91
  L 232.10 50.91
  A 0.27 0.27 0.0 0 0 231.83 51.18
  L 231.83 114.64
  A 0.27 0.27 0.0 0 0 232.10 114.91
  L 240.78 114.91
  A 0.27 0.27 0.0 0 0 241.05 114.64
  L 241.05 51.18"
/>
<path stroke="#808080" vector-effect="non-scaling-stroke" d="
  M 258.84 95.49
  L 293.46 95.49
  A 0.61 0.60 -86.8 0 0 294.06 94.95
  C 295.47 83.05 290.88 72.56 279.22 68.93
  C 270.88 66.33 260.45 68.54 254.54 75.48
  Q 247.00 84.34 249.09 96.26
  C 252.94 118.10 276.54 120.13 292.46 109.74
  A 0.56 0.56 0.0 0 0 292.64 108.99
  L 289.29 103.18
  A 0.53 0.53 0.0 0 0 288.54 103.01
  C 278.81 109.49 261.92 110.85 258.27 96.22
  A 0.59 0.59 0.0 0 1 258.84 95.49"
/>
<path stroke="#808080" vector-effect="non-scaling-stroke" d="
  M 92.90 115.95
  C 101.25 115.95 108.27 112.33 111.56 104.53
  Q 113.05 101.00 113.00 92.83
  Q 112.94 83.53 113.01 69.48
  A 0.39 0.39 0.0 0 0 112.62 69.09
  L 104.01 69.09
  A 0.33 0.33 0.0 0 0 103.68 69.42
  Q 103.73 91.85 103.68 96.23
  C 103.60 103.09 99.58 107.36 92.90 107.36
  C 86.22 107.35 82.20 103.08 82.13 96.22
  Q 82.08 91.84 82.15 69.41
  A 0.33 0.33 0.0 0 0 81.82 69.08
  L 73.21 69.07
  A 0.39 0.39 0.0 0 0 72.82 69.46
  Q 72.88 83.51 72.81 92.81
  Q 72.75 100.98 74.24 104.52
  C 77.52 112.31 84.54 115.94 92.90 115.95"
/>
<path stroke="#8080ff" vector-effect="non-scaling-stroke" d="
  M 17.83 110.03
  A 5.86 5.86 0.0 0 0 11.97 104.17
  A 5.86 5.86 0.0 0 0 6.11 110.03
  A 5.86 5.86 0.0 0 0 11.97 115.89
  A 5.86 5.86 0.0 0 0 17.83 110.03"
/>
<path stroke="#808080" vector-effect="non-scaling-stroke" d="
  M 57.33 91.89
  A 14.89 14.89 0.0 0 0 42.44 77.00
  A 14.89 14.89 0.0 0 0 27.55 91.89
  A 14.89 14.89 0.0 0 0 42.44 106.78
  A 14.89 14.89 0.0 0 0 57.33 91.89"
/>
<path stroke="#808080" vector-effect="non-scaling-stroke" d="
  M 160.91 91.89
  A 14.90 14.90 0.0 0 0 146.01 76.99
  A 14.90 14.90 0.0 0 0 131.11 91.89
  A 14.90 14.90 0.0 0 0 146.01 106.79
  A 14.90 14.90 0.0 0 0 160.91 91.89"
/>
<path stroke="#808080" vector-effect="non-scaling-stroke" d="
  M 214.92 91.89
  A 14.89 14.89 0.0 0 0 200.03 77.00
  A 14.89 14.89 0.0 0 0 185.14 91.89
  A 14.89 14.89 0.0 0 0 200.03 106.78
  A 14.89 14.89 0.0 0 0 214.92 91.89"
/>
<path stroke="#808080" vector-effect="non-scaling-stroke" d="
  M 271.71 87.93
  Q 284.27 87.91 284.68 87.90
  A 0.42 0.42 0.0 0 0 285.07 87.40
  C 283.74 80.61 278.66 76.04 271.69 76.05
  C 264.72 76.06 259.65 80.64 258.34 87.44
  A 0.42 0.42 0.0 0 0 258.74 87.93
  Q 259.15 87.95 271.71 87.93"
/>
</g>
<path fill="#ffffff" d="
  M 301.00 0.00
  L 301.00 167.00
  L 0.00 167.00
  L 0.00 0.00
  L 301.00 0.00
  Z
  M 26.98 74.61
  L 27.04 51.28
  A 0.42 0.42 0.0 0 0 26.62 50.86
  L 18.92 50.84
  A 0.45 0.45 0.0 0 0 18.46 51.30
  Q 18.51 62.97 18.36 87.39
  Q 18.31 96.06 19.73 99.82
  C 23.19 108.97 31.26 115.38 41.14 115.82
  C 53.28 116.38 63.63 108.26 65.99 96.63
  C 70.46 74.50 44.17 57.75 27.50 74.82
  A 0.30 0.30 0.0 0 1 26.98 74.61
  Z
  M 130.50 74.64
  L 130.50 51.29
  A 0.42 0.42 0.0 0 0 130.08 50.87
  L 122.37 50.87
  A 0.45 0.45 0.0 0 0 121.92 51.33
  Q 121.99 63.01 121.90 87.45
  Q 121.87 96.13 123.30 99.89
  C 126.79 109.04 134.88 115.43 144.77 115.85
  C 156.92 116.38 167.26 108.23 169.59 96.58
  C 174.02 74.42 147.66 57.72 131.02 74.85
  A 0.30 0.30 0.0 0 1 130.50 74.64
  Z
  M 184.52 74.66
  L 184.50 51.32
  A 0.42 0.42 0.0 0 0 184.08 50.90
  L 176.37 50.91
  A 0.45 0.45 0.0 0 0 175.92 51.37
  Q 176.00 63.04 175.93 87.47
  Q 175.91 96.15 177.34 99.90
  C 180.83 109.05 188.92 115.43 198.81 115.84
  C 210.95 116.36 221.28 108.21 223.60 96.56
  C 228.01 74.41 201.65 57.74 185.04 74.87
  A 0.30 0.30 0.0 0 1 184.52 74.66
  Z
  M 241.05 51.18
  A 0.27 0.27 0.0 0 0 240.78 50.91
  L 232.10 50.91
  A 0.27 0.27 0.0 0 0 231.83 51.18
  L 231.83 114.64
  A 0.27 0.27 0.0 0 0 232.10 114.91
  L 240.78 114.91
  A 0.27 0.27 0.0 0 0 241.05 114.64
  L 241.05 51.18
  Z
  M 258.84 95.49
  L 293.46 95.49
  A 0.61 0.60 -86.8 0 0 294.06 94.95
  C 295.47 83.05 290.88 72.56 279.22 68.93
  C 270.88 66.33 260.45 68.54 254.54 75.48
  Q 247.00 84.34 249.09 96.26
  C 252.94 118.10 276.54 120.13 292.46 109.74
  A 0.56 0.56 0.0 0 0 292.64 108.99
  L 289.29 103.18
  A 0.53 0.53 0.0 0 0 288.54 103.01
  C 278.81 109.49 261.92 110.85 258.27 96.22
  A 0.59 0.59 0.0 0 1 258.84 95.49
  Z
  M 92.90 115.95
  C 101.25 115.95 108.27 112.33 111.56 104.53
  Q 113.05 101.00 113.00 92.83
  Q 112.94 83.53 113.01 69.48
  A 0.39 0.39 0.0 0 0 112.62 69.09
  L 104.01 69.09
  A 0.33 0.33 0.0 0 0 103.68 69.42
  Q 103.73 91.85 103.68 96.23
  C 103.60 103.09 99.58 107.36 92.90 107.36
  C 86.22 107.35 82.20 103.08 82.13 96.22
  Q 82.08 91.84 82.15 69.41
  A 0.33 0.33 0.0 0 0 81.82 69.08
  L 73.21 69.07
  A 0.39 0.39 0.0 0 0 72.82 69.46
  Q 72.88 83.51 72.81 92.81
  Q 72.75 100.98 74.24 104.52
  C 77.52 112.31 84.54 115.94 92.90 115.95
  Z
  M 17.83 110.03
  A 5.86 5.86 0.0 0 0 11.97 104.17
  A 5.86 5.86 0.0 0 0 6.11 110.03
  A 5.86 5.86 0.0 0 0 11.97 115.89
  A 5.86 5.86 0.0 0 0 17.83 110.03
  Z"
/>
<path fill="#000000" d="
  M 26.98 74.61
  A 0.30 0.30 0.0 0 0 27.50 74.82
  C 44.17 57.75 70.46 74.50 65.99 96.63
  C 63.63 108.26 53.28 116.38 41.14 115.82
  C 31.26 115.38 23.19 108.97 19.73 99.82
  Q 18.31 96.06 18.36 87.39
  Q 18.51 62.97 18.46 51.30
  A 0.45 0.45 0.0 0 1 18.92 50.84
  L 26.62 50.86
  A 0.42 0.42 0.0 0 1 27.04 51.28
  L 26.98 74.61
  Z
  M 57.33 91.89
  A 14.89 14.89 0.0 0 0 42.44 77.00
  A 14.89 14.89 0.0 0 0 27.55 91.89
  A 14.89 14.89 0.0 0 0 42.44 106.78
  A 14.89 14.89 0.0 0 0 57.33 91.89
  Z"
/>
<path fill="#000000" d="
  M 130.50 74.64
  A 0.30 0.30 0.0 0 0 131.02 74.85
  C 147.66 57.72 174.02 74.42 169.59 96.58
  C 167.26 108.23 156.92 116.38 144.77 115.85
  C 134.88 115.43 126.79 109.04 123.30 99.89
  Q 121.87 96.13 121.90 87.45
  Q 121.99 63.01 121.92 51.33
  A 0.45 0.45 0.0 0 1 122.37 50.87
  L 130.08 50.87
  A 0.42 0.42 0.0 0 1 130.50 51.29
  L 130.50 74.64
  Z
  M 160.91 91.89
  A 14.90 14.90 0.0 0 0 146.01 76.99
  A 14.90 14.90 0.0 0 0 131.11 91.89
  A 14.90 14.90 0.0 0 0 146.01 106.79
  A 14.90 14.90 0.0 0 0 160.91 91.89
  Z"
/>
<path fill="#000000" d="
  M 184.52 74.66
  A 0.30 0.30 0.0 0 0 185.04 74.87
  C 201.65 57.74 228.01 74.41 223.60 96.56
  C 221.28 108.21 210.95 116.36 198.81 115.84
  C 188.92 115.43 180.83 109.05 177.34 99.90
  Q 175.91 96.15 175.93 87.47
  Q 176.00 63.04 175.92 51.37
  A 0.45 0.45 0.0 0 1 176.37 50.91
  L 184.08 50.90
  A 0.42 0.42 0.0 0 1 184.50 51.32
  L 184.52 74.66
  Z
  M 214.92 91.89
  A 14.89 14.89 0.0 0 0 200.03 77.00
  A 14.89 14.89 0.0 0 0 185.14 91.89
  A 14.89 14.89 0.0 0 0 200.03 106.78
  A 14.89 14.89 0.0 0 0 214.92 91.89
  Z"
/>
<rect fill="#000000" x="231.83" y="50.91" width="9.22" height="64.00" rx="0.27"/>
<path fill="#000000" d="
  M 258.27 96.22
  C 261.92 110.85 278.81 109.49 288.54 103.01
  A 0.53 0.53 0.0 0 1 289.29 103.18
  L 292.64 108.99
  A 0.56 0.56 0.0 0 1 292.46 109.74
  C 276.54 120.13 252.94 118.10 249.09 96.26
  Q 247.00 84.34 254.54 75.48
  C 260.45 68.54 270.88 66.33 279.22 68.93
  C 290.88 72.56 295.47 83.05 294.06 94.95
  A 0.61 0.60 -86.8 0 1 293.46 95.49
  L 258.84 95.49
  A 0.59 0.59 0.0 0 0 258.27 96.22
  Z
  M 271.71 87.93
  Q 284.27 87.91 284.68 87.90
  A 0.42 0.42 0.0 0 0 285.07 87.40
  C 283.74 80.61 278.66 76.04 271.69 76.05
  C 264.72 76.06 259.65 80.64 258.34 87.44
  A 0.42 0.42 0.0 0 0 258.74 87.93
  Q 259.15 87.95 271.71 87.93
  Z"
/>
<path fill="#000000" d="
  M 92.90 107.36
  C 99.58 107.36 103.60 103.09 103.68 96.23
  Q 103.73 91.85 103.68 69.42
  A 0.33 0.33 0.0 0 1 104.01 69.09
  L 112.62 69.09
  A 0.39 0.39 0.0 0 1 113.01 69.48
  Q 112.94 83.53 113.00 92.83
  Q 113.05 101.00 111.56 104.53
  C 108.27 112.33 101.25 115.95 92.90 115.95
  C 84.54 115.94 77.52 112.31 74.24 104.52
  Q 72.75 100.98 72.81 92.81
  Q 72.88 83.51 72.82 69.46
  A 0.39 0.39 0.0 0 1 73.21 69.07
  L 81.82 69.08
  A 0.33 0.33 0.0 0 1 82.15 69.41
  Q 82.08 91.84 82.13 96.22
  C 82.20 103.08 86.22 107.35 92.90 107.36
  Z"
/>
<path fill="#ffffff" d="
  M 271.69 76.05
  C 278.66 76.04 283.74 80.61 285.07 87.40
  A 0.42 0.42 0.0 0 1 284.68 87.90
  Q 284.27 87.91 271.71 87.93
  Q 259.15 87.95 258.74 87.93
  A 0.42 0.42 0.0 0 1 258.34 87.44
  C 259.65 80.64 264.72 76.06 271.69 76.05
  Z"
/>
<circle fill="#ffffff" cx="42.44" cy="91.89" r="14.89"/>
<circle fill="#ffffff" cx="146.01" cy="91.89" r="14.90"/>
<circle fill="#ffffff" cx="200.03" cy="91.89" r="14.89"/>
<circle fill="#0101ff" cx="11.97" cy="110.03" r="5.86"/>
</svg>
