<?xml version="1.0" encoding="UTF-8" standalone="no"?>
<!DOCTYPE svg PUBLIC "-//W3C//DTD SVG 1.1//EN" "http://www.w3.org/Graphics/SVG/1.1/DTD/svg11.dtd">
<svg xmlns="http://www.w3.org/2000/svg" version="1.1" viewBox="0.00 0.00 367.00 137.00">
<g stroke-width="2.00" fill="none" stroke-linecap="butt">
<path stroke="#808080" vector-effect="non-scaling-stroke" d="
  M 234.12 61.48
  L 234.12 43.22
  A 1.30 1.29 -0.0 0 0 232.82 41.93
  L 224.49 41.93
  A 0.87 0.87 0.0 0 0 223.62 42.80
  L 223.62 84.72
  A 1.10 1.10 0.0 0 0 224.72 85.82
  L 232.81 85.82
  A 1.31 1.31 0.0 0 0 234.12 84.51
  L 234.12 73.57
  A 1.18 1.18 0.0 0 1 234.49 72.71
  L 236.80 70.61
  A 0.30 0.30 0.0 0 1 237.27 70.68
  L 245.75 85.37
  A 0.88 0.87 -14.7 0 0 246.51 85.81
  L 255.91 85.81
  A 1.21 1.21 0.0 0 0 256.96 83.99
  L 245.71 64.51
  A 0.86 0.86 0.0 0 1 245.88 63.45
  L 255.38 54.78
  A 1.11 1.10 23.7 0 0 254.63 52.86
  L 246.07 52.86
  A 5.34 5.31 23.8 0 0 242.49 54.24
  L 234.42 61.61
  A 0.18 0.18 0.0 0 1 234.12 61.48"
/>
<path stroke="#808080" vector-effect="non-scaling-stroke" d="
  M 209.92 83.71
  Q 209.78 85.15 210.31 85.50
  A 2.07 2.05 -28.4 0 0 211.43 85.83
  L 219.12 85.77
  A 1.01 1.01 0.0 0 0 220.13 84.75
  Q 220.10 81.34 220.17 66.77
  Q 220.20 61.49 219.34 59.32
  C 216.70 52.62 208.45 51.18 201.96 52.11
  Q 194.01 53.24 190.69 59.61
  A 1.67 1.66 20.5 0 0 191.78 61.99
  L 197.51 63.37
  A 2.56 2.56 0.0 0 0 200.38 62.07
  Q 201.59 59.75 206.00 60.09
  Q 208.52 60.29 209.72 62.75
  A 0.50 0.49 -20.3 0 1 209.39 63.45
  Q 204.76 64.62 199.87 65.89
  C 194.10 67.39 188.51 70.52 189.76 77.50
  Q 190.54 81.84 192.74 83.46
  Q 200.91 89.47 209.34 83.38
  A 0.37 0.36 -14.9 0 1 209.92 83.71"
/>
<path stroke="#808080" vector-effect="non-scaling-stroke" d="
  M 145.07 55.71
  L 145.07 53.48
  A 0.64 0.63 -0.0 0 0 144.43 52.85
  L 135.41 52.85
  A 0.91 0.90 -90.0 0 0 134.51 53.76
  L 134.51 84.76
  A 1.07 1.06 -90.0 0 0 135.57 85.83
  L 143.95 85.83
  A 1.13 1.13 0.0 0 0 145.08 84.70
  L 145.08 65.77
  A 2.01 1.98 -31.8 0 1 145.30 64.86
  C 147.81 59.92 155.30 60.56 155.34 66.47
  Q 155.39 73.86 155.37 84.74
  A 1.07 1.06 0.3 0 0 156.44 85.81
  L 164.78 85.81
  A 1.25 1.25 0.0 0 0 166.03 84.56
  L 166.03 65.44
  A 1.52 1.50 -28.0 0 1 166.30 64.58
  Q 169.70 59.76 174.38 62.46
  A 1.96 1.90 1.7 0 1 175.13 63.23
  Q 176.12 65.08 176.12 66.37
  Q 176.17 76.35 176.10 84.58
  A 1.22 1.22 0.0 0 0 177.32 85.81
  L 185.80 85.81
  A 0.88 0.87 0.0 0 0 186.68 84.94
  Q 186.74 73.27 186.68 64.25
  C 186.60 51.39 172.41 48.68 164.13 56.22
  A 0.50 0.50 0.0 0 1 163.43 56.20
  Q 157.53 49.93 149.39 53.13
  C 147.79 53.76 146.76 54.96 145.51 55.93
  A 0.28 0.27 71.3 0 1 145.07 55.71"
/>
<path stroke="#808080" vector-effect="non-scaling-stroke" d="
  M 265.84 71.75
  L 286.83 71.75
  A 1.20 1.20 0.0 0 0 288.03 70.58
  Q 288.13 66.98 286.98 63.00
  C 282.79 48.51 261.78 48.33 256.24 61.73
  C 252.60 70.51 255.52 81.55 265.03 85.05
  Q 274.14 88.42 282.70 83.98
  Q 284.37 83.12 287.04 79.83
  A 1.12 1.12 0.0 0 0 286.73 78.16
  L 281.28 75.01
  A 1.25 1.24 -52.6 0 0 279.77 75.22
  Q 274.36 80.74 267.79 76.76
  Q 266.39 75.92 265.34 72.41
  A 0.52 0.51 -8.3 0 1 265.84 71.75"
/>
<path stroke="#d29cf0" vector-effect="non-scaling-stroke" d="
  M 94.1926 58.0287
  A 1.16 1.16 0.0 0 0 93.6802 56.4703
  L 86.2717 52.7280
  A 1.16 1.16 0.0 0 0 84.7133 53.2404
  L 70.9074 80.5713
  A 1.16 1.16 0.0 0 0 71.4198 82.1297
  L 78.8283 85.8720
  A 1.16 1.16 0.0 0 0 80.3867 85.3596
  L 94.1926 58.0287"
/>
<path stroke="#d29cf0" vector-effect="non-scaling-stroke" d="
  M 95.06 59.88
  L 90.46 83.07
  A 1.17 1.17 0.0 0 0 91.38 84.45
  L 99.63 86.06
  A 1.07 1.07 0.0 0 0 100.88 85.22
  L 103.08 74.00"
/>
<path stroke="#a791db" vector-effect="non-scaling-stroke" d="
  M 103.08 74.00
  L 106.71 55.27
  A 1.02 1.02 0.0 0 0 105.91 54.08
  L 97.56 52.45
  A 1.02 1.02 0.0 0 0 96.37 53.25
  L 95.06 59.88"
/>
<path stroke="#792ecc" vector-effect="non-scaling-stroke" d="
  M 103.08 74.00
  Q 101.20 66.75 95.06 59.88"
/>
<path stroke="#a791db" vector-effect="non-scaling-stroke" d="
  M 118.6467 53.9592
  A 1.10 1.10 0.0 0 0 117.5486 52.8573
  L 109.2086 52.8427
  A 1.10 1.10 0.0 0 0 108.1067 53.9408
  L 108.0533 84.5408
  A 1.10 1.10 0.0 0 0 109.1514 85.6427
  L 117.4914 85.6573
  A 1.10 1.10 0.0 0 0 118.5933 84.5592
  L 118.6467 53.9592"
/>
<path stroke="#808080" vector-effect="non-scaling-stroke" d="
  M 209.27 70.46
  C 206.74 71.09 197.18 72.91 200.78 77.01
  C 203.05 79.60 206.96 77.70 209.28 75.96
  A 1.07 1.05 -18.6 0 0 209.71 75.11
  L 209.71 70.80
  A 0.35 0.35 0.0 0 0 209.27 70.46"
/>
<path stroke="#808080" vector-effect="non-scaling-stroke" d="
  M 265.73 65.49
  L 277.09 65.45
  A 0.16 0.16 0.0 0 0 277.25 65.29
  L 277.25 65.19
  A 5.58 5.24 -0.2 0 0 271.65 59.97
  L 271.13 59.97
  A 5.58 5.24 -0.2 0 0 265.57 65.23
  L 265.57 65.33
  A 0.16 0.16 0.0 0 0 265.73 65.49"
/>
</g>
<path fill="#ffffff" d="
  M 367.00 0.00
  L 367.00 137.00
  L 0.00 137.00
  L 0.00 0.00
  L 367.00 0.00
  Z
  M 234.12 61.48
  L 234.12 43.22
  A 1.30 1.29 -0.0 0 0 232.82 41.93
  L 224.49 41.93
  A 0.87 0.87 0.0 0 0 223.62 42.80
  L 223.62 84.72
  A 1.10 1.10 0.0 0 0 224.72 85.82
  L 232.81 85.82
  A 1.31 1.31 0.0 0 0 234.12 84.51
  L 234.12 73.57
  A 1.18 1.18 0.0 0 1 234.49 72.71
  L 236.80 70.61
  A 0.30 0.30 0.0 0 1 237.27 70.68
  L 245.75 85.37
  A 0.88 0.87 -14.7 0 0 246.51 85.81
  L 255.91 85.81
  A 1.21 1.21 0.0 0 0 256.96 83.99
  L 245.71 64.51
  A 0.86 0.86 0.0 0 1 245.88 63.45
  L 255.38 54.78
  A 1.11 1.10 23.7 0 0 254.63 52.86
  L 246.07 52.86
  A 5.34 5.31 23.8 0 0 242.49 54.24
  L 234.42 61.61
  A 0.18 0.18 0.0 0 1 234.12 61.48
  Z
  M 209.92 83.71
  Q 209.78 85.15 210.31 85.50
  A 2.07 2.05 -28.4 0 0 211.43 85.83
  L 219.12 85.77
  A 1.01 1.01 0.0 0 0 220.13 84.75
  Q 220.10 81.34 220.17 66.77
  Q 220.20 61.49 219.34 59.32
  C 216.70 52.62 208.45 51.18 201.96 52.11
  Q 194.01 53.24 190.69 59.61
  A 1.67 1.66 20.5 0 0 191.78 61.99
  L 197.51 63.37
  A 2.56 2.56 0.0 0 0 200.38 62.07
  Q 201.59 59.75 206.00 60.09
  Q 208.52 60.29 209.72 62.75
  A 0.50 0.49 -20.3 0 1 209.39 63.45
  Q 204.76 64.62 199.87 65.89
  C 194.10 67.39 188.51 70.52 189.76 77.50
  Q 190.54 81.84 192.74 83.46
  Q 200.91 89.47 209.34 83.38
  A 0.37 0.36 -14.9 0 1 209.92 83.71
  Z
  M 145.07 55.71
  L 145.07 53.48
  A 0.64 0.63 -0.0 0 0 144.43 52.85
  L 135.41 52.85
  A 0.91 0.90 -90.0 0 0 134.51 53.76
  L 134.51 84.76
  A 1.07 1.06 -90.0 0 0 135.57 85.83
  L 143.95 85.83
  A 1.13 1.13 0.0 0 0 145.08 84.70
  L 145.08 65.77
  A 2.01 1.98 -31.8 0 1 145.30 64.86
  C 147.81 59.92 155.30 60.56 155.34 66.47
  Q 155.39 73.86 155.37 84.74
  A 1.07 1.06 0.3 0 0 156.44 85.81
  L 164.78 85.81
  A 1.25 1.25 0.0 0 0 166.03 84.56
  L 166.03 65.44
  A 1.52 1.50 -28.0 0 1 166.30 64.58
  Q 169.70 59.76 174.38 62.46
  A 1.96 1.90 1.7 0 1 175.13 63.23
  Q 176.12 65.08 176.12 66.37
  Q 176.17 76.35 176.10 84.58
  A 1.22 1.22 0.0 0 0 177.32 85.81
  L 185.80 85.81
  A 0.88 0.87 0.0 0 0 186.68 84.94
  Q 186.74 73.27 186.68 64.25
  C 186.60 51.39 172.41 48.68 164.13 56.22
  A 0.50 0.50 0.0 0 1 163.43 56.20
  Q 157.53 49.93 149.39 53.13
  C 147.79 53.76 146.76 54.96 145.51 55.93
  A 0.28 0.27 71.3 0 1 145.07 55.71
  Z
  M 265.84 71.75
  L 286.83 71.75
  A 1.20 1.20 0.0 0 0 288.03 70.58
  Q 288.13 66.98 286.98 63.00
  C 282.79 48.51 261.78 48.33 256.24 61.73
  C 252.60 70.51 255.52 81.55 265.03 85.05
  Q 274.14 88.42 282.70 83.98
  Q 284.37 83.12 287.04 79.83
  A 1.12 1.12 0.0 0 0 286.73 78.16
  L 281.28 75.01
  A 1.25 1.24 -52.6 0 0 279.77 75.22
  Q 274.36 80.74 267.79 76.76
  Q 266.39 75.92 265.34 72.41
  A 0.52 0.51 -8.3 0 1 265.84 71.75
  Z
  M 94.1926 58.0287
  A 1.16 1.16 0.0 0 0 93.6802 56.4703
  L 86.2717 52.7280
  A 1.16 1.16 0.0 0 0 84.7133 53.2404
  L 70.9074 80.5713
  A 1.16 1.16 0.0 0 0 71.4198 82.1297
  L 78.8283 85.8720
  A 1.16 1.16 0.0 0 0 80.3867 85.3596
  L 94.1926 58.0287
  Z
  M 95.06 59.88
  L 90.46 83.07
  A 1.17 1.17 0.0 0 0 91.38 84.45
  L 99.63 86.06
  A 1.07 1.07 0.0 0 0 100.88 85.22
  L 103.08 74.00
  L 106.71 55.27
  A 1.02 1.02 0.0 0 0 105.91 54.08
  L 97.56 52.45
  A 1.02 1.02 0.0 0 0 96.37 53.25
  L 95.06 59.88
  Z
  M 118.6467 53.9592
  A 1.10 1.10 0.0 0 0 117.5486 52.8573
  L 109.2086 52.8427
  A 1.10 1.10 0.0 0 0 108.1067 53.9408
  L 108.0533 84.5408
  A 1.10 1.10 0.0 0 0 109.1514 85.6427
  L 117.4914 85.6573
  A 1.10 1.10 0.0 0 0 118.5933 84.5592
  L 118.6467 53.9592
  Z"
/>
<path fill="#000000" d="
  M 234.12 61.48
  A 0.18 0.18 0.0 0 0 234.42 61.61
  L 242.49 54.24
  A 5.34 5.31 23.8 0 1 246.07 52.86
  L 254.63 52.86
  A 1.11 1.10 23.7 0 1 255.38 54.78
  L 245.88 63.45
  A 0.86 0.86 0.0 0 0 245.71 64.51
  L 256.96 83.99
  A 1.21 1.21 0.0 0 1 255.91 85.81
  L 246.51 85.81
  A 0.88 0.87 -14.7 0 1 245.75 85.37
  L 237.27 70.68
  A 0.30 0.30 0.0 0 0 236.80 70.61
  L 234.49 72.71
  A 1.18 1.18 0.0 0 0 234.12 73.57
  L 234.12 84.51
  A 1.31 1.31 0.0 0 1 232.81 85.82
  L 224.72 85.82
  A 1.10 1.10 0.0 0 1 223.62 84.72
  L 223.62 42.80
  A 0.87 0.87 0.0 0 1 224.49 41.93
  L 232.82 41.93
  A 1.30 1.29 -0.0 0 1 234.12 43.22
  L 234.12 61.48
  Z"
/>
<path fill="#000000" d="
  M 209.34 83.38
  Q 200.91 89.47 192.74 83.46
  Q 190.54 81.84 189.76 77.50
  C 188.51 70.52 194.10 67.39 199.87 65.89
  Q 204.76 64.62 209.39 63.45
  A 0.50 0.49 -20.3 0 0 209.72 62.75
  Q 208.52 60.29 206.00 60.09
  Q 201.59 59.75 200.38 62.07
  A 2.56 2.56 0.0 0 1 197.51 63.37
  L 191.78 61.99
  A 1.67 1.66 20.5 0 1 190.69 59.61
  Q 194.01 53.24 201.96 52.11
  C 208.45 51.18 216.70 52.62 219.34 59.32
  Q 220.20 61.49 220.17 66.77
  Q 220.10 81.34 220.13 84.75
  A 1.01 1.01 0.0 0 1 219.12 85.77
  L 211.43 85.83
  A 2.07 2.05 -28.4 0 1 210.31 85.50
  Q 209.78 85.15 209.92 83.71
  A 0.37 0.36 -14.9 0 0 209.34 83.38
  Z
  M 209.27 70.46
  C 206.74 71.09 197.18 72.91 200.78 77.01
  C 203.05 79.60 206.96 77.70 209.28 75.96
  A 1.07 1.05 -18.6 0 0 209.71 75.11
  L 209.71 70.80
  A 0.35 0.35 0.0 0 0 209.27 70.46
  Z"
/>
<path fill="#000000" d="
  M 145.51 55.93
  C 146.76 54.96 147.79 53.76 149.39 53.13
  Q 157.53 49.93 163.43 56.20
  A 0.50 0.50 0.0 0 0 164.13 56.22
  C 172.41 48.68 186.60 51.39 186.68 64.25
  Q 186.74 73.27 186.68 84.94
  A 0.88 0.87 -0.0 0 1 185.80 85.81
  L 177.32 85.81
  A 1.22 1.22 0.0 0 1 176.10 84.58
  Q 176.17 76.35 176.12 66.37
  Q 176.12 65.08 175.13 63.23
  A 1.96 1.90 1.7 0 0 174.38 62.46
  Q 169.70 59.76 166.30 64.58
  A 1.52 1.50 -28.0 0 0 166.03 65.44
  L 166.03 84.56
  A 1.25 1.25 0.0 0 1 164.78 85.81
  L 156.44 85.81
  A 1.07 1.06 0.3 0 1 155.37 84.74
  Q 155.39 73.86 155.34 66.47
  C 155.30 60.56 147.81 59.92 145.30 64.86
  A 2.01 1.98 -31.8 0 0 145.08 65.77
  L 145.08 84.70
  A 1.13 1.13 0.0 0 1 143.95 85.83
  L 135.57 85.83
  A 1.07 1.06 -90.0 0 1 134.51 84.76
  L 134.51 53.76
  A 0.91 0.90 -90.0 0 1 135.41 52.85
  L 144.43 52.85
  A 0.64 0.63 -0.0 0 1 145.07 53.48
  L 145.07 55.71
  A 0.28 0.27 71.3 0 0 145.51 55.93
  Z"
/>
<path fill="#000000" d="
  M 265.34 72.41
  Q 266.39 75.92 267.79 76.76
  Q 274.36 80.74 279.77 75.22
  A 1.25 1.24 -52.6 0 1 281.28 75.01
  L 286.73 78.16
  A 1.12 1.12 0.0 0 1 287.04 79.83
  Q 284.37 83.12 282.70 83.98
  Q 274.14 88.42 265.03 85.05
  C 255.52 81.55 252.60 70.51 256.24 61.73
  C 261.78 48.33 282.79 48.51 286.98 63.00
  Q 288.13 66.98 288.03 70.58
  A 1.20 1.20 0.0 0 1 286.83 71.75
  L 265.84 71.75
  A 0.52 0.51 -8.3 0 0 265.34 72.41
  Z
  M 265.73 65.49
  L 277.09 65.45
  A 0.16 0.16 0.0 0 0 277.25 65.29
  L 277.25 65.19
  A 5.58 5.24 -0.2 0 0 271.65 59.97
  L 271.13 59.97
  A 5.58 5.24 -0.2 0 0 265.57 65.23
  L 265.57 65.33
  A 0.16 0.16 0.0 0 0 265.73 65.49
  Z"
/>
<rect fill="#a439e1" x="-5.31" y="-16.47" transform="translate(82.55,69.30) rotate(26.8)" width="10.62" height="32.94" rx="1.16"/>
<path fill="#4e22b7" d="
  M 103.08 74.00
  Q 101.20 66.75 95.06 59.88
  L 96.37 53.25
  A 1.02 1.02 0.0 0 1 97.56 52.45
  L 105.91 54.08
  A 1.02 1.02 0.0 0 1 106.71 55.27
  L 103.08 74.00
  Z"
/>
<rect fill="#4e22b7" x="-5.27" y="-16.40" transform="translate(113.35,69.25) rotate(0.1)" width="10.54" height="32.80" rx="1.10"/>
<path fill="#a439e1" d="
  M 95.06 59.88
  Q 101.20 66.75 103.08 74.00
  L 100.88 85.22
  A 1.07 1.07 0.0 0 1 99.63 86.06
  L 91.38 84.45
  A 1.17 1.17 0.0 0 1 90.46 83.07
  L 95.06 59.88
  Z"
/>
<path fill="#ffffff" d="
  M 265.73 65.49
  A 0.16 0.16 0.0 0 1 265.57 65.33
  L 265.57 65.23
  A 5.58 5.24 -0.2 0 1 271.13 59.97
  L 271.65 59.97
  A 5.58 5.24 -0.2 0 1 277.25 65.19
  L 277.25 65.29
  A 0.16 0.16 0.0 0 1 277.09 65.45
  L 265.73 65.49
  Z"
/>
<path fill="#ffffff" d="
  M 209.27 70.46
  A 0.35 0.35 0.0 0 1 209.71 70.80
  L 209.71 75.11
  A 1.07 1.05 -18.6 0 1 209.28 75.96
  C 206.96 77.70 203.05 79.60 200.78 77.01
  C 197.18 72.91 206.74 71.09 209.27 70.46
  Z"
/>
</svg>
