<?xml version="1.0" encoding="UTF-8" standalone="no"?>
<!DOCTYPE svg PUBLIC "-//W3C//DTD SVG 1.1//EN" "http://www.w3.org/Graphics/SVG/1.1/DTD/svg11.dtd">
<svg xmlns="http://www.w3.org/2000/svg" version="1.1" viewBox="0.00 0.00 355.00 142.00">
<g stroke-width="2.00" fill="none" stroke-linecap="butt">
<path stroke="#f5a5b8" vector-effect="non-scaling-stroke" d="
  M 136.34 97.91
  Q 138.27 103.69 142.81 106.90
  C 156.39 116.50 174.21 103.00 168.62 87.20
  C 165.11 77.28 153.36 73.02 144.21 78.24
  Q 138.63 81.42 136.27 88.17
  A 0.87 0.86 -83.5 0 1 135.55 88.75
  C 129.31 89.47 125.83 85.74 124.91 79.87
  C 124.11 74.73 123.15 71.84 119.56 67.89
  A 0.65 0.64 45.0 0 1 119.55 67.02
  C 123.40 62.69 124.22 59.57 125.02 54.67
  C 125.85 49.61 128.23 46.36 133.77 46.21
  Q 141.64 45.98 152.61 46.15
  A 0.87 0.86 -7.7 0 1 153.43 46.77
  Q 155.93 54.98 164.17 57.96
  C 174.39 61.66 185.97 54.38 186.61 43.12
  C 187.76 22.63 159.33 17.82 153.28 37.33
  A 0.54 0.54 0.0 0 1 152.77 37.70
  Q 144.07 37.67 139.40 37.56
  C 129.45 37.33 122.45 38.87 118.12 47.64
  C 116.72 50.48 116.68 54.82 115.72 57.47
  C 113.48 63.67 108.38 63.25 101.88 63.20
  A 1.15 1.14 74.4 0 1 100.93 62.66
  Q 100.51 61.98 99.95 60.44
  C 97.94 54.96 91.69 50.86 85.43 50.55
  C 77.75 50.17 70.54 54.76 68.13 62.52
  A 0.96 0.95 -81.3 0 1 67.22 63.19
  L 59.03 63.20
  A 0.86 0.85 81.1 0 1 58.22 62.60
  C 53.94 49.53 37.28 46.02 28.57 56.88
  C 18.31 69.65 30.64 88.05 46.20 83.90
  Q 54.99 81.55 58.32 72.18
  A 0.77 0.77 0.0 0 1 59.05 71.66
  L 67.08 71.66
  A 1.11 1.10 79.6 0 1 68.11 72.38
  Q 72.06 82.65 81.76 84.17
  C 90.53 85.54 98.02 80.65 100.85 72.26
  A 0.82 0.81 6.9 0 1 101.57 71.70
  Q 103.74 71.55 107.98 71.75
  C 117.77 72.22 115.43 82.00 118.45 87.84
  C 121.29 93.33 126.68 97.13 133.10 97.16
  Q 134.70 97.16 135.46 97.22
  A 1.01 1.00 83.0 0 1 136.34 97.91"
/>
<path stroke="#888997" vector-effect="non-scaling-stroke" d="
  M 280.43 85.16
  C 287.73 85.18 295.77 82.05 296.35 73.58
  Q 296.90 65.58 289.37 61.88
  A 0.41 0.41 0.0 0 1 289.35 61.16
  Q 295.81 57.37 294.79 50.50
  C 293.73 43.33 286.99 40.57 280.50 40.56
  C 274.01 40.55 267.27 43.29 266.18 50.46
  Q 265.14 57.32 271.59 61.13
  A 0.41 0.41 0.0 0 1 271.57 61.85
  Q 264.03 65.53 264.55 73.53
  C 265.10 82.00 273.14 85.15 280.43 85.16"
/>
<path stroke="#888997" vector-effect="non-scaling-stroke" d="
  M 253.73 84.35
  A 0.23 0.23 0.0 0 0 253.96 84.12
  Q 254.25 69.70 253.85 61.97
  C 253.62 57.56 251.24 53.08 246.77 51.20
  Q 237.71 47.41 230.81 54.54
  A 0.51 0.51 0.0 0 1 229.93 54.20
  L 229.93 51.64
  A 0.91 0.90 89.8 0 0 229.02 50.74
  L 222.42 50.75
  A 0.71 0.70 89.8 0 0 221.72 51.47
  L 221.81 84.10
  A 0.31 0.30 89.8 0 0 222.11 84.41
  L 230.02 84.39
  A 0.26 0.26 0.0 0 0 230.28 84.13
  Q 230.29 73.89 230.26 66.75
  C 230.23 60.92 233.52 56.65 239.56 57.55
  Q 243.60 58.16 245.29 63.15
  A 3.04 2.98 -55.2 0 1 245.45 64.12
  L 245.51 84.13
  A 0.24 0.24 0.0 0 0 245.75 84.37
  L 253.73 84.35"
/>
<path stroke="#888997" vector-effect="non-scaling-stroke" d="
  M 338.84 84.39
  A 0.23 0.23 0.0 0 0 339.07 84.16
  Q 339.40 69.75 339.02 62.03
  C 338.80 57.62 336.43 53.13 331.97 51.24
  Q 322.93 47.43 316.01 54.54
  A 0.51 0.50 -22.9 0 1 315.14 54.19
  L 315.14 51.64
  A 0.91 0.90 -90.0 0 0 314.24 50.73
  L 307.64 50.73
  A 0.71 0.70 -90.0 0 0 306.94 51.44
  L 306.94 84.05
  A 0.31 0.30 -90.0 0 0 307.24 84.36
  L 315.14 84.36
  A 0.26 0.26 0.0 0 0 315.40 84.10
  Q 315.44 73.87 315.43 66.74
  C 315.42 60.91 318.72 56.65 324.75 57.57
  Q 328.79 58.19 330.46 63.18
  A 3.04 2.98 -55.0 0 1 330.62 64.15
  L 330.62 84.15
  A 0.24 0.24 0.0 0 0 330.86 84.39
  L 338.84 84.39"
/>
<path stroke="#f5a5b8" vector-effect="non-scaling-stroke" d="
  M 178.21 41.89
  A 8.53 8.53 0.0 0 0 169.68 33.36
  A 8.53 8.53 0.0 0 0 161.15 41.89
  A 8.53 8.53 0.0 0 0 169.68 50.42
  A 8.53 8.53 0.0 0 0 178.21 41.89"
/>
<path stroke="#f5a5b8" vector-effect="non-scaling-stroke" d="
  M 50.41 67.44
  A 8.53 8.53 0.0 0 0 41.88 58.91
  A 8.53 8.53 0.0 0 0 33.35 67.44
  A 8.53 8.53 0.0 0 0 41.88 75.97
  A 8.53 8.53 0.0 0 0 50.41 67.44"
/>
<path stroke="#f5a5b8" vector-effect="non-scaling-stroke" d="
  M 93.02 67.44
  A 8.53 8.53 0.0 0 0 84.49 58.91
  A 8.53 8.53 0.0 0 0 75.96 67.44
  A 8.53 8.53 0.0 0 0 84.49 75.97
  A 8.53 8.53 0.0 0 0 93.02 67.44"
/>
<path stroke="#f5a5b8" vector-effect="non-scaling-stroke" d="
  M 161.17 93.01
  A 8.52 8.52 0.0 0 0 152.65 84.49
  A 8.52 8.52 0.0 0 0 144.13 93.01
  A 8.52 8.52 0.0 0 0 152.65 101.53
  A 8.52 8.52 0.0 0 0 161.17 93.01"
/>
<path stroke="#888997" vector-effect="non-scaling-stroke" d="
  M 274.3661 51.9056
  A 6.11 5.90 -174.7 0 0 279.9050 58.3448
  A 6.11 5.90 -174.7 0 0 286.5339 53.0344
  A 6.11 5.90 -174.7 0 0 280.9950 46.5952
  A 6.11 5.90 -174.7 0 0 274.3661 51.9056"
/>
<path stroke="#888997" vector-effect="non-scaling-stroke" d="
  M 273.3627 71.2185
  A 7.11 6.89 -174.5 0 0 279.7796 78.7583
  A 7.11 6.89 -174.5 0 0 287.5173 72.5815
  A 7.11 6.89 -174.5 0 0 281.1004 65.0417
  A 7.11 6.89 -174.5 0 0 273.3627 71.2185"
/>
</g>
<path fill="#ffffff" d="
  M 355.00 0.00
  L 355.00 142.00
  L 0.00 142.00
  L 0.00 0.00
  L 355.00 0.00
  Z
  M 136.34 97.91
  Q 138.27 103.69 142.81 106.90
  C 156.39 116.50 174.21 103.00 168.62 87.20
  C 165.11 77.28 153.36 73.02 144.21 78.24
  Q 138.63 81.42 136.27 88.17
  A 0.87 0.86 -83.5 0 1 135.55 88.75
  C 129.31 89.47 125.83 85.74 124.91 79.87
  C 124.11 74.73 123.15 71.84 119.56 67.89
  A 0.65 0.64 45.0 0 1 119.55 67.02
  C 123.40 62.69 124.22 59.57 125.02 54.67
  C 125.85 49.61 128.23 46.36 133.77 46.21
  Q 141.64 45.98 152.61 46.15
  A 0.87 0.86 -7.7 0 1 153.43 46.77
  Q 155.93 54.98 164.17 57.96
  C 174.39 61.66 185.97 54.38 186.61 43.12
  C 187.76 22.63 159.33 17.82 153.28 37.33
  A 0.54 0.54 0.0 0 1 152.77 37.70
  Q 144.07 37.67 139.40 37.56
  C 129.45 37.33 122.45 38.87 118.12 47.64
  C 116.72 50.48 116.68 54.82 115.72 57.47
  C 113.48 63.67 108.38 63.25 101.88 63.20
  A 1.15 1.14 74.4 0 1 100.93 62.66
  Q 100.51 61.98 99.95 60.44
  C 97.94 54.96 91.69 50.86 85.43 50.55
  C 77.75 50.17 70.54 54.76 68.13 62.52
  A 0.96 0.95 -81.3 0 1 67.22 63.19
  L 59.03 63.20
  A 0.86 0.85 81.1 0 1 58.22 62.60
  C 53.94 49.53 37.28 46.02 28.57 56.88
  C 18.31 69.65 30.64 88.05 46.20 83.90
  Q 54.99 81.55 58.32 72.18
  A 0.77 0.77 0.0 0 1 59.05 71.66
  L 67.08 71.66
  A 1.11 1.10 79.6 0 1 68.11 72.38
  Q 72.06 82.65 81.76 84.17
  C 90.53 85.54 98.02 80.65 100.85 72.26
  A 0.82 0.81 6.9 0 1 101.57 71.70
  Q 103.74 71.55 107.98 71.75
  C 117.77 72.22 115.43 82.00 118.45 87.84
  C 121.29 93.33 126.68 97.13 133.10 97.16
  Q 134.70 97.16 135.46 97.22
  A 1.01 1.00 83.0 0 1 136.34 97.91
  Z
  M 280.43 85.16
  C 287.73 85.18 295.77 82.05 296.35 73.58
  Q 296.90 65.58 289.37 61.88
  A 0.41 0.41 0.0 0 1 289.35 61.16
  Q 295.81 57.37 294.79 50.50
  C 293.73 43.33 286.99 40.57 280.50 40.56
  C 274.01 40.55 267.27 43.29 266.18 50.46
  Q 265.14 57.32 271.59 61.13
  A 0.41 0.41 0.0 0 1 271.57 61.85
  Q 264.03 65.53 264.55 73.53
  C 265.10 82.00 273.14 85.15 280.43 85.16
  Z
  M 253.73 84.35
  A 0.23 0.23 0.0 0 0 253.96 84.12
  Q 254.25 69.70 253.85 61.97
  C 253.62 57.56 251.24 53.08 246.77 51.20
  Q 237.71 47.41 230.81 54.54
  A 0.51 0.51 0.0 0 1 229.93 54.20
  L 229.93 51.64
  A 0.91 0.90 89.8 0 0 229.02 50.74
  L 222.42 50.75
  A 0.71 0.70 89.8 0 0 221.72 51.47
  L 221.81 84.10
  A 0.31 0.30 89.8 0 0 222.11 84.41
  L 230.02 84.39
  A 0.26 0.26 0.0 0 0 230.28 84.13
  Q 230.29 73.89 230.26 66.75
  C 230.23 60.92 233.52 56.65 239.56 57.55
  Q 243.60 58.16 245.29 63.15
  A 3.04 2.98 -55.2 0 1 245.45 64.12
  L 245.51 84.13
  A 0.24 0.24 0.0 0 0 245.75 84.37
  L 253.73 84.35
  Z
  M 338.84 84.39
  A 0.23 0.23 0.0 0 0 339.07 84.16
  Q 339.40 69.75 339.02 62.03
  C 338.80 57.62 336.43 53.13 331.97 51.24
  Q 322.93 47.43 316.01 54.54
  A 0.51 0.50 -22.9 0 1 315.14 54.19
  L 315.14 51.64
  A 0.91 0.90 -90.0 0 0 314.24 50.73
  L 307.64 50.73
  A 0.71 0.70 -90.0 0 0 306.94 51.44
  L 306.94 84.05
  A 0.31 0.30 -90.0 0 0 307.24 84.36
  L 315.14 84.36
  A 0.26 0.26 0.0 0 0 315.40 84.10
  Q 315.44 73.87 315.43 66.74
  C 315.42 60.91 318.72 56.65 324.75 57.57
  Q 328.79 58.19 330.46 63.18
  A 3.04 2.98 -55.0 0 1 330.62 64.15
  L 330.62 84.15
  A 0.24 0.24 0.0 0 0 330.86 84.39
  L 338.84 84.39
  Z"
/>
<path fill="#ea4b71" d="
  M 135.46 97.22
  Q 134.70 97.16 133.10 97.16
  C 126.68 97.13 121.29 93.33 118.45 87.84
  C 115.43 82.00 117.77 72.22 107.98 71.75
  Q 103.74 71.55 101.57 71.70
  A 0.82 0.81 6.9 0 0 100.85 72.26
  C 98.02 80.65 90.53 85.54 81.76 84.17
  Q 72.06 82.65 68.11 72.38
  A 1.11 1.10 79.6 0 0 67.08 71.66
  L 59.05 71.66
  A 0.77 0.77 0.0 0 0 58.32 72.18
  Q 54.99 81.55 46.20 83.90
  C 30.64 88.05 18.31 69.65 28.57 56.88
  C 37.28 46.02 53.94 49.53 58.22 62.60
  A 0.86 0.85 81.1 0 0 59.03 63.20
  L 67.22 63.19
  A 0.96 0.95 -81.3 0 0 68.13 62.52
  C 70.54 54.76 77.75 50.17 85.43 50.55
  C 91.69 50.86 97.94 54.96 99.95 60.44
  Q 100.51 61.98 100.93 62.66
  A 1.15 1.14 74.4 0 0 101.88 63.20
  C 108.38 63.25 113.48 63.67 115.72 57.47
  C 116.68 54.82 116.72 50.48 118.12 47.64
  C 122.45 38.87 129.45 37.33 139.40 37.56
  Q 144.07 37.67 152.77 37.70
  A 0.54 0.54 0.0 0 0 153.28 37.33
  C 159.33 17.82 187.76 22.63 186.61 43.12
  C 185.97 54.38 174.39 61.66 164.17 57.96
  Q 155.93 54.98 153.43 46.77
  A 0.87 0.86 -7.7 0 0 152.61 46.15
  Q 141.64 45.98 133.77 46.21
  C 128.23 46.36 125.85 49.61 125.02 54.67
  C 124.22 59.57 123.40 62.69 119.55 67.02
  A 0.65 0.64 45.0 0 0 119.56 67.89
  C 123.15 71.84 124.11 74.73 124.91 79.87
  C 125.83 85.74 129.31 89.47 135.55 88.75
  A 0.87 0.86 -83.5 0 0 136.27 88.17
  Q 138.63 81.42 144.21 78.24
  C 153.36 73.02 165.11 77.28 168.62 87.20
  C 174.21 103.00 156.39 116.50 142.81 106.90
  Q 138.27 103.69 136.34 97.91
  A 1.01 1.00 83.0 0 0 135.46 97.22
  Z
  M 178.21 41.89
  A 8.53 8.53 0.0 0 0 169.68 33.36
  A 8.53 8.53 0.0 0 0 161.15 41.89
  A 8.53 8.53 0.0 0 0 169.68 50.42
  A 8.53 8.53 0.0 0 0 178.21 41.89
  Z
  M 50.41 67.44
  A 8.53 8.53 0.0 0 0 41.88 58.91
  A 8.53 8.53 0.0 0 0 33.35 67.44
  A 8.53 8.53 0.0 0 0 41.88 75.97
  A 8.53 8.53 0.0 0 0 50.41 67.44
  Z
  M 93.02 67.44
  A 8.53 8.53 0.0 0 0 84.49 58.91
  A 8.53 8.53 0.0 0 0 75.96 67.44
  A 8.53 8.53 0.0 0 0 84.49 75.97
  A 8.53 8.53 0.0 0 0 93.02 67.44
  Z
  M 161.17 93.01
  A 8.52 8.52 0.0 0 0 152.65 84.49
  A 8.52 8.52 0.0 0 0 144.13 93.01
  A 8.52 8.52 0.0 0 0 152.65 101.53
  A 8.52 8.52 0.0 0 0 161.17 93.01
  Z"
/>
<circle fill="#ffffff" cx="169.68" cy="41.89" r="8.53"/>
<path fill="#10122f" d="
  M 280.50 40.56
  C 286.99 40.57 293.73 43.33 294.79 50.50
  Q 295.81 57.37 289.35 61.16
  A 0.41 0.41 0.0 0 0 289.37 61.88
  Q 296.90 65.58 296.35 73.58
  C 295.77 82.05 287.73 85.18 280.43 85.16
  C 273.14 85.15 265.10 82.00 264.55 73.53
  Q 264.03 65.53 271.57 61.85
  A 0.41 0.41 0.0 0 0 271.59 61.13
  Q 265.14 57.32 266.18 50.46
  C 267.27 43.29 274.01 40.55 280.50 40.56
  Z
  M 274.3661 51.9056
  A 6.11 5.90 -174.7 0 0 279.9050 58.3448
  A 6.11 5.90 -174.7 0 0 286.5339 53.0344
  A 6.11 5.90 -174.7 0 0 280.9950 46.5952
  A 6.11 5.90 -174.7 0 0 274.3661 51.9056
  Z
  M 273.3627 71.2185
  A 7.11 6.89 -174.5 0 0 279.7796 78.7583
  A 7.11 6.89 -174.5 0 0 287.5173 72.5815
  A 7.11 6.89 -174.5 0 0 281.1004 65.0417
  A 7.11 6.89 -174.5 0 0 273.3627 71.2185
  Z"
/>
<ellipse fill="#ffffff" cx="0.00" cy="0.00" transform="translate(280.45,52.47) rotate(-174.7)" rx="6.11" ry="5.90"/>
<path fill="#10122f" d="
  M 253.73 84.35
  L 245.75 84.37
  A 0.24 0.24 0.0 0 1 245.51 84.13
  L 245.45 64.12
  A 3.04 2.98 -55.2 0 0 245.29 63.15
  Q 243.60 58.16 239.56 57.55
  C 233.52 56.65 230.23 60.92 230.26 66.75
  Q 230.29 73.89 230.28 84.13
  A 0.26 0.26 0.0 0 1 230.02 84.39
  L 222.11 84.41
  A 0.31 0.30 89.8 0 1 221.81 84.10
  L 221.72 51.47
  A 0.71 0.70 89.8 0 1 222.42 50.75
  L 229.02 50.74
  A 0.91 0.90 89.8 0 1 229.93 51.64
  L 229.93 54.20
  A 0.51 0.51 0.0 0 0 230.81 54.54
  Q 237.71 47.41 246.77 51.20
  C 251.24 53.08 253.62 57.56 253.85 61.97
  Q 254.25 69.70 253.96 84.12
  A 0.23 0.23 0.0 0 1 253.73 84.35
  Z"
/>
<path fill="#10122f" d="
  M 338.84 84.39
  L 330.86 84.39
  A 0.24 0.24 0.0 0 1 330.62 84.15
  L 330.62 64.15
  A 3.04 2.98 -55.0 0 0 330.46 63.18
  Q 328.79 58.19 324.75 57.57
  C 318.72 56.65 315.42 60.91 315.43 66.74
  Q 315.44 73.87 315.40 84.10
  A 0.26 0.26 0.0 0 1 315.14 84.36
  L 307.24 84.36
  A 0.31 0.30 90.0 0 1 306.94 84.05
  L 306.94 51.44
  A 0.71 0.70 -90.0 0 1 307.64 50.73
  L 314.24 50.73
  A 0.91 0.90 -90.0 0 1 315.14 51.64
  L 315.14 54.19
  A 0.51 0.50 -22.9 0 0 316.01 54.54
  Q 322.93 47.43 331.97 51.24
  C 336.43 53.13 338.80 57.62 339.02 62.03
  Q 339.40 69.75 339.07 84.16
  A 0.23 0.23 0.0 0 1 338.84 84.39
  Z"
/>
<circle fill="#ffffff" cx="41.88" cy="67.44" r="8.53"/>
<circle fill="#ffffff" cx="84.49" cy="67.44" r="8.53"/>
<ellipse fill="#ffffff" cx="0.00" cy="0.00" transform="translate(280.44,71.90) rotate(-174.5)" rx="7.11" ry="6.89"/>
<circle fill="#ffffff" cx="152.65" cy="93.01" r="8.52"/>
</svg>
