<?xml version="1.0" encoding="UTF-8" standalone="no"?>
<!DOCTYPE svg PUBLIC "-//W3C//DTD SVG 1.1//EN" "http://www.w3.org/Graphics/SVG/1.1/DTD/svg11.dtd">
<svg xmlns="http://www.w3.org/2000/svg" version="1.1" viewBox="0.00 0.00 225.00 225.00">
<g stroke-width="2.00" fill="none" stroke-linecap="butt">
<path stroke="#87ccf0" vector-effect="non-scaling-stroke" d="
  M 101.59 111.18
  L 93.03 111.18
  A 0.41 0.41 0.0 0 0 92.68 111.38
  L 88.79 118.11
  A 0.09 0.08 -75.0 0 0 88.86 118.24
  L 105.90 118.24
  A 0.87 0.85 74.7 0 1 106.64 118.67
  L 111.02 126.26
  A 0.78 0.76 -14.6 0 0 111.69 126.64
  L 122.73 126.64
  A 0.30 0.29 -15.6 0 0 122.99 126.19
  Q 114.26 111.83 102.12 91.62
  Q 101.71 90.93 100.45 88.98
  C 98.83 86.47 95.91 85.78 93.42 87.24
  Q 92.14 87.99 90.37 91.02
  Q 88.04 95.03 74.20 117.95
  A 0.36 0.36 0.0 0 0 74.27 118.40
  L 81.22 124.98
  A 0.30 0.30 0.0 0 0 81.69 124.91
  L 95.37 101.21
  A 0.50 0.50 0.0 0 1 96.23 101.21
  L 101.79 110.83
  A 0.24 0.23 75.4 0 1 101.59 111.18"
/>
<path stroke="#87ccf0" vector-effect="non-scaling-stroke" d="
  M 123.20 122.62
  L 123.20 103.62
  A 0.29 0.29 0.0 0 1 123.70 103.41
  Q 134.30 114.11 144.92 124.68
  C 149.86 129.59 154.78 126.90 154.72 120.27
  Q 154.65 113.15 154.71 86.97
  A 0.30 0.30 0.0 0 0 154.41 86.67
  L 145.28 86.67
  A 0.34 0.34 0.0 0 0 144.94 87.01
  L 144.94 109.67
  A 0.28 0.28 0.0 0 1 144.46 109.87
  Q 133.95 99.56 122.00 87.78
  C 120.21 86.01 116.49 85.93 114.79 88.23
  Q 113.65 89.77 113.61 90.65
  Q 113.44 94.41 113.56 106.40
  A 2.01 1.96 30.3 0 0 113.82 107.34
  L 122.72 122.75
  A 0.26 0.26 0.0 0 0 123.20 122.62"
/>
<path stroke="#87ccf0" vector-effect="non-scaling-stroke" d="
  M 41.66 106.79
  Q 41.66 106.83 41.65 106.87
  A 0.21 0.02 -82.5 0 1 41.61 107.04
  Q 38.62 109.87 21.18 126.22
  A 0.26 0.25 23.2 0 0 21.36 126.66
  L 36.99 126.66
  A 3.07 3.05 -66.2 0 0 39.06 125.85
  Q 42.28 122.91 59.01 107.05
  C 59.05 107.01 59.06 106.87 59.06 106.82
  C 59.06 106.78 59.05 106.64 59.01 106.60
  Q 42.34 90.68 39.13 87.73
  A 3.07 3.05 66.4 0 0 37.06 86.91
  L 21.43 86.86
  A 0.26 0.25 -22.9 0 0 21.25 87.30
  Q 38.63 103.71 41.61 106.55
  A 0.21 0.02 82.7 0 1 41.65 106.72
  Q 41.66 106.76 41.66 106.79"
/>
<path stroke="#87ccf0" vector-effect="non-scaling-stroke" d="
  M 203.7346 105.0972
  A 18.24 18.24 0.0 0 0 185.4310 86.9210
  L 174.4511 86.9593
  A 18.24 18.24 0.0 0 0 156.2749 105.2628
  L 156.2854 108.2828
  A 18.24 18.24 0.0 0 0 174.5890 126.4590
  L 185.5689 126.4207
  A 18.24 18.24 0.0 0 0 203.7451 108.1172
  L 203.7346 105.0972"
/>
<path stroke="#82b0de" vector-effect="non-scaling-stroke" d="
  M 60.36 105.36
  A 0.33 0.33 0.0 0 0 60.82 105.36
  L 79.78 87.48
  A 0.33 0.33 0.0 0 0 79.55 86.91
  L 63.07 86.91
  A 0.33 0.33 0.0 0 0 62.84 87.00
  L 52.14 97.10
  A 0.33 0.33 0.0 0 0 52.14 97.58
  L 60.36 105.36"
/>
<path stroke="#82b0de" vector-effect="non-scaling-stroke" d="
  M 52.16 115.94
  A 0.34 0.34 0.0 0 0 52.16 116.44
  L 62.87 126.58
  A 0.34 0.34 0.0 0 0 63.11 126.67
  L 79.56 126.67
  A 0.34 0.34 0.0 0 0 79.79 126.08
  L 60.86 108.17
  A 0.34 0.34 0.0 0 0 60.40 108.17
  L 52.16 115.94"
/>
<path stroke="#87ccf0" vector-effect="non-scaling-stroke" d="
  M 193.8063 106.0177
  A 9.27 9.27 0.0 0 0 184.4878 96.7964
  L 175.4080 96.8439
  A 9.27 9.27 0.0 0 0 166.1866 106.1623
  L 166.1937 107.5223
  A 9.27 9.27 0.0 0 0 175.5122 116.7436
  L 184.5920 116.6961
  A 9.27 9.27 0.0 0 0 193.8134 107.3777
  L 193.8063 106.0177"
/>
</g>
<path fill="#ffffff" d="
  M 225.00 0.00
  L 225.00 225.00
  L 0.00 225.00
  L 0.00 0.00
  L 225.00 0.00
  Z
  M 101.59 111.18
  L 93.03 111.18
  A 0.41 0.41 0.0 0 0 92.68 111.38
  L 88.79 118.11
  A 0.09 0.08 -75.0 0 0 88.86 118.24
  L 105.90 118.24
  A 0.87 0.85 74.7 0 1 106.64 118.67
  L 111.02 126.26
  A 0.78 0.76 -14.6 0 0 111.69 126.64
  L 122.73 126.64
  A 0.30 0.29 -15.6 0 0 122.99 126.19
  Q 114.26 111.83 102.12 91.62
  Q 101.71 90.93 100.45 88.98
  C 98.83 86.47 95.91 85.78 93.42 87.24
  Q 92.14 87.99 90.37 91.02
  Q 88.04 95.03 74.20 117.95
  A 0.36 0.36 0.0 0 0 74.27 118.40
  L 81.22 124.98
  A 0.30 0.30 0.0 0 0 81.69 124.91
  L 95.37 101.21
  A 0.50 0.50 0.0 0 1 96.23 101.21
  L 101.79 110.83
  A 0.24 0.23 75.4 0 1 101.59 111.18
  Z
  M 123.20 122.62
  L 123.20 103.62
  A 0.29 0.29 0.0 0 1 123.70 103.41
  Q 134.30 114.11 144.92 124.68
  C 149.86 129.59 154.78 126.90 154.72 120.27
  Q 154.65 113.15 154.71 86.97
  A 0.30 0.30 0.0 0 0 154.41 86.67
  L 145.28 86.67
  A 0.34 0.34 0.0 0 0 144.94 87.01
  L 144.94 109.67
  A 0.28 0.28 0.0 0 1 144.46 109.87
  Q 133.95 99.56 122.00 87.78
  C 120.21 86.01 116.49 85.93 114.79 88.23
  Q 113.65 89.77 113.61 90.65
  Q 113.44 94.41 113.56 106.40
  A 2.01 1.96 30.3 0 0 113.82 107.34
  L 122.72 122.75
  A 0.26 0.26 0.0 0 0 123.20 122.62
  Z
  M 41.66 106.79
  Q 41.66 106.83 41.65 106.87
  A 0.21 0.02 -82.5 0 1 41.61 107.04
  Q 38.62 109.87 21.18 126.22
  A 0.26 0.25 23.2 0 0 21.36 126.66
  L 36.99 126.66
  A 3.07 3.05 -66.2 0 0 39.06 125.85
  Q 42.28 122.91 59.01 107.05
  C 59.05 107.01 59.06 106.87 59.06 106.82
  C 59.06 106.78 59.05 106.64 59.01 106.60
  Q 42.34 90.68 39.13 87.73
  A 3.07 3.05 66.4 0 0 37.06 86.91
  L 21.43 86.86
  A 0.26 0.25 -22.9 0 0 21.25 87.30
  Q 38.63 103.71 41.61 106.55
  A 0.21 0.02 82.7 0 1 41.65 106.72
  Q 41.66 106.76 41.66 106.79
  Z
  M 203.7346 105.0972
  A 18.24 18.24 0.0 0 0 185.4310 86.9210
  L 174.4511 86.9593
  A 18.24 18.24 0.0 0 0 156.2749 105.2628
  L 156.2854 108.2828
  A 18.24 18.24 0.0 0 0 174.5890 126.4590
  L 185.5689 126.4207
  A 18.24 18.24 0.0 0 0 203.7451 108.1172
  L 203.7346 105.0972
  Z
  M 60.36 105.36
  A 0.33 0.33 0.0 0 0 60.82 105.36
  L 79.78 87.48
  A 0.33 0.33 0.0 0 0 79.55 86.91
  L 63.07 86.91
  A 0.33 0.33 0.0 0 0 62.84 87.00
  L 52.14 97.10
  A 0.33 0.33 0.0 0 0 52.14 97.58
  L 60.36 105.36
  Z
  M 52.16 115.94
  A 0.34 0.34 0.0 0 0 52.16 116.44
  L 62.87 126.58
  A 0.34 0.34 0.0 0 0 63.11 126.67
  L 79.56 126.67
  A 0.34 0.34 0.0 0 0 79.79 126.08
  L 60.86 108.17
  A 0.34 0.34 0.0 0 0 60.40 108.17
  L 52.16 115.94
  Z"
/>
<path fill="#0e99e1" d="
  M 101.59 111.18
  A 0.24 0.23 75.4 0 0 101.79 110.83
  L 96.23 101.21
  A 0.50 0.50 0.0 0 0 95.37 101.21
  L 81.69 124.91
  A 0.30 0.30 0.0 0 1 81.22 124.98
  L 74.27 118.40
  A 0.36 0.36 0.0 0 1 74.20 117.95
  Q 88.04 95.03 90.37 91.02
  Q 92.14 87.99 93.42 87.24
  C 95.91 85.78 98.83 86.47 100.45 88.98
  Q 101.71 90.93 102.12 91.62
  Q 114.26 111.83 122.99 126.19
  A 0.30 0.29 -15.6 0 1 122.73 126.64
  L 111.69 126.64
  A 0.78 0.76 -14.6 0 1 111.02 126.26
  L 106.64 118.67
  A 0.87 0.85 74.7 0 0 105.90 118.24
  L 88.86 118.24
  A 0.09 0.08 -75.0 0 1 88.79 118.11
  L 92.68 111.38
  A 0.41 0.41 0.0 0 1 93.03 111.18
  L 101.59 111.18
  Z"
/>
<path fill="#0e99e1" d="
  M 122.72 122.75
  L 113.82 107.34
  A 2.01 1.96 30.3 0 1 113.56 106.40
  Q 113.44 94.41 113.61 90.65
  Q 113.65 89.77 114.79 88.23
  C 116.49 85.93 120.21 86.01 122.00 87.78
  Q 133.95 99.56 144.46 109.87
  A 0.28 0.28 0.0 0 0 144.94 109.67
  L 144.94 87.01
  A 0.34 0.34 0.0 0 1 145.28 86.67
  L 154.41 86.67
  A 0.30 0.30 0.0 0 1 154.71 86.97
  Q 154.65 113.15 154.72 120.27
  C 154.78 126.90 149.86 129.59 144.92 124.68
  Q 134.30 114.11 123.70 103.41
  A 0.29 0.29 0.0 0 0 123.20 103.62
  L 123.20 122.62
  A 0.26 0.26 0.0 0 1 122.72 122.75
  Z"
/>
<path fill="#0e99e1" d="
  M 59.06 106.82
  C 59.06 106.87 59.05 107.01 59.01 107.05
  Q 42.28 122.91 39.06 125.85
  A 3.07 3.05 -66.2 0 1 36.99 126.66
  L 21.36 126.66
  A 0.26 0.25 23.2 0 1 21.18 126.22
  Q 38.62 109.87 41.61 107.04
  A 0.21 0.02 -82.5 0 0 41.65 106.87
  Q 41.66 106.83 41.66 106.79
  Q 41.66 106.76 41.65 106.72
  A 0.21 0.02 82.7 0 0 41.61 106.55
  Q 38.63 103.71 21.25 87.30
  A 0.26 0.25 -22.9 0 1 21.43 86.86
  L 37.06 86.91
  A 3.07 3.05 66.4 0 1 39.13 87.73
  Q 42.34 90.68 59.01 106.60
  C 59.05 106.64 59.06 106.78 59.06 106.82
  Z"
/>
<path fill="#0e99e1" d="
  M 203.7451 108.1172
  A 18.24 18.24 0.0 0 1 185.5689 126.4207
  L 174.5890 126.4590
  A 18.24 18.24 0.0 0 1 156.2854 108.2828
  L 156.2749 105.2628
  A 18.24 18.24 0.0 0 1 174.4511 86.9593
  L 185.4310 86.9210
  A 18.24 18.24 0.0 0 1 203.7346 105.0972
  L 203.7451 108.1172
  Z
  M 193.8063 106.0177
  A 9.27 9.27 0.0 0 0 184.4878 96.7964
  L 175.4080 96.8439
  A 9.27 9.27 0.0 0 0 166.1866 106.1623
  L 166.1937 107.5223
  A 9.27 9.27 0.0 0 0 175.5122 116.7436
  L 184.5920 116.6961
  A 9.27 9.27 0.0 0 0 193.8134 107.3777
  L 193.8063 106.0177
  Z"
/>
<path fill="#0461bd" d="
  M 60.36 105.36
  L 52.14 97.58
  A 0.33 0.33 0.0 0 1 52.14 97.10
  L 62.84 87.00
  A 0.33 0.33 0.0 0 1 63.07 86.91
  L 79.55 86.91
  A 0.33 0.33 0.0 0 1 79.78 87.48
  L 60.82 105.36
  A 0.33 0.33 0.0 0 1 60.36 105.36
  Z"
/>
<rect fill="#ffffff" x="-13.81" y="-9.95" transform="translate(180.00,106.77) rotate(-0.3)" width="27.62" height="19.90" rx="9.27"/>
<path fill="#0461bd" d="
  M 52.16 115.94
  L 60.40 108.17
  A 0.34 0.34 0.0 0 1 60.86 108.17
  L 79.79 126.08
  A 0.34 0.34 0.0 0 1 79.56 126.67
  L 63.11 126.67
  A 0.34 0.34 0.0 0 1 62.87 126.58
  L 52.16 116.44
  A 0.34 0.34 0.0 0 1 52.16 115.94
  Z"
/>
</svg>
